<?xml version="1.0" encoding="UTF-8"?>
<svg version="1.1" xmlns="http://www.w3.org/2000/svg" width="96" height="96">
<path d="M0 0 C31.68 0 63.36 0 96 0 C96 31.68 96 63.36 96 96 C64.32 96 32.64 96 0 96 C0 64.32 0 32.64 0 0 Z " fill="#000000" transform="translate(0,0)"/>
<path d="M0 0 C31.68 0 63.36 0 96 0 C96 31.68 96 63.36 96 96 C64.32 96 32.64 96 0 96 C0 64.32 0 32.64 0 0 Z M14.6875 18.125 C5.31373472 29.35037324 3.02556788 41.83542872 4 56 C6.20186222 67.71054112 12.94106299 77.5604111 22.56640625 84.5 C34.05387196 91.58055672 45.93735598 93.8920181 59.26171875 91.38671875 C72.33110102 87.50861447 81.8747753 78.84165419 88.3125 67 C93.17213587 56.36302878 93.89828741 43.3723209 90.046875 32.30859375 C88.17630798 28.18357468 85.71186998 24.61117905 83 21 C81.9171875 19.453125 81.9171875 19.453125 80.8125 17.875 C74.25268853 10.27831511 63.73665817 5.61100005 54 4 C38.2716642 3.0013755 25.86845277 6.53940322 14.6875 18.125 Z " fill="#000000" transform="translate(0,0)"/>
<path d="M0 0 C8.00015202 5.69241586 14.15901709 15.22987903 16.6484375 24.765625 C18.69175242 37.75202648 16.36059852 50.11911523 9 61 C1.92131241 70.62701513 -7.26555132 76.55071059 -19 79 C-33.68663742 80.36157368 -45.77198919 77.10768628 -57.1875 67.75 C-65.44686282 60.11460495 -70.30621962 50.48347381 -71.34765625 39.25 C-71.64817255 26.28860145 -68.58243045 14.33275931 -59.73828125 4.48046875 C-42.43300158 -11.90113822 -19.5364016 -13.47219229 0 0 Z M-52.6875 9.375 C-60.52950633 18.27673692 -63.7368319 26.63281371 -63.41015625 38.69140625 C-62.00475082 50.0283434 -55.76426253 58.24012928 -47.1875 65.3125 C-39.09217289 71.00404224 -29.69341784 72.20166337 -20 71 C-9.65912061 68.17290661 -2.33659264 62.50370732 4 54 C9.10329013 44.988664 10.67640307 35.80615168 8.48828125 25.6171875 C7.80978885 23.6170076 7.00659266 21.85552623 6 20 C5.64808594 19.33613281 5.29617187 18.67226563 4.93359375 17.98828125 C-1.04404184 7.63099186 -8.77204703 2.74265099 -20 -1 C-33.29153382 -1.87822079 -42.66189458 0.51516265 -52.6875 9.375 Z " fill="#404040" transform="translate(75,13)"/>
<path d="M0 0 C5.02839605 2.82263124 7.59067393 5.80441511 9.7890625 11.1171875 C10.47614685 15.92677792 9.82194581 19.32871165 7.1875 23.4765625 C3.76182847 27.49550675 -0.56770333 29.66073356 -5.5859375 31.0546875 C-6.8853125 31.085625 -6.8853125 31.085625 -8.2109375 31.1171875 C-10.2109375 29.1171875 -10.2109375 29.1171875 -10.3359375 26.4921875 C-10.2946875 25.7084375 -10.2534375 24.9246875 -10.2109375 24.1171875 C-9.58445312 23.77945313 -8.95796875 23.44171875 -8.3125 23.09375 C-7.49523438 22.64773437 -6.67796875 22.20171875 -5.8359375 21.7421875 C-4.61777344 21.08089844 -4.61777344 21.08089844 -3.375 20.40625 C-1.10279448 19.1727982 -1.10279448 19.1727982 0.7890625 17.1171875 C0.5939162 14.0598954 0.25195853 11.84807597 -1.3984375 9.2421875 C-4.20200301 7.50204339 -5.97763353 7.59985886 -9.2109375 8.1171875 C-12.00291482 10.40901022 -12.00291482 10.40901022 -14.2109375 13.1171875 C-14.8709375 13.7771875 -15.5309375 14.4371875 -16.2109375 15.1171875 C-18.8359375 14.7421875 -18.8359375 14.7421875 -21.2109375 14.1171875 C-21.53639285 9.45232743 -21.19957602 6.78067988 -18.2109375 3.1171875 C-12.48097468 -1.12298498 -6.85300051 -2.73635709 0 0 Z " fill="#404040" transform="translate(54.2109375,24.8828125)"/>
<path d="M0 0 C2.625 0.375 2.625 0.375 5 1 C5.625 3.375 5.625 3.375 6 6 C5.34 6.66 4.68 7.32 4 8 C1.375 7.625 1.375 7.625 -1 7 C-1.625 4.625 -1.625 4.625 -2 2 C-1.34 1.34 -0.68 0.68 0 0 Z " fill="#3F3F3F" transform="translate(46,64)"/>
</svg>
