<?xml version="1.0" encoding="UTF-8"?>
<svg version="1.1" xmlns="http://www.w3.org/2000/svg" width="640" height="688">
<path d="M0 0 C211.2 0 422.4 0 640 0 C640 227.04 640 454.08 640 688 C428.8 688 217.6 688 0 688 C0 460.96 0 233.92 0 0 Z " fill="#FEFEFE" transform="translate(0,0)"/>
<path d="M0 0 C0.87816483 -0.00205263 1.75632966 -0.00410527 2.66110554 -0.0062201 C5.63643108 -0.01192446 8.61171082 -0.01042864 11.5870409 -0.00901413 C13.7286749 -0.0115958 15.87030841 -0.01460841 18.01194125 -0.01801753 C23.92272904 -0.02611411 29.83350471 -0.02787858 35.74429739 -0.028615 C42.10914874 -0.03046096 48.47399374 -0.038006 54.83884144 -0.04475021 C69.49531253 -0.05906295 84.15178115 -0.06486268 98.80825802 -0.06944216 C106.048259 -0.07177653 113.28825919 -0.07537902 120.52825956 -0.07913754 C145.30308712 -0.09197482 170.07791424 -0.10269363 194.85274506 -0.10614014 C196.40863059 -0.10636177 197.96451612 -0.10658355 199.52040165 -0.10680549 C201.08008704 -0.10702613 202.63977243 -0.10724661 204.19945782 -0.10746694 C207.32855554 -0.10790949 210.45765326 -0.10835661 213.58675098 -0.10880661 C214.75050666 -0.1089707 214.75050666 -0.1089707 215.93777254 -0.1091381 C241.09643217 -0.11276903 266.255063 -0.12868953 291.41371159 -0.15199697 C318.00181243 -0.17658372 344.58989679 -0.19031245 371.17800933 -0.19150805 C374.09584543 -0.19167951 377.01368151 -0.19189494 379.9315176 -0.19214249 C380.64999089 -0.19219826 381.36846418 -0.19225402 382.10870938 -0.19231148 C393.67993332 -0.19346298 405.25112774 -0.20449341 416.82234171 -0.21902954 C428.44998522 -0.23338412 440.0775821 -0.23638458 451.705233 -0.22858956 C458.00675546 -0.22467336 464.30817844 -0.22565988 470.60968876 -0.23964691 C476.37533462 -0.25232778 482.14080566 -0.25123962 487.90645108 -0.2390562 C489.99533275 -0.23708908 492.08422656 -0.24022412 494.17309114 -0.24890056 C497.00748924 -0.25993083 499.84126357 -0.25254889 502.67564392 -0.24050903 C503.89859218 -0.25190182 503.89859218 -0.25190182 505.14624646 -0.26352477 C510.92671733 -0.21033968 515.90185928 0.70772316 520.39461231 4.66658401 C523.59595811 8.98288128 524.77598257 11.05399713 524.81355762 16.38801956 C524.82316517 17.48643677 524.83277271 18.58485397 524.84267139 19.71655655 C524.84692127 20.90920624 524.85117115 22.10185593 524.85554981 23.33064651 C524.86124989 24.55419342 524.86694996 25.77774033 524.87282276 27.03836441 C524.88228492 29.63342293 524.88881155 32.22849352 524.89265919 34.82356644 C524.90234219 38.78512617 524.93334581 42.74616227 524.96492481 46.70759964 C524.97145697 49.22777885 524.9767066 51.74796177 524.98054981 54.26814651 C524.99289661 55.45067505 525.00524342 56.63320358 525.01796436 57.85156631 C524.99940855 64.74053499 524.83675418 70.43296189 520.15242481 75.87361526 C514.73136392 79.96764563 510.76412154 80.27750093 504.16339111 80.26564884 C503.28208447 80.26800107 502.40077783 80.2703533 501.49276492 80.27277681 C498.51278484 80.27948186 495.53284822 80.27900814 492.55286121 80.27859879 C490.40552653 80.28189646 488.25819248 80.28562182 486.11085922 80.28974026 C480.18900006 80.29977912 474.26715104 80.30348008 468.34528458 80.30612957 C461.96683547 80.31002698 455.58839442 80.3196056 449.20995045 80.32834244 C434.5255028 80.34718644 419.8410554 80.35736461 405.15659858 80.36580312 C397.90273964 80.37000803 390.64888153 80.37523019 383.39502329 80.38048765 C358.57235396 80.39837755 333.7496844 80.41337479 308.92700958 80.42080784 C307.36841289 80.4212826 305.80981619 80.42175849 304.2512195 80.4222355 C303.47828469 80.42247188 302.70534988 80.42270825 301.90899281 80.42295179 C297.99282235 80.42415301 294.0766519 80.42536845 290.16048145 80.42659378 C289.38330162 80.42683393 288.60612179 80.42707408 287.80539106 80.42732151 C262.59791365 80.43521737 237.39048326 80.45865526 212.18302639 80.49114972 C185.54238737 80.5254291 158.90177586 80.54515717 132.26111442 80.54845208 C129.33797569 80.54886963 126.41483698 80.5493492 123.49169827 80.54987526 C122.7719209 80.54999845 122.05214354 80.55012164 121.31055475 80.55024857 C109.71593096 80.55258283 98.12136168 80.5682552 86.52675733 80.58871711 C74.87796063 80.60894892 63.22924494 80.61413087 51.58043226 80.60494647 C45.2668452 80.60038624 38.95343554 80.60238789 32.63987255 80.62170792 C26.86440659 80.63922927 21.0892489 80.63843199 15.31378017 80.62281062 C13.22023352 80.62041772 11.12666614 80.62484434 9.03315135 80.63663927 C6.19471593 80.65164536 3.35738884 80.64216402 0.51898193 80.62641239 C-0.70988459 80.6417457 -0.70988459 80.6417457 -1.9635767 80.65738878 C-7.22104113 80.59339177 -10.15426892 79.57189586 -14.34757519 76.13142776 C-18.7460207 71.37635153 -19.46010277 67.97085104 -19.52457714 61.63191605 C-19.53741238 60.53042221 -19.55024761 59.42892838 -19.56347179 58.29405594 C-19.57085873 57.10859177 -19.57824566 55.92312759 -19.58585644 54.70174026 C-19.59392818 53.47865158 -19.60199993 52.2555629 -19.61031628 50.99541092 C-19.62414332 48.4081145 -19.63487163 45.82079994 -19.6427412 43.23347855 C-19.65997882 39.27853823 -19.70388219 35.3244285 -19.74796581 31.36970901 C-19.75809086 28.85539224 -19.76660755 26.34106837 -19.77335644 23.82674026 C-19.79086452 22.64532455 -19.80837261 21.46390884 -19.82641125 20.24669266 C-19.80965437 13.90151733 -19.69355707 9.91175964 -15.34757519 5.13142776 C-10.07185107 0.48376604 -6.87715466 -0.01471446 0 0 Z " fill="#2C2C2C" transform="translate(67.3475751876831,559.8685722351074)"/>
<path d="M0 0 C211.2 0 422.4 0 640 0 C640 227.04 640 454.08 640 688 C428.8 688 217.6 688 0 688 C0 460.96 0 233.92 0 0 Z M4.75 5.875 C1.9599645 9.26290025 1.87502502 12.45517742 1.8723495 16.74106538 C1.86933353 17.69887281 1.86631756 18.65668024 1.8632102 19.64351213 C1.86497967 20.69497002 1.86674914 21.74642791 1.86857224 22.82974815 C1.8665196 23.95195771 1.86446697 25.07416726 1.86235213 26.23038316 C1.85665817 30.02382869 1.85814233 33.81723818 1.85955811 37.61068726 C1.85752644 40.34460724 1.85400206 43.07852486 1.8505547 45.81244338 C1.8429677 52.55932438 1.84078129 59.30619747 1.84022565 66.0530823 C1.83931272 74.13180396 1.83264733 82.21051829 1.82587883 90.2892368 C1.80981022 109.81522414 1.80391486 129.34121072 1.79913008 148.86720349 C1.7967953 158.10052076 1.79319281 167.33383742 1.7894347 176.56715421 C1.77659932 208.16178521 1.76587942 239.75641587 1.7624321 271.35104942 C1.76221046 273.33476296 1.76198868 275.3184765 1.76176675 277.30219004 C1.76154611 279.29074091 1.76132562 281.27929178 1.7611053 283.26784265 C1.76066274 287.25733781 1.76021563 291.24683297 1.75976562 295.23632812 C1.75965623 296.22549273 1.75954684 297.21465734 1.75943414 298.23379663 C1.7558019 330.32183582 1.73987549 362.40985243 1.71657526 394.49788298 C1.69199662 428.40835693 1.6782602 462.31881797 1.67706418 496.2293011 C1.67689272 499.9494741 1.67667729 503.6696471 1.67642975 507.3898201 C1.67637398 508.30585833 1.67631821 509.22189656 1.67626075 510.16569352 C1.67510868 524.92632982 1.66407361 539.686943 1.64954269 554.44757149 C1.63519874 569.27426126 1.63192882 584.1009213 1.63998267 598.9276161 C1.64444864 607.74245381 1.64053977 616.55719577 1.62474416 625.37202096 C1.61502508 631.25525923 1.61614288 637.13843011 1.62618039 643.02166771 C1.63159475 646.37700949 1.63056942 649.73201594 1.61967167 653.0873671 C1.60868275 656.69793717 1.61599355 660.30801392 1.6280632 663.91856956 C1.62046801 664.96534512 1.61287282 666.01212068 1.60504746 667.0906167 C1.64418639 672.47543527 1.91343962 676.3766147 5 681 C8.76061404 684.39372487 11.14716039 686.12426093 16.18489099 686.1276505 C17.0693998 686.13066647 17.95390861 686.13368244 18.86522073 686.1367898 C19.84492406 686.13502033 20.82462739 686.13325086 21.83401871 686.13142776 C23.3923086 686.13450672 23.3923086 686.13450672 24.98207909 686.13764787 C28.50403519 686.14335503 32.02595265 686.14185607 35.5479126 686.14044189 C38.08211524 686.1430234 40.61631747 686.14603596 43.15051913 686.1494453 C49.41117618 686.15669265 55.67182093 686.15921914 61.93248168 686.15977435 C69.42763869 686.16068646 76.92278777 686.16734946 84.41794137 686.17412117 C102.53598114 686.1901993 120.65402008 686.19608647 138.7720657 686.20086992 C147.33919096 686.20320402 155.90631555 686.20680646 164.47344029 686.2105653 C193.7861321 686.22340229 223.09882354 686.23412145 252.4115181 686.2375679 C254.25242851 686.23778954 256.09333892 686.23801132 257.93424933 686.23823325 C259.77966757 686.2384539 261.62508581 686.23867438 263.47050405 686.2388947 C267.1728816 686.23933726 270.87525916 686.23978437 274.57763672 686.24023438 C275.49561465 686.24034377 276.41359258 686.24045316 277.35938802 686.24056586 C307.13270726 686.24419744 336.90600218 686.26012054 366.6793121 686.28342474 C398.14005683 686.30800481 429.60078765 686.32173989 461.06154227 686.32293582 C464.51325465 686.32310728 467.96496701 686.32332271 471.41667938 686.32357025 C472.69158939 686.3236539 472.69158939 686.3236539 473.99225516 686.32373925 C487.68741341 686.32489128 501.38254675 686.3359262 515.07769658 686.35045731 C528.83595317 686.36480325 542.59417772 686.36807008 556.35243973 686.36001733 C564.5318395 686.35555208 572.71113608 686.35945732 580.89052235 686.37525584 C586.98988112 686.38611649 593.08912105 686.38139302 599.18848416 686.37048396 C601.66227121 686.36851366 604.13606847 686.37166625 606.60984114 686.38032833 C609.96094845 686.39132387 613.31152487 686.3840017 616.66261673 686.3719368 C617.6329554 686.37953199 618.60329407 686.38712718 619.60303694 686.39495254 C624.82438639 686.35410445 628.49576241 685.94400652 633 683 C636.77418676 678.9197981 638.12421363 675.88999824 638.1276505 670.38198245 C638.13066647 669.42616609 638.13368244 668.47034973 638.1367898 667.48556924 C638.13502033 666.43119849 638.13325086 665.37682774 638.13142776 664.29050636 C638.1334804 663.16915106 638.13553303 662.04779576 638.13764787 660.89245999 C638.14334898 657.09590858 638.1418568 653.2993931 638.14044189 649.50283813 C638.14247283 646.76906851 638.14599735 644.03530126 638.1494453 641.3015331 C638.15703689 634.55117524 638.15921894 627.80082528 638.15977435 621.0504636 C638.16068684 612.96843426 638.1673509 604.88641228 638.17412117 596.8043861 C638.19019461 577.26947386 638.19608573 557.73456238 638.20086992 538.19964472 C638.20320426 528.96290703 638.20680671 519.72616997 638.2105653 510.48943277 C638.22340124 478.88604584 638.23412099 447.28265927 638.2375679 415.67926979 C638.23778954 413.69476162 638.23801132 411.71025345 638.23823325 409.72574528 C638.2384539 407.73638274 638.23867438 405.74702019 638.2388947 403.75765765 C638.23933726 399.76649833 638.23978437 395.77533901 638.24023438 391.78417969 C638.24034377 390.79460144 638.24045316 389.80502318 638.24056586 388.78545771 C638.24419813 356.6837457 638.26012436 324.58205625 638.28342474 292.48035288 C638.30800074 258.55932759 638.32173968 224.6383152 638.32293582 190.71728075 C638.32310728 186.99626755 638.32332271 183.27525437 638.32357025 179.55424118 C638.3236539 178.17986295 638.3236539 178.17986295 638.32373925 176.77771951 C638.32489156 162.01032193 638.33592877 147.24294745 638.35045731 132.47555768 C638.36479791 117.64316213 638.3680731 102.81079629 638.36001733 87.97839572 C638.35554972 79.15890932 638.3594667 70.3395186 638.37525584 61.52004471 C638.38496933 55.63494866 638.38386254 49.74992 638.37381961 43.86482465 C638.36840115 40.50758396 638.36944006 37.15067867 638.38032833 33.7934285 C638.39130328 30.18250793 638.3840168 26.57208189 638.3719368 22.96117592 C638.37953199 21.9114875 638.38712718 20.86179909 638.39495254 19.78030193 C638.34703321 13.20109137 637.40839047 9.79684054 633.0625 4.75 C629.82128277 1.99987629 626.7120456 1.87507875 622.56556135 1.87350017 C621.67630173 1.87074042 620.7870421 1.86798068 619.87083521 1.86513731 C618.89610006 1.86719263 617.92136491 1.86924795 616.91709232 1.87136555 C615.87562511 1.86961251 614.8341579 1.86785947 613.76113108 1.86605331 C610.24235742 1.86137072 606.72362468 1.86386461 603.20484924 1.86628723 C600.66820792 1.8644204 598.13156688 1.86212021 595.5949263 1.85942191 C590.06481095 1.85456643 584.53470813 1.85285177 579.00459099 1.85387802 C570.78120317 1.85540036 562.55782506 1.85124696 554.33443913 1.8460034 C538.79475998 1.83632178 523.25508412 1.83351886 507.71540231 1.83294634 C495.71801745 1.83248721 483.72063388 1.83043101 471.72324944 1.82724571 C468.27274305 1.8263482 464.82223666 1.82545839 461.37173027 1.82457083 C460.51398488 1.82434979 459.6562395 1.82412874 458.77250183 1.82390099 C434.63913699 1.81774505 410.50577261 1.81380061 386.37240696 1.81424427 C385.0070036 1.81426764 385.0070036 1.81426764 383.61401634 1.81429148 C379.00014165 1.81437459 374.38626697 1.81447363 369.77239228 1.81457619 C368.85601973 1.81459613 367.93964718 1.81461608 366.99550577 1.81463663 C365.14237707 1.81467706 363.28924836 1.81471886 361.43611966 1.81476202 C332.59534752 1.81537497 303.75458713 1.80786533 274.91381836 1.79418945 C242.53022048 1.77884003 210.14663031 1.77022253 177.76302856 1.77115268 C174.31220782 1.77122731 170.86138707 1.77127601 167.41056633 1.77130699 C166.13599469 1.77132447 166.13599469 1.77132447 164.83567412 1.77134231 C151.14229467 1.77137312 137.4489254 1.76497847 123.75554898 1.75637473 C110.00203889 1.74791171 96.24854374 1.74689768 82.4950325 1.75348405 C74.31765621 1.75718863 66.14032521 1.75532036 57.96295369 1.74554171 C51.86696549 1.73886606 45.77103117 1.74257028 39.67504238 1.75041493 C37.20133401 1.75196188 34.72762079 1.75008933 32.25391812 1.74455485 C28.90544623 1.73755615 25.55721227 1.74273993 22.20874882 1.75111103 C20.75015784 1.74365876 20.75015784 1.74365876 19.26210037 1.73605594 C13.49730624 1.76676752 9.33028548 2.05809543 4.75 5.875 Z " fill="#D8D8D8" transform="translate(0,0)"/>
<path d="M0 0 C1.19283313 2.38566627 1.12341435 3.82976045 1.12074649 6.49266839 C1.12222511 7.44598123 1.12370373 8.39929407 1.12522715 9.38149518 C1.1217426 10.43820709 1.11825804 11.49491901 1.11466789 12.5836525 C1.11492295 13.70355436 1.115178 14.82345622 1.11544079 15.9772945 C1.11507661 19.77494064 1.10751201 23.57253983 1.10006714 27.37017822 C1.09779584 30.10237059 1.09704805 32.83456287 1.09624207 35.56675601 C1.0936882 41.53036335 1.08744322 47.49395805 1.07883072 53.45755959 C1.06605997 62.32561872 1.05904683 71.19367569 1.05337375 80.06174187 C1.04431981 94.06289082 1.03181809 108.06403406 1.01694842 122.06517797 C0.993379 144.28909292 0.97906307 166.51300636 0.96778178 188.73693061 C0.96341169 197.28183866 0.95877536 205.82674658 0.95417976 214.37165451 C0.95367124 215.32107212 0.95316271 216.27048973 0.95263877 217.24867757 C0.94049844 239.86093602 0.92613478 262.47319283 0.91064453 285.08544922 C0.90963179 286.57004479 0.90963179 286.57004479 0.90859858 288.08463218 C0.89280603 311.17741645 0.87488231 334.27019739 0.85229492 357.36297607 C0.85132365 358.3561561 0.85035238 359.34933613 0.84935168 360.37261252 C0.84150508 368.37801401 0.83358299 376.38341543 0.82564141 384.38881682 C0.79297819 417.37411789 0.77035555 450.35941298 0.75934704 483.34472864 C0.75778221 488.00046682 0.75608781 492.65620495 0.75430679 497.31194305 C0.75395802 498.22827428 0.75360925 499.14460551 0.75324992 500.08870436 C0.74730434 514.85503453 0.7304922 529.62133349 0.7094651 544.38764908 C0.68853077 559.22129898 0.6782519 574.05492475 0.67900907 588.88858971 C0.6791163 597.7078658 0.67076196 606.52704131 0.65047058 615.34629455 C0.63774357 621.23255355 0.63583749 627.11875091 0.64282873 633.00501937 C0.64650018 636.36212918 0.64371042 639.71889889 0.63102923 643.07600954 C0.61811039 646.68849595 0.623503 650.30049866 0.63364983 653.91298294 C0.62548294 654.96033019 0.61731605 656.00767744 0.60890168 657.08676249 C0.64482111 662.42194469 0.76035539 666.52726291 4 671 C9.09853602 675.70722879 13.7988129 675.56312163 20.37420464 675.49219131 C21.94717908 675.49911438 21.94717908 675.49911438 23.55193079 675.50617731 C27.08328462 675.5168068 30.61391622 675.49878561 34.14523315 675.48101807 C36.69541505 675.48276161 39.24559626 675.48626251 41.79577363 675.49137473 C47.34921934 675.49846662 52.90243947 675.4930971 58.45586205 675.4768219 C66.71354681 675.45268863 74.97112341 675.45147803 83.228837 675.45498985 C97.11934566 675.46024666 111.00977823 675.44687528 124.90026474 675.42292023 C138.65536755 675.39925941 152.41043867 675.38385792 166.16556168 675.37950897 C167.44800696 675.37909653 167.44800696 675.37909653 168.75636024 675.37867576 C173.09821417 675.37732245 177.44006813 675.37611691 181.78192212 675.37496826 C212.54246184 675.36656461 243.30296016 675.33960957 274.06347656 675.30175781 C303.94856547 675.26502571 333.83364305 675.2366885 363.71875 675.21972656 C364.63979334 675.21920046 365.56083668 675.21867435 366.50979043 675.21813231 C375.75921038 675.21285827 385.00863041 675.207755 394.25805053 675.20277687 C413.10051126 675.19263177 431.94297125 675.18134676 450.78543091 675.16937256 C451.65179383 675.1688234 452.51815676 675.16827424 453.41077311 675.16770844 C511.27386608 675.13090019 569.13693563 675.0674356 627 675 C627 675.66 627 676.32 627 677 C624.66875013 678.16562493 623.32772609 678.12471634 620.73126066 678.1241985 C619.37645461 678.12756945 619.37645461 678.12756945 617.99427875 678.13100851 C616.99356504 678.12838148 615.99285134 678.12575446 614.96181297 678.12304783 C613.9005067 678.12420157 612.83920043 678.12535532 611.74573336 678.12654402 C608.149189 678.12921443 604.55268837 678.12468603 600.95614624 678.12025452 C598.37444549 678.12069153 595.79274478 678.12156768 593.21104431 678.12284851 C587.56897813 678.12493218 581.92692248 678.12326915 576.28485751 678.11921513 C567.78622751 678.11312853 559.28760391 678.11284395 550.78897211 678.11368043 C536.54873536 678.11492435 522.30850321 678.11162146 508.06826782 678.10557556 C488.81349523 678.09741506 469.55873051 678.09547341 450.30395508 678.09460449 C403.99430245 678.08934794 357.68465114 678.07538692 311.375 678.0625 C207.96125 678.041875 104.5475 678.02125 -2 678 C-2 454.59 -2 231.18 -2 1 C-1.34 0.67 -0.68 0.34 0 0 Z " fill="#D8D8D8" transform="translate(2,10)"/>
<path d="M0 0 C0.8801528 -0.00205263 1.7603056 -0.00410527 2.6671297 -0.0062201 C5.64920792 -0.01192449 8.63124045 -0.01042864 11.61332321 -0.00901413 C13.7597947 -0.0115958 15.90626571 -0.0146084 18.05273604 -0.01801753 C23.97685602 -0.02611411 29.90096389 -0.02787858 35.82508874 -0.028615 C42.20423602 -0.03046095 48.58337696 -0.03800596 54.9625206 -0.04475021 C69.65150821 -0.05906269 84.34049336 -0.06486256 99.02948673 -0.06944216 C106.28510299 -0.07177646 113.54071846 -0.07537893 120.7963341 -0.07913754 C145.62332112 -0.0919745 170.4503077 -0.10269357 195.27729797 -0.10614014 C196.83643519 -0.10636177 198.39557241 -0.10658355 199.95470963 -0.10680549 C201.51765806 -0.10702613 203.0806065 -0.10724661 204.64355493 -0.10746694 C207.7792093 -0.10790949 210.91486367 -0.10835661 214.05051804 -0.10880661 C214.82798075 -0.108916 215.60544347 -0.10902539 216.40646566 -0.1091381 C241.62061685 -0.11276943 266.8347393 -0.12869159 292.04887948 -0.15199697 C318.6941393 -0.1765802 345.33938269 -0.19031228 371.98465419 -0.19150805 C374.90837018 -0.19167951 377.83208617 -0.19189494 380.75580215 -0.19214249 C381.83568795 -0.19222614 381.83568795 -0.19222614 382.93738961 -0.19231148 C394.53484634 -0.19346325 406.13227363 -0.20449597 417.7297204 -0.21902954 C429.38199116 -0.23337956 441.03421537 -0.23638703 452.68649349 -0.22858956 C459.00206882 -0.22467177 465.3175449 -0.2256676 471.63310814 -0.23964691 C477.41042093 -0.25231824 483.18755918 -0.25124815 488.9648715 -0.2390562 C491.05911891 -0.23708741 493.15337841 -0.24023168 495.24760881 -0.24890056 C498.08684135 -0.2599127 500.92544915 -0.25256214 503.7646637 -0.24050903 C504.58419389 -0.24810423 505.40372409 -0.25569942 506.24808854 -0.26352477 C511.94342881 -0.21106682 516.20621104 0.84613723 520.49729538 4.88533401 C521.21465866 5.78058792 521.21465866 5.78058792 521.94651413 6.69392776 C522.43764694 7.29334183 522.92877975 7.89275589 523.43479538 8.51033401 C525.72547103 11.60684995 525.76887716 13.68656719 525.79514694 17.49568558 C525.80475449 18.61735123 525.81436203 19.73901688 525.82426071 20.89467239 C525.82851059 22.11233292 525.83276047 23.32999344 525.83713913 24.58455276 C525.8428392 25.83266739 525.84853928 27.08078201 525.85441208 28.36671829 C525.86387391 31.01309735 525.87076432 33.6593627 525.8742485 36.30574417 C525.87972 39.68621767 525.90371816 43.06628568 525.93222046 46.44663239 C525.95540598 49.68007492 525.95730111 52.91353875 525.96213913 56.14705276 C525.97448593 57.35661636 525.98683273 58.56617996 525.99955368 59.812397 C525.97951783 67.38500815 525.35721006 72.05910415 520.19651413 77.88142776 C515.28322771 82.19553292 511.42938798 82.4206907 505.00631523 82.38869667 C504.12216637 82.39220275 503.23801751 82.39570882 502.32707626 82.39932114 C499.34339988 82.40867746 496.35991687 82.40370093 493.37623215 82.3988533 C491.22390866 82.40258743 489.07158654 82.40718799 486.91926658 82.41258395 C480.98825068 82.42485869 475.057291 82.42454823 469.12626529 82.4221952 C462.73624085 82.42178816 456.3462347 82.4328153 449.95621872 82.44231033 C437.43105224 82.45894556 424.90590517 82.46444688 412.38072862 82.46553509 C402.20352595 82.46645353 392.0263294 82.47056683 381.84912872 82.47693634 C378.92157901 82.47873138 375.99402929 82.480511 373.06647956 82.4822861 C372.33872101 82.48272819 371.61096247 82.48317029 370.86115063 82.48362578 C350.38587303 82.49593713 329.91059755 82.50382661 309.43531609 82.50293922 C308.6630784 82.50290807 307.89084072 82.50287691 307.0952019 82.50284481 C303.18101426 82.50267859 299.26682662 82.50248051 295.35263897 82.50227539 C294.57524101 82.5022355 293.79784305 82.50219561 292.99688757 82.50215451 C291.42479913 82.50207364 289.85271068 82.50199004 288.28062223 82.50190373 C263.8168528 82.50067799 239.35313879 82.51569445 214.88938522 82.54304886 C187.41660621 82.57375505 159.94386362 82.59098225 132.47106636 82.58912241 C129.54288793 82.58897315 126.6147095 82.58887574 123.68653107 82.58881378 C122.96551706 82.58879047 122.24450304 82.58876716 121.50164012 82.58874315 C109.88754868 82.58868155 98.27350526 82.60146522 86.6594281 82.61867831 C74.99170529 82.63561354 63.32406865 82.63728138 51.65633859 82.62445967 C45.33262179 82.61790894 39.00907946 82.61788862 32.68537903 82.63516617 C26.9006953 82.6508089 21.11632566 82.64812368 15.33165 82.6305979 C13.23477088 82.62750854 11.13786881 82.63123255 9.04101671 82.64231806 C6.19809184 82.65635685 3.3562813 82.64591765 0.51339531 82.6292057 C-0.30716754 82.63914206 -1.12773039 82.64907842 -1.97315878 82.65931588 C-8.01488846 82.58385113 -11.64059661 80.83739619 -16.01051712 76.49861526 C-19.40988549 72.15560953 -20.48953305 70.14793836 -20.54298782 64.67537308 C-20.55582306 63.53368668 -20.56865829 62.39200027 -20.58188248 61.21571732 C-20.58926941 59.97618301 -20.59665634 58.73664871 -20.60426712 57.45955276 C-20.61233887 56.1892421 -20.62041061 54.91893143 -20.62872696 53.6101265 C-20.64257913 50.91666889 -20.65359181 48.22333414 -20.66115189 45.52986526 C-20.67219737 42.08874193 -20.7065741 38.64826866 -20.74632359 35.20737457 C-20.77884665 31.91649865 -20.78327414 28.6255649 -20.79176712 25.33455276 C-20.80927521 24.10311539 -20.82678329 22.87167801 -20.84482193 21.60292435 C-20.82520907 13.86458714 -20.22919858 10.02236688 -14.73317337 4.48689651 C-9.50165171 0.39206674 -6.51934324 -0.01391707 0 0 Z M-17.33888626 9.67293167 C-18.89880126 14.92554776 -18.81353358 20.01536546 -18.79957962 25.46736526 C-18.80482147 26.66068466 -18.81006332 27.85400406 -18.81546402 29.08348465 C-18.82187679 31.60336404 -18.82055692 34.12327339 -18.81203079 36.64314651 C-18.80353074 40.48614067 -18.83227978 44.32764318 -18.86403275 48.17049026 C-18.86564521 50.62361482 -18.86506637 53.076742 -18.86207962 55.52986526 C-18.8733136 56.67281052 -18.88454758 57.81575577 -18.89612198 58.99333572 C-18.83670472 65.84127837 -18.02902789 70.30011429 -14.36598587 76.13142776 C-9.62014715 80.72895902 -4.08011079 80.27642379 2.19645023 80.26285553 C3.073546 80.26490816 3.95064177 80.2669608 4.8543162 80.26907563 C7.8139619 80.27476161 10.7735613 80.27328641 13.73321152 80.27186966 C15.86832203 80.27445237 18.00343205 80.27746527 20.1385414 80.28087306 C26.02200735 80.28895721 31.90546112 80.29073342 37.78893197 80.29147053 C44.12784474 80.2933186 50.46675114 80.30086464 56.80566025 80.30760574 C71.39653488 80.32190818 85.98740633 80.32771667 100.57828666 80.33229769 C107.78686848 80.33463305 114.9954495 80.33823561 122.2040307 80.34199307 C146.87478429 80.35482828 171.54553743 80.36554798 196.21629429 80.36899567 C197.76510359 80.3692173 199.3139129 80.36943908 200.8627222 80.36966102 C202.41529032 80.36988166 203.96785845 80.37010214 205.52042657 80.37032247 C208.63519339 80.37076502 211.7499602 80.37121214 214.86472702 80.37166214 C216.0231495 80.37182623 216.0231495 80.37182623 217.20497446 80.37199363 C242.25326443 80.37562527 267.30152548 80.39154951 292.34980437 80.4148525 C318.82620625 80.43943913 345.3025916 80.45316794 371.77900523 80.45436358 C374.68445282 80.45453504 377.5899004 80.45475047 380.49534798 80.45499802 C381.21076196 80.45505379 381.92617595 80.45510955 382.66326915 80.45516701 C394.18417224 80.45631841 405.70504568 80.46734785 417.22593875 80.48188507 C428.80180983 80.49623932 440.37762898 80.49924025 451.95350913 80.49144509 C458.22669193 80.48752897 464.4997748 80.48851509 470.7729454 80.50250244 C476.51260581 80.51518352 482.2520906 80.51409498 487.99175056 80.50191173 C490.07115125 80.49994466 492.15056414 80.50307939 494.22994766 80.51175609 C497.05153143 80.5227869 499.87248866 80.51540404 502.6940546 80.50336456 C503.50557306 80.51095976 504.31709151 80.51855495 505.15320143 80.5263803 C510.36944336 80.4781724 514.01698469 79.61837934 518.63401413 77.13142776 C522.36911745 72.41340252 523.74939738 68.79510447 523.81101608 62.85310745 C523.83026894 61.23562607 523.83026894 61.23562607 523.84991074 59.58546829 C523.85729767 58.41985367 523.8646846 57.25423904 523.87229538 56.05330276 C523.88036713 54.85336685 523.88843887 53.65343094 523.89675522 52.41713333 C523.91059488 49.8751355 523.92131756 47.33311908 523.92918015 44.79109573 C523.94638439 40.91069024 523.99027258 37.0311385 524.03440475 33.15095901 C524.04453249 30.68091319 524.05304834 28.21086013 524.05979538 25.74080276 C524.07730347 24.58328506 524.09481155 23.42576736 524.11285019 22.23317337 C524.09527587 15.67979703 523.91216738 11.25457012 519.63401413 6.13142776 C514.13936374 2.36558433 509.09732413 1.55201183 502.56656265 1.62526989 C501.68346273 1.61915653 500.8003628 1.61304317 499.89050227 1.60674456 C496.93425007 1.59115632 493.97881961 1.60400608 491.02256393 1.61676407 C488.88058478 1.61143842 486.73860935 1.60437264 484.59664106 1.59571701 C478.71266375 1.57706554 472.82893771 1.58340342 466.94494987 1.59387004 C460.59857083 1.60085483 454.25224378 1.58486964 447.90587997 1.57187271 C436.19272415 1.5514677 424.47965632 1.54941702 412.76648761 1.55708917 C401.94566282 1.56416218 391.12486776 1.56421917 380.30404282 1.55722618 C378.85250869 1.55631485 377.40097457 1.55540409 375.94944045 1.55449389 C373.76211575 1.55311076 371.57479106 1.55171967 369.38746638 1.55030776 C349.05293118 1.53732764 328.71840592 1.53221196 308.38386917 1.54384136 C307.23415727 1.54449832 307.23415727 1.54449832 306.06121887 1.54516855 C299.83690477 1.54877537 293.61259082 1.55261014 287.38827687 1.55645948 C263.10507599 1.57130926 238.82198757 1.56252403 214.53879929 1.53450394 C187.25567119 1.50308244 159.97260967 1.48810378 132.68946314 1.49830395 C129.78097059 1.49934073 126.87247802 1.50032796 123.96398544 1.50128746 C123.24784173 1.50153635 122.53169802 1.50178523 121.79385298 1.50204166 C110.9798838 1.50548279 100.16597339 1.49617162 89.35201645 1.48051643 C77.05588592 1.46275646 64.75992539 1.46307411 52.46379793 1.48586809 C46.18838184 1.4970329 39.91323537 1.50012173 33.63783073 1.48156738 C27.89507268 1.46480613 22.15282031 1.47105509 16.41009527 1.49578417 C14.33080025 1.50068209 12.25146478 1.49711219 10.17220348 1.48429673 C7.34801288 1.46814381 4.52557696 1.4827333 1.70146561 1.50501537 C0.48743701 1.48702786 0.48743701 1.48702786 -0.75111741 1.46867695 C-7.69004732 1.58064418 -13.04627288 4.14315748 -17.33888626 9.67293167 Z " fill="#D9D9D9" transform="translate(67.36598587036133,294.8685722351074)"/>
<path d="M0 0 C0.8801528 -0.00205263 1.7603056 -0.00410527 2.6671297 -0.0062201 C5.64920792 -0.01192449 8.63124045 -0.01042864 11.61332321 -0.00901413 C13.7597947 -0.0115958 15.90626571 -0.0146084 18.05273604 -0.01801753 C23.97685602 -0.02611411 29.90096389 -0.02787858 35.82508874 -0.028615 C42.20423602 -0.03046095 48.58337696 -0.03800596 54.9625206 -0.04475021 C69.65150821 -0.05906269 84.34049336 -0.06486256 99.02948673 -0.06944216 C106.28510299 -0.07177646 113.54071846 -0.07537893 120.7963341 -0.07913754 C145.62332112 -0.0919745 170.4503077 -0.10269357 195.27729797 -0.10614014 C196.83643519 -0.10636177 198.39557241 -0.10658355 199.95470963 -0.10680549 C201.51765806 -0.10702613 203.0806065 -0.10724661 204.64355493 -0.10746694 C207.7792093 -0.10790949 210.91486367 -0.10835661 214.05051804 -0.10880661 C214.82798075 -0.108916 215.60544347 -0.10902539 216.40646566 -0.1091381 C241.62061685 -0.11276943 266.8347393 -0.12869159 292.04887948 -0.15199697 C318.6941393 -0.1765802 345.33938269 -0.19031228 371.98465419 -0.19150805 C374.90837018 -0.19167951 377.83208617 -0.19189494 380.75580215 -0.19214249 C381.83568795 -0.19222614 381.83568795 -0.19222614 382.93738961 -0.19231148 C394.53484634 -0.19346325 406.13227363 -0.20449597 417.7297204 -0.21902954 C429.38199116 -0.23337956 441.03421537 -0.23638703 452.68649349 -0.22858956 C459.00206882 -0.22467177 465.3175449 -0.2256676 471.63310814 -0.23964691 C477.41042093 -0.25231824 483.18755918 -0.25124815 488.9648715 -0.2390562 C491.05911891 -0.23708741 493.15337841 -0.24023168 495.24760881 -0.24890056 C498.08684135 -0.2599127 500.92544915 -0.25256214 503.7646637 -0.24050903 C504.58419389 -0.24810423 505.40372409 -0.25569942 506.24808854 -0.26352477 C511.94342881 -0.21106682 516.20621104 0.84613723 520.49729538 4.88533401 C521.21465866 5.78058792 521.21465866 5.78058792 521.94651413 6.69392776 C522.43764694 7.29334183 522.92877975 7.89275589 523.43479538 8.51033401 C525.72547103 11.60684995 525.76887716 13.68656719 525.79514694 17.49568558 C525.80475449 18.61735123 525.81436203 19.73901688 525.82426071 20.89467239 C525.82851059 22.11233292 525.83276047 23.32999344 525.83713913 24.58455276 C525.8428392 25.83266739 525.84853928 27.08078201 525.85441208 28.36671829 C525.86387391 31.01309735 525.87076432 33.6593627 525.8742485 36.30574417 C525.87972 39.68621767 525.90371816 43.06628568 525.93222046 46.44663239 C525.95540598 49.68007492 525.95730111 52.91353875 525.96213913 56.14705276 C525.97448593 57.35661636 525.98683273 58.56617996 525.99955368 59.812397 C525.97951783 67.38500815 525.35721006 72.05910415 520.19651413 77.88142776 C515.28322771 82.19553292 511.42938798 82.4206907 505.00631523 82.38869667 C504.12216637 82.39220275 503.23801751 82.39570882 502.32707626 82.39932114 C499.34339988 82.40867746 496.35991687 82.40370093 493.37623215 82.3988533 C491.22390866 82.40258743 489.07158654 82.40718799 486.91926658 82.41258395 C480.98825068 82.42485869 475.057291 82.42454823 469.12626529 82.4221952 C462.73624085 82.42178816 456.3462347 82.4328153 449.95621872 82.44231033 C437.43105224 82.45894556 424.90590517 82.46444688 412.38072862 82.46553509 C402.20352595 82.46645353 392.0263294 82.47056683 381.84912872 82.47693634 C378.92157901 82.47873138 375.99402929 82.480511 373.06647956 82.4822861 C372.33872101 82.48272819 371.61096247 82.48317029 370.86115063 82.48362578 C350.38587303 82.49593713 329.91059755 82.50382661 309.43531609 82.50293922 C308.6630784 82.50290807 307.89084072 82.50287691 307.0952019 82.50284481 C303.18101426 82.50267859 299.26682662 82.50248051 295.35263897 82.50227539 C294.57524101 82.5022355 293.79784305 82.50219561 292.99688757 82.50215451 C291.42479913 82.50207364 289.85271068 82.50199004 288.28062223 82.50190373 C263.8168528 82.50067799 239.35313879 82.51569445 214.88938522 82.54304886 C187.41660621 82.57375505 159.94386362 82.59098225 132.47106636 82.58912241 C129.54288793 82.58897315 126.6147095 82.58887574 123.68653107 82.58881378 C122.96551706 82.58879047 122.24450304 82.58876716 121.50164012 82.58874315 C109.88754868 82.58868155 98.27350526 82.60146522 86.6594281 82.61867831 C74.99170529 82.63561354 63.32406865 82.63728138 51.65633859 82.62445967 C45.33262179 82.61790894 39.00907946 82.61788862 32.68537903 82.63516617 C26.9006953 82.6508089 21.11632566 82.64812368 15.33165 82.6305979 C13.23477088 82.62750854 11.13786881 82.63123255 9.04101671 82.64231806 C6.19809184 82.65635685 3.3562813 82.64591765 0.51339531 82.6292057 C-0.30716754 82.63914206 -1.12773039 82.64907842 -1.97315878 82.65931588 C-8.01488846 82.58385113 -11.64059661 80.83739619 -16.01051712 76.49861526 C-19.40988549 72.15560953 -20.48953305 70.14793836 -20.54298782 64.67537308 C-20.55582306 63.53368668 -20.56865829 62.39200027 -20.58188248 61.21571732 C-20.58926941 59.97618301 -20.59665634 58.73664871 -20.60426712 57.45955276 C-20.61233887 56.1892421 -20.62041061 54.91893143 -20.62872696 53.6101265 C-20.64257913 50.91666889 -20.65359181 48.22333414 -20.66115189 45.52986526 C-20.67219737 42.08874193 -20.7065741 38.64826866 -20.74632359 35.20737457 C-20.77884665 31.91649865 -20.78327414 28.6255649 -20.79176712 25.33455276 C-20.80927521 24.10311539 -20.82678329 22.87167801 -20.84482193 21.60292435 C-20.82520907 13.86458714 -20.22919858 10.02236688 -14.73317337 4.48689651 C-9.50165171 0.39206674 -6.51934324 -0.01391707 0 0 Z M-17.33888626 9.67293167 C-18.89880126 14.92554776 -18.81353358 20.01536546 -18.79957962 25.46736526 C-18.80482147 26.66068466 -18.81006332 27.85400406 -18.81546402 29.08348465 C-18.82187679 31.60336404 -18.82055692 34.12327339 -18.81203079 36.64314651 C-18.80353074 40.48614067 -18.83227978 44.32764318 -18.86403275 48.17049026 C-18.86564521 50.62361482 -18.86506637 53.076742 -18.86207962 55.52986526 C-18.8733136 56.67281052 -18.88454758 57.81575577 -18.89612198 58.99333572 C-18.83670472 65.84127837 -18.02902789 70.30011429 -14.36598587 76.13142776 C-9.62014715 80.72895902 -4.08011079 80.27642379 2.19645023 80.26285553 C3.073546 80.26490816 3.95064177 80.2669608 4.8543162 80.26907563 C7.8139619 80.27476161 10.7735613 80.27328641 13.73321152 80.27186966 C15.86832203 80.27445237 18.00343205 80.27746527 20.1385414 80.28087306 C26.02200735 80.28895721 31.90546112 80.29073342 37.78893197 80.29147053 C44.12784474 80.2933186 50.46675114 80.30086464 56.80566025 80.30760574 C71.39653488 80.32190818 85.98740633 80.32771667 100.57828666 80.33229769 C107.78686848 80.33463305 114.9954495 80.33823561 122.2040307 80.34199307 C146.87478429 80.35482828 171.54553743 80.36554798 196.21629429 80.36899567 C197.76510359 80.3692173 199.3139129 80.36943908 200.8627222 80.36966102 C202.41529032 80.36988166 203.96785845 80.37010214 205.52042657 80.37032247 C208.63519339 80.37076502 211.7499602 80.37121214 214.86472702 80.37166214 C216.0231495 80.37182623 216.0231495 80.37182623 217.20497446 80.37199363 C242.25326443 80.37562527 267.30152548 80.39154951 292.34980437 80.4148525 C318.82620625 80.43943913 345.3025916 80.45316794 371.77900523 80.45436358 C374.68445282 80.45453504 377.5899004 80.45475047 380.49534798 80.45499802 C381.21076196 80.45505379 381.92617595 80.45510955 382.66326915 80.45516701 C394.18417224 80.45631841 405.70504568 80.46734785 417.22593875 80.48188507 C428.80180983 80.49623932 440.37762898 80.49924025 451.95350913 80.49144509 C458.22669193 80.48752897 464.4997748 80.48851509 470.7729454 80.50250244 C476.51260581 80.51518352 482.2520906 80.51409498 487.99175056 80.50191173 C490.07115125 80.49994466 492.15056414 80.50307939 494.22994766 80.51175609 C497.05153143 80.5227869 499.87248866 80.51540404 502.6940546 80.50336456 C503.50557306 80.51095976 504.31709151 80.51855495 505.15320143 80.5263803 C510.36944336 80.4781724 514.01698469 79.61837934 518.63401413 77.13142776 C522.36911745 72.41340252 523.74939738 68.79510447 523.81101608 62.85310745 C523.83026894 61.23562607 523.83026894 61.23562607 523.84991074 59.58546829 C523.85729767 58.41985367 523.8646846 57.25423904 523.87229538 56.05330276 C523.88036713 54.85336685 523.88843887 53.65343094 523.89675522 52.41713333 C523.91059488 49.8751355 523.92131756 47.33311908 523.92918015 44.79109573 C523.94638439 40.91069024 523.99027258 37.0311385 524.03440475 33.15095901 C524.04453249 30.68091319 524.05304834 28.21086013 524.05979538 25.74080276 C524.07730347 24.58328506 524.09481155 23.42576736 524.11285019 22.23317337 C524.09527587 15.67979703 523.91216738 11.25457012 519.63401413 6.13142776 C514.13936374 2.36558433 509.09732413 1.55201183 502.56656265 1.62526989 C501.68346273 1.61915653 500.8003628 1.61304317 499.89050227 1.60674456 C496.93425007 1.59115632 493.97881961 1.60400608 491.02256393 1.61676407 C488.88058478 1.61143842 486.73860935 1.60437264 484.59664106 1.59571701 C478.71266375 1.57706554 472.82893771 1.58340342 466.94494987 1.59387004 C460.59857083 1.60085483 454.25224378 1.58486964 447.90587997 1.57187271 C436.19272415 1.5514677 424.47965632 1.54941702 412.76648761 1.55708917 C401.94566282 1.56416218 391.12486776 1.56421917 380.30404282 1.55722618 C378.85250869 1.55631485 377.40097457 1.55540409 375.94944045 1.55449389 C373.76211575 1.55311076 371.57479106 1.55171967 369.38746638 1.55030776 C349.05293118 1.53732764 328.71840592 1.53221196 308.38386917 1.54384136 C307.23415727 1.54449832 307.23415727 1.54449832 306.06121887 1.54516855 C299.83690477 1.54877537 293.61259082 1.55261014 287.38827687 1.55645948 C263.10507599 1.57130926 238.82198757 1.56252403 214.53879929 1.53450394 C187.25567119 1.50308244 159.97260967 1.48810378 132.68946314 1.49830395 C129.78097059 1.49934073 126.87247802 1.50032796 123.96398544 1.50128746 C123.24784173 1.50153635 122.53169802 1.50178523 121.79385298 1.50204166 C110.9798838 1.50548279 100.16597339 1.49617162 89.35201645 1.48051643 C77.05588592 1.46275646 64.75992539 1.46307411 52.46379793 1.48586809 C46.18838184 1.4970329 39.91323537 1.50012173 33.63783073 1.48156738 C27.89507268 1.46480613 22.15282031 1.47105509 16.41009527 1.49578417 C14.33080025 1.50068209 12.25146478 1.49711219 10.17220348 1.48429673 C7.34801288 1.46814381 4.52557696 1.4827333 1.70146561 1.50501537 C0.48743701 1.48702786 0.48743701 1.48702786 -0.75111741 1.46867695 C-7.69004732 1.58064418 -13.04627288 4.14315748 -17.33888626 9.67293167 Z " fill="#D9D9D9" transform="translate(67.36598587036133,106.86857223510742)"/>
<path d="M0 0 C211.2 0 422.4 0 640 0 C640 3.63 640 7.26 640 11 C636 9 636 9 633.5 6.4375 C630.02114193 3.04561338 627.28891755 2.87529837 622.56556135 2.87350017 C621.67630173 2.87074042 620.7870421 2.86798068 619.87083521 2.86513731 C618.89610006 2.86719263 617.92136491 2.86924795 616.91709232 2.87136555 C615.87562511 2.86961251 614.8341579 2.86785947 613.76113108 2.86605331 C610.24235742 2.86137072 606.72362468 2.86386461 603.20484924 2.86628723 C600.66820792 2.8644204 598.13156688 2.86212021 595.5949263 2.85942191 C590.06481095 2.85456643 584.53470813 2.85285177 579.00459099 2.85387802 C570.78120317 2.85540036 562.55782506 2.85124696 554.33443913 2.8460034 C538.79475998 2.83632178 523.25508412 2.83351886 507.71540231 2.83294634 C495.71801745 2.83248721 483.72063388 2.83043101 471.72324944 2.82724571 C468.27274305 2.8263482 464.82223666 2.82545839 461.37173027 2.82457083 C460.51398488 2.82434979 459.6562395 2.82412874 458.77250183 2.82390099 C434.63913699 2.81774505 410.50577261 2.81380061 386.37240696 2.81424427 C385.0070036 2.81426764 385.0070036 2.81426764 383.61401634 2.81429148 C379.00014165 2.81437459 374.38626697 2.81447363 369.77239228 2.81457619 C368.85601973 2.81459613 367.93964718 2.81461608 366.99550577 2.81463663 C365.14237707 2.81467706 363.28924836 2.81471886 361.43611966 2.81476202 C332.59534752 2.81537497 303.75458713 2.80786533 274.91381836 2.79418945 C242.53022048 2.77884003 210.14663031 2.77022253 177.76302856 2.77115268 C174.31220782 2.77122731 170.86138707 2.77127601 167.41056633 2.77130699 C166.13599469 2.77132447 166.13599469 2.77132447 164.83567412 2.77134231 C151.14229467 2.77137312 137.4489254 2.76497847 123.75554898 2.75637473 C110.00203889 2.74791171 96.24854374 2.74689768 82.4950325 2.75348405 C74.31765621 2.75718863 66.14032521 2.75532036 57.96295369 2.74554171 C51.86696549 2.73886606 45.77103117 2.74257028 39.67504238 2.75041493 C37.20133401 2.75196188 34.72762079 2.75008933 32.25391812 2.74455485 C28.90544623 2.73755615 25.55721227 2.74273993 22.20874882 2.75111103 C20.75015784 2.74365876 20.75015784 2.74365876 19.26210037 2.73605594 C11.73623525 2.6979312 11.73623525 2.6979312 5.48828125 6.5078125 C4.90626953 7.30832031 4.90626953 7.30832031 4.3125 8.125 C3.549375 9.07375 2.78625 10.0225 2 11 C1.34 11 0.68 11 0 11 C0 7.37 0 3.74 0 0 Z " fill="#D8D8D8" transform="translate(0,0)"/>
<path d="M0 0 C204.27 0 408.54 0 619 0 C619 0.66 619 1.32 619 2 C616.68562159 3.15718921 615.3773147 3.12472134 612.80179298 3.1241985 C611.9143134 3.12644579 611.02683381 3.12869308 610.11246091 3.13100848 C609.12943815 3.12838146 608.14641538 3.12575445 607.13360405 3.12304783 C605.57008523 3.1247786 605.57008523 3.1247786 603.97498018 3.12654433 C600.44122079 3.12921586 596.90750591 3.12468442 593.37374878 3.12025452 C590.83114554 3.12069011 588.28854233 3.12156479 585.74593937 3.12284368 C580.19673283 3.12462044 574.64754037 3.12326589 569.09833527 3.11920547 C560.84679919 3.11318444 552.5952699 3.11286837 544.34373203 3.11374746 C530.46510311 3.11506317 516.58647894 3.11171311 502.70785141 3.10573006 C488.96061047 3.0998188 475.21337151 3.09596528 461.4661293 3.09487724 C460.61227717 3.0948085 459.75842503 3.09473976 458.87869858 3.09466894 C454.54264884 3.09433062 450.20659909 3.09402923 445.87054934 3.09374207 C415.13554066 3.09164006 384.40053456 3.08489827 353.66552734 3.07543945 C323.80159519 3.06625931 293.93766375 3.05917359 264.07373047 3.05493164 C263.15365508 3.05480011 262.23357969 3.05466859 261.28562323 3.05453308 C252.04608812 3.05321459 242.80655301 3.05193877 233.56701789 3.05069422 C214.74398886 3.04815781 195.92095987 3.04533656 177.09793091 3.04234314 C176.23242431 3.04220585 175.36691771 3.04206856 174.47518365 3.04192711 C116.65012135 3.03272202 58.82506051 3.01685555 1 3 C0.67 2.01 0.34 1.02 0 0 Z " fill="#D8D8D8" transform="translate(10,685)"/>
<path d="M0 0 C1.47726563 -0.02900391 1.47726563 -0.02900391 2.984375 -0.05859375 C7.44170732 -0.02847664 10.26508611 0.19478432 14.15625 2.47265625 C16.90222878 7.16758183 16.65304812 11.34820757 16.5 16.6875 C16.50386719 18.17733398 16.50386719 18.17733398 16.5078125 19.69726562 C16.39538307 28.04515044 16.39538307 28.04515044 13 31.625 C8.56039131 33.10486956 4.21322847 32.84997927 -0.4375 32.875 C-1.39205078 32.895625 -2.34660156 32.91625 -3.33007812 32.9375 C-4.25111328 32.94265625 -5.17214844 32.9478125 -6.12109375 32.953125 C-6.9608374 32.9624707 -7.80058105 32.97181641 -8.66577148 32.98144531 C-11.55257208 32.5406202 -12.8942602 31.62222064 -15 29.625 C-16.47372241 25.20383277 -16.30613795 20.88253781 -16.375 16.25 C-16.41238281 15.30382812 -16.44976562 14.35765625 -16.48828125 13.3828125 C-16.54378739 8.99166039 -16.42004229 6.33996559 -14.1640625 2.5 C-9.48238327 -0.27432843 -5.34591505 -0.10495907 0 0 Z " fill="#2E2E2E" transform="translate(64,429.375)"/>
<path d="M0 0 C11.16564417 -0.49079755 11.16564417 -0.49079755 15.1875 1.875 C18.28416857 5.50557694 18.28176771 8.11346819 18.21484375 12.74609375 C17.81415566 16.94967608 16.02223614 19.10167127 12.9375 21.8125 C10 23 10 23 0 23 C0 15.41 0 7.82 0 0 Z " fill="#FCFCFC" transform="translate(107,479)"/>
<path d="M0 0 C2.13662017 -0.41527225 2.13662017 -0.41527225 4 -1 C4.11632513 2.41637953 4.18728897 5.83224897 4.25 9.25 C4.30027344 10.70212891 4.30027344 10.70212891 4.3515625 12.18359375 C4.45020252 19.33499498 4.45020252 19.33499498 2.20703125 22.6484375 C-0.97757164 24.59865449 -3.34287091 24.39895954 -7 24 C-7.99 23.34 -8.98 22.68 -10 22 C-9.67 21.01 -9.34 20.02 -9 19 C-8.34 19.33 -7.68 19.66 -7 20 C-4.6670134 20.04022391 -2.33293334 20.04320247 0 20 C0 18.68 0 17.36 0 16 C-1.0725 16.2475 -2.145 16.495 -3.25 16.75 C-7 17 -7 17 -9.4375 15.6875 C-11.83595299 11.56216086 -11.88638891 7.64776097 -11 3 C-7.52041 -1.40065795 -5.20108633 -1.21727552 0 0 Z " fill="#EBEBEB" transform="translate(309,595)"/>
<path d="M0 0 C0.99 0 1.98 0 3 0 C3 7.59 3 15.18 3 23 C1.68 22.67 0.36 22.34 -1 22 C-1.33 22.33 -1.66 22.66 -2 23 C-5.3125 23.375 -5.3125 23.375 -9 23 C-12.15781603 20.32800182 -12.89540324 18.63920242 -13.5625 14.5625 C-12.80768275 9.78199078 -11.56645515 8.24943691 -8 5 C-5.3125 4.5 -5.3125 4.5 -3 5 C-2.34 5.66 -1.68 6.32 -1 7 C-0.67 4.69 -0.34 2.38 0 0 Z " fill="#3A3A3A" transform="translate(190,247)"/>
<path d="M0 0 C0.99 0 1.98 0 3 0 C3.33 0.66 3.66 1.32 4 2 C4.66 1.34 5.32 0.68 6 0 C9.12449581 -0.49334144 10.58182014 -0.24864748 13.3125 1.375 C15.85398448 5.32842031 15.81439302 9.42179057 15 14 C13.69921875 16.29296875 13.69921875 16.29296875 12 18 C8.375 18.3125 8.375 18.3125 5 18 C4.67 17.67 4.34 17.34 4 17 C3.67 19.64 3.34 22.28 3 25 C2.01 25 1.02 25 0 25 C0 16.75 0 8.5 0 0 Z " fill="#7C7C7C" transform="translate(202,484)"/>
<path d="M0 0 C11.49125827 -0.37068575 11.49125827 -0.37068575 13.828125 1.33203125 C15.64198866 3.91376386 15.93722499 5.8612494 16 9 C14.0625 11.875 14.0625 11.875 12 14 C12.66 15.11375 13.32 16.2275 14 17.375 C16 20.75 16 20.75 16 23 C14.1875 22.875 14.1875 22.875 12 22 C9 16.96428571 9 16.96428571 9 14 C7.02 14 5.04 14 3 14 C3 16.97 3 19.94 3 23 C2.01 23 1.02 23 0 23 C0 15.41 0 7.82 0 0 Z " fill="#DCDCDC" transform="translate(260,589)"/>
<path d="M0 0 C0.99 0 1.98 0 3 0 C3.33 1.98 3.66 3.96 4 6 C4.886875 5.731875 5.77375 5.46375 6.6875 5.1875 C10 5 10 5 12.875 6.875 C15.35433731 10.52108428 15.68409162 12.59074406 15.41796875 16.90625 C15 19 15 19 13.375 21.5625 C10.34778115 23.39476404 8.48142404 23.45409879 5 23 C4.34 22.34 3.68 21.68 3 21 C2.67 21.66 2.34 22.32 2 23 C1.34 23 0.68 23 0 23 C0 15.41 0 7.82 0 0 Z " fill="#272727" transform="translate(143,435)"/>
<path d="M0 0 C4.08078346 1.33552913 5.36305322 2.39099579 7.4375 6.125 C8.09841749 10.00789028 7.54232145 11.88915174 5.9375 15.5 C3.3367874 18.23074823 2.95838068 18.58259175 -0.5625 18.8125 C-3.69214569 18.5497499 -4.50649571 18.16980343 -7.0625 16.125 C-8.98142757 12.28714487 -9.52723538 9.33090773 -8.5625 5.125 C-5.93097286 1.21758091 -4.7476689 0.16658487 0 0 Z " fill="#3B3B3B" transform="translate(155.5625,251.875)"/>
<path d="M0 0 C3.56645515 3.24943691 4.80768275 4.78199078 5.5625 9.5625 C4.8899365 13.67261029 4.22268106 15.34128812 1 18 C-1.82569562 18.71221426 -4.17430438 18.71221426 -7 18 C-10.26104325 15.30963932 -10.9034571 13.67580027 -11.5 9.5 C-10.9231981 5.46238667 -9.85349783 3.85349783 -7 1 C-4.32590305 -0.33704848 -2.97186266 -0.4837916 0 0 Z " fill="#878787" transform="translate(251,484)"/>
<path d="M0 0 C11.45433746 -0.36949476 11.45433746 -0.36949476 13.86328125 1.26171875 C15.22193842 3.33939037 15.40305641 4.53103608 15.375 7 C15.38273437 7.680625 15.39046875 8.36125 15.3984375 9.0625 C14.87313531 11.61691066 14.11606316 12.49119559 12 14 C9.73828125 14.29296875 9.73828125 14.29296875 7.3125 14.1875 C5.1778125 14.0946875 5.1778125 14.0946875 3 14 C3 16.97 3 19.94 3 23 C2.01 23 1.02 23 0 23 C0 15.41 0 7.82 0 0 Z " fill="#2D2D2D" transform="translate(51,247)"/>
<path d="M0 0 C2.17578125 1.5703125 2.17578125 1.5703125 4 4 C4.390625 7.453125 4.390625 7.453125 4.25 11.25 C4.21390625 12.51328125 4.1778125 13.7765625 4.140625 15.078125 C4.07101563 16.52445312 4.07101563 16.52445312 4 18 C3.360625 17.814375 2.72125 17.62875 2.0625 17.4375 C1.0415625 17.2209375 1.0415625 17.2209375 0 17 C-0.33 17.33 -0.66 17.66 -1 18 C-4.4375 18.1875 -4.4375 18.1875 -8 18 C-10 16 -10 16 -10.3125 13 C-10.209375 12.01 -10.10625 11.02 -10 10 C-6.55549263 7.70366176 -4.06187717 7.45983515 0 7 C0 6.01 0 5.02 0 4 C-3.5219721 3.91995518 -6.61981469 3.95994298 -10 5 C-8.25648954 -0.23053137 -5.04705439 -0.61800666 0 0 Z " fill="#414141" transform="translate(134,440)"/>
<path d="M0 0 C3.63973987 0.28546979 4.72909981 0.59069829 7.1875 3.25 C7.48392569 5.96229503 7.56811189 8.24739732 7.4375 10.9375 C7.41945313 11.63939453 7.40140625 12.34128906 7.3828125 13.06445312 C7.33576213 14.79355436 7.26401873 16.52195205 7.1875 18.25 C5.22983719 18.33082094 3.27123272 18.38910778 1.3125 18.4375 C-0.32332031 18.48970703 -0.32332031 18.48970703 -1.9921875 18.54296875 C-2.92289062 18.44628906 -3.85359375 18.34960938 -4.8125 18.25 C-6.8125 15.25 -6.8125 15.25 -6.5625 12.6875 C-5.8125 10.25 -5.8125 10.25 -3.8125 8.25 C-1.48974823 7.84952556 0.84489357 7.5102896 3.1875 7.25 C3.1875 6.26 3.1875 5.27 3.1875 4.25 C-0.01152639 4.16113816 -2.73927456 4.33941469 -5.8125 5.25 C-3.41924157 0.30393258 -3.41924157 0.30393258 0 0 Z " fill="#363636" transform="translate(76.8125,251.75)"/>
<path d="M0 0 C4.63647274 1.07632403 4.63647274 1.07632403 6.5 3.8125 C6.79296875 7.16796875 6.79296875 7.16796875 6.6875 11 C6.66042969 12.27230469 6.63335937 13.54460937 6.60546875 14.85546875 C6.57066406 15.83128906 6.53585938 16.80710937 6.5 17.8125 C5.860625 17.626875 5.22125 17.44125 4.5625 17.25 C3.5415625 17.0334375 3.5415625 17.0334375 2.5 16.8125 C2.17 17.1425 1.84 17.4725 1.5 17.8125 C-1.9375 18 -1.9375 18 -5.5 17.8125 C-7.5 15.8125 -7.5 15.8125 -7.8125 12.8125 C-7.709375 11.8225 -7.60625 10.8325 -7.5 9.8125 C-4.05549263 7.51616176 -1.56187717 7.27233515 2.5 6.8125 C2.5 5.8225 2.5 4.8325 2.5 3.8125 C-1.0219721 3.73245518 -4.11981469 3.77244298 -7.5 4.8125 C-6.03532073 0.4184622 -4.5649623 -0.24455155 0 0 Z " fill="#3F3F3F" transform="translate(104.5,64.1875)"/>
<path d="M0 0 C2.17578125 1.5703125 2.17578125 1.5703125 4 4 C4.390625 7.453125 4.390625 7.453125 4.25 11.25 C4.21390625 12.51328125 4.1778125 13.7765625 4.140625 15.078125 C4.07101563 16.52445312 4.07101563 16.52445312 4 18 C3.360625 17.814375 2.72125 17.62875 2.0625 17.4375 C1.0415625 17.2209375 1.0415625 17.2209375 0 17 C-0.33 17.33 -0.66 17.66 -1 18 C-4.4375 18.1875 -4.4375 18.1875 -8 18 C-10 16 -10 16 -10.3125 13 C-10.209375 12.01 -10.10625 11.02 -10 10 C-6.55549263 7.70366176 -4.06187717 7.45983515 0 7 C0 6.01 0 5.02 0 4 C-3.34252724 3.92572162 -5.8035914 3.93453047 -9 5 C-9 4.01 -9 3.02 -9 2 C-5.50875983 -0.32749345 -4.10777749 -0.50299316 0 0 Z " fill="#BDBDBD" transform="translate(112,330)"/>
<path d="M0 0 C2.17578125 1.5703125 2.17578125 1.5703125 4 4 C4.390625 7.453125 4.390625 7.453125 4.25 11.25 C4.21390625 12.51328125 4.1778125 13.7765625 4.140625 15.078125 C4.07101563 16.52445313 4.07101563 16.52445313 4 18 C3.360625 17.814375 2.72125 17.62875 2.0625 17.4375 C1.0415625 17.2209375 1.0415625 17.2209375 0 17 C-0.33 17.33 -0.66 17.66 -1 18 C-4.4375 18.1875 -4.4375 18.1875 -8 18 C-10 16 -10 16 -10.3125 13 C-10.209375 12.01 -10.10625 11.02 -10 10 C-6.55549263 7.70366176 -4.06187717 7.45983515 0 7 C0 6.01 0 5.02 0 4 C-3.34252724 3.92572162 -5.8035914 3.93453047 -9 5 C-9 4.01 -9 3.02 -9 2 C-5.50875983 -0.32749345 -4.10777749 -0.50299316 0 0 Z " fill="#BDBDBD" transform="translate(112,142)"/>
<path d="M0 0 C11.16564417 -0.49079755 11.16564417 -0.49079755 15.1875 1.875 C18.28416857 5.50557694 18.28176771 8.11346819 18.21484375 12.74609375 C17.81415566 16.94967608 16.02223614 19.10167127 12.9375 21.8125 C10 23 10 23 0 23 C0 15.41 0 7.82 0 0 Z M3 2 C3 7.94 3 13.88 3 20 C10.3072418 20.64255833 10.3072418 20.64255833 13.5 18.625 C15.84235437 14.52587986 15.87046411 10.59666133 15 6 C13.10744542 3.185821 13.10744542 3.185821 10 2 C7.69 2 5.38 2 3 2 Z " fill="#7F7F7F" transform="translate(107,479)"/>
<path d="M0 0 C3.375 1.0625 3.375 1.0625 5.3125 2.8125 C6.375 5.0625 6.375 5.0625 6.375 10.0625 C2.415 10.0625 -1.545 10.0625 -5.625 10.0625 C-5.295 11.3825 -4.965 12.7025 -4.625 14.0625 C-0.38853233 15.0714034 -0.38853233 15.0714034 3.75 14.125 C4.28625 13.774375 4.8225 13.42375 5.375 13.0625 C5.375 14.0525 5.375 15.0425 5.375 16.0625 C3.375 18.0625 3.375 18.0625 -0.5625 18.375 C-3.27953948 18.31101175 -4.30991841 18.28610629 -6.5625 16.6875 C-8.99422593 12.96838976 -9.34680436 9.40991936 -8.625 5.0625 C-5.9636004 1.11072483 -4.808262 0.08290107 0 0 Z " fill="#CECECE" transform="translate(361.625,593.9375)"/>
<path d="M0 0 C3.5 0.8125 3.5 0.8125 5.4375 2 C6.5 3.8125 6.5 3.8125 6.5 9.8125 C2.54 9.8125 -1.42 9.8125 -5.5 9.8125 C-5.17 11.4625 -4.84 13.1125 -4.5 14.8125 C-1.86 14.8125 0.78 14.8125 3.5 14.8125 C3.5 14.1525 3.5 13.4925 3.5 12.8125 C4.49 13.1425 5.48 13.4725 6.5 13.8125 C5.5 15.8125 5.5 15.8125 3.5 17.8125 C0.32627645 18.26588908 -1.48989661 18.50294625 -4.5 17.8125 C-7.81141503 15.0805826 -8.42595907 13.51588879 -8.875 9.25 C-8.53391919 6.12342594 -8.28579555 4.35020946 -6.5 1.8125 C-3.5 -0.1875 -3.5 -0.1875 0 0 Z " fill="#F1F1F1" transform="translate(287.5,594.1875)"/>
<path d="M0 0 C3.375 1.0625 3.375 1.0625 5.3125 2.8125 C6.375 5.0625 6.375 5.0625 6.375 10.0625 C2.085 10.0625 -2.205 10.0625 -6.625 10.0625 C-5.635 11.7125 -4.645 13.3625 -3.625 15.0625 C-0.03120629 15.7075399 2.27928591 14.89699724 5.375 13.0625 C5.375 14.0525 5.375 15.0425 5.375 16.0625 C3.375 18.0625 3.375 18.0625 -0.5 18.4375 C-3.38844993 18.33771718 -4.55485799 18.10283165 -7.125 16.625 C-9.3683082 12.79268182 -9.50070114 9.38723458 -8.625 5.0625 C-5.97979115 1.0546078 -4.83605044 0.08338018 0 0 Z " fill="#8E8E8E" transform="translate(137.625,483.9375)"/>
<path d="M0 0 C3.375 1.0625 3.375 1.0625 5.3125 2.8125 C6.375 5.0625 6.375 5.0625 6.375 10.0625 C2.415 10.0625 -1.545 10.0625 -5.625 10.0625 C-5.295 11.3825 -4.965 12.7025 -4.625 14.0625 C-0.64745872 14.79584429 -0.64745872 14.79584429 3.375 15.0625 C3.375 14.4025 3.375 13.7425 3.375 13.0625 C4.365 13.3925 5.355 13.7225 6.375 14.0625 C5.375 16.0625 5.375 16.0625 3.375 18.0625 C0.2003989 18.51601444 -1.61352271 18.74720208 -4.625 18.0625 C-7.26183762 15.9530299 -8.3331633 14.44108099 -9.03515625 11.125 C-9.32983957 7.13544126 -8.84587745 5.39046954 -6.5625 2 C-3.625 0.0625 -3.625 0.0625 0 0 Z " fill="#C2C2C2" transform="translate(154.625,329.9375)"/>
<path d="M0 0 C3.375 1.0625 3.375 1.0625 5.3125 2.8125 C6.375 5.0625 6.375 5.0625 6.375 10.0625 C2.415 10.0625 -1.545 10.0625 -5.625 10.0625 C-5.295 11.3825 -4.965 12.7025 -4.625 14.0625 C-0.64745872 14.79584429 -0.64745872 14.79584429 3.375 15.0625 C3.375 14.4025 3.375 13.7425 3.375 13.0625 C4.365 13.3925 5.355 13.7225 6.375 14.0625 C5.375 16.0625 5.375 16.0625 3.375 18.0625 C0.2003989 18.51601444 -1.61352271 18.74720208 -4.625 18.0625 C-7.26183762 15.9530299 -8.3331633 14.44108099 -9.03515625 11.125 C-9.32983957 7.13544126 -8.84587745 5.39046954 -6.5625 2 C-3.625 0.0625 -3.625 0.0625 0 0 Z " fill="#C2C2C2" transform="translate(154.625,141.9375)"/>
<path d="M0 0 C3.67454513 0.91863628 5.20367517 2.67258236 7.5 5.625 C7.5 7.275 7.5 8.925 7.5 10.625 C3.21 10.625 -1.08 10.625 -5.5 10.625 C-4.51 12.275 -3.52 13.925 -2.5 15.625 C1.09379371 16.2700399 3.40428591 15.45949724 6.5 13.625 C5.625 17.5 5.625 17.5 4.5 18.625 C-2.50187149 19.19892389 -2.50187149 19.19892389 -6 17.1875 C-8.23848727 13.36341758 -8.39089077 9.9412122 -7.5 5.625 C-5.21692547 2.42869565 -3.82396672 0.95599168 0 0 Z " fill="#2C2C2C" transform="translate(169.5,439.375)"/>
<path d="M0 0 C1.32 0.33 2.64 0.66 4 1 C5.19287411 4.87684087 6 7.91621923 6 12 C6.66 12 7.32 12 8 12 C8.144375 10.9275 8.28875 9.855 8.4375 8.75 C8.83749442 6.08337051 9.27591924 3.58600271 10 1 C10.99 1 11.98 1 13 1 C11.91103333 6.75762166 10.70663707 12.39247819 9 18 C7.68 18 6.36 18 5 18 C4.01 14.04 3.02 10.08 2 6 C0.68 9.96 -0.64 13.92 -2 18 C-2.99 18 -3.98 18 -5 18 C-6.65 12.39 -8.3 6.78 -10 1 C-9.01 1 -8.02 1 -7 1 C-6.01 3.97 -5.02 6.94 -4 10 C-1.81024227 6.71536341 -1.00193437 3.79303725 0 0 Z " fill="#373737" transform="translate(131,252)"/>
<path d="M0 0 C1.95830173 0.26553244 3.91630215 0.53397241 5.87109375 0.82421875 C8.20345862 1.11924193 8.20345862 1.11924193 11.25 0.3125 C14 0 14 0 16.15625 1.52734375 C18.66329211 4.88954217 18.40348697 7.10585181 18.25 11.25 C18.21390625 12.51328125 18.1778125 13.7765625 18.140625 15.078125 C18.07101563 16.52445313 18.07101563 16.52445313 18 18 C17.01 18 16.02 18 15 18 C14.67 13.38 14.34 8.76 14 4 C12.35 4 10.7 4 9 4 C7.12175109 5.87824891 7.60897603 9.03935276 7.4375 11.5625 C7.35371094 12.76003906 7.26992187 13.95757812 7.18359375 15.19140625 C7.12300781 16.11824219 7.06242187 17.04507813 7 18 C6.34 18 5.68 18 5 18 C4.67 13.05 4.34 8.1 4 3 C2.35 3.33 0.7 3.66 -1 4 C-2.35091528 6.70183055 -2.33858058 9.11808206 -2.5625 12.125 C-2.64628906 13.22070312 -2.73007813 14.31640625 -2.81640625 15.4453125 C-2.87699219 16.28835937 -2.93757813 17.13140625 -3 18 C-3.66 18 -4.32 18 -5 18 C-5 12.39 -5 6.78 -5 1 C-3.68 1 -2.36 1 -1 1 C-0.67 0.67 -0.34 0.34 0 0 Z " fill="#1F1F1F" transform="translate(75,64)"/>
<path d="M0 0 C4.62 0 9.24 0 14 0 C14 0.66 14 1.32 14 2 C10.37 2 6.74 2 3 2 C3 4.64 3 7.28 3 10 C6.3 10 9.6 10 13 10 C13 10.99 13 11.98 13 13 C9.7 13 6.4 13 3 13 C3 15.31 3 17.62 3 20 C6.63 20 10.26 20 14 20 C14 20.99 14 21.98 14 23 C9.38 23 4.76 23 0 23 C0 15.41 0 7.82 0 0 Z " fill="#363636" transform="translate(51,59)"/>
<path d="M0 0 C0.99 0 1.98 0 3 0 C3.33 4.62 3.66 9.24 4 14 C5.65 14 7.3 14 9 14 C10.87824891 12.12175109 10.39102397 8.96064724 10.5625 6.4375 C10.64628906 5.23996094 10.73007813 4.04242188 10.81640625 2.80859375 C10.87699219 1.88175781 10.93757812 0.95492188 11 0 C11.99 0 12.98 0 14 0 C14 5.94 14 11.88 14 18 C12.68 17.67 11.36 17.34 10 17 C9.67 17.33 9.34 17.66 9 18 C3.74342389 18.45709357 3.74342389 18.45709357 1.31640625 16.96484375 C-0.71226431 13.93688739 -0.31525555 10.82086391 -0.1875 7.3125 C-0.17396484 6.61060547 -0.16042969 5.90871094 -0.14648438 5.18554688 C-0.11120182 3.45670171 -0.05739583 1.72825235 0 0 Z " fill="#BEBEBE" transform="translate(128,330)"/>
<path d="M0 0 C0.99 0 1.98 0 3 0 C3.33 4.62 3.66 9.24 4 14 C5.65 14 7.3 14 9 14 C10.87824891 12.12175109 10.39102397 8.96064724 10.5625 6.4375 C10.64628906 5.23996094 10.73007813 4.04242188 10.81640625 2.80859375 C10.87699219 1.88175781 10.93757812 0.95492187 11 0 C11.99 0 12.98 0 14 0 C14 5.94 14 11.88 14 18 C12.68 17.67 11.36 17.34 10 17 C9.67 17.33 9.34 17.66 9 18 C3.74342389 18.45709357 3.74342389 18.45709357 1.31640625 16.96484375 C-0.71226431 13.93688739 -0.31525555 10.82086391 -0.1875 7.3125 C-0.17396484 6.61060547 -0.16042969 5.90871094 -0.14648438 5.18554688 C-0.11120182 3.45670171 -0.05739583 1.72825235 0 0 Z " fill="#BEBEBE" transform="translate(128,142)"/>
<path d="M0 0 C1.828125 0.03515625 1.828125 0.03515625 4 1 C5.13266715 3.52465547 5.97728657 5.8059005 6.75 8.4375 C6.97042969 9.13166016 7.19085938 9.82582031 7.41796875 10.54101562 C9 15.61628979 9 15.61628979 9 18 C9.66 18 10.32 18 11 18 C11.16822266 16.71222656 11.16822266 16.71222656 11.33984375 15.3984375 C12.02648164 11.8636744 13.13294687 8.92396876 14.5625 5.625 C15.01753906 4.56539063 15.47257812 3.50578125 15.94140625 2.4140625 C16.29074219 1.61742187 16.64007813 0.82078125 17 0 C17.66 0 18.32 0 19 0 C17.59520823 7.53479222 15.65218599 15.22025142 12 22 C9.91162109 22.6640625 9.91162109 22.6640625 8 23 C6.66408687 19.35510669 5.33170192 15.70893381 4 12.0625 C3.6184375 11.02158203 3.236875 9.98066406 2.84375 8.90820312 C2.4828125 7.91884766 2.121875 6.92949219 1.75 5.91015625 C1.41484375 4.99371338 1.0796875 4.07727051 0.734375 3.13305664 C0 1 0 1 0 0 Z " fill="#BABABA" transform="translate(81,325)"/>
<path d="M0 0 C1.828125 0.03515625 1.828125 0.03515625 4 1 C5.13266715 3.52465547 5.97728657 5.8059005 6.75 8.4375 C6.97042969 9.13166016 7.19085938 9.82582031 7.41796875 10.54101562 C9 15.61628979 9 15.61628979 9 18 C9.66 18 10.32 18 11 18 C11.16822266 16.71222656 11.16822266 16.71222656 11.33984375 15.3984375 C12.02648164 11.8636744 13.13294687 8.92396876 14.5625 5.625 C15.01753906 4.56539062 15.47257812 3.50578125 15.94140625 2.4140625 C16.29074219 1.61742187 16.64007813 0.82078125 17 0 C17.66 0 18.32 0 19 0 C17.59520823 7.53479222 15.65218599 15.22025142 12 22 C9.91162109 22.6640625 9.91162109 22.6640625 8 23 C6.66408687 19.35510669 5.33170192 15.70893381 4 12.0625 C3.6184375 11.02158203 3.236875 9.98066406 2.84375 8.90820312 C2.4828125 7.91884766 2.121875 6.92949219 1.75 5.91015625 C1.41484375 4.99371338 1.0796875 4.07727051 0.734375 3.13305664 C0 1 0 1 0 0 Z " fill="#BABABA" transform="translate(81,137)"/>
<path d="M0 0 C1.32 0.33 2.64 0.66 4 1 C5.485 0.6596875 5.485 0.6596875 7 0.3125 C10 0 10 0 12.171875 1.52734375 C14.65836096 4.8904754 14.40309652 7.11639388 14.25 11.25 C14.21390625 12.51328125 14.1778125 13.7765625 14.140625 15.078125 C14.07101562 16.52445312 14.07101562 16.52445312 14 18 C13.01 18 12.02 18 11 18 C10.67 13.38 10.34 8.76 10 4 C8.35 4 6.7 4 5 4 C3.12175109 5.87824891 3.60897603 9.03935276 3.4375 11.5625 C3.31181641 13.35880859 3.31181641 13.35880859 3.18359375 15.19140625 C3.12300781 16.11824219 3.06242187 17.04507812 3 18 C2.01 18 1.02 18 0 18 C0 12.06 0 6.12 0 0 Z " fill="#878787" transform="translate(260,484)"/>
<path d="M0 0 C-0.28938349 5.47761602 -3.56143363 8.22678993 -7.25 11.875 C-7.82363281 12.48085938 -8.39726563 13.08671875 -8.98828125 13.7109375 C-13.26024666 17.99263403 -13.26024666 17.99263403 -16.74609375 18.02734375 C-19.93966295 16.57169609 -21.79514086 14.70882695 -24 12 C-24 10.68 -24 9.36 -24 8 C-21.11562221 9.29299694 -19.12780579 10.65941363 -17 13 C-12.93686138 11.40170377 -10.31808538 8.47546962 -7.375 5.375 C-2.26875 0 -2.26875 0 0 0 Z " fill="#D9D9D9" transform="translate(76,436)"/>
<path d="M0 0 C1.134375 0.28875 2.26875 0.5775 3.4375 0.875 C4.0975 2.195 4.7575 3.515 5.4375 4.875 C2.4675 4.545 -0.5025 4.215 -3.5625 3.875 C-3.8925 4.865 -4.2225 5.855 -4.5625 6.875 C-3.92441406 7.07996094 -3.28632812 7.28492188 -2.62890625 7.49609375 C-1.80261719 7.76550781 -0.97632812 8.03492188 -0.125 8.3125 C0.69871094 8.57933594 1.52242187 8.84617187 2.37109375 9.12109375 C4.4375 9.875 4.4375 9.875 5.4375 10.875 C5.6875 13.3125 5.6875 13.3125 5.4375 15.875 C1.36900591 18.58732939 -0.72726784 18.18199887 -5.5625 17.875 C-6.2225 17.215 -6.8825 16.555 -7.5625 15.875 C-7.5625 14.885 -7.5625 13.895 -7.5625 12.875 C-6.5725 12.875 -5.5825 12.875 -4.5625 12.875 C-4.2325 13.535 -3.9025 14.195 -3.5625 14.875 C-1.9125 14.875 -0.2625 14.875 1.4375 14.875 C1.7675 13.555 2.0975 12.235 2.4375 10.875 C1.344375 10.771875 0.25125 10.66875 -0.875 10.5625 C-4.5625 9.875 -4.5625 9.875 -6.5625 8.625 C-7.5625 6.875 -7.5625 6.875 -7.4375 4.3125 C-5.97580693 0.24064073 -4.15382168 -0.14574813 0 0 Z " fill="#313131" transform="translate(112.5625,252.125)"/>
<path d="M0 0 C3 -0.375 3 -0.375 6 0 C8.46324069 3.69486103 8.38991688 5.63293092 8 10 C6.875 12 6.875 12 5 13 C1.875 12.8125 1.875 12.8125 -1 12 C-2.50934217 8.98131566 -2.17510672 6.32702771 -2 3 C-1.34 2.01 -0.68 1.02 0 0 Z " fill="#FAFAFA" transform="translate(245,487)"/>
<path d="M0 0 C1.0725 0.2475 2.145 0.495 3.25 0.75 C3.58 2.07 3.91 3.39 4.25 4.75 C1.61 4.42 -1.03 4.09 -3.75 3.75 C-4.08 4.74 -4.41 5.73 -4.75 6.75 C-2.73177083 7.20572917 -0.71354167 7.66145833 1.3046875 8.1171875 C3.25 8.75 3.25 8.75 5.25 10.75 C5.5625 13.25 5.5625 13.25 5.25 15.75 C2.16111478 17.80925681 1.54064073 17.9890374 -1.9375 17.875 C-3.195625 17.83375 -4.45375 17.7925 -5.75 17.75 C-6.41 16.43 -7.07 15.11 -7.75 13.75 C-4.78 14.08 -1.81 14.41 1.25 14.75 C1.25 13.76 1.25 12.77 1.25 11.75 C0.68410156 11.59144531 0.11820312 11.43289063 -0.46484375 11.26953125 C-2.67608658 10.56613063 -4.69722385 9.83448551 -6.75 8.75 C-8 6.3125 -8 6.3125 -7.75 3.75 C-5.41350475 0.05054919 -4.41181366 -0.29412091 0 0 Z " fill="#DDDDDD" transform="translate(332.75,594.25)"/>
<path d="M0 0 C1.8125 1.375 1.8125 1.375 3 3 C3 3.66 3 4.32 3 5 C0.36 4.67 -2.28 4.34 -5 4 C-5.33 4.99 -5.66 5.98 -6 7 C-3.98177083 7.45572917 -1.96354167 7.91145833 0.0546875 8.3671875 C2 9 2 9 4 11 C3.67028521 14.29714793 3.3773161 15.6226839 1 18 C-0.875 18.265625 -0.875 18.265625 -3 18.25 C-4.051875 18.25773437 -4.051875 18.25773437 -5.125 18.265625 C-7 18 -7 18 -9 16 C-9 15.01 -9 14.02 -9 13 C-8.34 13 -7.68 13 -7 13 C-7 13.66 -7 14.32 -7 15 C-4.36 15 -1.72 15 1 15 C0.33372488 11.88403088 0.33372488 11.88403088 -2.06640625 10.83203125 C-3.30197266 10.32736328 -3.30197266 10.32736328 -4.5625 9.8125 C-5.38878906 9.46832031 -6.21507812 9.12414062 -7.06640625 8.76953125 C-7.70449219 8.51558594 -8.34257812 8.26164062 -9 8 C-9.25 5.6875 -9.25 5.6875 -9 3 C-6.2535647 0.05012505 -3.9597373 -0.60919035 0 0 Z " fill="#838383" transform="translate(157,484)"/>
<path d="M0 0 C3 -0.375 3 -0.375 6 0 C8.46324069 3.69486103 8.38991688 5.63293092 8 10 C6.8125 12 6.8125 12 5 13 C2.4375 12.875 2.4375 12.875 0 12 C-2.31332486 8.53001271 -2.33957563 7.07490752 -2 3 C-1.34 2.01 -0.68 1.02 0 0 Z " fill="#F6F6F6" transform="translate(182,255)"/>
<path d="M0 0 C2.5625 0.3125 2.5625 0.3125 4.375 1.4375 C6.12207504 4.19603953 5.95453417 6.11088764 5.5625 9.3125 C4.375 11.6875 4.375 11.6875 2.5625 13.3125 C0 13.75 0 13.75 -2.4375 13.3125 C-5.14982939 9.24400591 -4.74449887 7.14773216 -4.4375 2.3125 C-2.4375 0.3125 -2.4375 0.3125 0 0 Z " fill="#F8F8F8" transform="translate(154.4375,254.6875)"/>
<path d="M0 0 C2.83181098 -0.43566323 4.36063578 -0.39684676 6.8125 1.125 C8.55957504 3.88353953 8.39203417 5.79838764 8 9 C6.5 11.375 6.5 11.375 5 13 C0.25 12.25 0.25 12.25 -2 10 C-2.31537716 5.66356399 -2.44897847 3.67346771 0 0 Z " fill="#FBFBFB" transform="translate(207,487)"/>
<path d="M0 0 C1.875 1.375 1.875 1.375 3 3 C3 3.66 3 4.32 3 5 C2.01 5 1.02 5 0 5 C0 4.34 0 3.68 0 3 C-1.98 3.33 -3.96 3.66 -6 4 C-5.35932024 7.08759559 -5.35932024 7.08759559 -3.15234375 7.94921875 C-2.42144531 8.19285156 -1.69054687 8.43648438 -0.9375 8.6875 C-0.20402344 8.93886719 0.52945313 9.19023437 1.28515625 9.44921875 C1.85105469 9.63097656 2.41695312 9.81273437 3 10 C3.1875 12.875 3.1875 12.875 3 16 C-0.69486103 18.46324069 -2.63293092 18.38991688 -7 18 C-8.9375 16.625 -8.9375 16.625 -10 15 C-10 14.34 -10 13.68 -10 13 C-9.01 13 -8.02 13 -7 13 C-6.67 13.66 -6.34 14.32 -6 15 C-4.35 15 -2.7 15 -1 15 C-0.67 14.01 -0.34 13.02 0 12 C-0.56589844 11.79503906 -1.13179687 11.59007812 -1.71484375 11.37890625 C-2.44832031 11.10949219 -3.18179688 10.84007812 -3.9375 10.5625 C-4.66839844 10.29566406 -5.39929688 10.02882813 -6.15234375 9.75390625 C-8 9 -8 9 -9 8 C-9.29178308 5.22806071 -9.36366316 3.58590175 -7.875 1.1875 C-5.12844028 -0.55198782 -3.18153026 -0.39769128 0 0 Z " fill="#313131" transform="translate(98,252)"/>
<path d="M0 0 C4.57722635 1.35621521 4.57722635 1.35621521 6.375 4 C6.375 4.66 6.375 5.32 6.375 6 C2.5 5.125 2.5 5.125 1.375 4 C-1.125 3.83333333 -1.125 3.83333333 -3.625 4 C-5.51988952 5.89488952 -4.80519112 8.57139146 -4.85546875 11.08984375 C-4.7952792 13.2412636 -4.7952792 13.2412636 -2.625 15 C-0.18782742 14.72965366 -0.18782742 14.72965366 2.375 14 C3.138125 13.814375 3.90125 13.62875 4.6875 13.4375 C5.244375 13.293125 5.80125 13.14875 6.375 13 C4.5 16.875 4.5 16.875 3.375 18 C-3.74908759 18.70072993 -3.74908759 18.70072993 -7.125 16 C-9.04392757 12.16214487 -9.58973538 9.20590773 -8.625 5 C-5.9573351 1.03892181 -4.82598436 0 0 0 Z " fill="#838383" transform="translate(172.625,484)"/>
<path d="M0 0 C2.5 0.25 2.5 0.25 4.5 2.25 C4.80078125 4.34375 4.80078125 4.34375 4.8125 6.75 C4.83763672 7.94109375 4.83763672 7.94109375 4.86328125 9.15625 C4.74339844 9.8471875 4.62351563 10.538125 4.5 11.25 C1.5 13.25 1.5 13.25 -1.125 13 C-1.90875 12.7525 -2.6925 12.505 -3.5 12.25 C-4.61445498 10.02109005 -4.66480286 8.71944894 -4.6875 6.25 C-4.70167969 5.54875 -4.71585938 4.8475 -4.73046875 4.125 C-4.34202978 0.96481851 -3.03116737 0.30311674 0 0 Z " fill="#FAFAFA" transform="translate(150.5,442.75)"/>
<path d="M0 0 C2.4375 0.375 2.4375 0.375 4.4375 2.375 C4.703125 4.25 4.703125 4.25 4.6875 6.375 C4.69265625 7.07625 4.6978125 7.7775 4.703125 8.5 C4.4375 10.375 4.4375 10.375 2.4375 12.375 C-1.1875 12 -1.1875 12 -4.5625 11.375 C-5.89217033 5.08928571 -5.89217033 5.08928571 -4.4375 1.9375 C-2.5625 0.375 -2.5625 0.375 0 0 Z " fill="#323232" transform="translate(305.5625,596.625)"/>
<path d="M0 0 C3.96 0 7.92 0 12 0 C11.67 0.66 11.34 1.32 11 2 C8.36 2 5.72 2 3 2 C3 5.3 3 8.6 3 12 C4.98 12 6.96 12 9 12 C9 12.33 9 12.66 9 13 C7.02 13 5.04 13 3 13 C3 16.3 3 19.6 3 23 C2.01 23 1.02 23 0 23 C0 15.41 0 7.82 0 0 Z " fill="#E5E5E5" transform="translate(260,589)"/>
<path d="M0 0 C6.40818182 -0.36272727 6.40818182 -0.36272727 8.9375 1.1875 C10.37794659 3.64473241 10.4305182 5.20163168 10 8 C6.3558226 10.4294516 4.28758728 10.16179575 0 10 C0 6.7 0 3.4 0 0 Z " fill="#F3F3F3" transform="translate(54,249)"/>
<path d="M0 0 C0.99 0 1.98 0 3 0 C3 1.32 3 2.64 3 4 C4.32 4 5.64 4 7 4 C7 4.99 7 5.98 7 7 C5.68 7 4.36 7 3 7 C3.33 10.96 3.66 14.92 4 19 C4.99 19.33 5.98 19.66 7 20 C7 20.66 7 21.32 7 22 C4.625 22.1875 4.625 22.1875 2 22 C-0.35119399 18.47320901 -0.21443452 16.97120515 -0.125 12.8125 C-0.10695313 11.72582031 -0.08890625 10.63914062 -0.0703125 9.51953125 C-0.04710937 8.68808594 -0.02390625 7.85664062 0 7 C-0.66 7 -1.32 7 -2 7 C-2 6.01 -2 5.02 -2 4 C-1.34 4 -0.68 4 0 4 C0 2.68 0 1.36 0 0 Z " fill="#D6D6D6" transform="translate(343,590)"/>
<path d="M0 0 C0.99 0 1.98 0 3 0 C3 6.93 3 13.86 3 21 C6.3 21 9.6 21 13 21 C13 21.66 13 22.32 13 23 C8.71 23 4.42 23 0 23 C0 15.41 0 7.82 0 0 Z " fill="#313131" transform="translate(107,435)"/>
<path d="M0 0 C0.99 0 1.98 0 3 0 C3 1.32 3 2.64 3 4 C3.99 4 4.98 4 6 4 C6 4.99 6 5.98 6 7 C5.01 7 4.02 7 3 7 C3 11.29 3 15.58 3 20 C3.99 20 4.98 20 6 20 C6 20.66 6 21.32 6 22 C1.125 21.125 1.125 21.125 0 20 C-0.07258946 17.81360547 -0.08373783 15.62499611 -0.0625 13.4375 C-0.05347656 12.23996094 -0.04445312 11.04242188 -0.03515625 9.80859375 C-0.02355469 8.88175781 -0.01195312 7.95492188 0 7 C-0.99 7 -1.98 7 -3 7 C-3 6.01 -3 5.02 -3 4 C-2.01 4 -1.02 4 0 4 C0 2.68 0 1.36 0 0 Z " fill="#8B8B8B" transform="translate(223,480)"/>
<path d="M0 0 C0.33 0.66 0.66 1.32 1 2 C4.63 2 8.26 2 12 2 C12.33 1.34 12.66 0.68 13 0 C13.33 1.32 13.66 2.64 14 4 C10.04 4 6.08 4 2 4 C2.33 5.32 2.66 6.64 3 8 C7.23646767 9.0089034 7.23646767 9.0089034 11.375 8.0625 C11.91125 7.711875 12.4475 7.36125 13 7 C13 7.99 13 8.98 13 10 C11 12 11 12 7.0625 12.3125 C4.34546052 12.24851175 3.31508159 12.22360629 1.0625 10.625 C-1.11685604 7.29186724 -1.16895189 4.97036939 -1 1 C-0.67 0.67 -0.34 0.34 0 0 Z " fill="#F0F0F0" transform="translate(354,600)"/>
<path d="M0 0 C0.33 0.66 0.66 1.32 1 2 C4.63 2 8.26 2 12 2 C12 1.34 12 0.68 12 0 C12.66 0 13.32 0 14 0 C14 1.32 14 2.64 14 4 C10.04 4 6.08 4 2 4 C2.33 5.32 2.66 6.64 3 8 C6.97754128 8.73334429 6.97754128 8.73334429 11 9 C11 8.34 11 7.68 11 7 C11.99 7.33 12.98 7.66 14 8 C13 10 13 10 11 12 C7.82713964 12.45326577 6.00872525 12.69618391 3 12 C-0.14303656 9.32841892 -0.91769879 7.85593254 -1.3125 3.75 C-1 1 -1 1 0 0 Z " fill="#B6B6B6" transform="translate(147,336)"/>
<path d="M0 0 C0.33 0.66 0.66 1.32 1 2 C4.63 2 8.26 2 12 2 C12 1.34 12 0.68 12 0 C12.66 0 13.32 0 14 0 C14 1.32 14 2.64 14 4 C10.04 4 6.08 4 2 4 C2.33 5.32 2.66 6.64 3 8 C6.97754128 8.73334429 6.97754128 8.73334429 11 9 C11 8.34 11 7.68 11 7 C11.99 7.33 12.98 7.66 14 8 C13 10 13 10 11 12 C7.82713964 12.45326577 6.00872525 12.69618391 3 12 C-0.14303656 9.32841892 -0.91769879 7.85593254 -1.3125 3.75 C-1 1 -1 1 0 0 Z " fill="#B6B6B6" transform="translate(147,148)"/>
<path d="M0 0 C6.39075249 -0.36174071 6.39075249 -0.36174071 9 1.1875 C10 3 10 3 9.75 5.625 C9 8 9 8 8 9 C5.32941149 9.14115161 2.67567762 9.04247107 0 9 C0 6.03 0 3.06 0 0 Z " fill="#343434" transform="translate(263,591)"/>
<path d="M0 0 C0.33 0.66 0.66 1.32 1 2 C7.435 1.505 7.435 1.505 14 1 C14 1.99 14 2.98 14 4 C9.71 4 5.42 4 1 4 C1.99 5.65 2.98 7.3 4 9 C7.59379371 9.6450399 9.90428591 8.83449724 13 7 C13 7.99 13 8.98 13 10 C11 12 11 12 7.125 12.375 C4.14680696 12.28294676 3.10377314 12.06485821 0.5 10.4375 C-1.52053657 7.15412807 -1.35688621 4.78299385 -1 1 C-0.67 0.67 -0.34 0.34 0 0 Z " fill="#777777" transform="translate(130,490)"/>
<path d="M0 0 C2.54112881 0.25411288 3.80489794 0.83276966 5.75 2.5 C7.64956594 6.29913188 7.5440629 9.83381972 7 14 C5.24993671 18.23699534 3.03589821 19.92751173 -1 22 C-1.33 21.34 -1.66 20.68 -2 20 C-3.98 20 -5.96 20 -8 20 C-8 19.67 -8 19.34 -8 19 C-7.28972656 18.87882812 -6.57945313 18.75765625 -5.84765625 18.6328125 C-4.92855469 18.46523438 -4.00945312 18.29765625 -3.0625 18.125 C-1.68771484 17.88136719 -1.68771484 17.88136719 -0.28515625 17.6328125 C0.46894531 17.42398437 1.22304687 17.21515625 2 17 C3.84181137 13.31637726 3.49936743 9.02088059 3 5 C1.20808542 2.36483958 1.20808542 2.36483958 -1 1 C-0.67 0.67 -0.34 0.34 0 0 Z " fill="#858585" transform="translate(118,480)"/>
<path d="M0 0 C1.32 0.33 2.64 0.66 4 1 C6.68149993 0.61432869 6.68149993 0.61432869 9 0 C9 0.99 9 1.98 9 3 C7.35 3.66 5.7 4.32 4 5 C3.67 9.29 3.34 13.58 3 18 C2.01 18 1.02 18 0 18 C0 12.06 0 6.12 0 0 Z " fill="#D8D8D8" transform="translate(372,594)"/>
<path d="M0 0 C0.99 0 1.98 0 3 0 C3 7.59 3 15.18 3 23 C2.01 23 1.02 23 0 23 C0 15.41 0 7.82 0 0 Z " fill="#3A3A3A" transform="translate(181,435)"/>
<path d="M0 0 C2.49118953 3.7367843 2.2065226 5.74451819 2.125 10.1875 C2.10695313 11.45980469 2.08890625 12.73210937 2.0703125 14.04296875 C2.03550781 15.50669922 2.03550781 15.50669922 2 17 C1.01 17 0.02 17 -1 17 C-1.33 12.38 -1.66 7.76 -2 3 C-3.98 3 -5.96 3 -8 3 C-8.66 2.34 -9.32 1.68 -10 1 C-6.43904118 -1.32831923 -4.04274788 -1.14251571 0 0 Z " fill="#454545" transform="translate(91,65)"/>
<path d="M0 0 C0.99 0 1.98 0 3 0 C3 7.59 3 15.18 3 23 C2.01 23 1.02 23 0 23 C0 15.41 0 7.82 0 0 Z " fill="#3A3A3A" transform="translate(123,59)"/>
<path d="M0 0 C0.99 0 1.98 0 3 0 C3.33 0.66 3.66 1.32 4 2 C4.66 1.34 5.32 0.68 6 0 C8.375 -0.375 8.375 -0.375 11 0 C13.3125 1.875 13.3125 1.875 15 4 C15 4.66 15 5.32 15 6 C11.125 5.125 11.125 5.125 10 4 C7.36 4 4.72 4 2 4 C1.67 10.6 1.34 17.2 1 24 C1.66 24.33 2.32 24.66 3 25 C2.01 25 1.02 25 0 25 C0 16.75 0 8.5 0 0 Z " fill="#919191" transform="translate(202,484)"/>
<path d="M0 0 C1.32 -0.33 2.64 -0.66 4 -1 C4 5.93 4 12.86 4 20 C3.67 20 3.34 20 3 20 C2.67 14.39 2.34 8.78 2 3 C1.01 3 0.02 3 -1 3 C-1.825 2.938125 -2.65 2.87625 -3.5 2.8125 C-6.06911785 2.76292696 -6.06911785 2.76292696 -7.8125 4.5 C-8.4003125 5.2425 -8.4003125 5.2425 -9 6 C-9.66 5.67 -10.32 5.34 -11 5 C-8.46022155 -0.86102719 -5.94528119 -1.09199042 0 0 Z " fill="#D0D0D0" transform="translate(309,595)"/>
<path d="M0 0 C0.99 0 1.98 0 3 0 C3 5.94 3 11.88 3 18 C2.01 18 1.02 18 0 18 C0 12.06 0 6.12 0 0 Z " fill="#848484" transform="translate(233,484)"/>
<path d="M0 0 C0.99 0 1.98 0 3 0 C4.32 3.63 5.64 7.26 7 11 C7.66 10.67 8.32 10.34 9 10 C8.67 12.31 8.34 14.62 8 17 C7.01 17 6.02 17 5 17 C3.35 11.39 1.7 5.78 0 0 Z " fill="#363636" transform="translate(121,253)"/>
<path d="M0 0 C0.99 0 1.98 0 3 0 C3 5.94 3 11.88 3 18 C2.01 18 1.02 18 0 18 C0 12.06 0 6.12 0 0 Z " fill="#3F3F3F" transform="translate(115,64)"/>
<path d="M0 0 C0.33 0 0.66 0 1 0 C1 3.63 1 7.26 1 11 C-3.29 11 -7.58 11 -12 11 C-10.68 10.34 -9.36 9.68 -8 9 C-3.02482725 5.27451603 -3.02482725 5.27451603 0 0 Z " fill="#070707" transform="translate(639,677)"/>
<path d="M0 0 C4.29 0 8.58 0 13 0 C13 3.63 13 7.26 13 11 C12.443125 10.2575 11.88625 9.515 11.3125 8.75 C7.93949045 4.73885351 4.68560487 2.34280244 0 0 Z " fill="#070707" transform="translate(627,0)"/>
<path d="M0 0 C1.32 0 2.64 0 4 0 C4 0.99 4 1.98 4 3 C2.02 3.66 0.04 4.32 -2 5 C-2.33 9.29 -2.66 13.58 -3 18 C-3.66 18 -4.32 18 -5 18 C-5 12.39 -5 6.78 -5 1 C-3.68 1 -2.36 1 -1 1 C-0.67 0.67 -0.34 0.34 0 0 Z " fill="#7D7D7D" transform="translate(188,484)"/>
<path d="M0 0 C0.33 0.66 0.66 1.32 1 2 C-0.670625 2.12375 -0.670625 2.12375 -2.375 2.25 C-4.169375 2.62125 -4.169375 2.62125 -6 3 C-6.66 4.32 -7.32 5.64 -8 7 C-5.03 7 -2.06 7 1 7 C0.01 8.485 0.01 8.485 -1 10 C-4.5 10.3125 -4.5 10.3125 -8 10 C-10 8 -10 8 -10.3125 5 C-10.209375 4.01 -10.10625 3.02 -10 2 C-6.3558226 -0.4294516 -4.28758728 -0.16179575 0 0 Z " fill="#2D2D2D" transform="translate(134,448)"/>
<path d="M0 0 C1.32 0 2.64 0 4 0 C4 0.99 4 1.98 4 3 C2.02 3.66 0.04 4.32 -2 5 C-2.33 9.29 -2.66 13.58 -3 18 C-3.66 18 -4.32 18 -5 18 C-5 12.39 -5 6.78 -5 1 C-3.68 1 -2.36 1 -1 1 C-0.67 0.67 -0.34 0.34 0 0 Z " fill="#2B2B2B" transform="translate(172,252)"/>
<path d="M0 0 C0.556875 0.7425 1.11375 1.485 1.6875 2.25 C3.93727787 4.92541152 6.2309174 6.88675275 9 9 C9.66 9.66 10.32 10.32 11 11 C7.37 11 3.74 11 0 11 C0 7.37 0 3.74 0 0 Z " fill="#040404" transform="translate(0,677)"/>
<path d="M0 0 C0.99 0 1.98 0 3 0 C3 5.61 3 11.22 3 17 C2.01 17 1.02 17 0 17 C0 11.39 0 5.78 0 0 Z " fill="#D3D3D3" transform="translate(318,595)"/>
<path d="M0 0 C3.63 0 7.26 0 11 0 C10.2575 0.556875 9.515 1.11375 8.75 1.6875 C6.07458848 3.93727787 4.11324725 6.2309174 2 9 C1.34 9.66 0.68 10.32 0 11 C0 7.37 0 3.74 0 0 Z " fill="#040404" transform="translate(0,0)"/>
<path d="M0 0 C3.875 0.875 3.875 0.875 5 2 C5.25 4.4375 5.25 4.4375 5 7 C1.91111478 9.05925681 1.29064073 9.2390374 -2.1875 9.125 C-4.0746875 9.063125 -4.0746875 9.063125 -6 9 C-6.66 7.68 -7.32 6.36 -8 5 C-5.03 5.33 -2.06 5.66 1 6 C0.67 4.02 0.34 2.04 0 0 Z " fill="#E0E0E0" transform="translate(333,603)"/>
<path d="M0 0 C0.33 0 0.66 0 1 0 C1.33 1.98 1.66 3.96 2 6 C2.886875 5.731875 3.77375 5.46375 4.6875 5.1875 C8 5 8 5 10.875 7.3125 C13 10 13 10 13 12 C12.34 12 11.68 12 11 12 C10.67 13.32 10.34 14.64 10 16 C9.34 13.69 8.68 11.38 8 9 C7.05125 9.020625 6.1025 9.04125 5.125 9.0625 C2 9 2 9 0 8 C0 5.36 0 2.72 0 0 Z " fill="#505050" transform="translate(145,435)"/>
<path d="M0 0 C1.134375 0.020625 2.26875 0.04125 3.4375 0.0625 C2.5625 4.9375 2.5625 4.9375 1.4375 6.0625 C-0.90194736 5.77519945 -3.2364143 5.44313221 -5.5625 5.0625 C-4.43693182 0.07784091 -4.43693182 0.07784091 0 0 Z " fill="#E7E7E7" transform="translate(131.5625,449.9375)"/>
<path d="M0 0 C0.33 0 0.66 0 1 0 C1 3.63 1 7.26 1 11 C-2.63 11 -6.26 11 -10 11 C-10.66 9.35 -11.32 7.7 -12 6 C-11.34 5.67 -10.68 5.34 -10 5 C-9.01 6.485 -9.01 6.485 -8 8 C-5.5 8.41666667 -5.5 8.41666667 -3 8 C-0.70941092 6.16918103 -0.70941092 6.16918103 -0.9375 3.4375 C-0.958125 2.633125 -0.97875 1.82875 -1 1 C-0.67 0.67 -0.34 0.34 0 0 Z " fill="#292929" transform="translate(82,259)"/>
<path d="M0 0 C-0.875 4.875 -0.875 4.875 -2 6 C-4.33944736 5.71269945 -6.6739143 5.38063221 -9 5 C-8.6875 3.0625 -8.6875 3.0625 -8 1 C-5.07175348 0.02391783 -3.04386724 -0.08226668 0 0 Z " fill="#F8F8F8" transform="translate(113,340)"/>
<path d="M0 0 C-0.875 4.875 -0.875 4.875 -2 6 C-4.33944736 5.71269945 -6.6739143 5.38063221 -9 5 C-8.6875 3.0625 -8.6875 3.0625 -8 1 C-5.07175348 0.02391783 -3.04386724 -0.08226668 0 0 Z " fill="#F8F8F8" transform="translate(113,152)"/>
<path d="M0 0 C1.134375 0.020625 2.26875 0.04125 3.4375 0.0625 C3.1075 1.7125 2.7775 3.3625 2.4375 5.0625 C-3.3125 6.1875 -3.3125 6.1875 -5.5625 5.0625 C-4.43693182 0.07784091 -4.43693182 0.07784091 0 0 Z " fill="#EBEBEB" transform="translate(104.5625,73.9375)"/>
<path d="M0 0 C0.598125 0.20625 1.19625 0.4125 1.8125 0.625 C0.8534375 1.2746875 0.8534375 1.2746875 -0.125 1.9375 C-2.45496003 3.53739177 -2.45496003 3.53739177 -3.1875 6.625 C-0.5475 6.625 2.0925 6.625 4.8125 6.625 C4.4825 7.615 4.1525 8.605 3.8125 9.625 C0.4375 9.75 0.4375 9.75 -3.1875 9.625 C-5.1875 7.625 -5.1875 7.625 -5.5 4.625 C-5.396875 3.635 -5.29375 2.645 -5.1875 1.625 C-2.1875 -0.375 -2.1875 -0.375 0 0 Z " fill="#2D2D2D" transform="translate(102.1875,72.375)"/>
<path d="M0 0 C4.65662651 1.16415663 4.65662651 1.16415663 6.5 3.875 C6.5 4.535 6.5 5.195 6.5 5.875 C2.625 5 2.625 5 1.5 3.875 C-2.75471906 3.40225344 -5.01436649 4.48485131 -8.5 6.875 C-5.33272727 -0.19045455 -5.33272727 -0.19045455 0 0 Z " fill="#8B8B8B" transform="translate(172.5,484.125)"/>
<path d="M0 0 C0.66 0 1.32 0 2 0 C2.48275862 6.27586207 2.48275862 6.27586207 0.375 9.4375 C-2.65009912 11.42769679 -4.44399109 11.46382725 -8 11 C-8.66 10.34 -9.32 9.68 -10 9 C-9.67 8.01 -9.34 7.02 -9 6 C-8.67 6.66 -8.34 7.32 -8 8 C-6.02 7.67 -4.04 7.34 -2 7 C-1.34 4.69 -0.68 2.38 0 0 Z " fill="#2D2D2D" transform="translate(156,447)"/>
<path d="M0 0 C-0.875 4.875 -0.875 4.875 -2 6 C-3.66617115 6.04063832 -5.33388095 6.042721 -7 6 C-7.33 4.35 -7.66 2.7 -8 1 C-5.29120665 -0.35439668 -2.99066732 -0.06501451 0 0 Z " fill="#F2F2F2" transform="translate(81,262)"/>
<path d="M0 0 C2 3 2 3 2 5 C4.64 5 7.28 5 10 5 C10 4.34 10 3.68 10 3 C10.99 3.33 11.98 3.66 13 4 C12 6 12 6 10 8 C6.37395583 8.71765457 3.1653763 8.67097423 -0.0625 6.8125 C-1.38135516 4.26271335 -0.7975116 2.68253902 0 0 Z " fill="#E1E1E1" transform="translate(281,604)"/>
<path d="M0 0 C2.5625 0.1875 2.5625 0.1875 4.5625 2.1875 C4.5625 3.1775 4.5625 4.1675 4.5625 5.1875 C1.2625 5.1875 -2.0375 5.1875 -5.4375 5.1875 C-2.9575 0.2275 -2.9575 0.2275 0 0 Z " fill="#F1F1F1" transform="translate(169.4375,442.8125)"/>
<path d="M0 0 C1.32 0.33 2.64 0.66 4 1 C4.33 2.65 4.66 4.3 5 6 C4.01 6 3.02 6 2 6 C1.34 7.98 0.68 9.96 0 12 C-0.99 12 -1.98 12 -3 12 C-2.01 8.04 -1.02 4.08 0 0 Z " fill="#424242" transform="translate(131,252)"/>
<path d="M0 0 C2.5625 0.1875 2.5625 0.1875 4.5625 2.1875 C4.5625 3.1775 4.5625 4.1675 4.5625 5.1875 C1.5925 5.1875 -1.3775 5.1875 -4.4375 5.1875 C-3.20220588 0.24632353 -3.20220588 0.24632353 0 0 Z " fill="#353535" transform="translate(360.4375,596.8125)"/>
<path d="M0 0 C2.5625 0.1875 2.5625 0.1875 4.5625 2.1875 C4.5625 3.1775 4.5625 4.1675 4.5625 5.1875 C1.5925 5.1875 -1.3775 5.1875 -4.4375 5.1875 C-3.20220588 0.24632353 -3.20220588 0.24632353 0 0 Z " fill="#353535" transform="translate(286.4375,596.8125)"/>
<path d="M0 0 C2.5625 0.1875 2.5625 0.1875 4.5625 2.1875 C4.5625 3.1775 4.5625 4.1675 4.5625 5.1875 C1.5925 5.1875 -1.3775 5.1875 -4.4375 5.1875 C-3.20220588 0.24632353 -3.20220588 0.24632353 0 0 Z " fill="#F8F8F8" transform="translate(136.4375,486.8125)"/>
<path d="M0 0 C2.0625 0.4375 2.0625 0.4375 4 1 C2.515 3.475 2.515 3.475 1 6 C3.97 6 6.94 6 10 6 C9.01 7.485 9.01 7.485 8 9 C4.5 9.3125 4.5 9.3125 1 9 C-1 7 -1 7 -1.1875 3.9375 C-1 1 -1 1 0 0 Z " fill="#B7B7B7" transform="translate(103,339)"/>
<path d="M0 0 C2.5625 0.1875 2.5625 0.1875 4.5625 2.1875 C4.5625 3.1775 4.5625 4.1675 4.5625 5.1875 C1.5925 5.1875 -1.3775 5.1875 -4.4375 5.1875 C-3.20220588 0.24632353 -3.20220588 0.24632353 0 0 Z " fill="#FBFBFB" transform="translate(153.4375,332.8125)"/>
<path d="M0 0 C2.0625 0.4375 2.0625 0.4375 4 1 C2.515 3.475 2.515 3.475 1 6 C3.97 6 6.94 6 10 6 C9.01 7.485 9.01 7.485 8 9 C4.5 9.3125 4.5 9.3125 1 9 C-1 7 -1 7 -1.1875 3.9375 C-1 1 -1 1 0 0 Z " fill="#B7B7B7" transform="translate(103,151)"/>
<path d="M0 0 C2.5625 0.1875 2.5625 0.1875 4.5625 2.1875 C4.5625 3.1775 4.5625 4.1675 4.5625 5.1875 C1.5925 5.1875 -1.3775 5.1875 -4.4375 5.1875 C-3.20220588 0.24632353 -3.20220588 0.24632353 0 0 Z " fill="#FBFBFB" transform="translate(153.4375,144.8125)"/>
<path d="M0 0 C1.134375 0.28875 2.26875 0.5775 3.4375 0.875 C4.65234375 2.9296875 4.65234375 2.9296875 5.4375 4.875 C4.75042969 4.76800781 4.06335938 4.66101563 3.35546875 4.55078125 C2.45441406 4.43089844 1.55335937 4.31101562 0.625 4.1875 C-0.26832031 4.05988281 -1.16164063 3.93226563 -2.08203125 3.80078125 C-4.63274209 3.62608118 -4.63274209 3.62608118 -6.38671875 5.35546875 C-6.96873047 6.10763672 -6.96873047 6.10763672 -7.5625 6.875 C-7.25 4.5 -7.25 4.5 -6.5625 1.875 C-3.5625 -0.125 -3.5625 -0.125 0 0 Z " fill="#4E4E4E" transform="translate(112.5625,252.125)"/>
<path d="M0 0 C0.556875 0.33 1.11375 0.66 1.6875 1 C4.38375292 2.16594721 6.08657033 2.29134297 9 2 C11.25132517 1.08431094 11.25132517 1.08431094 13 0 C13 0.99 13 1.98 13 3 C11 5 11 5 7.0625 5.3125 C4.32994009 5.24802944 3.29117734 5.20018442 1 3.625 C0 2 0 2 0 0 Z " fill="#838383" transform="translate(130,497)"/>
<path d="M0 0 C0.33 0 0.66 0 1 0 C1.99 2.97 2.98 5.94 4 9 C5.65 9.33 7.3 9.66 9 10 C9 10.66 9 11.32 9 12 C6.25 12.3125 6.25 12.3125 3 12 C-0.01571379 9.30172977 -0.92360502 7.7945078 -1.3125 3.75 C-1 1 -1 1 0 0 Z " fill="#262626" transform="translate(148,258)"/>
<path d="M0 0 C0 0.99 0 1.98 0 3 C-1.98 3.66 -3.96 4.32 -6 5 C-6.33 6.98 -6.66 8.96 -7 11 C-8.625 9.3125 -8.625 9.3125 -10 7 C-8.62448783 1.22284889 -5.71891365 -0.30913047 0 0 Z " fill="#494949" transform="translate(157,252)"/>
<path d="M0 0 C1.8125 1.375 1.8125 1.375 3 3 C3 3.66 3 4.32 3 5 C0.98177083 4.67447917 -1.03645833 4.34895833 -3.0546875 4.0234375 C-3.69664062 4.01570313 -4.33859375 4.00796875 -5 4 C-5.66 4.66 -6.32 5.32 -7 6 C-7.66 5.67 -8.32 5.34 -9 5 C-6.8965142 0.34228145 -5.1466536 -0.50211255 0 0 Z " fill="#8B8B8B" transform="translate(157,484)"/>
<path d="M0 0 C2 1 2 1 3.375 3.875 C4.97777166 6.9572532 6.1041453 8.20257295 9 10 C8.67 10.99 8.34 11.98 8 13 C3.33716394 9.48417174 0.27789598 6.96351455 -1 1 C-0.67 0.67 -0.34 0.34 0 0 Z " fill="#C7C7C7" transform="translate(1,674)"/>
<path d="M0 0 C0.99 0.33 1.98 0.66 3 1 C2 3 2 3 0 5 C-3.45134689 5.54346362 -6.82227126 5.58886437 -10 4 C-10 3.34 -10 2.68 -10 2 C-8.72125 2.04125 -7.4425 2.0825 -6.125 2.125 C-3.98128508 2.24212873 -3.98128508 2.24212873 -2 2 C-1.34 1.34 -0.68 0.68 0 0 Z " fill="#DDDDDD" transform="translate(365,607)"/>
<path d="M0 0 C0.99 0.33 1.98 0.66 3 1 C0.05129788 6.18971573 -2.53177087 8.51444131 -8 11 C-8.99 10.67 -9.98 10.34 -11 10 C-10 8 -10 8 -6.625 6.6875 C-2.75274686 4.8848994 -1.74247831 3.79245279 0 0 Z " fill="#DFDFDF" transform="translate(589,366)"/>
<path d="M0 0 C0.99 0.33 1.98 0.66 3 1 C0.05129788 6.18971573 -2.53177087 8.51444131 -8 11 C-8.99 10.67 -9.98 10.34 -11 10 C-10 8 -10 8 -6.625 6.6875 C-2.75274686 4.8848994 -1.74247831 3.79245279 0 0 Z " fill="#DFDFDF" transform="translate(589,178)"/>
<path d="M0 0 C0.33 0.66 0.66 1.32 1 2 C-1.55398281 6.16204606 -3.95054353 9.22931926 -8 12 C-8.66 12 -9.32 12 -10 12 C-8.74993611 8.24980832 -7.06668123 7.42481772 -4 5 C-2.62631655 3.36643049 -1.28062485 1.7074998 0 0 Z " fill="#C5C5C5" transform="translate(639,675)"/>
<path d="M0 0 C0.33 0 0.66 0 1 0 C1.33 2.97 1.66 5.94 2 9 C4.475 9.99 4.475 9.99 7 11 C7 11.33 7 11.66 7 12 C4.3335118 12.21620175 2.55995679 12.30894168 0.1875 11 C-1.75998613 7.72002335 -1.24293242 4.76545255 -1 1 C-0.67 0.67 -0.34 0.34 0 0 Z " fill="#ECECEC" transform="translate(299,599)"/>
<path d="M0 0 C2.375 -0.4375 2.375 -0.4375 5 0 C7.3125 1.875 7.3125 1.875 9 4 C9 4.66 9 5.32 9 6 C5.30099992 5.11223998 1.65449539 4.05418136 -2 3 C-1.34 2.01 -0.68 1.02 0 0 Z " fill="#898989" transform="translate(208,484)"/>
<path d="M0 0 C0.33 0.495 0.66 0.99 1 1.5 C4.17572747 3.88179561 7.10246066 3.19168226 11 3 C10.67 3.99 10.34 4.98 10 6 C7 6 4 6 1 6 C-0.0625 4.125 -0.0625 4.125 -1 2 C-0.67 1.34 -0.34 0.68 0 0 Z " fill="#343434" transform="translate(180,264)"/>
<path d="M0 0 C1.74627478 2.61941217 2.38722388 4.03824877 3 7 C5.97 7.495 5.97 7.495 9 8 C9 8.66 9 9.32 9 10 C3.63157895 10.35789474 3.63157895 10.35789474 1.125 8.9375 C-0.58196395 5.99772876 -0.18799766 3.32129197 0 0 Z " fill="#7B7B7B" transform="translate(241,492)"/>
<path d="M0 0 C5.5 -0.36666667 5.5 -0.36666667 7.875 1.375 C9 3 9 3 9 5 C8.01 5 7.02 5 6 5 C6 4.34 6 3.68 6 3 C3.69 3.33 1.38 3.66 -1 4 C-0.67 2.68 -0.34 1.36 0 0 Z " fill="#474747" transform="translate(92,252)"/>
<path d="M0 0 C6.47556391 0.61090226 6.47556391 0.61090226 8.9375 2.4375 C10 4 10 4 10 6 C9.34 6 8.68 6 8 6 C7.67 6.66 7.34 7.32 7 8 C6.6596875 7.1028125 6.6596875 7.1028125 6.3125 6.1875 C4.66463631 3.44106051 2.76545517 2.52827786 0 1 C0 0.67 0 0.34 0 0 Z " fill="#C9C9C9" transform="translate(284,594)"/>
<path d="M0 0 C5.01113235 1.4317521 6.94469549 3.98445693 10 8 C9.67 8.66 9.34 9.32 9 10 C8.51789062 9.50628906 8.03578125 9.01257812 7.5390625 8.50390625 C6.90742187 7.86324219 6.27578125 7.22257813 5.625 6.5625 C4.99851562 5.92441406 4.37203125 5.28632812 3.7265625 4.62890625 C2.08276939 2.92117824 2.08276939 2.92117824 0 2 C0 1.34 0 0.68 0 0 Z " fill="#C8C8C8" transform="translate(629,1)"/>
<path d="M0 0 C1.31571603 0.2547514 2.62760376 0.52934141 3.9375 0.8125 C4.66839844 0.96332031 5.39929688 1.11414063 6.15234375 1.26953125 C6.76207031 1.51058594 7.37179687 1.75164063 8 2 C8.33 2.99 8.66 3.98 9 5 C2.375 5.25 2.375 5.25 -1 3 C-0.67 2.01 -0.34 1.02 0 0 Z " fill="#CDCDCD" transform="translate(300,614)"/>
<path d="M0 0 C1.4540625 0.0309375 1.4540625 0.0309375 2.9375 0.0625 C2.15375 0.660625 1.37 1.25875 0.5625 1.875 C-2.20824323 3.97335249 -2.20824323 3.97335249 -4.0625 7.0625 C-4.7225 6.7325 -5.3825 6.4025 -6.0625 6.0625 C-3.76028481 0.07674051 -3.76028481 0.07674051 0 0 Z " fill="#DBDBDB" transform="translate(359.0625,594.9375)"/>
<path d="M0 0 C2.31 0.33 4.62 0.66 7 1 C7.33 2.32 7.66 3.64 8 5 C4.5625 4.1875 4.5625 4.1875 1 3 C0.67 2.01 0.34 1.02 0 0 Z " fill="#CECECE" transform="translate(329,594)"/>
<path d="M0 0 C0.93423645 3.01031744 1.04449911 3.86650268 0 7 C-0.99 7 -1.98 7 -3 7 C-3.33 5.02 -3.66 3.04 -4 1 C-2.68 0.67 -1.36 0.34 0 0 Z " fill="#262626" transform="translate(129,263)"/>
<path d="M0 0 C1.4540625 0.0309375 1.4540625 0.0309375 2.9375 0.0625 C2.15375 0.660625 1.37 1.25875 0.5625 1.875 C-2.20824323 3.97335249 -2.20824323 3.97335249 -4.0625 7.0625 C-4.7225 6.7325 -5.3825 6.4025 -6.0625 6.0625 C-3.76028481 0.07674051 -3.76028481 0.07674051 0 0 Z " fill="#878787" transform="translate(135.0625,484.9375)"/>
<path d="M0 0 C-0.78375 0.598125 -1.5675 1.19625 -2.375 1.8125 C-5.14574323 3.91085249 -5.14574323 3.91085249 -7 7 C-7.66 6.67 -8.32 6.34 -9 6 C-7.01260984 0.46369883 -5.82303895 -0.15323787 0 0 Z " fill="#BCBCBC" transform="translate(155,331)"/>
<path d="M0 0 C-0.78375 0.598125 -1.5675 1.19625 -2.375 1.8125 C-5.14574323 3.91085249 -5.14574323 3.91085249 -7 7 C-7.66 6.67 -8.32 6.34 -9 6 C-7.01260984 0.46369883 -5.82303895 -0.15323787 0 0 Z " fill="#BCBCBC" transform="translate(155,143)"/>
<path d="M0 0 C0 1.98 0 3.96 0 6 C-0.66 5.01 -1.32 4.02 -2 3 C-4.31 3.33 -6.62 3.66 -9 4 C-7 1 -7 1 -5.0625 0.3125 C-3 0 -3 0 0 0 Z " fill="#C6C6C6" transform="translate(311,608)"/>
<path d="M0 0 C4.455 0.99 4.455 0.99 9 2 C9 2.66 9 3.32 9 4 C6.69 4 4.38 4 2 4 C1.34 2.68 0.68 1.36 0 0 Z " fill="#EAEAEA" transform="translate(325,608)"/>
<path d="M0 0 C1.16945792 0.80847729 2.33550461 1.62189112 3.5 2.4375 C4.47453125 3.11619141 4.47453125 3.11619141 5.46875 3.80859375 C5.9740625 4.20175781 6.479375 4.59492188 7 5 C7 5.33 7 5.66 7 6 C4.69 5.67 2.38 5.34 0 5 C-0.5625 3.0625 -0.5625 3.0625 -1 1 C-0.67 0.67 -0.34 0.34 0 0 Z " fill="#7C7C7C" transform="translate(149,488)"/>
<path d="M0 0 C1.4540625 0.0309375 1.4540625 0.0309375 2.9375 0.0625 C1.9375 3.0625 1.9375 3.0625 -0.4375 4.25 C-3.0625 5.0625 -3.0625 5.0625 -6.0625 5.0625 C-3.64893617 0.07446809 -3.64893617 0.07446809 0 0 Z " fill="#535353" transform="translate(77.0625,251.9375)"/>
<path d="M0 0 C-0.78375 0.598125 -1.5675 1.19625 -2.375 1.8125 C-5.14574323 3.91085249 -5.14574323 3.91085249 -7 7 C-7.33 5.35 -7.66 3.7 -8 2 C-4.77208445 -0.1519437 -3.71599191 -0.20086443 0 0 Z " fill="#E1E1E1" transform="translate(288,595)"/>
<path d="M0 0 C3.06393013 -0.25532751 4.63233212 -0.21861333 7.3125 1.375 C7.869375 1.91125 8.42625 2.4475 9 3 C9 3.66 9 4.32 9 5 C6.07471973 4.37315423 3.58774327 3.51695295 1 2 C0.67 1.34 0.34 0.68 0 0 Z " fill="#484848" transform="translate(167,440)"/>
<path d="M0 0 C1.485 0.99 1.485 0.99 3 2 C3.1875 5.625 3.1875 5.625 3 9 C2.01 9.495 2.01 9.495 1 10 C0.67 6.7 0.34 3.4 0 0 Z " fill="#7C7C7C" transform="translate(252,486)"/>
<path d="M0 0 C1.98 0 3.96 0 6 0 C1.375 4 1.375 4 -2 4 C-1.34 2.68 -0.68 1.36 0 0 Z " fill="#333333" transform="translate(165,441)"/>
<path d="M0 0 C-6 4 -6 4 -9 4 C-8.67 3.01 -8.34 2.02 -8 1 C-5.29120665 -0.35439668 -2.99066732 -0.06501451 0 0 Z " fill="#353535" transform="translate(133,441)"/>
<path d="M0 0 C2.125 0.375 2.125 0.375 4 1 C3.67 1.66 3.34 2.32 3 3 C1.66923011 3.34342449 0.33568021 3.67619874 -1 4 C-1.66 4.66 -2.32 5.32 -3 6 C-2.42655063 3.13275314 -2.1385485 2.1385485 0 0 Z " fill="#464646" transform="translate(75,64)"/>
</svg>
