<?xml version="1.0" encoding="UTF-8"?>
<svg version="1.1" xmlns="http://www.w3.org/2000/svg" width="640" height="644">
<path d="M0 0 C211.2 0 422.4 0 640 0 C640 212.52 640 425.04 640 644 C428.8 644 217.6 644 0 644 C0 431.48 0 218.96 0 0 Z " fill="#FEFEFE" transform="translate(0,0)"/>
<path d="M0 0 C0.87816483 -0.00205263 1.75632966 -0.00410527 2.66110554 -0.0062201 C5.63643108 -0.01192446 8.61171082 -0.01042864 11.5870409 -0.00901413 C13.7286749 -0.0115958 15.87030841 -0.01460841 18.01194125 -0.01801753 C23.92272904 -0.02611411 29.83350471 -0.02787858 35.74429739 -0.028615 C42.10914874 -0.03046096 48.47399374 -0.038006 54.83884144 -0.04475021 C69.49531253 -0.05906295 84.15178115 -0.06486268 98.80825802 -0.06944216 C106.048259 -0.07177653 113.28825919 -0.07537902 120.52825956 -0.07913754 C145.30308712 -0.09197482 170.07791424 -0.10269363 194.85274506 -0.10614014 C196.40863059 -0.10636177 197.96451612 -0.10658355 199.52040165 -0.10680549 C201.08008704 -0.10702613 202.63977243 -0.10724661 204.19945782 -0.10746694 C207.32855554 -0.10790949 210.45765326 -0.10835661 213.58675098 -0.10880661 C214.75050666 -0.1089707 214.75050666 -0.1089707 215.93777254 -0.1091381 C241.09643217 -0.11276903 266.255063 -0.12868953 291.41371159 -0.15199697 C318.00181243 -0.17658372 344.58989679 -0.19031245 371.17800933 -0.19150805 C374.09584543 -0.19167951 377.01368151 -0.19189494 379.9315176 -0.19214249 C380.64999089 -0.19219826 381.36846418 -0.19225402 382.10870938 -0.19231148 C393.67993332 -0.19346298 405.25112774 -0.20449341 416.82234171 -0.21902954 C428.44998522 -0.23338412 440.0775821 -0.23638458 451.705233 -0.22858956 C458.00675546 -0.22467336 464.30817844 -0.22565988 470.60968876 -0.23964691 C476.37533462 -0.25232778 482.14080566 -0.25123962 487.90645108 -0.2390562 C489.99533275 -0.23708908 492.08422656 -0.24022412 494.17309114 -0.24890056 C497.00748924 -0.25993083 499.84126357 -0.25254889 502.67564392 -0.24050903 C503.89859218 -0.25190182 503.89859218 -0.25190182 505.14624646 -0.26352477 C510.92671733 -0.21033968 515.90185928 0.70772316 520.39461231 4.66658401 C523.59595811 8.98288128 524.77598257 11.05399713 524.81355762 16.38801956 C524.82316517 17.48643677 524.83277271 18.58485397 524.84267139 19.71655655 C524.84692127 20.90920624 524.85117115 22.10185593 524.85554981 23.33064651 C524.86124989 24.55419342 524.86694996 25.77774033 524.87282276 27.03836441 C524.88228492 29.63342293 524.88881155 32.22849352 524.89265919 34.82356644 C524.90234219 38.78512617 524.93334581 42.74616227 524.96492481 46.70759964 C524.97145697 49.22777885 524.9767066 51.74796177 524.98054981 54.26814651 C524.99289661 55.45067505 525.00524342 56.63320358 525.01796436 57.85156631 C524.99940855 64.74053499 524.83675418 70.43296189 520.15242481 75.87361526 C514.73136392 79.96764563 510.76412154 80.27750093 504.16339111 80.26564884 C503.28208447 80.26800107 502.40077783 80.2703533 501.49276492 80.27277681 C498.51278484 80.27948186 495.53284822 80.27900814 492.55286121 80.27859879 C490.40552653 80.28189646 488.25819248 80.28562182 486.11085922 80.28974026 C480.18900006 80.29977912 474.26715104 80.30348008 468.34528458 80.30612957 C461.96683547 80.31002698 455.58839442 80.3196056 449.20995045 80.32834244 C434.5255028 80.34718644 419.8410554 80.35736461 405.15659858 80.36580312 C397.90273964 80.37000803 390.64888153 80.37523019 383.39502329 80.38048765 C358.57235396 80.39837755 333.7496844 80.41337479 308.92700958 80.42080784 C307.36841289 80.4212826 305.80981619 80.42175849 304.2512195 80.4222355 C303.47828469 80.42247188 302.70534988 80.42270825 301.90899281 80.42295179 C297.99282235 80.42415301 294.0766519 80.42536845 290.16048145 80.42659378 C289.38330162 80.42683393 288.60612179 80.42707408 287.80539106 80.42732151 C262.59791365 80.43521737 237.39048326 80.45865526 212.18302639 80.49114972 C185.54238737 80.5254291 158.90177586 80.54515717 132.26111442 80.54845208 C129.33797569 80.54886963 126.41483698 80.5493492 123.49169827 80.54987526 C122.7719209 80.54999845 122.05214354 80.55012164 121.31055475 80.55024857 C109.71593096 80.55258283 98.12136168 80.5682552 86.52675733 80.58871711 C74.87796063 80.60894892 63.22924494 80.61413087 51.58043226 80.60494647 C45.2668452 80.60038624 38.95343554 80.60238789 32.63987255 80.62170792 C26.86440659 80.63922927 21.0892489 80.63843199 15.31378017 80.62281062 C13.22023352 80.62041772 11.12666614 80.62484434 9.03315135 80.63663927 C6.19471593 80.65164536 3.35738884 80.64216402 0.51898193 80.62641239 C-0.70988459 80.6417457 -0.70988459 80.6417457 -1.9635767 80.65738878 C-7.22104113 80.59339177 -10.15426892 79.57189586 -14.34757519 76.13142776 C-18.7460207 71.37635153 -19.46010277 67.97085104 -19.52457714 61.63191605 C-19.53741238 60.53042221 -19.55024761 59.42892838 -19.56347179 58.29405594 C-19.57085873 57.10859177 -19.57824566 55.92312759 -19.58585644 54.70174026 C-19.59392818 53.47865158 -19.60199993 52.2555629 -19.61031628 50.99541092 C-19.62414332 48.4081145 -19.63487163 45.82079994 -19.6427412 43.23347855 C-19.65997882 39.27853823 -19.70388219 35.3244285 -19.74796581 31.36970901 C-19.75809086 28.85539224 -19.76660755 26.34106837 -19.77335644 23.82674026 C-19.79086452 22.64532455 -19.80837261 21.46390884 -19.82641125 20.24669266 C-19.80965437 13.90151733 -19.69355707 9.91175964 -15.34757519 5.13142776 C-10.07185107 0.48376604 -6.87715466 -0.01471446 0 0 Z " fill="#2C2C2C" transform="translate(67.3475751876831,423.8685722351074)"/>
<path d="M0 0 C211.2 0 422.4 0 640 0 C640 212.52 640 425.04 640 644 C428.8 644 217.6 644 0 644 C0 431.48 0 218.96 0 0 Z M4.75 5.875 C2.02817786 9.18006974 1.87514746 12.27507607 1.8723495 16.4589361 C1.86933353 17.35367316 1.86631756 18.24841023 1.8632102 19.17026055 C1.86497967 20.15112724 1.86674914 21.13199393 1.86857224 22.14258385 C1.8665196 23.19050496 1.86446697 24.23842607 1.86235213 25.31810236 C1.8566602 28.85883889 1.85814208 32.39953678 1.85955811 35.9402771 C1.85697574 38.49270505 1.85396294 41.04513259 1.8505547 43.59755957 C1.842969 49.89553137 1.84078136 56.19349469 1.84022565 62.49147058 C1.83931259 70.0329018 1.83264682 77.57432516 1.82587883 85.11575301 C1.80981155 103.34293663 1.80391502 121.57011942 1.79913008 139.79730884 C1.79679517 148.41672828 1.79319267 157.03614705 1.7894347 165.65556597 C1.77659944 195.15050539 1.76587952 224.64544443 1.7624321 254.14038658 C1.76221046 255.99220629 1.76198868 257.84402599 1.76176675 259.6958457 C1.76154611 261.55217666 1.76132562 263.40850762 1.7611053 265.26483858 C1.76066274 268.98905905 1.76021563 272.71327953 1.75976562 276.4375 C1.75965623 277.36089153 1.75954684 278.28428306 1.75943414 279.23565614 C1.75580195 309.18961646 1.73987567 339.14355259 1.71657526 369.09750365 C1.69199548 400.75392081 1.67826015 432.41032414 1.67706418 464.06675112 C1.67689272 467.53977688 1.67667729 471.01280264 1.67642975 474.4858284 C1.67637398 475.34100801 1.67631821 476.19618762 1.67626075 477.07728176 C1.67510878 490.856015 1.66407457 504.63472349 1.64954269 518.41344837 C1.63519728 532.25435616 1.63192965 546.09523211 1.63998267 559.93614529 C1.64444795 568.16443434 1.64054253 576.39262082 1.62474416 584.62089645 C1.61388384 590.75656306 1.61860673 596.89212308 1.62951604 603.02778752 C1.63148638 605.51631953 1.62833355 608.00486168 1.61967167 610.4933794 C1.6086767 613.86434529 1.61599788 617.23478335 1.6280632 620.60573387 C1.62046801 621.58191823 1.61287282 622.55810258 1.60504746 623.56386828 C1.64574584 628.79644472 2.04101217 632.49007147 5 637 C8.76061404 640.39372487 11.14716039 642.12426093 16.18489099 642.1276505 C17.0693998 642.13066647 17.95390861 642.13368244 18.86522073 642.1367898 C19.84492406 642.13502033 20.82462739 642.13325086 21.83401871 642.13142776 C23.3923086 642.13450672 23.3923086 642.13450672 24.98207909 642.13764787 C28.50403519 642.14335503 32.02595265 642.14185607 35.5479126 642.14044189 C38.08211524 642.1430234 40.61631747 642.14603596 43.15051913 642.1494453 C49.41117618 642.15669265 55.67182093 642.15921914 61.93248168 642.15977435 C69.42763869 642.16068646 76.92278777 642.16734946 84.41794137 642.17412117 C102.53598114 642.1901993 120.65402008 642.19608647 138.7720657 642.20086992 C147.33919096 642.20320402 155.90631555 642.20680646 164.47344029 642.2105653 C193.7861321 642.22340229 223.09882354 642.23412145 252.4115181 642.2375679 C254.25242851 642.23778954 256.09333892 642.23801132 257.93424933 642.23823325 C259.77966757 642.2384539 261.62508581 642.23867438 263.47050405 642.2388947 C267.1728816 642.23933726 270.87525916 642.23978437 274.57763672 642.24023438 C275.49561465 642.24034377 276.41359258 642.24045316 277.35938802 642.24056586 C307.13270726 642.24419744 336.90600218 642.26012054 366.6793121 642.28342474 C398.14005683 642.30800481 429.60078765 642.32173989 461.06154227 642.32293582 C464.51325465 642.32310728 467.96496701 642.32332271 471.41667938 642.32357025 C472.69158939 642.3236539 472.69158939 642.3236539 473.99225516 642.32373925 C487.68741341 642.32489128 501.38254675 642.3359262 515.07769658 642.35045731 C528.83595317 642.36480325 542.59417772 642.36807008 556.35243973 642.36001733 C564.5318395 642.35555208 572.71113608 642.35945732 580.89052235 642.37525584 C586.98988112 642.38611649 593.08912105 642.38139302 599.18848416 642.37048396 C601.66227121 642.36851366 604.13606847 642.37166625 606.60984114 642.38032833 C609.96094845 642.39132387 613.31152487 642.3840017 616.66261673 642.3719368 C617.6329554 642.37953199 618.60329407 642.38712718 619.60303694 642.39495254 C624.82438639 642.35410445 628.49576241 641.94400652 633 639 C636.67064708 635.03173289 638.12405898 632.03725066 638.1276505 626.66411173 C638.13066647 625.77136573 638.13368244 624.87861973 638.1367898 623.95882082 C638.13502033 622.97504127 638.13325086 621.99126172 638.13142776 620.97767067 C638.1334804 619.93060381 638.13553303 618.88353695 638.13764787 617.80474079 C638.14334746 614.26089839 638.14185699 610.71709449 638.14044189 607.17324829 C638.14302383 604.6209707 638.1460365 602.06869352 638.1494453 599.51641691 C638.15703592 593.21496825 638.15921889 586.91352807 638.15977435 580.61207532 C638.16068693 573.06733642 638.16735128 565.5226054 638.17412117 557.97786989 C638.19019362 539.74176137 638.19608562 521.50565368 638.20086992 503.26953936 C638.20320437 494.64669951 638.20680682 486.02386033 638.2105653 477.401021 C638.22340116 447.89732567 638.23412091 418.3936307 638.2375679 388.88993263 C638.23778954 387.0373183 638.23801132 385.18470396 638.23823325 383.33208963 C638.2384539 381.47494699 638.23867438 379.61780436 638.2388947 377.76066172 C638.23933726 374.03477708 638.23978437 370.30889245 638.24023438 366.58300781 C638.24034377 365.65920264 638.24045316 364.73539747 638.24056586 363.7835982 C638.24419808 333.81596506 638.26012417 303.84835609 638.28342474 273.88073221 C638.30800169 242.21376371 638.32173972 210.54680903 638.32293582 178.87983072 C638.32310728 175.40596477 638.32332271 171.93209882 638.32357025 168.45823288 C638.3236539 167.17514258 638.3236539 167.17514258 638.32373925 165.86613127 C638.32489148 152.08063675 638.33592798 138.29516696 638.35045731 124.50968081 C638.36479913 110.66306723 638.3680724 96.81648549 638.36001733 82.96986653 C638.3555503 74.73692879 638.3594644 66.50409355 638.37525584 58.27116921 C638.38610885 52.13377682 638.38139876 45.99649107 638.37048396 39.85910086 C638.36851222 37.36853793 638.37167271 34.87796487 638.38032833 32.3874162 C638.39130831 29.01609975 638.38401319 25.6453125 638.3719368 22.27401161 C638.37953199 21.29491439 638.38712718 20.31581718 638.39495254 19.30705035 C638.3453411 12.94263871 637.26686064 9.63248332 633.0625 4.75 C629.82128277 1.99987629 626.7120456 1.87507875 622.56556135 1.87350017 C621.67630173 1.87074042 620.7870421 1.86798068 619.87083521 1.86513731 C618.89610006 1.86719263 617.92136491 1.86924795 616.91709232 1.87136555 C615.87562511 1.86961251 614.8341579 1.86785947 613.76113108 1.86605331 C610.24235742 1.86137072 606.72362468 1.86386461 603.20484924 1.86628723 C600.66820792 1.8644204 598.13156688 1.86212021 595.5949263 1.85942191 C590.06481095 1.85456643 584.53470813 1.85285177 579.00459099 1.85387802 C570.78120317 1.85540036 562.55782506 1.85124696 554.33443913 1.8460034 C538.79475998 1.83632178 523.25508412 1.83351886 507.71540231 1.83294634 C495.71801745 1.83248721 483.72063388 1.83043101 471.72324944 1.82724571 C468.27274305 1.8263482 464.82223666 1.82545839 461.37173027 1.82457083 C460.51398488 1.82434979 459.6562395 1.82412874 458.77250183 1.82390099 C434.63913699 1.81774505 410.50577261 1.81380061 386.37240696 1.81424427 C385.0070036 1.81426764 385.0070036 1.81426764 383.61401634 1.81429148 C379.00014165 1.81437459 374.38626697 1.81447363 369.77239228 1.81457619 C368.85601973 1.81459613 367.93964718 1.81461608 366.99550577 1.81463663 C365.14237707 1.81467706 363.28924836 1.81471886 361.43611966 1.81476202 C332.59534752 1.81537497 303.75458713 1.80786533 274.91381836 1.79418945 C242.53022048 1.77884003 210.14663031 1.77022253 177.76302856 1.77115268 C174.31220782 1.77122731 170.86138707 1.77127601 167.41056633 1.77130699 C166.13599469 1.77132447 166.13599469 1.77132447 164.83567412 1.77134231 C151.14229467 1.77137312 137.4489254 1.76497847 123.75554898 1.75637473 C110.00203889 1.74791171 96.24854374 1.74689768 82.4950325 1.75348405 C74.31765621 1.75718863 66.14032521 1.75532036 57.96295369 1.74554171 C51.86696549 1.73886606 45.77103117 1.74257028 39.67504238 1.75041493 C37.20133401 1.75196188 34.72762079 1.75008933 32.25391812 1.74455485 C28.90544623 1.73755615 25.55721227 1.74273993 22.20874882 1.75111103 C20.75015784 1.74365876 20.75015784 1.74365876 19.26210037 1.73605594 C13.49730624 1.76676752 9.33028548 2.05809543 4.75 5.875 Z " fill="#D8D8D8" transform="translate(0,0)"/>
<path d="M0 0 C0.8801528 -0.00205263 1.7603056 -0.00410527 2.6671297 -0.0062201 C5.64920792 -0.01192449 8.63124045 -0.01042864 11.61332321 -0.00901413 C13.7597947 -0.0115958 15.90626571 -0.0146084 18.05273604 -0.01801753 C23.97685602 -0.02611411 29.90096389 -0.02787858 35.82508874 -0.028615 C42.20423602 -0.03046095 48.58337696 -0.03800596 54.9625206 -0.04475021 C69.65150821 -0.05906269 84.34049336 -0.06486256 99.02948673 -0.06944216 C106.28510299 -0.07177646 113.54071846 -0.07537893 120.7963341 -0.07913754 C145.62332112 -0.0919745 170.4503077 -0.10269357 195.27729797 -0.10614014 C196.83643519 -0.10636177 198.39557241 -0.10658355 199.95470963 -0.10680549 C201.51765806 -0.10702613 203.0806065 -0.10724661 204.64355493 -0.10746694 C207.7792093 -0.10790949 210.91486367 -0.10835661 214.05051804 -0.10880661 C214.82798075 -0.108916 215.60544347 -0.10902539 216.40646566 -0.1091381 C241.62061685 -0.11276943 266.8347393 -0.12869159 292.04887948 -0.15199697 C318.6941393 -0.1765802 345.33938269 -0.19031228 371.98465419 -0.19150805 C374.90837018 -0.19167951 377.83208617 -0.19189494 380.75580215 -0.19214249 C381.83568795 -0.19222614 381.83568795 -0.19222614 382.93738961 -0.19231148 C394.53484634 -0.19346325 406.13227363 -0.20449597 417.7297204 -0.21902954 C429.38199116 -0.23337956 441.03421537 -0.23638703 452.68649349 -0.22858956 C459.00206882 -0.22467177 465.3175449 -0.2256676 471.63310814 -0.23964691 C477.41042093 -0.25231824 483.18755918 -0.25124815 488.9648715 -0.2390562 C491.05911891 -0.23708741 493.15337841 -0.24023168 495.24760881 -0.24890056 C498.08684135 -0.2599127 500.92544915 -0.25256214 503.7646637 -0.24050903 C504.58419389 -0.24810423 505.40372409 -0.25569942 506.24808854 -0.26352477 C511.94342881 -0.21106682 516.20621104 0.84613723 520.49729538 4.88533401 C521.21465866 5.78058792 521.21465866 5.78058792 521.94651413 6.69392776 C522.43764694 7.29334183 522.92877975 7.89275589 523.43479538 8.51033401 C525.72547103 11.60684995 525.76887716 13.68656719 525.79514694 17.49568558 C525.80475449 18.61735123 525.81436203 19.73901688 525.82426071 20.89467239 C525.82851059 22.11233292 525.83276047 23.32999344 525.83713913 24.58455276 C525.8428392 25.83266739 525.84853928 27.08078201 525.85441208 28.36671829 C525.86387391 31.01309735 525.87076432 33.6593627 525.8742485 36.30574417 C525.87972 39.68621767 525.90371816 43.06628568 525.93222046 46.44663239 C525.95540598 49.68007492 525.95730111 52.91353875 525.96213913 56.14705276 C525.97448593 57.35661636 525.98683273 58.56617996 525.99955368 59.812397 C525.97951783 67.38500815 525.35721006 72.05910415 520.19651413 77.88142776 C515.28322771 82.19553292 511.42938798 82.4206907 505.00631523 82.38869667 C504.12216637 82.39220275 503.23801751 82.39570882 502.32707626 82.39932114 C499.34339988 82.40867746 496.35991687 82.40370093 493.37623215 82.3988533 C491.22390866 82.40258743 489.07158654 82.40718799 486.91926658 82.41258395 C480.98825068 82.42485869 475.057291 82.42454823 469.12626529 82.4221952 C462.73624085 82.42178816 456.3462347 82.4328153 449.95621872 82.44231033 C437.43105224 82.45894556 424.90590517 82.46444688 412.38072862 82.46553509 C402.20352595 82.46645353 392.0263294 82.47056683 381.84912872 82.47693634 C378.92157901 82.47873138 375.99402929 82.480511 373.06647956 82.4822861 C372.33872101 82.48272819 371.61096247 82.48317029 370.86115063 82.48362578 C350.38587303 82.49593713 329.91059755 82.50382661 309.43531609 82.50293922 C308.6630784 82.50290807 307.89084072 82.50287691 307.0952019 82.50284481 C303.18101426 82.50267859 299.26682662 82.50248051 295.35263897 82.50227539 C294.57524101 82.5022355 293.79784305 82.50219561 292.99688757 82.50215451 C291.42479913 82.50207364 289.85271068 82.50199004 288.28062223 82.50190373 C263.8168528 82.50067799 239.35313879 82.51569445 214.88938522 82.54304886 C187.41660621 82.57375505 159.94386362 82.59098225 132.47106636 82.58912241 C129.54288793 82.58897315 126.6147095 82.58887574 123.68653107 82.58881378 C122.96551706 82.58879047 122.24450304 82.58876716 121.50164012 82.58874315 C109.88754868 82.58868155 98.27350526 82.60146522 86.6594281 82.61867831 C74.99170529 82.63561354 63.32406865 82.63728138 51.65633859 82.62445967 C45.33262179 82.61790894 39.00907946 82.61788862 32.68537903 82.63516617 C26.9006953 82.6508089 21.11632566 82.64812368 15.33165 82.6305979 C13.23477088 82.62750854 11.13786881 82.63123255 9.04101671 82.64231806 C6.19809184 82.65635685 3.3562813 82.64591765 0.51339531 82.6292057 C-0.30716754 82.63914206 -1.12773039 82.64907842 -1.97315878 82.65931588 C-8.01488846 82.58385113 -11.64059661 80.83739619 -16.01051712 76.49861526 C-19.40988549 72.15560953 -20.48953305 70.14793836 -20.54298782 64.67537308 C-20.55582306 63.53368668 -20.56865829 62.39200027 -20.58188248 61.21571732 C-20.58926941 59.97618301 -20.59665634 58.73664871 -20.60426712 57.45955276 C-20.61233887 56.1892421 -20.62041061 54.91893143 -20.62872696 53.6101265 C-20.64257913 50.91666889 -20.65359181 48.22333414 -20.66115189 45.52986526 C-20.67219737 42.08874193 -20.7065741 38.64826866 -20.74632359 35.20737457 C-20.77884665 31.91649865 -20.78327414 28.6255649 -20.79176712 25.33455276 C-20.80927521 24.10311539 -20.82678329 22.87167801 -20.84482193 21.60292435 C-20.82520907 13.86458714 -20.22919858 10.02236688 -14.73317337 4.48689651 C-9.50165171 0.39206674 -6.51934324 -0.01391707 0 0 Z M-17.33888626 9.67293167 C-18.89880126 14.92554776 -18.81353358 20.01536546 -18.79957962 25.46736526 C-18.80482147 26.66068466 -18.81006332 27.85400406 -18.81546402 29.08348465 C-18.82187679 31.60336404 -18.82055692 34.12327339 -18.81203079 36.64314651 C-18.80353074 40.48614067 -18.83227978 44.32764318 -18.86403275 48.17049026 C-18.86564521 50.62361482 -18.86506637 53.076742 -18.86207962 55.52986526 C-18.8733136 56.67281052 -18.88454758 57.81575577 -18.89612198 58.99333572 C-18.83670472 65.84127837 -18.02902789 70.30011429 -14.36598587 76.13142776 C-9.62014715 80.72895902 -4.08011079 80.27642379 2.19645023 80.26285553 C3.073546 80.26490816 3.95064177 80.2669608 4.8543162 80.26907563 C7.8139619 80.27476161 10.7735613 80.27328641 13.73321152 80.27186966 C15.86832203 80.27445237 18.00343205 80.27746527 20.1385414 80.28087306 C26.02200735 80.28895721 31.90546112 80.29073342 37.78893197 80.29147053 C44.12784474 80.2933186 50.46675114 80.30086464 56.80566025 80.30760574 C71.39653488 80.32190818 85.98740633 80.32771667 100.57828666 80.33229769 C107.78686848 80.33463305 114.9954495 80.33823561 122.2040307 80.34199307 C146.87478429 80.35482828 171.54553743 80.36554798 196.21629429 80.36899567 C197.76510359 80.3692173 199.3139129 80.36943908 200.8627222 80.36966102 C202.41529032 80.36988166 203.96785845 80.37010214 205.52042657 80.37032247 C208.63519339 80.37076502 211.7499602 80.37121214 214.86472702 80.37166214 C216.0231495 80.37182623 216.0231495 80.37182623 217.20497446 80.37199363 C242.25326443 80.37562527 267.30152548 80.39154951 292.34980437 80.4148525 C318.82620625 80.43943913 345.3025916 80.45316794 371.77900523 80.45436358 C374.68445282 80.45453504 377.5899004 80.45475047 380.49534798 80.45499802 C381.21076196 80.45505379 381.92617595 80.45510955 382.66326915 80.45516701 C394.18417224 80.45631841 405.70504568 80.46734785 417.22593875 80.48188507 C428.80180983 80.49623932 440.37762898 80.49924025 451.95350913 80.49144509 C458.22669193 80.48752897 464.4997748 80.48851509 470.7729454 80.50250244 C476.51260581 80.51518352 482.2520906 80.51409498 487.99175056 80.50191173 C490.07115125 80.49994466 492.15056414 80.50307939 494.22994766 80.51175609 C497.05153143 80.5227869 499.87248866 80.51540404 502.6940546 80.50336456 C503.50557306 80.51095976 504.31709151 80.51855495 505.15320143 80.5263803 C510.36944336 80.4781724 514.01698469 79.61837934 518.63401413 77.13142776 C522.36911745 72.41340252 523.74939738 68.79510447 523.81101608 62.85310745 C523.83026894 61.23562607 523.83026894 61.23562607 523.84991074 59.58546829 C523.85729767 58.41985367 523.8646846 57.25423904 523.87229538 56.05330276 C523.88036713 54.85336685 523.88843887 53.65343094 523.89675522 52.41713333 C523.91059488 49.8751355 523.92131756 47.33311908 523.92918015 44.79109573 C523.94638439 40.91069024 523.99027258 37.0311385 524.03440475 33.15095901 C524.04453249 30.68091319 524.05304834 28.21086013 524.05979538 25.74080276 C524.07730347 24.58328506 524.09481155 23.42576736 524.11285019 22.23317337 C524.09527587 15.67979703 523.91216738 11.25457012 519.63401413 6.13142776 C514.13936374 2.36558433 509.09732413 1.55201183 502.56656265 1.62526989 C501.68346273 1.61915653 500.8003628 1.61304317 499.89050227 1.60674456 C496.93425007 1.59115632 493.97881961 1.60400608 491.02256393 1.61676407 C488.88058478 1.61143842 486.73860935 1.60437264 484.59664106 1.59571701 C478.71266375 1.57706554 472.82893771 1.58340342 466.94494987 1.59387004 C460.59857083 1.60085483 454.25224378 1.58486964 447.90587997 1.57187271 C436.19272415 1.5514677 424.47965632 1.54941702 412.76648761 1.55708917 C401.94566282 1.56416218 391.12486776 1.56421917 380.30404282 1.55722618 C378.85250869 1.55631485 377.40097457 1.55540409 375.94944045 1.55449389 C373.76211575 1.55311076 371.57479106 1.55171967 369.38746638 1.55030776 C349.05293118 1.53732764 328.71840592 1.53221196 308.38386917 1.54384136 C307.23415727 1.54449832 307.23415727 1.54449832 306.06121887 1.54516855 C299.83690477 1.54877537 293.61259082 1.55261014 287.38827687 1.55645948 C263.10507599 1.57130926 238.82198757 1.56252403 214.53879929 1.53450394 C187.25567119 1.50308244 159.97260967 1.48810378 132.68946314 1.49830395 C129.78097059 1.49934073 126.87247802 1.50032796 123.96398544 1.50128746 C123.24784173 1.50153635 122.53169802 1.50178523 121.79385298 1.50204166 C110.9798838 1.50548279 100.16597339 1.49617162 89.35201645 1.48051643 C77.05588592 1.46275646 64.75992539 1.46307411 52.46379793 1.48586809 C46.18838184 1.4970329 39.91323537 1.50012173 33.63783073 1.48156738 C27.89507268 1.46480613 22.15282031 1.47105509 16.41009527 1.49578417 C14.33080025 1.50068209 12.25146478 1.49711219 10.17220348 1.48429673 C7.34801288 1.46814381 4.52557696 1.4827333 1.70146561 1.50501537 C0.48743701 1.48702786 0.48743701 1.48702786 -0.75111741 1.46867695 C-7.69004732 1.58064418 -13.04627288 4.14315748 -17.33888626 9.67293167 Z " fill="#D9D9D9" transform="translate(67.36598587036133,294.8685722351074)"/>
<path d="M0 0 C0.8801528 -0.00205263 1.7603056 -0.00410527 2.6671297 -0.0062201 C5.64920792 -0.01192449 8.63124045 -0.01042864 11.61332321 -0.00901413 C13.7597947 -0.0115958 15.90626571 -0.0146084 18.05273604 -0.01801753 C23.97685602 -0.02611411 29.90096389 -0.02787858 35.82508874 -0.028615 C42.20423602 -0.03046095 48.58337696 -0.03800596 54.9625206 -0.04475021 C69.65150821 -0.05906269 84.34049336 -0.06486256 99.02948673 -0.06944216 C106.28510299 -0.07177646 113.54071846 -0.07537893 120.7963341 -0.07913754 C145.62332112 -0.0919745 170.4503077 -0.10269357 195.27729797 -0.10614014 C196.83643519 -0.10636177 198.39557241 -0.10658355 199.95470963 -0.10680549 C201.51765806 -0.10702613 203.0806065 -0.10724661 204.64355493 -0.10746694 C207.7792093 -0.10790949 210.91486367 -0.10835661 214.05051804 -0.10880661 C214.82798075 -0.108916 215.60544347 -0.10902539 216.40646566 -0.1091381 C241.62061685 -0.11276943 266.8347393 -0.12869159 292.04887948 -0.15199697 C318.6941393 -0.1765802 345.33938269 -0.19031228 371.98465419 -0.19150805 C374.90837018 -0.19167951 377.83208617 -0.19189494 380.75580215 -0.19214249 C381.83568795 -0.19222614 381.83568795 -0.19222614 382.93738961 -0.19231148 C394.53484634 -0.19346325 406.13227363 -0.20449597 417.7297204 -0.21902954 C429.38199116 -0.23337956 441.03421537 -0.23638703 452.68649349 -0.22858956 C459.00206882 -0.22467177 465.3175449 -0.2256676 471.63310814 -0.23964691 C477.41042093 -0.25231824 483.18755918 -0.25124815 488.9648715 -0.2390562 C491.05911891 -0.23708741 493.15337841 -0.24023168 495.24760881 -0.24890056 C498.08684135 -0.2599127 500.92544915 -0.25256214 503.7646637 -0.24050903 C504.58419389 -0.24810423 505.40372409 -0.25569942 506.24808854 -0.26352477 C511.94342881 -0.21106682 516.20621104 0.84613723 520.49729538 4.88533401 C521.21465866 5.78058792 521.21465866 5.78058792 521.94651413 6.69392776 C522.43764694 7.29334183 522.92877975 7.89275589 523.43479538 8.51033401 C525.72547103 11.60684995 525.76887716 13.68656719 525.79514694 17.49568558 C525.80475449 18.61735123 525.81436203 19.73901688 525.82426071 20.89467239 C525.82851059 22.11233292 525.83276047 23.32999344 525.83713913 24.58455276 C525.8428392 25.83266739 525.84853928 27.08078201 525.85441208 28.36671829 C525.86387391 31.01309735 525.87076432 33.6593627 525.8742485 36.30574417 C525.87972 39.68621767 525.90371816 43.06628568 525.93222046 46.44663239 C525.95540598 49.68007492 525.95730111 52.91353875 525.96213913 56.14705276 C525.97448593 57.35661636 525.98683273 58.56617996 525.99955368 59.812397 C525.97951783 67.38500815 525.35721006 72.05910415 520.19651413 77.88142776 C515.28322771 82.19553292 511.42938798 82.4206907 505.00631523 82.38869667 C504.12216637 82.39220275 503.23801751 82.39570882 502.32707626 82.39932114 C499.34339988 82.40867746 496.35991687 82.40370093 493.37623215 82.3988533 C491.22390866 82.40258743 489.07158654 82.40718799 486.91926658 82.41258395 C480.98825068 82.42485869 475.057291 82.42454823 469.12626529 82.4221952 C462.73624085 82.42178816 456.3462347 82.4328153 449.95621872 82.44231033 C437.43105224 82.45894556 424.90590517 82.46444688 412.38072862 82.46553509 C402.20352595 82.46645353 392.0263294 82.47056683 381.84912872 82.47693634 C378.92157901 82.47873138 375.99402929 82.480511 373.06647956 82.4822861 C372.33872101 82.48272819 371.61096247 82.48317029 370.86115063 82.48362578 C350.38587303 82.49593713 329.91059755 82.50382661 309.43531609 82.50293922 C308.6630784 82.50290807 307.89084072 82.50287691 307.0952019 82.50284481 C303.18101426 82.50267859 299.26682662 82.50248051 295.35263897 82.50227539 C294.57524101 82.5022355 293.79784305 82.50219561 292.99688757 82.50215451 C291.42479913 82.50207364 289.85271068 82.50199004 288.28062223 82.50190373 C263.8168528 82.50067799 239.35313879 82.51569445 214.88938522 82.54304886 C187.41660621 82.57375505 159.94386362 82.59098225 132.47106636 82.58912241 C129.54288793 82.58897315 126.6147095 82.58887574 123.68653107 82.58881378 C122.96551706 82.58879047 122.24450304 82.58876716 121.50164012 82.58874315 C109.88754868 82.58868155 98.27350526 82.60146522 86.6594281 82.61867831 C74.99170529 82.63561354 63.32406865 82.63728138 51.65633859 82.62445967 C45.33262179 82.61790894 39.00907946 82.61788862 32.68537903 82.63516617 C26.9006953 82.6508089 21.11632566 82.64812368 15.33165 82.6305979 C13.23477088 82.62750854 11.13786881 82.63123255 9.04101671 82.64231806 C6.19809184 82.65635685 3.3562813 82.64591765 0.51339531 82.6292057 C-0.30716754 82.63914206 -1.12773039 82.64907842 -1.97315878 82.65931588 C-8.01488846 82.58385113 -11.64059661 80.83739619 -16.01051712 76.49861526 C-19.40988549 72.15560953 -20.48953305 70.14793836 -20.54298782 64.67537308 C-20.55582306 63.53368668 -20.56865829 62.39200027 -20.58188248 61.21571732 C-20.58926941 59.97618301 -20.59665634 58.73664871 -20.60426712 57.45955276 C-20.61233887 56.1892421 -20.62041061 54.91893143 -20.62872696 53.6101265 C-20.64257913 50.91666889 -20.65359181 48.22333414 -20.66115189 45.52986526 C-20.67219737 42.08874193 -20.7065741 38.64826866 -20.74632359 35.20737457 C-20.77884665 31.91649865 -20.78327414 28.6255649 -20.79176712 25.33455276 C-20.80927521 24.10311539 -20.82678329 22.87167801 -20.84482193 21.60292435 C-20.82520907 13.86458714 -20.22919858 10.02236688 -14.73317337 4.48689651 C-9.50165171 0.39206674 -6.51934324 -0.01391707 0 0 Z M-17.33888626 9.67293167 C-18.89880126 14.92554776 -18.81353358 20.01536546 -18.79957962 25.46736526 C-18.80482147 26.66068466 -18.81006332 27.85400406 -18.81546402 29.08348465 C-18.82187679 31.60336404 -18.82055692 34.12327339 -18.81203079 36.64314651 C-18.80353074 40.48614067 -18.83227978 44.32764318 -18.86403275 48.17049026 C-18.86564521 50.62361482 -18.86506637 53.076742 -18.86207962 55.52986526 C-18.8733136 56.67281052 -18.88454758 57.81575577 -18.89612198 58.99333572 C-18.83670472 65.84127837 -18.02902789 70.30011429 -14.36598587 76.13142776 C-9.62014715 80.72895902 -4.08011079 80.27642379 2.19645023 80.26285553 C3.073546 80.26490816 3.95064177 80.2669608 4.8543162 80.26907563 C7.8139619 80.27476161 10.7735613 80.27328641 13.73321152 80.27186966 C15.86832203 80.27445237 18.00343205 80.27746527 20.1385414 80.28087306 C26.02200735 80.28895721 31.90546112 80.29073342 37.78893197 80.29147053 C44.12784474 80.2933186 50.46675114 80.30086464 56.80566025 80.30760574 C71.39653488 80.32190818 85.98740633 80.32771667 100.57828666 80.33229769 C107.78686848 80.33463305 114.9954495 80.33823561 122.2040307 80.34199307 C146.87478429 80.35482828 171.54553743 80.36554798 196.21629429 80.36899567 C197.76510359 80.3692173 199.3139129 80.36943908 200.8627222 80.36966102 C202.41529032 80.36988166 203.96785845 80.37010214 205.52042657 80.37032247 C208.63519339 80.37076502 211.7499602 80.37121214 214.86472702 80.37166214 C216.0231495 80.37182623 216.0231495 80.37182623 217.20497446 80.37199363 C242.25326443 80.37562527 267.30152548 80.39154951 292.34980437 80.4148525 C318.82620625 80.43943913 345.3025916 80.45316794 371.77900523 80.45436358 C374.68445282 80.45453504 377.5899004 80.45475047 380.49534798 80.45499802 C381.21076196 80.45505379 381.92617595 80.45510955 382.66326915 80.45516701 C394.18417224 80.45631841 405.70504568 80.46734785 417.22593875 80.48188507 C428.80180983 80.49623932 440.37762898 80.49924025 451.95350913 80.49144509 C458.22669193 80.48752897 464.4997748 80.48851509 470.7729454 80.50250244 C476.51260581 80.51518352 482.2520906 80.51409498 487.99175056 80.50191173 C490.07115125 80.49994466 492.15056414 80.50307939 494.22994766 80.51175609 C497.05153143 80.5227869 499.87248866 80.51540404 502.6940546 80.50336456 C503.50557306 80.51095976 504.31709151 80.51855495 505.15320143 80.5263803 C510.36944336 80.4781724 514.01698469 79.61837934 518.63401413 77.13142776 C522.36911745 72.41340252 523.74939738 68.79510447 523.81101608 62.85310745 C523.83026894 61.23562607 523.83026894 61.23562607 523.84991074 59.58546829 C523.85729767 58.41985367 523.8646846 57.25423904 523.87229538 56.05330276 C523.88036713 54.85336685 523.88843887 53.65343094 523.89675522 52.41713333 C523.91059488 49.8751355 523.92131756 47.33311908 523.92918015 44.79109573 C523.94638439 40.91069024 523.99027258 37.0311385 524.03440475 33.15095901 C524.04453249 30.68091319 524.05304834 28.21086013 524.05979538 25.74080276 C524.07730347 24.58328506 524.09481155 23.42576736 524.11285019 22.23317337 C524.09527587 15.67979703 523.91216738 11.25457012 519.63401413 6.13142776 C514.13936374 2.36558433 509.09732413 1.55201183 502.56656265 1.62526989 C501.68346273 1.61915653 500.8003628 1.61304317 499.89050227 1.60674456 C496.93425007 1.59115632 493.97881961 1.60400608 491.02256393 1.61676407 C488.88058478 1.61143842 486.73860935 1.60437264 484.59664106 1.59571701 C478.71266375 1.57706554 472.82893771 1.58340342 466.94494987 1.59387004 C460.59857083 1.60085483 454.25224378 1.58486964 447.90587997 1.57187271 C436.19272415 1.5514677 424.47965632 1.54941702 412.76648761 1.55708917 C401.94566282 1.56416218 391.12486776 1.56421917 380.30404282 1.55722618 C378.85250869 1.55631485 377.40097457 1.55540409 375.94944045 1.55449389 C373.76211575 1.55311076 371.57479106 1.55171967 369.38746638 1.55030776 C349.05293118 1.53732764 328.71840592 1.53221196 308.38386917 1.54384136 C307.23415727 1.54449832 307.23415727 1.54449832 306.06121887 1.54516855 C299.83690477 1.54877537 293.61259082 1.55261014 287.38827687 1.55645948 C263.10507599 1.57130926 238.82198757 1.56252403 214.53879929 1.53450394 C187.25567119 1.50308244 159.97260967 1.48810378 132.68946314 1.49830395 C129.78097059 1.49934073 126.87247802 1.50032796 123.96398544 1.50128746 C123.24784173 1.50153635 122.53169802 1.50178523 121.79385298 1.50204166 C110.9798838 1.50548279 100.16597339 1.49617162 89.35201645 1.48051643 C77.05588592 1.46275646 64.75992539 1.46307411 52.46379793 1.48586809 C46.18838184 1.4970329 39.91323537 1.50012173 33.63783073 1.48156738 C27.89507268 1.46480613 22.15282031 1.47105509 16.41009527 1.49578417 C14.33080025 1.50068209 12.25146478 1.49711219 10.17220348 1.48429673 C7.34801288 1.46814381 4.52557696 1.4827333 1.70146561 1.50501537 C0.48743701 1.48702786 0.48743701 1.48702786 -0.75111741 1.46867695 C-7.69004732 1.58064418 -13.04627288 4.14315748 -17.33888626 9.67293167 Z " fill="#D9D9D9" transform="translate(67.36598587036133,106.86857223510742)"/>
<path d="M0 0 C211.2 0 422.4 0 640 0 C640 3.63 640 7.26 640 11 C636 9 636 9 633.5 6.4375 C630.02114193 3.04561338 627.28891755 2.87529837 622.56556135 2.87350017 C621.67630173 2.87074042 620.7870421 2.86798068 619.87083521 2.86513731 C618.89610006 2.86719263 617.92136491 2.86924795 616.91709232 2.87136555 C615.87562511 2.86961251 614.8341579 2.86785947 613.76113108 2.86605331 C610.24235742 2.86137072 606.72362468 2.86386461 603.20484924 2.86628723 C600.66820792 2.8644204 598.13156688 2.86212021 595.5949263 2.85942191 C590.06481095 2.85456643 584.53470813 2.85285177 579.00459099 2.85387802 C570.78120317 2.85540036 562.55782506 2.85124696 554.33443913 2.8460034 C538.79475998 2.83632178 523.25508412 2.83351886 507.71540231 2.83294634 C495.71801745 2.83248721 483.72063388 2.83043101 471.72324944 2.82724571 C468.27274305 2.8263482 464.82223666 2.82545839 461.37173027 2.82457083 C460.51398488 2.82434979 459.6562395 2.82412874 458.77250183 2.82390099 C434.63913699 2.81774505 410.50577261 2.81380061 386.37240696 2.81424427 C385.0070036 2.81426764 385.0070036 2.81426764 383.61401634 2.81429148 C379.00014165 2.81437459 374.38626697 2.81447363 369.77239228 2.81457619 C368.85601973 2.81459613 367.93964718 2.81461608 366.99550577 2.81463663 C365.14237707 2.81467706 363.28924836 2.81471886 361.43611966 2.81476202 C332.59534752 2.81537497 303.75458713 2.80786533 274.91381836 2.79418945 C242.53022048 2.77884003 210.14663031 2.77022253 177.76302856 2.77115268 C174.31220782 2.77122731 170.86138707 2.77127601 167.41056633 2.77130699 C166.13599469 2.77132447 166.13599469 2.77132447 164.83567412 2.77134231 C151.14229467 2.77137312 137.4489254 2.76497847 123.75554898 2.75637473 C110.00203889 2.74791171 96.24854374 2.74689768 82.4950325 2.75348405 C74.31765621 2.75718863 66.14032521 2.75532036 57.96295369 2.74554171 C51.86696549 2.73886606 45.77103117 2.74257028 39.67504238 2.75041493 C37.20133401 2.75196188 34.72762079 2.75008933 32.25391812 2.74455485 C28.90544623 2.73755615 25.55721227 2.74273993 22.20874882 2.75111103 C20.75015784 2.74365876 20.75015784 2.74365876 19.26210037 2.73605594 C11.73623525 2.6979312 11.73623525 2.6979312 5.48828125 6.5078125 C4.90626953 7.30832031 4.90626953 7.30832031 4.3125 8.125 C3.549375 9.07375 2.78625 10.0225 2 11 C1.34 11 0.68 11 0 11 C0 7.37 0 3.74 0 0 Z " fill="#D8D8D8" transform="translate(0,0)"/>
<path d="M0 0 C0.969375 0.2475 1.93875 0.495 2.9375 0.75 C5.07475185 0.33979066 5.07475185 0.33979066 6.9375 -0.25 C6.96644547 3.20831586 6.98428 6.66660072 7 10.125 C7.00837891 11.10984375 7.01675781 12.0946875 7.02539062 13.109375 C7.02861328 14.05039062 7.03183594 14.99140625 7.03515625 15.9609375 C7.04039307 16.83024902 7.04562988 17.69956055 7.05102539 18.59521484 C6.9375 20.75 6.9375 20.75 5.9375 22.75 C20.7875 23.08 35.6375 23.41 50.9375 23.75 C50.9375 16.16 50.9375 8.57 50.9375 0.75 C51.9275 0.42 52.9175 0.09 53.9375 -0.25 C54.4325 0.74 54.4325 0.74 54.9375 1.75 C55.5975 1.09 56.2575 0.43 56.9375 -0.25 C60.54123332 -0.11895515 63.01946528 0.00964942 65.875 2.3125 C67.40265217 5.81711379 67.58504204 9.03399171 66.9375 12.75 C65.375 15.75 65.375 15.75 62.9375 17.75 C59.1875 18.0625 59.1875 18.0625 55.9375 17.75 C55.9375 17.09 55.9375 16.43 55.9375 15.75 C55.2775 15.75 54.6175 15.75 53.9375 15.75 C53.9375 18.39 53.9375 21.03 53.9375 23.75 C106.0775 23.75 158.2175 23.75 211.9375 23.75 C211.9375 24.74 211.9375 25.73 211.9375 26.75 C122.8375 26.75 33.7375 26.75 -58.0625 26.75 C-58.0625 25.76 -58.0625 24.77 -58.0625 23.75 C-32.8175 23.255 -32.8175 23.255 -7.0625 22.75 C-7.0625 21.76 -7.0625 20.77 -7.0625 19.75 C-6.0725 20.08 -5.0825 20.41 -4.0625 20.75 C-1.72950175 20.78954234 0.60458189 20.79401732 2.9375 20.75 C2.9375 19.43 2.9375 18.11 2.9375 16.75 C1.865 16.9975 0.7925 17.245 -0.3125 17.5 C-4.0625 17.75 -4.0625 17.75 -6.5 16.375 C-8.79713326 12.51581612 -8.95628149 9.12564327 -8.0625 4.75 C-5.56507418 1.07731497 -4.53265102 -0.37001233 0 0 Z " fill="#5A5A5A" transform="translate(106.0625,568.25)"/>
<path d="M0 0 C204.27 0 408.54 0 619 0 C619 0.66 619 1.32 619 2 C616.68562159 3.15718921 615.3773147 3.12472134 612.80179298 3.1241985 C611.9143134 3.12644579 611.02683381 3.12869308 610.11246091 3.13100848 C609.12943815 3.12838146 608.14641538 3.12575445 607.13360405 3.12304783 C605.57008523 3.1247786 605.57008523 3.1247786 603.97498018 3.12654433 C600.44122079 3.12921586 596.90750591 3.12468442 593.37374878 3.12025452 C590.83114554 3.12069011 588.28854233 3.12156479 585.74593937 3.12284368 C580.19673283 3.12462044 574.64754037 3.12326589 569.09833527 3.11920547 C560.84679919 3.11318444 552.5952699 3.11286837 544.34373203 3.11374746 C530.46510311 3.11506317 516.58647894 3.11171311 502.70785141 3.10573006 C488.96061047 3.0998188 475.21337151 3.09596528 461.4661293 3.09487724 C460.61227717 3.0948085 459.75842503 3.09473976 458.87869858 3.09466894 C454.54264884 3.09433062 450.20659909 3.09402923 445.87054934 3.09374207 C415.13554066 3.09164006 384.40053456 3.08489827 353.66552734 3.07543945 C323.80159519 3.06625931 293.93766375 3.05917359 264.07373047 3.05493164 C263.15365508 3.05480011 262.23357969 3.05466859 261.28562323 3.05453308 C252.04608812 3.05321459 242.80655301 3.05193877 233.56701789 3.05069422 C214.74398886 3.04815781 195.92095987 3.04533656 177.09793091 3.04234314 C176.23242431 3.04220585 175.36691771 3.04206856 174.47518365 3.04192711 C116.65012135 3.03272202 58.82506051 3.01685555 1 3 C0.67 2.01 0.34 1.02 0 0 Z " fill="#D8D8D8" transform="translate(10,641)"/>
<path d="M0 0 C1.670625 0.37125 1.670625 0.37125 3.375 0.75 C4.365 0.42 5.355 0.09 6.375 -0.25 C6.43302698 3.18742918 6.46860486 6.62473253 6.5 10.0625 C6.52513672 11.52719727 6.52513672 11.52719727 6.55078125 13.02148438 C6.55722656 13.95927734 6.56367188 14.89707031 6.5703125 15.86328125 C6.58078613 16.72735596 6.59125977 17.59143066 6.60205078 18.48168945 C6.375 20.75 6.375 20.75 4.375 23.75 C2.31640625 24.33203125 2.31640625 24.33203125 -0.0625 24.5625 C-0.84496094 24.65144531 -1.62742187 24.74039062 -2.43359375 24.83203125 C-4.625 24.75 -4.625 24.75 -7.625 22.75 C-7.625 21.76 -7.625 20.77 -7.625 19.75 C-6.635 20.08 -5.645 20.41 -4.625 20.75 C-2.29200175 20.78954234 0.04208189 20.79401732 2.375 20.75 C2.375 19.43 2.375 18.11 2.375 16.75 C1.3025 17.018125 0.23 17.28625 -0.875 17.5625 C-4.625 17.75 -4.625 17.75 -7.0625 15.8125 C-9.03650352 11.9434531 -9.60132157 9.00641948 -8.625 4.75 C-5.93057639 0.74918918 -4.88759297 -0.33707538 0 0 Z " fill="#E9E9E9" transform="translate(306.625,458.25)"/>
<path d="M0 0 C0.99 0 1.98 0 3 0 C3 7.59 3 15.18 3 23 C1.68 22.67 0.36 22.34 -1 22 C-1.33 22.33 -1.66 22.66 -2 23 C-5.3125 23.375 -5.3125 23.375 -9 23 C-12.15781603 20.32800182 -12.89540324 18.63920242 -13.5625 14.5625 C-12.80768275 9.78199078 -11.56645515 8.24943691 -8 5 C-5.3125 4.5 -5.3125 4.5 -3 5 C-2.34 5.66 -1.68 6.32 -1 7 C-0.67 4.69 -0.34 2.38 0 0 Z " fill="#3A3A3A" transform="translate(190,247)"/>
<path d="M0 0 C0.99 0 1.98 0 3 0 C3 7.59 3 15.18 3 23 C-8 23 -8 23 -10.6875 21.5625 C-12.67037471 17.69117318 -12.86809481 14.24989022 -12 10 C-9.875 6.875 -9.875 6.875 -7 5 C-3.6875 5.1875 -3.6875 5.1875 -1 6 C-0.67 4.02 -0.34 2.04 0 0 Z " fill="#2F2F2F" transform="translate(296,563)"/>
<path d="M0 0 C4.08078346 1.33552913 5.36305322 2.39099579 7.4375 6.125 C8.09841749 10.00789028 7.54232145 11.88915174 5.9375 15.5 C3.3367874 18.23074823 2.95838068 18.58259175 -0.5625 18.8125 C-3.69214569 18.5497499 -4.50649571 18.16980343 -7.0625 16.125 C-8.98142757 12.28714487 -9.52723538 9.33090773 -8.5625 5.125 C-5.93097286 1.21758091 -4.7476689 0.16658487 0 0 Z " fill="#3B3B3B" transform="translate(155.5625,251.875)"/>
<path d="M0 0 C2.79421943 1.98700048 4.64947371 3.50119792 5.453125 6.9375 C5.64512595 10.55808943 5.1370377 12.72592461 3.5 16 C0.47031592 18.42374727 -1.28762377 18.74320508 -5.09375 18.48046875 C-7 18 -7 18 -9.5 15.9375 C-11.38189762 12.25211716 -11.58450518 10.09153627 -11 6 C-7.97343834 1.35927212 -5.65108921 -0.78852408 0 0 Z " fill="#3E3E3E" transform="translate(264,568)"/>
<path d="M0 0 C3.56645515 3.24943691 4.80768275 4.78199078 5.5625 9.5625 C4.8899365 13.67261029 4.22268106 15.34128812 1 18 C-1.95538235 18.62437655 -3.9059768 18.39289183 -7 18 C-9.08752195 16.44402299 -9.87326657 15.40524342 -10.65234375 12.9140625 C-11.42584642 6.70484925 -11.42584642 6.70484925 -9.1875 3 C-6.09930673 0.17650901 -4.17593916 -0.67980405 0 0 Z " fill="#353535" transform="translate(128,568)"/>
<path d="M0 0 C3.56645515 3.24943691 4.80768275 4.78199078 5.5625 9.5625 C4.8899365 13.67261029 4.22268106 15.34128812 1 18 C-1.95538235 18.62437655 -3.9059768 18.39289183 -7 18 C-9.08752195 16.44402299 -9.87326657 15.40524342 -10.65234375 12.9140625 C-11.42584642 6.70484925 -11.42584642 6.70484925 -9.1875 3 C-6.09930673 0.17650901 -4.17593916 -0.67980405 0 0 Z " fill="#353535" transform="translate(78,568)"/>
<path d="M0 0 C11.45433746 -0.36949476 11.45433746 -0.36949476 13.86328125 1.26171875 C15.22193842 3.33939037 15.40305641 4.53103608 15.375 7 C15.38273437 7.680625 15.39046875 8.36125 15.3984375 9.0625 C14.87313531 11.61691066 14.11606316 12.49119559 12 14 C9.73828125 14.29296875 9.73828125 14.29296875 7.3125 14.1875 C5.1778125 14.0946875 5.1778125 14.0946875 3 14 C3 16.97 3 19.94 3 23 C2.01 23 1.02 23 0 23 C0 15.41 0 7.82 0 0 Z " fill="#2D2D2D" transform="translate(51,247)"/>
<path d="M0 0 C3.63973987 0.28546979 4.72909981 0.59069829 7.1875 3.25 C7.48392569 5.96229503 7.56811189 8.24739732 7.4375 10.9375 C7.41945313 11.63939453 7.40140625 12.34128906 7.3828125 13.06445312 C7.33576213 14.79355436 7.26401873 16.52195205 7.1875 18.25 C5.22983719 18.33082094 3.27123272 18.38910778 1.3125 18.4375 C-0.32332031 18.48970703 -0.32332031 18.48970703 -1.9921875 18.54296875 C-2.92289062 18.44628906 -3.85359375 18.34960938 -4.8125 18.25 C-6.8125 15.25 -6.8125 15.25 -6.5625 12.6875 C-5.8125 10.25 -5.8125 10.25 -3.8125 8.25 C-1.48974823 7.84952556 0.84489357 7.5102896 3.1875 7.25 C3.1875 6.26 3.1875 5.27 3.1875 4.25 C-0.01152639 4.16113816 -2.73927456 4.33941469 -5.8125 5.25 C-3.41924157 0.30393258 -3.41924157 0.30393258 0 0 Z " fill="#363636" transform="translate(76.8125,251.75)"/>
<path d="M0 0 C4.63647274 1.07632403 4.63647274 1.07632403 6.5 3.8125 C6.79296875 7.16796875 6.79296875 7.16796875 6.6875 11 C6.66042969 12.27230469 6.63335937 13.54460937 6.60546875 14.85546875 C6.57066406 15.83128906 6.53585938 16.80710937 6.5 17.8125 C5.860625 17.626875 5.22125 17.44125 4.5625 17.25 C3.5415625 17.0334375 3.5415625 17.0334375 2.5 16.8125 C2.17 17.1425 1.84 17.4725 1.5 17.8125 C-1.9375 18 -1.9375 18 -5.5 17.8125 C-7.5 15.8125 -7.5 15.8125 -7.8125 12.8125 C-7.709375 11.8225 -7.60625 10.8325 -7.5 9.8125 C-4.05549263 7.51616176 -1.56187717 7.27233515 2.5 6.8125 C2.5 5.8225 2.5 4.8325 2.5 3.8125 C-1.0219721 3.73245518 -4.11981469 3.77244298 -7.5 4.8125 C-6.03532073 0.4184622 -4.5649623 -0.24455155 0 0 Z " fill="#3F3F3F" transform="translate(104.5,64.1875)"/>
<path d="M0 0 C2.17578125 1.5703125 2.17578125 1.5703125 4 4 C4.390625 7.453125 4.390625 7.453125 4.25 11.25 C4.21390625 12.51328125 4.1778125 13.7765625 4.140625 15.078125 C4.07101563 16.52445312 4.07101563 16.52445312 4 18 C3.360625 17.814375 2.72125 17.62875 2.0625 17.4375 C1.0415625 17.2209375 1.0415625 17.2209375 0 17 C-0.33 17.33 -0.66 17.66 -1 18 C-4.4375 18.1875 -4.4375 18.1875 -8 18 C-10 16 -10 16 -10.3125 13 C-10.209375 12.01 -10.10625 11.02 -10 10 C-6.55549263 7.70366176 -4.06187717 7.45983515 0 7 C0 6.01 0 5.02 0 4 C-3.34252724 3.92572162 -5.8035914 3.93453047 -9 5 C-9 4.01 -9 3.02 -9 2 C-5.50875983 -0.32749345 -4.10777749 -0.50299316 0 0 Z " fill="#BDBDBD" transform="translate(112,330)"/>
<path d="M0 0 C2.17578125 1.5703125 2.17578125 1.5703125 4 4 C4.390625 7.453125 4.390625 7.453125 4.25 11.25 C4.21390625 12.51328125 4.1778125 13.7765625 4.140625 15.078125 C4.07101563 16.52445313 4.07101563 16.52445313 4 18 C3.360625 17.814375 2.72125 17.62875 2.0625 17.4375 C1.0415625 17.2209375 1.0415625 17.2209375 0 17 C-0.33 17.33 -0.66 17.66 -1 18 C-4.4375 18.1875 -4.4375 18.1875 -8 18 C-10 16 -10 16 -10.3125 13 C-10.209375 12.01 -10.10625 11.02 -10 10 C-6.55549263 7.70366176 -4.06187717 7.45983515 0 7 C0 6.01 0 5.02 0 4 C-3.34252724 3.92572162 -5.8035914 3.93453047 -9 5 C-9 4.01 -9 3.02 -9 2 C-5.50875983 -0.32749345 -4.10777749 -0.50299316 0 0 Z " fill="#BDBDBD" transform="translate(112,142)"/>
<path d="M0 0 C1.6796875 1.03515625 1.6796875 1.03515625 3 3 C3.2172101 5.64996326 3.28351554 8.05076558 3.1875 10.6875 C3.17396484 11.38939453 3.16042969 12.09128906 3.14648438 12.81445312 C3.11120182 14.54329829 3.05739583 16.27174765 3 18 C1.68 18 0.36 18 -1 18 C-2.175625 18.061875 -3.35125 18.12375 -4.5625 18.1875 C-8 18 -8 18 -10 16.8125 C-11 15 -11 15 -10.875 12.4375 C-10 10 -10 10 -7 8 C-4.67612053 7.60612212 -2.34206251 7.26513915 0 7 C0 5.68 0 4.36 0 3 C-3.3 3.66 -6.6 4.32 -10 5 C-7.31465056 -0.37069887 -5.79052426 -0.47269586 0 0 Z " fill="#393939" transform="translate(187,568)"/>
<path d="M0 0 C3.375 1.0625 3.375 1.0625 5.3125 2.8125 C6.375 5.0625 6.375 5.0625 6.375 10.0625 C2.415 10.0625 -1.545 10.0625 -5.625 10.0625 C-5.295 11.3825 -4.965 12.7025 -4.625 14.0625 C-0.64745872 14.79584429 -0.64745872 14.79584429 3.375 15.0625 C3.375 14.4025 3.375 13.7425 3.375 13.0625 C4.365 13.3925 5.355 13.7225 6.375 14.0625 C5.375 16.0625 5.375 16.0625 3.375 18.0625 C0.2003989 18.51601444 -1.61352271 18.74720208 -4.625 18.0625 C-7.26183762 15.9530299 -8.3331633 14.44108099 -9.03515625 11.125 C-9.32983957 7.13544126 -8.84587745 5.39046954 -6.5625 2 C-3.625 0.0625 -3.625 0.0625 0 0 Z " fill="#C2C2C2" transform="translate(154.625,329.9375)"/>
<path d="M0 0 C3.375 1.0625 3.375 1.0625 5.3125 2.8125 C6.375 5.0625 6.375 5.0625 6.375 10.0625 C2.415 10.0625 -1.545 10.0625 -5.625 10.0625 C-5.295 11.3825 -4.965 12.7025 -4.625 14.0625 C-0.64745872 14.79584429 -0.64745872 14.79584429 3.375 15.0625 C3.375 14.4025 3.375 13.7425 3.375 13.0625 C4.365 13.3925 5.355 13.7225 6.375 14.0625 C5.375 16.0625 5.375 16.0625 3.375 18.0625 C0.2003989 18.51601444 -1.61352271 18.74720208 -4.625 18.0625 C-7.26183762 15.9530299 -8.3331633 14.44108099 -9.03515625 11.125 C-9.32983957 7.13544126 -8.84587745 5.39046954 -6.5625 2 C-3.625 0.0625 -3.625 0.0625 0 0 Z " fill="#C2C2C2" transform="translate(154.625,141.9375)"/>
<path d="M0 0 C1.32 0.33 2.64 0.66 4 1 C5.19287411 4.87684087 6 7.91621923 6 12 C6.66 12 7.32 12 8 12 C8.144375 10.9275 8.28875 9.855 8.4375 8.75 C8.83749442 6.08337051 9.27591924 3.58600271 10 1 C10.99 1 11.98 1 13 1 C11.91103333 6.75762166 10.70663707 12.39247819 9 18 C7.68 18 6.36 18 5 18 C4.01 14.04 3.02 10.08 2 6 C0.68 9.96 -0.64 13.92 -2 18 C-2.99 18 -3.98 18 -5 18 C-6.65 12.39 -8.3 6.78 -10 1 C-9.01 1 -8.02 1 -7 1 C-6.01 3.97 -5.02 6.94 -4 10 C-1.81024227 6.71536341 -1.00193437 3.79303725 0 0 Z " fill="#373737" transform="translate(131,252)"/>
<path d="M0 0 C0.99 0 1.98 0 3 0 C4.19287411 3.87684087 5 6.91621923 5 11 C5.66 11 6.32 11 7 11 C7.2165625 9.1128125 7.2165625 9.1128125 7.4375 7.1875 C7.73748686 4.57332877 8.15813297 2.52560108 9 0 C10.32 0 11.64 0 13 0 C13.99 2.97 14.98 5.94 16 9 C17.49403054 6.01193893 18.79310745 3.10343799 20 0 C20.99 0.33 21.98 0.66 23 1 C21.35 6.28 19.7 11.56 18 17 C17.01 17 16.02 17 15 17 C13.68 13.04 12.36 9.08 11 5 C10.525625 6.60875 10.05125 8.2175 9.5625 9.875 C8.125 14.75 8.125 14.75 7 17 C6.01 17 5.02 17 4 17 C3.32844651 14.73050898 2.6626037 12.4596039 2 10.1875 C1.443125 8.29064453 1.443125 8.29064453 0.875 6.35546875 C0 3 0 3 0 0 Z " fill="#3E3E3E" transform="translate(228,569)"/>
<path d="M0 0 C1.95830173 0.26553244 3.91630215 0.53397241 5.87109375 0.82421875 C8.20345862 1.11924193 8.20345862 1.11924193 11.25 0.3125 C14 0 14 0 16.15625 1.52734375 C18.66329211 4.88954217 18.40348697 7.10585181 18.25 11.25 C18.21390625 12.51328125 18.1778125 13.7765625 18.140625 15.078125 C18.07101563 16.52445313 18.07101563 16.52445313 18 18 C17.01 18 16.02 18 15 18 C14.67 13.38 14.34 8.76 14 4 C12.35 4 10.7 4 9 4 C7.12175109 5.87824891 7.60897603 9.03935276 7.4375 11.5625 C7.35371094 12.76003906 7.26992187 13.95757812 7.18359375 15.19140625 C7.12300781 16.11824219 7.06242187 17.04507813 7 18 C6.34 18 5.68 18 5 18 C4.67 13.05 4.34 8.1 4 3 C2.35 3.33 0.7 3.66 -1 4 C-2.35091528 6.70183055 -2.33858058 9.11808206 -2.5625 12.125 C-2.64628906 13.22070312 -2.73007813 14.31640625 -2.81640625 15.4453125 C-2.87699219 16.28835937 -2.93757813 17.13140625 -3 18 C-3.66 18 -4.32 18 -5 18 C-5 12.39 -5 6.78 -5 1 C-3.68 1 -2.36 1 -1 1 C-0.67 0.67 -0.34 0.34 0 0 Z " fill="#1F1F1F" transform="translate(75,64)"/>
<path d="M0 0 C4.62 0 9.24 0 14 0 C14 0.66 14 1.32 14 2 C10.37 2 6.74 2 3 2 C3 4.64 3 7.28 3 10 C6.3 10 9.6 10 13 10 C13 10.99 13 11.98 13 13 C9.7 13 6.4 13 3 13 C3 15.31 3 17.62 3 20 C6.63 20 10.26 20 14 20 C14 20.99 14 21.98 14 23 C9.38 23 4.76 23 0 23 C0 15.41 0 7.82 0 0 Z " fill="#363636" transform="translate(51,59)"/>
<path d="M0 0 C1.9375 1.4375 1.9375 1.4375 3 3 C3 3.66 3 4.32 3 5 C-0.875 4.125 -0.875 4.125 -2 3 C-3.99958364 2.95919217 -6.00045254 2.95745644 -8 3 C-8.33 4.32 -8.66 5.64 -9 7 C-8.38511719 7.26554687 -7.77023437 7.53109375 -7.13671875 7.8046875 C-6.32847656 8.15789062 -5.52023437 8.51109375 -4.6875 8.875 C-3.88699219 9.22304688 -3.08648437 9.57109375 -2.26171875 9.9296875 C0 11 0 11 3 13 C3.66494615 19.09533972 3.66494615 19.09533972 1.75390625 21.6953125 C-1.02963358 23.76591896 -3.47247063 23.46736247 -6.8359375 23.36328125 C-9 23 -9 23 -11.5625 21.125 C-13 19 -13 19 -13 17 C-12.01 17 -11.02 17 -10 17 C-9.54625 17.495 -9.0925 17.99 -8.625 18.5 C-7.04972142 20.24721013 -7.04972142 20.24721013 -4.4375 20.3125 C-1.82203581 20.22966747 -1.82203581 20.22966747 0 18 C0 17.01 0 16.02 0 15 C-0.69867188 14.73445313 -1.39734375 14.46890625 -2.1171875 14.1953125 C-3.02726562 13.84210938 -3.93734375 13.48890625 -4.875 13.125 C-5.77992188 12.77695312 -6.68484375 12.42890625 -7.6171875 12.0703125 C-10 11 -10 11 -12 9 C-12.4375 5.5625 -12.4375 5.5625 -12 2 C-8.20751742 -1.67755887 -4.91297695 -1.27373476 0 0 Z " fill="#E6E6E6" transform="translate(283,453)"/>
<path d="M0 0 C0.99 0 1.98 0 3 0 C3.33 4.62 3.66 9.24 4 14 C5.65 14 7.3 14 9 14 C10.87824891 12.12175109 10.39102397 8.96064724 10.5625 6.4375 C10.64628906 5.23996094 10.73007813 4.04242188 10.81640625 2.80859375 C10.87699219 1.88175781 10.93757812 0.95492188 11 0 C11.99 0 12.98 0 14 0 C14 5.94 14 11.88 14 18 C12.68 17.67 11.36 17.34 10 17 C9.67 17.33 9.34 17.66 9 18 C3.74342389 18.45709357 3.74342389 18.45709357 1.31640625 16.96484375 C-0.71226431 13.93688739 -0.31525555 10.82086391 -0.1875 7.3125 C-0.17396484 6.61060547 -0.16042969 5.90871094 -0.14648438 5.18554688 C-0.11120182 3.45670171 -0.05739583 1.72825235 0 0 Z " fill="#BEBEBE" transform="translate(128,330)"/>
<path d="M0 0 C0.99 0 1.98 0 3 0 C3.33 4.62 3.66 9.24 4 14 C5.65 14 7.3 14 9 14 C10.87824891 12.12175109 10.39102397 8.96064724 10.5625 6.4375 C10.64628906 5.23996094 10.73007813 4.04242188 10.81640625 2.80859375 C10.87699219 1.88175781 10.93757812 0.95492187 11 0 C11.99 0 12.98 0 14 0 C14 5.94 14 11.88 14 18 C12.68 17.67 11.36 17.34 10 17 C9.67 17.33 9.34 17.66 9 18 C3.74342389 18.45709357 3.74342389 18.45709357 1.31640625 16.96484375 C-0.71226431 13.93688739 -0.31525555 10.82086391 -0.1875 7.3125 C-0.17396484 6.61060547 -0.16042969 5.90871094 -0.14648438 5.18554688 C-0.11120182 3.45670171 -0.05739583 1.72825235 0 0 Z " fill="#BEBEBE" transform="translate(128,142)"/>
<path d="M0 0 C1.828125 0.03515625 1.828125 0.03515625 4 1 C5.13266715 3.52465547 5.97728657 5.8059005 6.75 8.4375 C6.97042969 9.13166016 7.19085938 9.82582031 7.41796875 10.54101562 C9 15.61628979 9 15.61628979 9 18 C9.66 18 10.32 18 11 18 C11.16822266 16.71222656 11.16822266 16.71222656 11.33984375 15.3984375 C12.02648164 11.8636744 13.13294687 8.92396876 14.5625 5.625 C15.01753906 4.56539063 15.47257812 3.50578125 15.94140625 2.4140625 C16.29074219 1.61742187 16.64007813 0.82078125 17 0 C17.66 0 18.32 0 19 0 C17.59520823 7.53479222 15.65218599 15.22025142 12 22 C9.91162109 22.6640625 9.91162109 22.6640625 8 23 C6.66408687 19.35510669 5.33170192 15.70893381 4 12.0625 C3.6184375 11.02158203 3.236875 9.98066406 2.84375 8.90820312 C2.4828125 7.91884766 2.121875 6.92949219 1.75 5.91015625 C1.41484375 4.99371338 1.0796875 4.07727051 0.734375 3.13305664 C0 1 0 1 0 0 Z " fill="#BABABA" transform="translate(81,325)"/>
<path d="M0 0 C1.828125 0.03515625 1.828125 0.03515625 4 1 C5.13266715 3.52465547 5.97728657 5.8059005 6.75 8.4375 C6.97042969 9.13166016 7.19085938 9.82582031 7.41796875 10.54101562 C9 15.61628979 9 15.61628979 9 18 C9.66 18 10.32 18 11 18 C11.16822266 16.71222656 11.16822266 16.71222656 11.33984375 15.3984375 C12.02648164 11.8636744 13.13294687 8.92396876 14.5625 5.625 C15.01753906 4.56539062 15.47257812 3.50578125 15.94140625 2.4140625 C16.29074219 1.61742187 16.64007813 0.82078125 17 0 C17.66 0 18.32 0 19 0 C17.59520823 7.53479222 15.65218599 15.22025142 12 22 C9.91162109 22.6640625 9.91162109 22.6640625 8 23 C6.66408687 19.35510669 5.33170192 15.70893381 4 12.0625 C3.6184375 11.02158203 3.236875 9.98066406 2.84375 8.90820312 C2.4828125 7.91884766 2.121875 6.92949219 1.75 5.91015625 C1.41484375 4.99371338 1.0796875 4.07727051 0.734375 3.13305664 C0 1 0 1 0 0 Z " fill="#BABABA" transform="translate(81,137)"/>
<path d="M0 0 C1.32 0.33 2.64 0.66 4 1 C5.485 0.6596875 5.485 0.6596875 7 0.3125 C10 0 10 0 12.171875 1.52734375 C14.65836096 4.8904754 14.40309652 7.11639388 14.25 11.25 C14.21390625 12.51328125 14.1778125 13.7765625 14.140625 15.078125 C14.07101562 16.52445312 14.07101562 16.52445312 14 18 C13.01 18 12.02 18 11 18 C10.67 13.38 10.34 8.76 10 4 C8.35 4 6.7 4 5 4 C3.12175109 5.87824891 3.60897603 9.03935276 3.4375 11.5625 C3.31181641 13.35880859 3.31181641 13.35880859 3.18359375 15.19140625 C3.12300781 16.11824219 3.06242187 17.04507812 3 18 C2.01 18 1.02 18 0 18 C0 12.06 0 6.12 0 0 Z " fill="#DADADA" transform="translate(354,458)"/>
<path d="M0 0 C1.32 0.33 2.64 0.66 4 1 C5.485 0.6596875 5.485 0.6596875 7 0.3125 C10 0 10 0 12.171875 1.52734375 C14.65836096 4.8904754 14.40309652 7.11639388 14.25 11.25 C14.21390625 12.51328125 14.1778125 13.7765625 14.140625 15.078125 C14.07101562 16.52445312 14.07101562 16.52445312 14 18 C13.01 18 12.02 18 11 18 C10.67 13.05 10.34 8.1 10 3 C8.02 3.66 6.04 4.32 4 5 C3.67 9.29 3.34 13.58 3 18 C2.01 18 1.02 18 0 18 C0 12.06 0 6.12 0 0 Z " fill="#D6D6D6" transform="translate(318,458)"/>
<path d="M0 0 C4.62 0 9.24 0 14 0 C14 0.66 14 1.32 14 2 C10.37 2 6.74 2 3 2 C3 4.64 3 7.28 3 10 C6.3 10 9.6 10 13 10 C13 10.99 13 11.98 13 13 C9.7 13 6.4 13 3 13 C3 16.3 3 19.6 3 23 C2.01 23 1.02 23 0 23 C0 15.41 0 7.82 0 0 Z " fill="#353535" transform="translate(51,563)"/>
<path d="M0 0 C1.134375 0.28875 2.26875 0.5775 3.4375 0.875 C4.0975 2.195 4.7575 3.515 5.4375 4.875 C2.4675 4.545 -0.5025 4.215 -3.5625 3.875 C-3.8925 4.865 -4.2225 5.855 -4.5625 6.875 C-3.92441406 7.07996094 -3.28632812 7.28492188 -2.62890625 7.49609375 C-1.80261719 7.76550781 -0.97632812 8.03492188 -0.125 8.3125 C0.69871094 8.57933594 1.52242187 8.84617187 2.37109375 9.12109375 C4.4375 9.875 4.4375 9.875 5.4375 10.875 C5.6875 13.3125 5.6875 13.3125 5.4375 15.875 C1.36900591 18.58732939 -0.72726784 18.18199887 -5.5625 17.875 C-6.2225 17.215 -6.8825 16.555 -7.5625 15.875 C-7.5625 14.885 -7.5625 13.895 -7.5625 12.875 C-6.5725 12.875 -5.5825 12.875 -4.5625 12.875 C-4.2325 13.535 -3.9025 14.195 -3.5625 14.875 C-1.9125 14.875 -0.2625 14.875 1.4375 14.875 C1.7675 13.555 2.0975 12.235 2.4375 10.875 C1.344375 10.771875 0.25125 10.66875 -0.875 10.5625 C-4.5625 9.875 -4.5625 9.875 -6.5625 8.625 C-7.5625 6.875 -7.5625 6.875 -7.4375 4.3125 C-5.97580693 0.24064073 -4.15382168 -0.14574813 0 0 Z " fill="#313131" transform="translate(112.5625,252.125)"/>
<path d="M0 0 C1.875 1.375 1.875 1.375 3 3 C3 3.66 3 4.32 3 5 C0.36 4.67 -2.28 4.34 -5 4 C-5.33 4.99 -5.66 5.98 -6 7 C-3.98177083 7.45572917 -1.96354167 7.91145833 0.0546875 8.3671875 C2 9 2 9 4 11 C3.67028521 14.29714793 3.3773161 15.6226839 1 18 C-0.875 18.265625 -0.875 18.265625 -3 18.25 C-4.051875 18.25773438 -4.051875 18.25773438 -5.125 18.265625 C-7 18 -7 18 -9 16 C-9 15.01 -9 14.02 -9 13 C-8.195625 13.495 -8.195625 13.495 -7.375 14 C-4.4608939 15.22699204 -2.13132292 15.14233286 1 15 C0.67 14.01 0.34 13.02 0 12 C-1.84609289 11.20234326 -1.84609289 11.20234326 -4 10.6875 C-6.17578125 9.94921875 -6.17578125 9.94921875 -8 9 C-9.1875 6 -9.1875 6 -9 3 C-6.88905299 -0.72520061 -3.96302741 -0.49537843 0 0 Z " fill="#353535" transform="translate(204,568)"/>
<path d="M0 0 C3 -0.3125 3 -0.3125 6 0 C8 2 8 2 8.3125 5.9375 C8.23660758 8.54630189 8.13100187 9.77247043 6.8125 12.0625 C5 13 5 13 2.4375 12.875 C0 12 0 12 -2 9 C-2.33957563 4.92509248 -2.31332486 3.46998729 0 0 Z " fill="#F7F7F7" transform="translate(258,571)"/>
<path d="M0 0 C3 -0.3125 3 -0.3125 6 0 C8 2 8 2 8.3125 5.9375 C8.23660758 8.54630189 8.13100187 9.77247043 6.8125 12.0625 C5 13 5 13 2.4375 12.8125 C0 12 0 12 -2 10 C-2.31537716 5.66356399 -2.44897847 3.67346771 0 0 Z " fill="#F8F8F8" transform="translate(122,571)"/>
<path d="M0 0 C3 -0.3125 3 -0.3125 6 0 C8 2 8 2 8.3125 5.9375 C8.23660758 8.54630189 8.13100187 9.77247043 6.8125 12.0625 C5 13 5 13 2.4375 12.8125 C0 12 0 12 -2 10 C-2.31537716 5.66356399 -2.44897847 3.67346771 0 0 Z " fill="#F8F8F8" transform="translate(72,571)"/>
<path d="M0 0 C2 2 2 2 2.3125 5.9375 C2.23660758 8.54630189 2.13100187 9.77247043 0.8125 12.0625 C-1 13 -1 13 -3.5625 12.875 C-6 12 -6 12 -8 9 C-8.32855599 5.84586249 -8.53501881 3.84476654 -6.8125 1.125 C-4.38241919 -0.38332602 -2.80984248 -0.36023622 0 0 Z " fill="#F3F3F3" transform="translate(168,571)"/>
<path d="M0 0 C3 -0.375 3 -0.375 6 0 C8.46324069 3.69486103 8.38991688 5.63293092 8 10 C6.8125 12 6.8125 12 5 13 C2.4375 12.875 2.4375 12.875 0 12 C-2.31332486 8.53001271 -2.33957563 7.07490752 -2 3 C-1.34 2.01 -0.68 1.02 0 0 Z " fill="#F6F6F6" transform="translate(182,255)"/>
<path d="M0 0 C2.5625 0.3125 2.5625 0.3125 4.375 1.4375 C6.12207504 4.19603953 5.95453417 6.11088764 5.5625 9.3125 C4.375 11.6875 4.375 11.6875 2.5625 13.3125 C0 13.75 0 13.75 -2.4375 13.3125 C-5.14982939 9.24400591 -4.74449887 7.14773216 -4.4375 2.3125 C-2.4375 0.3125 -2.4375 0.3125 0 0 Z " fill="#F8F8F8" transform="translate(154.4375,254.6875)"/>
<path d="M0 0 C2.5 0.25 2.5 0.25 4.5 2.25 C4.80078125 4.34375 4.80078125 4.34375 4.8125 6.75 C4.83763672 7.94109375 4.83763672 7.94109375 4.86328125 9.15625 C4.74339844 9.8471875 4.62351562 10.538125 4.5 11.25 C1.5 13.25 1.5 13.25 -1.0625 13.0625 C-3.5 12.25 -3.5 12.25 -5.5 9.25 C-4.88515901 0.4885159 -4.88515901 0.4885159 0 0 Z " fill="#F5F5F5" transform="translate(291.5,570.75)"/>
<path d="M0 0 C1.875 1.375 1.875 1.375 3 3 C3 3.66 3 4.32 3 5 C2.01 5 1.02 5 0 5 C0 4.34 0 3.68 0 3 C-1.98 3.33 -3.96 3.66 -6 4 C-5.35932024 7.08759559 -5.35932024 7.08759559 -3.15234375 7.94921875 C-2.42144531 8.19285156 -1.69054687 8.43648438 -0.9375 8.6875 C-0.20402344 8.93886719 0.52945313 9.19023437 1.28515625 9.44921875 C1.85105469 9.63097656 2.41695312 9.81273437 3 10 C3.1875 12.875 3.1875 12.875 3 16 C-0.69486103 18.46324069 -2.63293092 18.38991688 -7 18 C-8.9375 16.625 -8.9375 16.625 -10 15 C-10 14.34 -10 13.68 -10 13 C-9.01 13 -8.02 13 -7 13 C-6.67 13.66 -6.34 14.32 -6 15 C-4.35 15 -2.7 15 -1 15 C-0.67 14.01 -0.34 13.02 0 12 C-0.56589844 11.79503906 -1.13179687 11.59007812 -1.71484375 11.37890625 C-2.44832031 11.10949219 -3.18179688 10.84007812 -3.9375 10.5625 C-4.66839844 10.29566406 -5.39929688 10.02882813 -6.15234375 9.75390625 C-8 9 -8 9 -9 8 C-9.29178308 5.22806071 -9.36366316 3.58590175 -7.875 1.1875 C-5.12844028 -0.55198782 -3.18153026 -0.39769128 0 0 Z " fill="#313131" transform="translate(98,252)"/>
<path d="M0 0 C1.8125 1.375 1.8125 1.375 3 3 C3 3.66 3 4.32 3 5 C2.01 5 1.02 5 0 5 C0 4.34 0 3.68 0 3 C-1.98 3.33 -3.96 3.66 -6 4 C-5.35932024 7.08759559 -5.35932024 7.08759559 -3.15234375 7.94921875 C-2.42144531 8.19285156 -1.69054687 8.43648437 -0.9375 8.6875 C-0.20402344 8.93886719 0.52945313 9.19023438 1.28515625 9.44921875 C1.85105469 9.63097656 2.41695312 9.81273437 3 10 C3.125 12.875 3.125 12.875 3 16 C1 18 1 18 -2.9375 18.375 C-6.69316081 18.30683919 -6.69316081 18.30683919 -9 16 C-9.33 15.34 -9.66 14.68 -10 14 C-9.01 13.67 -8.02 13.34 -7 13 C-6.67 13.66 -6.34 14.32 -6 15 C-4.35 15 -2.7 15 -1 15 C-0.67 14.01 -0.34 13.02 0 12 C-0.56589844 11.79503906 -1.13179687 11.59007812 -1.71484375 11.37890625 C-2.44832031 11.10949219 -3.18179688 10.84007812 -3.9375 10.5625 C-4.66839844 10.29566406 -5.39929688 10.02882813 -6.15234375 9.75390625 C-8 9 -8 9 -9 8 C-9.3125 5.625 -9.3125 5.625 -9 3 C-6.2535647 0.05012505 -3.9597373 -0.60919035 0 0 Z " fill="#323232" transform="translate(221,568)"/>
<path d="M0 0 C2 2 2 2 2.265625 3.875 C2.26046875 4.57625 2.2553125 5.2775 2.25 6 C2.25515625 6.70125 2.2603125 7.4025 2.265625 8.125 C2 10 2 10 0 12 C-3 12.3125 -3 12.3125 -6 12 C-8.31282587 8.53076119 -8.42478586 7.07794425 -8 3 C-5.8975876 -0.31959853 -3.76753493 -0.4830173 0 0 Z " fill="#343434" transform="translate(308,461)"/>
<path d="M0 0 C2 2 2 2 2.265625 3.875 C2.26046875 4.57625 2.2553125 5.2775 2.25 6 C2.25515625 6.70125 2.2603125 7.4025 2.265625 8.125 C2 10 2 10 0 12 C-2.80984248 12.36023622 -4.38241919 12.38332602 -6.8125 10.875 C-8.55198782 8.12844028 -8.39769128 6.18153026 -8 3 C-5.8975876 -0.31959853 -3.76753493 -0.4830173 0 0 Z " fill="#F7F7F7" transform="translate(108,571)"/>
<path d="M0 0 C0.99 0 1.98 0 3 0 C3 1.32 3 2.64 3 4 C4.32 4 5.64 4 7 4 C7 4.99 7 5.98 7 7 C5.68 7 4.36 7 3 7 C3.33 10.96 3.66 14.92 4 19 C4.99 19.33 5.98 19.66 7 20 C7 20.66 7 21.32 7 22 C4.625 22.125 4.625 22.125 2 22 C0 20 0 20 -0.1953125 16.9609375 C-0.16050781 15.18589844 -0.16050781 15.18589844 -0.125 13.375 C-0.10695312 12.18648437 -0.08890625 10.99796875 -0.0703125 9.7734375 C-0.04710937 8.85820313 -0.02390625 7.94296875 0 7 C-0.99 7 -1.98 7 -3 7 C-2.67 6.01 -2.34 5.02 -2 4 C-1.34 4 -0.68 4 0 4 C0 2.68 0 1.36 0 0 Z " fill="#323232" transform="translate(138,564)"/>
<path d="M0 0 C0.969375 0.2475 1.93875 0.495 2.9375 0.75 C5.21400745 0.3922386 5.21400745 0.3922386 6.9375 -0.25 C5.9475 0.245 5.9475 0.245 4.9375 0.75 C4.9375 1.41 4.9375 2.07 4.9375 2.75 C1.9375 3.75 1.9375 3.75 -0.625 3.6875 C-3.24639309 3.47472678 -3.24639309 3.47472678 -5.0625 5.75 C-5.39583333 8.75 -5.39583333 8.75 -5.0625 11.75 C-3.11392273 14.16164028 -3.11392273 14.16164028 0.5 13.8125 C2.2015625 13.7815625 2.2015625 13.7815625 3.9375 13.75 C4.9375 14.75 4.9375 14.75 5 17.3125 C4.979375 18.116875 4.95875 18.92125 4.9375 19.75 C4.2775 18.76 3.6175 17.77 2.9375 16.75 C1.865 16.9975 0.7925 17.245 -0.3125 17.5 C-4.0625 17.75 -4.0625 17.75 -6.5 16.375 C-8.79713326 12.51581612 -8.95628149 9.12564327 -8.0625 4.75 C-5.56507418 1.07731497 -4.53265102 -0.37001233 0 0 Z " fill="#3B3B3B" transform="translate(106.0625,568.25)"/>
<path d="M0 0 C6.40818182 -0.36272727 6.40818182 -0.36272727 8.9375 1.1875 C10.37794659 3.64473241 10.4305182 5.20163168 10 8 C6.3558226 10.4294516 4.28758728 10.16179575 0 10 C0 6.7 0 3.4 0 0 Z " fill="#F3F3F3" transform="translate(54,249)"/>
<path d="M0 0 C3.5 0.9375 3.5 0.9375 5.5 2.6875 C6.81365275 5.64321868 6.63114585 6.92111106 5.5 9.9375 C4.18733482 11.29118596 2.85432675 12.62549596 1.5 13.9375 C0.7127322 16.0756966 0.7127322 16.0756966 0.5 17.9375 C-0.49 17.9375 -1.48 17.9375 -2.5 17.9375 C-2.8125 15.75 -2.8125 15.75 -2.5 12.9375 C-0.83333333 11.27083333 0.83333333 9.60416667 2.5 7.9375 C2.45502158 5.66226911 2.45502158 5.66226911 1.5 3.9375 C-0.97266765 4.28194881 -0.97266765 4.28194881 -3.5 4.9375 C-3.83 5.5975 -4.16 6.2575 -4.5 6.9375 C-5.49 6.9375 -6.48 6.9375 -7.5 6.9375 C-7.1130131 4.69297595 -6.58035336 3.06695819 -5.375 1.125 C-3.5 -0.0625 -3.5 -0.0625 0 0 Z " fill="#424242" transform="translate(310.5,562.0625)"/>
<path d="M0 0 C0.33 0.66 0.66 1.32 1 2 C4.63 2 8.26 2 12 2 C12 1.34 12 0.68 12 0 C12.66 0 13.32 0 14 0 C14 1.32 14 2.64 14 4 C10.04 4 6.08 4 2 4 C2.33 5.32 2.66 6.64 3 8 C6.97754128 8.73334429 6.97754128 8.73334429 11 9 C11 8.34 11 7.68 11 7 C11.99 7.33 12.98 7.66 14 8 C13 10 13 10 11 12 C7.82713964 12.45326577 6.00872525 12.69618391 3 12 C-0.14303656 9.32841892 -0.91769879 7.85593254 -1.3125 3.75 C-1 1 -1 1 0 0 Z " fill="#B6B6B6" transform="translate(147,336)"/>
<path d="M0 0 C0.33 0.66 0.66 1.32 1 2 C4.63 2 8.26 2 12 2 C12 1.34 12 0.68 12 0 C12.66 0 13.32 0 14 0 C14 1.32 14 2.64 14 4 C10.04 4 6.08 4 2 4 C2.33 5.32 2.66 6.64 3 8 C6.97754128 8.73334429 6.97754128 8.73334429 11 9 C11 8.34 11 7.68 11 7 C11.99 7.33 12.98 7.66 14 8 C13 10 13 10 11 12 C7.82713964 12.45326577 6.00872525 12.69618391 3 12 C-0.14303656 9.32841892 -0.91769879 7.85593254 -1.3125 3.75 C-1 1 -1 1 0 0 Z " fill="#B6B6B6" transform="translate(147,148)"/>
<path d="M0 0 C1.32 0.33 2.64 0.66 4 1 C6.68149993 0.61432869 6.68149993 0.61432869 9 0 C9 0.99 9 1.98 9 3 C7.35 3.66 5.7 4.32 4 5 C3.67 9.29 3.34 13.58 3 18 C2.01 18 1.02 18 0 18 C0 12.06 0 6.12 0 0 Z " fill="#363636" transform="translate(273,568)"/>
<path d="M0 0 C1.32 0.33 2.64 0.66 4 1 C6.68149993 0.61432869 6.68149993 0.61432869 9 0 C9 0.99 9 1.98 9 3 C7.02 3.33 5.04 3.66 3 4 C3 8.62 3 13.24 3 18 C2.01 18 1.02 18 0 18 C0 12.06 0 6.12 0 0 Z " fill="#2C2C2C" transform="translate(87,568)"/>
<path d="M0 0 C6.35470441 0.47960033 6.35470441 0.47960033 8.9375 2.5625 C10.46515217 6.06711379 10.64754204 9.28399171 10 13 C8.4375 16 8.4375 16 6 18 C2.25 18.3125 2.25 18.3125 -1 18 C-0.67 17.34 -0.34 16.68 0 16 C3.0625 15.375 3.0625 15.375 6 15 C6 11.7 6 8.4 6 5 C5.195625 4.731875 4.39125 4.46375 3.5625 4.1875 C2.716875 3.795625 1.87125 3.40375 1 3 C0.67 2.01 0.34 1.02 0 0 Z " fill="#2B2B2B" transform="translate(163,568)"/>
<path d="M0 0 C4.55555556 0.55555556 4.55555556 0.55555556 6 2 C6.47067558 8.35412027 6.47067558 8.35412027 4.76171875 10.69921875 C1.97019569 12.76036549 -0.47034219 12.46742834 -3.8359375 12.36328125 C-6 12 -6 12 -8.5625 10.125 C-10 8 -10 8 -10 6 C-9.01 6 -8.02 6 -7 6 C-6.319375 6.7425 -6.319375 6.7425 -5.625 7.5 C-4.04972142 9.24721013 -4.04972142 9.24721013 -1.4375 9.3125 C1.17796419 9.22966747 1.17796419 9.22966747 3 7 C3 6.01 3 5.02 3 4 C0.525 3.01 0.525 3.01 -2 2 C-1.34 1.34 -0.68 0.68 0 0 Z " fill="#E2E2E2" transform="translate(280,464)"/>
<path d="M0 0 C0.99 0 1.98 0 3 0 C3 7.59 3 15.18 3 23 C2.01 23 1.02 23 0 23 C0 15.41 0 7.82 0 0 Z " fill="#ECECEC" transform="translate(346,453)"/>
<path d="M0 0 C2.49118953 3.7367843 2.2065226 5.74451819 2.125 10.1875 C2.10695313 11.45980469 2.08890625 12.73210937 2.0703125 14.04296875 C2.03550781 15.50669922 2.03550781 15.50669922 2 17 C1.01 17 0.02 17 -1 17 C-1.33 12.38 -1.66 7.76 -2 3 C-3.98 3 -5.96 3 -8 3 C-8.66 2.34 -9.32 1.68 -10 1 C-6.43904118 -1.32831923 -4.04274788 -1.14251571 0 0 Z " fill="#454545" transform="translate(91,65)"/>
<path d="M0 0 C0.99 0 1.98 0 3 0 C3 7.59 3 15.18 3 23 C2.01 23 1.02 23 0 23 C0 15.41 0 7.82 0 0 Z " fill="#3A3A3A" transform="translate(123,59)"/>
<path d="M0 0 C0.66 0 1.32 0 2 0 C2 7.59 2 15.18 2 23 C1.34 23 0.68 23 0 23 C-2.02558881 19.65060119 -2.21738987 17.13037449 -2.125 13.25 C-2.09792969 11.77273438 -2.09792969 11.77273438 -2.0703125 10.265625 C-2.04710937 9.51796875 -2.02390625 8.7703125 -2 8 C-1.34 8 -0.68 8 0 8 C0 5.36 0 2.72 0 0 Z " fill="#252525" transform="translate(297,563)"/>
<path d="M0 0 C2.1875 -0.375 2.1875 -0.375 5 0 C8.55722247 3.24102492 9.7914249 4.81112194 10.625 9.5625 C9.85071248 13.82108137 8.28602882 15.28902623 5 18 C5 14 5 14 6 13 C6.07148199 11.64756083 6.08399454 10.29165633 6.0625 8.9375 C6.041875 7.638125 6.02125 6.33875 6 5 C5.195625 4.731875 4.39125 4.46375 3.5625 4.1875 C2.716875 3.795625 1.87125 3.40375 1 3 C0.67 2.01 0.34 1.02 0 0 Z " fill="#3A3A3A" transform="translate(73,568)"/>
<path d="M0 0 C2.1875 -0.375 2.1875 -0.375 5 0 C8.55722247 3.24102492 9.7914249 4.81112194 10.625 9.5625 C9.85071248 13.82108137 8.28602882 15.28902623 5 18 C5 14 5 14 6 13 C6.07148199 11.64756083 6.08399454 10.29165633 6.0625 8.9375 C6.041875 7.638125 6.02125 6.33875 6 5 C5.195625 4.731875 4.39125 4.46375 3.5625 4.1875 C2.716875 3.795625 1.87125 3.40375 1 3 C0.67 2.01 0.34 1.02 0 0 Z " fill="#393939" transform="translate(123,568)"/>
<path d="M0 0 C0.99 0.33 1.98 0.66 3 1 C1.35 6.28 -0.3 11.56 -2 17 C-2.99 17 -3.98 17 -5 17 C-5.33 14.69 -5.66 12.38 -6 10 C-5.01 10.495 -5.01 10.495 -4 11 C-2.68 7.37 -1.36 3.74 0 0 Z " fill="#282828" transform="translate(248,569)"/>
<path d="M0 0 C0.99 0 1.98 0 3 0 C4.32 3.63 5.64 7.26 7 11 C7.66 10.67 8.32 10.34 9 10 C8.67 12.31 8.34 14.62 8 17 C7.01 17 6.02 17 5 17 C3.35 11.39 1.7 5.78 0 0 Z " fill="#363636" transform="translate(121,253)"/>
<path d="M0 0 C0.99 0 1.98 0 3 0 C3 5.94 3 11.88 3 18 C2.01 18 1.02 18 0 18 C0 12.06 0 6.12 0 0 Z " fill="#3F3F3F" transform="translate(115,64)"/>
<path d="M0 0 C0.33 0 0.66 0 1 0 C1 3.63 1 7.26 1 11 C-3.29 11 -7.58 11 -12 11 C-10.68 10.34 -9.36 9.68 -8 9 C-3.02482725 5.27451603 -3.02482725 5.27451603 0 0 Z " fill="#070707" transform="translate(639,633)"/>
<path d="M0 0 C0.66 0 1.32 0 2 0 C2 0.99 2 1.98 2 3 C2.66 3 3.32 3 4 3 C3.67 7.95 3.34 12.9 3 18 C2.01 18 1.02 18 0 18 C0 12.06 0 6.12 0 0 Z " fill="#DEDEDE" transform="translate(318,458)"/>
<path d="M0 0 C4.29 0 8.58 0 13 0 C13 3.63 13 7.26 13 11 C12.443125 10.2575 11.88625 9.515 11.3125 8.75 C7.93949045 4.73885351 4.68560487 2.34280244 0 0 Z " fill="#070707" transform="translate(627,0)"/>
<path d="M0 0 C1.32 0 2.64 0 4 0 C4 0.99 4 1.98 4 3 C2.02 3.66 0.04 4.32 -2 5 C-2.33 9.29 -2.66 13.58 -3 18 C-3.66 18 -4.32 18 -5 18 C-5 12.39 -5 6.78 -5 1 C-3.68 1 -2.36 1 -1 1 C-0.67 0.67 -0.34 0.34 0 0 Z " fill="#2B2B2B" transform="translate(172,252)"/>
<path d="M0 0 C0.556875 0.7425 1.11375 1.485 1.6875 2.25 C3.93727787 4.92541152 6.2309174 6.88675275 9 9 C9.66 9.66 10.32 10.32 11 11 C7.37 11 3.74 11 0 11 C0 7.37 0 3.74 0 0 Z " fill="#040404" transform="translate(0,633)"/>
<path d="M0 0 C0.66 0 1.32 0 2 0 C2 0.66 2 1.32 2 2 C2.66 2 3.32 2 4 2 C3.67 6.95 3.34 11.9 3 17 C2.01 17 1.02 17 0 17 C0 11.39 0 5.78 0 0 Z " fill="#E0E0E0" transform="translate(354,459)"/>
<path d="M0 0 C0.99 0 1.98 0 3 0 C3 5.61 3 11.22 3 17 C2.01 17 1.02 17 0 17 C0 11.39 0 5.78 0 0 Z " fill="#D3D3D3" transform="translate(291,459)"/>
<path d="M0 0 C3.63 0 7.26 0 11 0 C10.2575 0.556875 9.515 1.11375 8.75 1.6875 C6.07458848 3.93727787 4.11324725 6.2309174 2 9 C1.34 9.66 0.68 10.32 0 11 C0 7.37 0 3.74 0 0 Z " fill="#040404" transform="translate(0,0)"/>
<path d="M0 0 C0.99 0.33 1.98 0.66 3 1 C6.68382769 1.13156527 9.49053585 1.16982138 13 0 C13 0.99 13 1.98 13 3 C12.34 3 11.68 3 11 3 C11 3.99 11 4.98 11 6 C8.03 6 5.06 6 2 6 C2 5.34 2 4.68 2 4 C1.34 3.67 0.68 3.34 0 3 C0 2.01 0 1.02 0 0 Z " fill="#2F2F2F" transform="translate(99,588)"/>
<path d="M0 0 C0.33 0 0.66 0 1 0 C1 3.63 1 7.26 1 11 C-2.63 11 -6.26 11 -10 11 C-10.66 9.35 -11.32 7.7 -12 6 C-11.34 5.67 -10.68 5.34 -10 5 C-9.01 6.485 -9.01 6.485 -8 8 C-5.5 8.41666667 -5.5 8.41666667 -3 8 C-0.70941092 6.16918103 -0.70941092 6.16918103 -0.9375 3.4375 C-0.958125 2.633125 -0.97875 1.82875 -1 1 C-0.67 0.67 -0.34 0.34 0 0 Z " fill="#292929" transform="translate(82,259)"/>
<path d="M0 0 C-0.875 4.875 -0.875 4.875 -2 6 C-4.33944736 5.71269945 -6.6739143 5.38063221 -9 5 C-8.6875 3.0625 -8.6875 3.0625 -8 1 C-5.07175348 0.02391783 -3.04386724 -0.08226668 0 0 Z " fill="#F8F8F8" transform="translate(113,340)"/>
<path d="M0 0 C-0.875 4.875 -0.875 4.875 -2 6 C-4.33944736 5.71269945 -6.6739143 5.38063221 -9 5 C-8.6875 3.0625 -8.6875 3.0625 -8 1 C-5.07175348 0.02391783 -3.04386724 -0.08226668 0 0 Z " fill="#F8F8F8" transform="translate(113,152)"/>
<path d="M0 0 C1.134375 0.020625 2.26875 0.04125 3.4375 0.0625 C3.1075 1.7125 2.7775 3.3625 2.4375 5.0625 C-3.3125 6.1875 -3.3125 6.1875 -5.5625 5.0625 C-4.43693182 0.07784091 -4.43693182 0.07784091 0 0 Z " fill="#EBEBEB" transform="translate(104.5625,73.9375)"/>
<path d="M0 0 C0.598125 0.20625 1.19625 0.4125 1.8125 0.625 C0.8534375 1.2746875 0.8534375 1.2746875 -0.125 1.9375 C-2.45496003 3.53739177 -2.45496003 3.53739177 -3.1875 6.625 C-0.5475 6.625 2.0925 6.625 4.8125 6.625 C4.4825 7.615 4.1525 8.605 3.8125 9.625 C0.4375 9.75 0.4375 9.75 -3.1875 9.625 C-5.1875 7.625 -5.1875 7.625 -5.5 4.625 C-5.396875 3.635 -5.29375 2.645 -5.1875 1.625 C-2.1875 -0.375 -2.1875 -0.375 0 0 Z " fill="#2D2D2D" transform="translate(102.1875,72.375)"/>
<path d="M0 0 C-0.875 4.875 -0.875 4.875 -2 6 C-3.66617115 6.04063832 -5.33388095 6.042721 -7 6 C-7.33 4.35 -7.66 2.7 -8 1 C-5.29120665 -0.35439668 -2.99066732 -0.06501451 0 0 Z " fill="#F2F2F2" transform="translate(81,262)"/>
<path d="M0 0 C0.94875 0.04125 1.8975 0.0825 2.875 0.125 C2 5 2 5 0.875 6.125 C-0.79117115 6.16563832 -2.45888095 6.167721 -4.125 6.125 C-4.75 4.25 -4.75 4.25 -5.125 2.125 C-3.125 0.125 -3.125 0.125 0 0 Z " fill="#F2F2F2" transform="translate(184.125,577.875)"/>
<path d="M0 0 C1.32 0.33 2.64 0.66 4 1 C4.33 2.65 4.66 4.3 5 6 C4.01 6 3.02 6 2 6 C1.34 7.98 0.68 9.96 0 12 C-0.99 12 -1.98 12 -3 12 C-2.01 8.04 -1.02 4.08 0 0 Z " fill="#424242" transform="translate(131,252)"/>
<path d="M0 0 C2.0625 0.4375 2.0625 0.4375 4 1 C2.515 3.475 2.515 3.475 1 6 C3.97 6 6.94 6 10 6 C9.01 7.485 9.01 7.485 8 9 C4.5 9.3125 4.5 9.3125 1 9 C-1 7 -1 7 -1.1875 3.9375 C-1 1 -1 1 0 0 Z " fill="#B7B7B7" transform="translate(103,339)"/>
<path d="M0 0 C2.5625 0.1875 2.5625 0.1875 4.5625 2.1875 C4.5625 3.1775 4.5625 4.1675 4.5625 5.1875 C1.5925 5.1875 -1.3775 5.1875 -4.4375 5.1875 C-3.20220588 0.24632353 -3.20220588 0.24632353 0 0 Z " fill="#FBFBFB" transform="translate(153.4375,332.8125)"/>
<path d="M0 0 C2.0625 0.4375 2.0625 0.4375 4 1 C2.515 3.475 2.515 3.475 1 6 C3.97 6 6.94 6 10 6 C9.01 7.485 9.01 7.485 8 9 C4.5 9.3125 4.5 9.3125 1 9 C-1 7 -1 7 -1.1875 3.9375 C-1 1 -1 1 0 0 Z " fill="#B7B7B7" transform="translate(103,151)"/>
<path d="M0 0 C2.5625 0.1875 2.5625 0.1875 4.5625 2.1875 C4.5625 3.1775 4.5625 4.1675 4.5625 5.1875 C1.5925 5.1875 -1.3775 5.1875 -4.4375 5.1875 C-3.20220588 0.24632353 -3.20220588 0.24632353 0 0 Z " fill="#FBFBFB" transform="translate(153.4375,144.8125)"/>
<path d="M0 0 C1.134375 0.28875 2.26875 0.5775 3.4375 0.875 C4.65234375 2.9296875 4.65234375 2.9296875 5.4375 4.875 C4.75042969 4.76800781 4.06335938 4.66101563 3.35546875 4.55078125 C2.45441406 4.43089844 1.55335937 4.31101562 0.625 4.1875 C-0.26832031 4.05988281 -1.16164063 3.93226563 -2.08203125 3.80078125 C-4.63274209 3.62608118 -4.63274209 3.62608118 -6.38671875 5.35546875 C-6.96873047 6.10763672 -6.96873047 6.10763672 -7.5625 6.875 C-7.25 4.5 -7.25 4.5 -6.5625 1.875 C-3.5625 -0.125 -3.5625 -0.125 0 0 Z " fill="#4E4E4E" transform="translate(112.5625,252.125)"/>
<path d="M0 0 C0.33 0 0.66 0 1 0 C1.99 2.97 2.98 5.94 4 9 C5.65 9.33 7.3 9.66 9 10 C9 10.66 9 11.32 9 12 C6.25 12.3125 6.25 12.3125 3 12 C-0.01571379 9.30172977 -0.92360502 7.7945078 -1.3125 3.75 C-1 1 -1 1 0 0 Z " fill="#262626" transform="translate(148,258)"/>
<path d="M0 0 C3.125 0.25 3.125 0.25 5 1.625 C6.125 3.25 6.125 3.25 6.125 5.25 C4.10677083 4.92447917 2.08854167 4.59895833 0.0703125 4.2734375 C-0.57164062 4.26570312 -1.21359375 4.25796875 -1.875 4.25 C-2.535 4.91 -3.195 5.57 -3.875 6.25 C-4.535 5.92 -5.195 5.59 -5.875 5.25 C-3.48114934 0.30270864 -3.48114934 0.30270864 0 0 Z " fill="#454545" transform="translate(200.875,567.75)"/>
<path d="M0 0 C0 0.99 0 1.98 0 3 C-1.98 3.66 -3.96 4.32 -6 5 C-6.33 6.98 -6.66 8.96 -7 11 C-8.625 9.3125 -8.625 9.3125 -10 7 C-8.62448783 1.22284889 -5.71891365 -0.30913047 0 0 Z " fill="#494949" transform="translate(157,252)"/>
<path d="M0 0 C2 1 2 1 3.375 3.875 C4.97777166 6.9572532 6.1041453 8.20257295 9 10 C8.67 10.99 8.34 11.98 8 13 C3.33716394 9.48417174 0.27789598 6.96351455 -1 1 C-0.67 0.67 -0.34 0.34 0 0 Z " fill="#C7C7C7" transform="translate(1,630)"/>
<path d="M0 0 C2.90118942 0.46419031 4.40719244 0.44077954 7.125 -0.5 C6.135 -0.005 6.135 -0.005 5.125 0.5 C5.125 1.16 5.125 1.82 5.125 2.5 C2.15338815 3.49053728 0.21028008 3.5 -2.875 3.5 C-4.21832728 3.79044914 -5.55725804 4.10955794 -6.875 4.5 C-4.49008453 -0.78088427 -4.49008453 -0.78088427 0 0 Z " fill="#4B4B4B" transform="translate(105.875,568.5)"/>
<path d="M0 0 C1.35242344 2.70484687 1 4.9993319 1 8 C1.66868314 11.11332248 1.66868314 11.11332248 4.0625 12.1875 C4.701875 12.455625 5.34125 12.72375 6 13 C3.6875 13.25 3.6875 13.25 1 13 C-0.8125 11.5 -0.8125 11.5 -2 9 C-2.23884872 6.27920155 -2.13709297 3.74185932 -2 1 C-1.34 0.67 -0.68 0.34 0 0 Z " fill="#EFEFEF" transform="translate(300,462)"/>
<path d="M0 0 C-0.33 1.32 -0.66 2.64 -1 4 C-2.60875 3.7215625 -2.60875 3.7215625 -4.25 3.4375 C-7.40391546 3.0695432 -9.09818492 2.95534657 -12 4 C-9.17895868 -2.24659149 -6.16171872 -0.89444304 0 0 Z " fill="#D2D2D2" transform="translate(311,459)"/>
<path d="M0 0 C0.99 0.33 1.98 0.66 3 1 C0.05129788 6.18971573 -2.53177087 8.51444131 -8 11 C-8.99 10.67 -9.98 10.34 -11 10 C-10 8 -10 8 -6.625 6.6875 C-2.75274686 4.8848994 -1.74247831 3.79245279 0 0 Z " fill="#DFDFDF" transform="translate(589,366)"/>
<path d="M0 0 C0.99 0.33 1.98 0.66 3 1 C0.05129788 6.18971573 -2.53177087 8.51444131 -8 11 C-8.99 10.67 -9.98 10.34 -11 10 C-10 8 -10 8 -6.625 6.6875 C-2.75274686 4.8848994 -1.74247831 3.79245279 0 0 Z " fill="#DFDFDF" transform="translate(589,178)"/>
<path d="M0 0 C0.33 0.66 0.66 1.32 1 2 C-1.55398281 6.16204606 -3.95054353 9.22931926 -8 12 C-8.66 12 -9.32 12 -10 12 C-8.74993611 8.24980832 -7.06668123 7.42481772 -4 5 C-2.62631655 3.36643049 -1.28062485 1.7074998 0 0 Z " fill="#C5C5C5" transform="translate(639,631)"/>
<path d="M0 0 C6.48979592 0.48979592 6.48979592 0.48979592 8.9375 2.9375 C10 5 10 5 10 7 C9.34 7 8.68 7 8 7 C7.67 8.32 7.34 9.64 7 11 C6.62875 9.329375 6.62875 9.329375 6.25 7.625 C5.40634018 3.95791272 5.40634018 3.95791272 2.9375 2.6875 C2.298125 2.460625 1.65875 2.23375 1 2 C0.67 1.34 0.34 0.68 0 0 Z " fill="#4A4A4A" transform="translate(163,568)"/>
<path d="M0 0 C0.99 0 1.98 0 3 0 C3 1.32 3 2.64 3 4 C4.32 4 5.64 4 7 4 C6.67 4.99 6.34 5.98 6 7 C6 6.34 6 5.68 6 5 C4.35 5 2.7 5 1 5 C1 5.66 1 6.32 1 7 C-0.32 7 -1.64 7 -3 7 C-2.67 6.01 -2.34 5.02 -2 4 C-1.34 4 -0.68 4 0 4 C0 2.68 0 1.36 0 0 Z " fill="#575757" transform="translate(138,564)"/>
<path d="M0 0 C0.33 0.495 0.66 0.99 1 1.5 C4.17572747 3.88179561 7.10246066 3.19168226 11 3 C10.67 3.99 10.34 4.98 10 6 C7 6 4 6 1 6 C-0.0625 4.125 -0.0625 4.125 -1 2 C-0.67 1.34 -0.34 0.68 0 0 Z " fill="#343434" transform="translate(180,264)"/>
<path d="M0 0 C0.99 0 1.98 0 3 0 C3.45375 0.474375 3.9075 0.94875 4.375 1.4375 C6.46366683 3.44583349 8.1783448 3.61869524 11 4 C11 4.66 11 5.32 11 6 C4.63636364 6.48951049 4.63636364 6.48951049 1.5625 4.125 C0 2 0 2 0 0 Z " fill="#EDEDED" transform="translate(270,470)"/>
<path d="M0 0 C5.5 -0.36666667 5.5 -0.36666667 7.875 1.375 C9 3 9 3 9 5 C8.01 5 7.02 5 6 5 C6 4.34 6 3.68 6 3 C3.69 3.33 1.38 3.66 -1 4 C-0.67 2.68 -0.34 1.36 0 0 Z " fill="#474747" transform="translate(92,252)"/>
<path d="M0 0 C2.97526665 2.55022856 4.50122302 5.40293526 6 9 C5.67 9.99 5.34 10.98 5 12 C2.5 9.9375 2.5 9.9375 0 7 C-0.3125 3.1875 -0.3125 3.1875 0 0 Z " fill="#474747" transform="translate(253,574)"/>
<path d="M0 0 C1.8125 1.375 1.8125 1.375 3 3 C3 3.66 3 4.32 3 5 C2.01 5 1.02 5 0 5 C0 4.34 0 3.68 0 3 C-2.31 3.33 -4.62 3.66 -7 4 C-7 3.01 -7 2.02 -7 1 C-4.45132831 -0.27433584 -2.82594567 -0.27570202 0 0 Z " fill="#414141" transform="translate(221,568)"/>
<path d="M0 0 C0.99 0 1.98 0 3 0 C3.66 2.97 4.32 5.94 5 9 C4.01 9.33 3.02 9.66 2 10 C1.34 6.7 0.68 3.4 0 0 Z " fill="#424242" transform="translate(228,569)"/>
<path d="M0 0 C0.33 0 0.66 0 1 0 C1 2.64 1 5.28 1 8 C-2.47823115 9.15941038 -4.45895578 8.70820884 -8 8 C-7.67 7.01 -7.34 6.02 -7 5 C-4.03 5.495 -4.03 5.495 -1 6 C-0.67 4.02 -0.34 2.04 0 0 Z " fill="#525252" transform="translate(296,563)"/>
<path d="M0 0 C-0.99 0.66 -1.98 1.32 -3 2 C-5.75990436 4.31831966 -6.8120247 6.61883953 -8 10 C-8.33 10 -8.66 10 -9 10 C-9.36103152 3.6217765 -9.36103152 3.6217765 -7.875 1.0625 C-5.214973 -0.44484863 -2.99793795 -0.19986253 0 0 Z " fill="#252525" transform="translate(263,569)"/>
<path d="M0 0 C6.47556391 0.61090226 6.47556391 0.61090226 8.9375 2.4375 C10 4 10 4 10 6 C6.846502 5.29922267 3.91038896 4.4158649 1 3 C0.67 2.01 0.34 1.02 0 0 Z " fill="#D5D5D5" transform="translate(276,452)"/>
<path d="M0 0 C-0.99 0.66 -1.98 1.32 -3 2 C-5.75990436 4.31831966 -6.8120247 6.61883953 -8 10 C-8.33 10 -8.66 10 -9 10 C-9.36103152 3.6217765 -9.36103152 3.6217765 -7.875 1.0625 C-5.214973 -0.44484863 -2.99793795 -0.19986253 0 0 Z " fill="#252525" transform="translate(127,569)"/>
<path d="M0 0 C-0.99 0.66 -1.98 1.32 -3 2 C-5.75990436 4.31831966 -6.8120247 6.61883953 -8 10 C-8.33 10 -8.66 10 -9 10 C-9.36103152 3.6217765 -9.36103152 3.6217765 -7.875 1.0625 C-5.214973 -0.44484863 -2.99793795 -0.19986253 0 0 Z " fill="#242424" transform="translate(77,569)"/>
<path d="M0 0 C5.01113235 1.4317521 6.94469549 3.98445693 10 8 C9.67 8.66 9.34 9.32 9 10 C8.51789062 9.50628906 8.03578125 9.01257812 7.5390625 8.50390625 C6.90742187 7.86324219 6.27578125 7.22257813 5.625 6.5625 C4.99851562 5.92441406 4.37203125 5.28632812 3.7265625 4.62890625 C2.08276939 2.92117824 2.08276939 2.92117824 0 2 C0 1.34 0 0.68 0 0 Z " fill="#C8C8C8" transform="translate(629,1)"/>
<path d="M0 0 C0.33 0.99 0.66 1.98 1 3 C-0.0625 4.5 -0.0625 4.5 -2 6 C-5.6875 6.1875 -5.6875 6.1875 -9 6 C-8.67 5.34 -8.34 4.68 -8 4 C-4.9375 3.375 -4.9375 3.375 -2 3 C-2 2.34 -2 1.68 -2 1 C-1.34 0.67 -0.68 0.34 0 0 Z " fill="#2A2A2A" transform="translate(267,580)"/>
<path d="M0 0 C0.20625 0.639375 0.4125 1.27875 0.625 1.9375 C1.89538209 4.34925077 1.89538209 4.34925077 5.125 4.75 C6.07375 4.8325 7.0225 4.915 8 5 C8 5.66 8 6.32 8 7 C4.625 7.125 4.625 7.125 1 7 C0.34 6.34 -0.32 5.68 -1 5 C-0.625 2.375 -0.625 2.375 0 0 Z " fill="#232323" transform="translate(178,579)"/>
<path d="M0 0 C0.33 0 0.66 0 1 0 C1.3125 3.1875 1.3125 3.1875 1 7 C-1.5 9.9375 -1.5 9.9375 -4 12 C-4 10.68 -4 9.36 -4 8 C-3 7 -2 6 -1 5 C-0.27802838 2.39388923 -0.27802838 2.39388923 0 0 Z " fill="#404040" transform="translate(132,574)"/>
<path d="M0 0 C4.455 0.99 4.455 0.99 9 2 C9 2.99 9 3.98 9 5 C3.375 5.25 3.375 5.25 0 3 C0 2.01 0 1.02 0 0 Z " fill="#CCCCCC" transform="translate(299,478)"/>
<path d="M0 0 C0.93423645 3.01031744 1.04449911 3.86650268 0 7 C-0.99 7 -1.98 7 -3 7 C-3.33 5.02 -3.66 3.04 -4 1 C-2.68 0.67 -1.36 0.34 0 0 Z " fill="#262626" transform="translate(129,263)"/>
<path d="M0 0 C0.66 0 1.32 0 2 0 C2 1.32 2 2.64 2 4 C2.99 3.67 3.98 3.34 5 3 C4.67 4.65 4.34 6.3 4 8 C3.01 8 2.02 8 1 8 C0.67 5.36 0.34 2.72 0 0 Z " fill="#272727" transform="translate(231,578)"/>
<path d="M0 0 C-0.78375 0.598125 -1.5675 1.19625 -2.375 1.8125 C-5.14574323 3.91085249 -5.14574323 3.91085249 -7 7 C-7.66 6.67 -8.32 6.34 -9 6 C-7.01260984 0.46369883 -5.82303895 -0.15323787 0 0 Z " fill="#BCBCBC" transform="translate(155,331)"/>
<path d="M0 0 C-0.78375 0.598125 -1.5675 1.19625 -2.375 1.8125 C-5.14574323 3.91085249 -5.14574323 3.91085249 -7 7 C-7.66 6.67 -8.32 6.34 -9 6 C-7.01260984 0.46369883 -5.82303895 -0.15323787 0 0 Z " fill="#BCBCBC" transform="translate(155,143)"/>
<path d="M0 0 C2.31 1.65 4.62 3.3 7 5 C6.67 5.66 6.34 6.32 6 7 C3.0625 6.25 3.0625 6.25 0 5 C-0.9375 2.9375 -0.9375 2.9375 -1 1 C-0.67 0.67 -0.34 0.34 0 0 Z " fill="#282828" transform="translate(196,572)"/>
<path d="M0 0 C2.625 0.375 2.625 0.375 5 1 C2.6875 3.5 2.6875 3.5 0 6 C-0.99 6 -1.98 6 -3 6 C-2.42655063 3.13275314 -2.1385485 2.1385485 0 0 Z " fill="#484848" transform="translate(306,563)"/>
<path d="M0 0 C1.4540625 0.0309375 1.4540625 0.0309375 2.9375 0.0625 C1.9375 3.0625 1.9375 3.0625 -0.4375 4.25 C-3.0625 5.0625 -3.0625 5.0625 -6.0625 5.0625 C-3.64893617 0.07446809 -3.64893617 0.07446809 0 0 Z " fill="#535353" transform="translate(77.0625,251.9375)"/>
<path d="M0 0 C0.556875 0.185625 1.11375 0.37125 1.6875 0.5625 C4.399133 1.07551165 6.34371039 0.6640724 9 0 C9 0.99 9 1.98 9 3 C4.25 4.125 4.25 4.125 2 3 C2 2.34 2 1.68 2 1 C1.34 0.67 0.68 0.34 0 0 Z " fill="#545454" transform="translate(273,568)"/>
<path d="M0 0 C0.556875 0.185625 1.11375 0.37125 1.6875 0.5625 C4.399133 1.07551165 6.34371039 0.6640724 9 0 C9 0.99 9 1.98 9 3 C4.25 4.125 4.25 4.125 2 3 C2 2.34 2 1.68 2 1 C1.34 0.67 0.68 0.34 0 0 Z " fill="#585858" transform="translate(87,568)"/>
<path d="M0 0 C0 1.65 0 3.3 0 5 C-0.66 4.01 -1.32 3.02 -2 2 C-4.31 2.33 -6.62 2.66 -9 3 C-7 0 -7 0 -5.0625 -0.75 C-3 -1 -3 -1 0 0 Z " fill="#C0C0C0" transform="translate(311,473)"/>
<path d="M0 0 C0.99 0.33 1.98 0.66 3 1 C2.34 3.64 1.68 6.28 1 9 C0.01 8.34 -0.98 7.68 -2 7 C-1.34 4.69 -0.68 2.38 0 0 Z " fill="#3E3E3E" transform="translate(248,569)"/>
<path d="M0 0 C0.33 0.66 0.66 1.32 1 2 C-0.65 3.65 -2.3 5.3 -4 7 C-4 5.68 -4 4.36 -4 3 C-2 1.25 -2 1.25 0 0 Z " fill="#414141" transform="translate(82,579)"/>
<path d="M0 0 C-0.33 0.99 -0.66 1.98 -1 3 C-3.31 3 -5.62 3 -8 3 C-8 2.34 -8 1.68 -8 1 C-5.10765685 0.17361624 -3.11257569 0 0 0 Z " fill="#3F3F3F" transform="translate(297,583)"/>
<path d="M0 0 C1.20628008 2.33214148 2.1654738 4.49642139 3 7 C1.68 6.67 0.36 6.34 -1 6 C-1.042721 4.33388095 -1.04063832 2.66617115 -1 1 C-0.67 0.67 -0.34 0.34 0 0 Z " fill="#282828" transform="translate(213,570)"/>
<path d="M0 0 C2.125 0.375 2.125 0.375 4 1 C3.67 1.66 3.34 2.32 3 3 C1.66923011 3.34342449 0.33568021 3.67619874 -1 4 C-1.66 4.66 -2.32 5.32 -3 6 C-2.42655063 3.13275314 -2.1385485 2.1385485 0 0 Z " fill="#464646" transform="translate(75,64)"/>
</svg>
