<?xml version="1.0" encoding="UTF-8"?>
<svg version="1.1" xmlns="http://www.w3.org/2000/svg" width="356" height="64">
<path d="M0 0 C117.48 0 234.96 0 356 0 C356 21.12 356 42.24 356 64 C238.52 64 121.04 64 0 64 C0 42.88 0 21.76 0 0 Z " fill="#2E2E2E" transform="translate(0,0)"/>
<path d="M0 0 C1.39015434 -0.00542472 2.78030292 -0.01254935 4.17044067 -0.02124023 C7.93497509 -0.0394353 11.69906975 -0.03242215 15.4636116 -0.01972389 C19.40861419 -0.00957629 23.35357987 -0.01899445 27.29858398 -0.02526855 C33.92275736 -0.03253986 40.54675219 -0.02297092 47.17089844 -0.00390625 C54.82251133 0.01786163 62.47369785 0.01080988 70.12530041 -0.01121187 C76.70214321 -0.0293807 83.27885786 -0.03191699 89.85571766 -0.0214572 C93.78058165 -0.01523037 97.70524542 -0.01436415 101.63009644 -0.02760315 C105.32060518 -0.03918278 109.01056577 -0.03109814 112.70101547 -0.00802612 C114.69651288 -0.00023921 116.69205681 -0.01207692 118.68753052 -0.02453613 C129.60745408 0.07858712 129.60745408 0.07858712 134.37890625 4.51757812 C138.68137456 9.44083628 138.97141274 13.39990214 138.91015625 19.64257812 C138.91398315 20.5077002 138.91781006 21.37282227 138.92175293 22.26416016 C138.9244649 24.08627492 138.91715391 25.90842908 138.90039062 27.73046875 C138.87896966 30.50935182 138.90021547 33.28564986 138.92578125 36.06445312 C138.92313785 37.84050046 138.9180126 39.6165462 138.91015625 41.39257812 C138.91825317 42.21773926 138.9263501 43.04290039 138.93469238 43.89306641 C138.84845295 49.23495186 137.88764678 52.26000108 134.37890625 56.51757812 C130.33680248 60.06972992 126.98984098 60.6428083 121.70561218 60.66474915 C120.52376343 60.67190445 119.34191467 60.67905975 118.12425232 60.68643188 C116.82601028 60.68912079 115.52776825 60.69180969 114.19018555 60.69458008 C112.81033151 60.70084597 111.43047917 60.70749288 110.05062866 60.7144928 C105.51813936 60.73551896 100.98564978 60.74589316 96.453125 60.75585938 C94.89216405 60.75990733 93.33120328 60.76402427 91.77024269 60.76820946 C84.4371672 60.78725719 77.10410176 60.80148964 69.77100629 60.80982143 C61.30835257 60.81959564 52.8459603 60.84592152 44.38339871 60.88632232 C37.84062118 60.91648541 31.2979186 60.93129044 24.75507289 60.93460244 C20.84800255 60.93695254 16.94121164 60.94590752 13.03421593 60.97106361 C9.35776633 60.9943533 5.68177999 60.99857429 2.00527573 60.98830223 C0.01685876 60.98757127 -1.97153473 61.00665577 -3.95985413 61.02636719 C-14.82592841 60.96297854 -14.82592841 60.96297854 -19.62109375 56.51757812 C-23.84829828 51.7073109 -23.8038255 47.06143027 -23.859375 40.90429688 C-23.86744675 40.05712601 -23.87551849 39.20995514 -23.88383484 38.33711243 C-23.89766065 36.54417967 -23.90838953 34.75122075 -23.91625977 32.95825195 C-23.93346478 30.22556306 -23.97736224 27.49408686 -24.02148438 24.76171875 C-24.03161262 23.017587 -24.04012831 21.27344499 -24.046875 19.52929688 C-24.06438309 18.71659836 -24.08189117 17.90389984 -24.09992981 17.0665741 C-24.07973376 11.74639154 -23.24709901 8.66605384 -19.62109375 4.51757812 C-13.86722856 -0.83552262 -7.526512 -0.04699357 0 0 Z " fill="#DFDFDF" transform="translate(25.62109375,1.482421875)"/>
<path d="M0 0 C66.99 0 133.98 0 203 0 C201.68 0.66 200.36 1.32 199 2 C194.35674382 5.34314445 192.37759672 7.46917161 191 13 C190.72182422 15.88702691 190.69582385 18.75334595 190.69921875 21.65234375 C190.69279106 22.87988121 190.69279106 22.87988121 190.68623352 24.13221741 C190.68051329 25.85595783 190.67997287 27.57972238 190.68432617 29.3034668 C190.68748619 31.92604131 190.66399872 34.54748652 190.63867188 37.16992188 C190.63639848 38.85156109 190.63569557 40.53320331 190.63671875 42.21484375 C190.62290413 43.37922218 190.62290413 43.37922218 190.60881042 44.56712341 C190.65254264 49.7689232 191.56719454 53.37894525 194 58 C196.89979546 60.751088 199.39414963 62.19707481 203 64 C136.01 64 69.02 64 0 64 C0 42.88 0 21.76 0 0 Z M3.65600586 8.69335938 C1.52890031 12.94067141 1.43843757 16.22490182 1.50390625 20.90625 C1.50245102 21.74917603 1.50099579 22.59210205 1.49949646 23.46057129 C1.50115008 25.23563101 1.51265098 27.01070587 1.53344727 28.78564453 C1.56241261 31.4918349 1.55404313 34.19606474 1.54101562 36.90234375 C1.54725369 38.63282195 1.55564517 40.36329401 1.56640625 42.09375 C1.56347061 42.89703735 1.56053497 43.70032471 1.55751038 44.5279541 C1.63885164 49.40804275 2.32692686 52.76400429 5 57 C9.35593029 60.93096148 11.75397587 62.12369644 17.55303955 62.14044189 C18.73351364 62.14615204 19.91398773 62.15186218 21.13023376 62.15774536 C23.08298973 62.15942215 23.08298973 62.15942215 25.07519531 62.16113281 C26.45490146 62.16576028 27.83460633 62.17078484 29.21430969 62.17617798 C32.96860613 62.18931302 36.72288468 62.19574936 40.47720051 62.20018864 C42.82273157 62.20311826 45.16825772 62.20722291 47.51378632 62.21169281 C54.85220767 62.22537214 62.19061784 62.23503603 69.52905107 62.2388947 C78.00015724 62.24337331 86.47110188 62.26091015 94.94215894 62.2898953 C101.48916366 62.31151904 108.03612297 62.32159939 114.58316302 62.32293582 C118.49354682 62.32398358 122.40377887 62.32988477 126.31412506 62.34775543 C129.99460969 62.36424763 133.67482871 62.36638617 137.35533714 62.35761642 C139.3461284 62.35648018 141.33691089 62.37018966 143.32765198 62.3843689 C144.51940536 62.37879974 145.71115875 62.37323059 146.93902588 62.36749268 C147.97067997 62.36895924 149.00233406 62.3704258 150.0652504 62.3719368 C154.8676338 61.7633046 158.08826728 60.01029842 161.3125 56.4375 C164.34446843 52.05799004 164.19290825 48.46084947 164.23828125 43.265625 C164.25038887 41.95945221 164.25038887 41.95945221 164.26274109 40.62689209 C164.27658507 38.78090406 164.28730582 36.9348904 164.29516602 35.08886719 C164.31234801 32.27489165 164.35622668 29.46210048 164.40039062 26.6484375 C164.4105204 24.8541753 164.41903561 23.05990311 164.42578125 21.265625 C164.45204338 20.00906097 164.45204338 20.00906097 164.47883606 18.72711182 C164.45898076 13.33891031 163.6888819 10.19548477 160 6 C154.24456218 0.64792298 147.90636576 1.43542238 140.37890625 1.48242188 C138.98875191 1.47699715 137.59860333 1.46987253 136.20846558 1.46118164 C132.44393116 1.44298658 128.6798365 1.44999973 124.91529465 1.46269798 C120.97029206 1.47284558 117.02532638 1.46342743 113.08032227 1.45715332 C106.45614889 1.44988202 99.83215406 1.45945095 93.20800781 1.47851562 C85.55639492 1.5002835 77.9052084 1.49323176 70.25360584 1.47121 C63.67676304 1.45304118 57.10004839 1.45050489 50.52318859 1.46096468 C46.5983246 1.46719151 42.67366083 1.46805772 38.74880981 1.45481873 C35.05830107 1.44323909 31.36834048 1.45132374 27.67789078 1.47439575 C25.68239337 1.48218267 23.68684944 1.47034496 21.69137573 1.45788574 C13.24490491 1.53765073 9.29172377 2.21765477 3.65600586 8.69335938 Z " fill="#000000" transform="translate(0,0)"/>
<path d="M0 0 C19.82783026 -0.06774529 39.65556668 -0.12299828 59.48348331 -0.15543652 C68.69012155 -0.17089911 77.89668272 -0.19197703 87.10327148 -0.22631836 C95.12862765 -0.2562393 103.153928 -0.27557942 111.1793384 -0.28226548 C115.4279337 -0.28617318 119.67636933 -0.29534414 123.92491341 -0.31719017 C127.9262767 -0.33759792 131.92741498 -0.34382516 135.92882538 -0.33932304 C137.39493725 -0.34014633 138.86105688 -0.3460865 140.32712364 -0.35761642 C156.05611331 -0.47521854 156.05611331 -0.47521854 161.7421875 4.53515625 C167.33625112 12.0774972 166.33028221 19.56077799 166.4050293 28.65576172 C166.42656092 30.62469067 166.46060613 32.59352515 166.50756836 34.56201172 C166.57485118 37.40896109 166.6020778 40.25392823 166.62109375 43.1015625 C166.64892441 43.97269684 166.67675507 44.84383118 166.70542908 45.74136353 C166.68652766 51.42173677 165.40687364 54.7893164 161.97425842 59.30502319 C154.97385506 65.31513879 146.9143615 64.40942193 138.16040039 64.34057617 C136.65199806 64.33972914 135.14359449 64.34020653 133.63519287 64.34190369 C129.5550497 64.34276209 125.47517277 64.32516161 121.3950913 64.30418181 C117.12566695 64.28538906 112.85623606 64.28366253 108.58677673 64.28010559 C100.50856905 64.27079275 92.4304836 64.2461893 84.35232967 64.21605712 C75.15284331 64.1824894 65.95335102 64.16602114 56.75381863 64.15097082 C37.83579577 64.11963902 18.91794041 64.06463649 0 64 C0 42.88 0 21.76 0 0 Z M3.65600586 8.69335938 C1.52890031 12.94067141 1.43843757 16.22490182 1.50390625 20.90625 C1.50245102 21.74917603 1.50099579 22.59210205 1.49949646 23.46057129 C1.50115008 25.23563101 1.51265098 27.01070587 1.53344727 28.78564453 C1.56241261 31.4918349 1.55404313 34.19606474 1.54101562 36.90234375 C1.54725369 38.63282195 1.55564517 40.36329401 1.56640625 42.09375 C1.56347061 42.89703735 1.56053497 43.70032471 1.55751038 44.5279541 C1.63885164 49.40804275 2.32692686 52.76400429 5 57 C9.35593029 60.93096148 11.75397587 62.12369644 17.55303955 62.14044189 C18.73351364 62.14615204 19.91398773 62.15186218 21.13023376 62.15774536 C23.08298973 62.15942215 23.08298973 62.15942215 25.07519531 62.16113281 C26.45490146 62.16576028 27.83460633 62.17078484 29.21430969 62.17617798 C32.96860613 62.18931302 36.72288468 62.19574936 40.47720051 62.20018864 C42.82273157 62.20311826 45.16825772 62.20722291 47.51378632 62.21169281 C54.85220767 62.22537214 62.19061784 62.23503603 69.52905107 62.2388947 C78.00015724 62.24337331 86.47110188 62.26091015 94.94215894 62.2898953 C101.48916366 62.31151904 108.03612297 62.32159939 114.58316302 62.32293582 C118.49354682 62.32398358 122.40377887 62.32988477 126.31412506 62.34775543 C129.99460969 62.36424763 133.67482871 62.36638617 137.35533714 62.35761642 C139.3461284 62.35648018 141.33691089 62.37018966 143.32765198 62.3843689 C144.51940536 62.37879974 145.71115875 62.37323059 146.93902588 62.36749268 C147.97067997 62.36895924 149.00233406 62.3704258 150.0652504 62.3719368 C154.8676338 61.7633046 158.08826728 60.01029842 161.3125 56.4375 C164.34446843 52.05799004 164.19290825 48.46084947 164.23828125 43.265625 C164.25038887 41.95945221 164.25038887 41.95945221 164.26274109 40.62689209 C164.27658507 38.78090406 164.28730582 36.9348904 164.29516602 35.08886719 C164.31234801 32.27489165 164.35622668 29.46210048 164.40039062 26.6484375 C164.4105204 24.8541753 164.41903561 23.05990311 164.42578125 21.265625 C164.45204338 20.00906097 164.45204338 20.00906097 164.47883606 18.72711182 C164.45898076 13.33891031 163.6888819 10.19548477 160 6 C154.24456218 0.64792298 147.90636576 1.43542238 140.37890625 1.48242188 C138.98875191 1.47699715 137.59860333 1.46987253 136.20846558 1.46118164 C132.44393116 1.44298658 128.6798365 1.44999973 124.91529465 1.46269798 C120.97029206 1.47284558 117.02532638 1.46342743 113.08032227 1.45715332 C106.45614889 1.44988202 99.83215406 1.45945095 93.20800781 1.47851562 C85.55639492 1.5002835 77.9052084 1.49323176 70.25360584 1.47121 C63.67676304 1.45304118 57.10004839 1.45050489 50.52318859 1.46096468 C46.5983246 1.46719151 42.67366083 1.46805772 38.74880981 1.45481873 C35.05830107 1.44323909 31.36834048 1.45132374 27.67789078 1.47439575 C25.68239337 1.48218267 23.68684944 1.47034496 21.69137573 1.45788574 C13.24490491 1.53765073 9.29172377 2.21765477 3.65600586 8.69335938 Z " fill="#747474" transform="translate(0,0)"/>
<path d="M0 0 C0.99 1.485 0.99 1.485 2 3 C4.42293938 6.31135048 6.15701004 8.51066536 10 10 C12.74623962 10.3027194 12.74623962 10.3027194 15.79354858 10.26069641 C16.976772 10.26778122 18.15999542 10.27486603 19.3790741 10.28216553 C20.67372086 10.27968811 21.96836761 10.27721069 23.30224609 10.2746582 C24.6822487 10.2790064 26.06224888 10.28418991 27.44224548 10.29014587 C31.18818699 10.30353673 34.93402761 10.30411437 38.67998838 10.30158257 C41.80866006 10.30051275 44.93731134 10.30539662 48.06597865 10.310188 C55.44862368 10.32128385 62.83121784 10.3217204 70.21386719 10.31567383 C77.82560232 10.30963538 85.43715255 10.32194152 93.04885614 10.3432439 C99.5874173 10.36086893 106.12591966 10.36685977 112.66450369 10.36360615 C116.56813879 10.36179432 120.47164203 10.36441933 124.37525558 10.37832069 C128.04757573 10.39090888 131.71960811 10.38894577 135.3919239 10.37590981 C137.37791318 10.37242168 139.36391127 10.3837152 141.34986877 10.39547729 C142.53873184 10.38846298 143.72759491 10.38144867 144.95248413 10.3742218 C145.98154058 10.37438954 147.01059704 10.37455729 148.07083702 10.37473011 C152.51384437 9.80633271 155.93225001 8.33468749 158.75 4.8125 C159.36875 3.9153125 159.36875 3.9153125 160 3 C160.66 3 161.32 3 162 3 C160.64908476 7.42117715 158.8349855 9.443343 155 12 C151.71320267 13.09616984 148.61732199 13.1329402 145.16848755 13.14717102 C143.97684998 13.15432632 142.7852124 13.16148163 141.5574646 13.16885376 C140.2534671 13.17154266 138.9494696 13.17423157 137.60595703 13.17700195 C136.21610343 13.18326974 134.82625149 13.18991682 133.43640137 13.19691467 C128.87688353 13.21791469 124.3173655 13.22831118 119.7578125 13.23828125 C118.18663389 13.2423299 116.61545545 13.24644685 115.04427719 13.25063133 C107.66421874 13.26967169 100.28417024 13.28390685 92.90409195 13.2922433 C84.38937862 13.30202093 75.87492489 13.32835881 67.36030304 13.36874419 C60.77504288 13.39890559 54.18985716 13.41371207 47.60452926 13.41702431 C43.67288232 13.41937418 39.7415131 13.42832653 35.80994034 13.45348549 C32.11131735 13.47677285 28.41315485 13.4809971 24.71447754 13.47072411 C22.71414243 13.46999311 20.71383066 13.48907816 18.71359253 13.50878906 C7.89424336 13.44604037 7.89424336 13.44604037 3 9 C2.38125 8.54625 1.7625 8.0925 1.125 7.625 C-0.58761248 5.15122641 -0.1945254 2.91788105 0 0 Z " fill="#767676" transform="translate(2,51)"/>
<path d="M0 0 C2.13662017 -0.41527225 2.13662017 -0.41527225 4 -1 C4.11632513 2.41637953 4.18728897 5.83224897 4.25 9.25 C4.30027344 10.70212891 4.30027344 10.70212891 4.3515625 12.18359375 C4.45020252 19.33499498 4.45020252 19.33499498 2.20703125 22.6484375 C-0.97757164 24.59865449 -3.34287091 24.39895954 -7 24 C-7.99 23.34 -8.98 22.68 -10 22 C-9.67 21.01 -9.34 20.02 -9 19 C-8.34 19.33 -7.68 19.66 -7 20 C-4.6670134 20.04022391 -2.33293334 20.04320247 0 20 C0 18.68 0 17.36 0 16 C-1.0725 16.2475 -2.145 16.495 -3.25 16.75 C-7 17 -7 17 -9.4375 15.6875 C-11.83595299 11.56216086 -11.88638891 7.64776097 -11 3 C-7.52041 -1.40065795 -5.20108633 -1.21727552 0 0 Z " fill="#EBEBEB" transform="translate(262,27)"/>
<path d="M0 0 C0.0580476 3.27075883 0.09361165 6.54138524 0.125 9.8125 C0.14175781 10.74126953 0.15851563 11.67003906 0.17578125 12.62695312 C0.18222656 13.51962891 0.18867187 14.41230469 0.1953125 15.33203125 C0.20578613 16.15421143 0.21625977 16.9763916 0.22705078 17.82348633 C0 20 0 20 -2 23 C-4.05859375 23.58203125 -4.05859375 23.58203125 -6.4375 23.8125 C-7.21996094 23.90144531 -8.00242187 23.99039063 -8.80859375 24.08203125 C-11 24 -11 24 -14 22 C-14 21.01 -14 20.02 -14 19 C-13.01 19.33 -12.02 19.66 -11 20 C-8.66700175 20.03954234 -6.33291811 20.04401732 -4 20 C-4 18.68 -4 17.36 -4 16 C-5.0725 16.268125 -6.145 16.53625 -7.25 16.8125 C-11 17 -11 17 -13.4375 15.0625 C-15.41892547 11.17890608 -15.95382155 8.27071449 -15 4 C-11.06747105 -2.42313062 -6.54684686 -1.17467876 0 0 Z " fill="#262626" transform="translate(77,27)"/>
<path d="M0 0 C11.49125827 -0.37068575 11.49125827 -0.37068575 13.828125 1.33203125 C15.64198866 3.91376386 15.93722499 5.8612494 16 9 C14.0625 11.875 14.0625 11.875 12 14 C12.66 15.11375 13.32 16.2275 14 17.375 C16 20.75 16 20.75 16 23 C14.1875 22.875 14.1875 22.875 12 22 C9 16.96428571 9 16.96428571 9 14 C7.02 14 5.04 14 3 14 C3 16.97 3 19.94 3 23 C2.01 23 1.02 23 0 23 C0 15.41 0 7.82 0 0 Z " fill="#DCDCDC" transform="translate(213,21)"/>
<path d="M0 0 C3.63 0 7.26 0 11 0 C10.236875 0.495 9.47375 0.99 8.6875 1.5 C4.1182474 5.75046753 2.89042074 10.90418846 2.56420898 16.9597168 C2.52460589 18.78926306 2.50268168 20.61925576 2.49609375 22.44921875 C2.48610855 23.42486282 2.47612335 24.4005069 2.46583557 25.40571594 C2.4507277 27.45541165 2.44360749 29.50518032 2.4440918 31.55493164 C2.43749572 34.68953595 2.38284237 37.82102825 2.32617188 40.95507812 C2.31737489 42.95311423 2.31141728 44.95116528 2.30859375 46.94921875 C2.2870372 47.88263596 2.26548065 48.81605316 2.24327087 49.77775574 C2.20648475 54.55128996 2.20648475 54.55128996 4.31204224 58.6625061 C6.09543305 60.20575004 6.09543305 60.20575004 9 62 C9.66 62.66 10.32 63.32 11 64 C7.37 64 3.74 64 0 64 C0 42.88 0 21.76 0 0 Z " fill="#727272" transform="translate(0,0)"/>
<path d="M0 0 C3.375 1.0625 3.375 1.0625 5.3125 2.8125 C6.375 5.0625 6.375 5.0625 6.375 10.0625 C2.415 10.0625 -1.545 10.0625 -5.625 10.0625 C-5.295 11.3825 -4.965 12.7025 -4.625 14.0625 C-0.38853233 15.0714034 -0.38853233 15.0714034 3.75 14.125 C4.28625 13.774375 4.8225 13.42375 5.375 13.0625 C5.375 14.0525 5.375 15.0425 5.375 16.0625 C3.375 18.0625 3.375 18.0625 -0.5625 18.375 C-3.27953948 18.31101175 -4.30991841 18.28610629 -6.5625 16.6875 C-8.99422593 12.96838976 -9.34680436 9.40991936 -8.625 5.0625 C-5.9636004 1.11072483 -4.808262 0.08290107 0 0 Z " fill="#CECECE" transform="translate(314.625,25.9375)"/>
<path d="M0 0 C3.5 0.8125 3.5 0.8125 5.4375 2 C6.5 3.8125 6.5 3.8125 6.5 9.8125 C2.54 9.8125 -1.42 9.8125 -5.5 9.8125 C-5.17 11.4625 -4.84 13.1125 -4.5 14.8125 C-1.86 14.8125 0.78 14.8125 3.5 14.8125 C3.5 14.1525 3.5 13.4925 3.5 12.8125 C4.49 13.1425 5.48 13.4725 6.5 13.8125 C5.5 15.8125 5.5 15.8125 3.5 17.8125 C0.32627645 18.26588908 -1.48989661 18.50294625 -4.5 17.8125 C-7.81141503 15.0805826 -8.42595907 13.51588879 -8.875 9.25 C-8.53391919 6.12342594 -8.28579555 4.35020946 -6.5 1.8125 C-3.5 -0.1875 -3.5 -0.1875 0 0 Z " fill="#F1F1F1" transform="translate(240.5,26.1875)"/>
<path d="M0 0 C1.9375 1.4375 1.9375 1.4375 3 3 C3 3.66 3 4.32 3 5 C-0.875 4.125 -0.875 4.125 -2 3 C-3.99958364 2.95919217 -6.00045254 2.95745644 -8 3 C-8.33 4.32 -8.66 5.64 -9 7 C-8.38511719 7.26554687 -7.77023438 7.53109375 -7.13671875 7.8046875 C-6.32847656 8.15789063 -5.52023438 8.51109375 -4.6875 8.875 C-3.88699219 9.22304688 -3.08648437 9.57109375 -2.26171875 9.9296875 C0 11 0 11 3 13 C3.66494615 19.09533972 3.66494615 19.09533972 1.75390625 21.6953125 C-1.02963358 23.76591896 -3.47247063 23.46736247 -6.8359375 23.36328125 C-9 23 -9 23 -11.5625 21.125 C-13 19 -13 19 -13 17 C-12.01 17 -11.02 17 -10 17 C-9.54625 17.495 -9.0925 17.99 -8.625 18.5 C-7.04972142 20.24721013 -7.04972142 20.24721013 -4.4375 20.3125 C-1.82203581 20.22966747 -1.82203581 20.22966747 0 18 C0 17.01 0 16.02 0 15 C-0.69867188 14.73445313 -1.39734375 14.46890625 -2.1171875 14.1953125 C-3.02726562 13.84210937 -3.93734375 13.48890625 -4.875 13.125 C-5.77992187 12.77695312 -6.68484375 12.42890625 -7.6171875 12.0703125 C-10 11 -10 11 -12 9 C-12.4375 6.125 -12.4375 6.125 -12 3 C-8.26005342 -1.41993687 -5.4320109 -1.50889192 0 0 Z " fill="#2B2B2B" transform="translate(47,21)"/>
<path d="M0 0 C0.99 0 1.98 0 3 0 C3 0.66 3 1.32 3 2 C3.99 1.34 4.98 0.68 6 0 C8.71356611 -0.33919576 10.30540772 -0.43886353 12.64453125 1.0390625 C14.72851725 4.05393562 14.31576546 7.16513324 14.1875 10.6875 C14.17396484 11.38939453 14.16042969 12.09128906 14.14648438 12.81445312 C14.11120182 14.54329829 14.05739583 16.27174765 14 18 C13.01 18 12.02 18 11 18 C10.67 13.38 10.34 8.76 10 4 C8.35 4 6.7 4 5 4 C3.12175109 5.87824891 3.60897603 9.03935276 3.4375 11.5625 C3.31181641 13.35880859 3.31181641 13.35880859 3.18359375 15.19140625 C3.12300781 16.11824219 3.06242187 17.04507813 3 18 C2.01 18 1.02 18 0 18 C0 12.06 0 6.12 0 0 Z " fill="#393939" transform="translate(117,26)"/>
<path d="M0 0 C1.32 0.33 2.64 0.66 4 1 C5.485 0.6596875 5.485 0.6596875 7 0.3125 C10 0 10 0 12.171875 1.52734375 C14.65836096 4.8904754 14.40309652 7.11639388 14.25 11.25 C14.21390625 12.51328125 14.1778125 13.7765625 14.140625 15.078125 C14.07101563 16.52445313 14.07101563 16.52445313 14 18 C13.01 18 12.02 18 11 18 C10.67 13.38 10.34 8.76 10 4 C8.35 4 6.7 4 5 4 C3.12175109 5.87824891 3.60897603 9.03935276 3.4375 11.5625 C3.31181641 13.35880859 3.31181641 13.35880859 3.18359375 15.19140625 C3.12300781 16.11824219 3.06242187 17.04507813 3 18 C2.01 18 1.02 18 0 18 C0 12.06 0 6.12 0 0 Z " fill="#3B3B3B" transform="translate(82,26)"/>
<path d="M0 0 C1.0725 0.2475 2.145 0.495 3.25 0.75 C3.58 2.07 3.91 3.39 4.25 4.75 C1.61 4.42 -1.03 4.09 -3.75 3.75 C-4.08 4.74 -4.41 5.73 -4.75 6.75 C-2.73177083 7.20572917 -0.71354167 7.66145833 1.3046875 8.1171875 C3.25 8.75 3.25 8.75 5.25 10.75 C5.5625 13.25 5.5625 13.25 5.25 15.75 C2.16111478 17.80925681 1.54064073 17.9890374 -1.9375 17.875 C-3.195625 17.83375 -4.45375 17.7925 -5.75 17.75 C-6.41 16.43 -7.07 15.11 -7.75 13.75 C-4.78 14.08 -1.81 14.41 1.25 14.75 C1.25 13.76 1.25 12.77 1.25 11.75 C0.68410156 11.59144531 0.11820312 11.43289062 -0.46484375 11.26953125 C-2.67608658 10.56613063 -4.69722385 9.83448551 -6.75 8.75 C-8 6.3125 -8 6.3125 -7.75 3.75 C-5.41350475 0.05054919 -4.41181366 -0.29412091 0 0 Z " fill="#DDDDDD" transform="translate(285.75,26.25)"/>
<path d="M0 0 C2 2 2 2 2.265625 3.875 C2.26046875 4.57625 2.2553125 5.2775 2.25 6 C2.25515625 6.70125 2.2603125 7.4025 2.265625 8.125 C2 10 2 10 0 12 C-3 12.3125 -3 12.3125 -6 12 C-8.31282587 8.53076119 -8.42478586 7.07794425 -8 3 C-5.8975876 -0.31959853 -3.76753493 -0.4830173 0 0 Z " fill="#DADADA" transform="translate(72,29)"/>
<path d="M0 0 C2.4375 0.375 2.4375 0.375 4.4375 2.375 C4.703125 4.25 4.703125 4.25 4.6875 6.375 C4.69265625 7.07625 4.6978125 7.7775 4.703125 8.5 C4.4375 10.375 4.4375 10.375 2.4375 12.375 C-1.1875 12 -1.1875 12 -4.5625 11.375 C-5.89217033 5.08928571 -5.89217033 5.08928571 -4.4375 1.9375 C-2.5625 0.375 -2.5625 0.375 0 0 Z " fill="#323232" transform="translate(258.5625,28.625)"/>
<path d="M0 0 C3.96 0 7.92 0 12 0 C11.67 0.66 11.34 1.32 11 2 C8.36 2 5.72 2 3 2 C3 5.3 3 8.6 3 12 C4.98 12 6.96 12 9 12 C9 12.33 9 12.66 9 13 C7.02 13 5.04 13 3 13 C3 16.3 3 19.6 3 23 C2.01 23 1.02 23 0 23 C0 15.41 0 7.82 0 0 Z " fill="#E5E5E5" transform="translate(213,21)"/>
<path d="M0 0 C0.99 0 1.98 0 3 0 C3 1.32 3 2.64 3 4 C4.32 4 5.64 4 7 4 C7 4.99 7 5.98 7 7 C5.68 7 4.36 7 3 7 C3.33 10.96 3.66 14.92 4 19 C4.99 19.33 5.98 19.66 7 20 C7 20.66 7 21.32 7 22 C4.625 22.1875 4.625 22.1875 2 22 C-0.35119399 18.47320901 -0.21443452 16.97120515 -0.125 12.8125 C-0.10695313 11.72582031 -0.08890625 10.63914062 -0.0703125 9.51953125 C-0.04710937 8.68808594 -0.02390625 7.85664063 0 7 C-0.66 7 -1.32 7 -2 7 C-2 6.01 -2 5.02 -2 4 C-1.34 4 -0.68 4 0 4 C0 2.68 0 1.36 0 0 Z " fill="#D6D6D6" transform="translate(296,22)"/>
<path d="M0 0 C0.33 0.66 0.66 1.32 1 2 C4.63 2 8.26 2 12 2 C12.33 1.34 12.66 0.68 13 0 C13.33 1.32 13.66 2.64 14 4 C10.04 4 6.08 4 2 4 C2.33 5.32 2.66 6.64 3 8 C7.23646767 9.0089034 7.23646767 9.0089034 11.375 8.0625 C11.91125 7.711875 12.4475 7.36125 13 7 C13 7.99 13 8.98 13 10 C11 12 11 12 7.0625 12.3125 C4.34546052 12.24851175 3.31508159 12.22360629 1.0625 10.625 C-1.11685604 7.29186724 -1.16895189 4.97036939 -1 1 C-0.67 0.67 -0.34 0.34 0 0 Z " fill="#F0F0F0" transform="translate(307,32)"/>
<path d="M0 0 C6.39075249 -0.36174071 6.39075249 -0.36174071 9 1.1875 C10 3 10 3 9.75 5.625 C9 8 9 8 8 9 C5.32941149 9.14115161 2.67567762 9.04247107 0 9 C0 6.03 0 3.06 0 0 Z " fill="#343434" transform="translate(216,23)"/>
<path d="M0 0 C1.32 0.33 2.64 0.66 4 1 C6.68149993 0.61432869 6.68149993 0.61432869 9 0 C9 0.99 9 1.98 9 3 C7.35 3.66 5.7 4.32 4 5 C3.67 9.29 3.34 13.58 3 18 C2.01 18 1.02 18 0 18 C0 12.06 0 6.12 0 0 Z " fill="#D8D8D8" transform="translate(325,26)"/>
<path d="M0 0 C1.32 -0.33 2.64 -0.66 4 -1 C4 5.93 4 12.86 4 20 C3.67 20 3.34 20 3 20 C2.67 14.39 2.34 8.78 2 3 C1.01 3 0.02 3 -1 3 C-1.825 2.938125 -2.65 2.87625 -3.5 2.8125 C-6.06911785 2.76292696 -6.06911785 2.76292696 -7.8125 4.5 C-8.4003125 5.2425 -8.4003125 5.2425 -9 6 C-9.66 5.67 -10.32 5.34 -11 5 C-8.46022155 -0.86102719 -5.94528119 -1.09199042 0 0 Z " fill="#D0D0D0" transform="translate(262,27)"/>
<path d="M0 0 C0.33 0 0.66 0 1 0 C1 4.29 1 8.58 1 13 C-3.29 13 -7.58 13 -12 13 C-10.68 12.34 -9.36 11.68 -8 11 C-3.47156168 7.73952441 -1.27581829 5.48601863 0 0 Z " fill="#020202" transform="translate(355,51)"/>
<path d="M0 0 C4.29 0 8.58 0 13 0 C13 4.29 13 8.58 13 13 C12.34 11.68 11.68 10.36 11 9 C7.73952441 4.47156168 5.48601863 2.27581829 0 1 C0 0.67 0 0.34 0 0 Z " fill="#020202" transform="translate(343,0)"/>
<path d="M0 0 C0.66 0 1.32 0 2 0 C2 0.99 2 1.98 2 3 C2.66 3 3.32 3 4 3 C3.67 7.95 3.34 12.9 3 18 C2.01 18 1.02 18 0 18 C0 12.06 0 6.12 0 0 Z " fill="#343434" transform="translate(82,26)"/>
<path d="M0 0 C0.556875 0.7425 1.11375 1.485 1.6875 2.25 C3.93727787 4.92541152 6.2309174 6.88675275 9 9 C9.66 9.66 10.32 10.32 11 11 C7.37 11 3.74 11 0 11 C0 7.37 0 3.74 0 0 Z " fill="#020202" transform="translate(0,53)"/>
<path d="M0 0 C3.63 0 7.26 0 11 0 C10.2575 0.556875 9.515 1.11375 8.75 1.6875 C6.07458848 3.93727787 4.11324725 6.2309174 2 9 C1.34 9.66 0.68 10.32 0 11 C0 7.37 0 3.74 0 0 Z " fill="#020202" transform="translate(0,0)"/>
<path d="M0 0 C3.875 0.875 3.875 0.875 5 2 C5.25 4.4375 5.25 4.4375 5 7 C1.91111478 9.05925681 1.29064073 9.2390374 -2.1875 9.125 C-4.0746875 9.063125 -4.0746875 9.063125 -6 9 C-6.66 7.68 -7.32 6.36 -8 5 C-5.03 5.33 -2.06 5.66 1 6 C0.67 4.02 0.34 2.04 0 0 Z " fill="#E0E0E0" transform="translate(286,35)"/>
<path d="M0 0 C2 3 2 3 2 5 C4.64 5 7.28 5 10 5 C10 4.34 10 3.68 10 3 C10.99 3.33 11.98 3.66 13 4 C12 6 12 6 10 8 C6.37395583 8.71765457 3.1653763 8.67097423 -0.0625 6.8125 C-1.38135516 4.26271335 -0.7975116 2.68253902 0 0 Z " fill="#E1E1E1" transform="translate(234,36)"/>
<path d="M0 0 C2.5625 0.1875 2.5625 0.1875 4.5625 2.1875 C4.5625 3.1775 4.5625 4.1675 4.5625 5.1875 C1.5925 5.1875 -1.3775 5.1875 -4.4375 5.1875 C-3.20220588 0.24632353 -3.20220588 0.24632353 0 0 Z " fill="#353535" transform="translate(313.4375,28.8125)"/>
<path d="M0 0 C2.5625 0.1875 2.5625 0.1875 4.5625 2.1875 C4.5625 3.1775 4.5625 4.1675 4.5625 5.1875 C1.5925 5.1875 -1.3775 5.1875 -4.4375 5.1875 C-3.20220588 0.24632353 -3.20220588 0.24632353 0 0 Z " fill="#353535" transform="translate(239.4375,28.8125)"/>
<path d="M0 0 C1.35242344 2.70484687 1 4.9993319 1 8 C1.66868314 11.11332248 1.66868314 11.11332248 4.0625 12.1875 C4.701875 12.455625 5.34125 12.72375 6 13 C3.6875 13.25 3.6875 13.25 1 13 C-0.8125 11.5 -0.8125 11.5 -2 9 C-2.23884872 6.27920155 -2.13709297 3.74185932 -2 1 C-1.34 0.67 -0.68 0.34 0 0 Z " fill="#232323" transform="translate(64,30)"/>
<path d="M0 0 C-0.33 1.32 -0.66 2.64 -1 4 C-2.60875 3.7215625 -2.60875 3.7215625 -4.25 3.4375 C-7.40391546 3.0695432 -9.09818492 2.95534657 -12 4 C-9.17895868 -2.24659149 -6.16171872 -0.89444304 0 0 Z " fill="#3F3F3F" transform="translate(75,27)"/>
<path d="M0 0 C0.99 0.33 1.98 0.66 3 1 C2 3 2 3 0 5 C-3.45134689 5.54346362 -6.82227126 5.58886437 -10 4 C-10 3.34 -10 2.68 -10 2 C-8.72125 2.04125 -7.4425 2.0825 -6.125 2.125 C-3.98128508 2.24212873 -3.98128508 2.24212873 -2 2 C-1.34 1.34 -0.68 0.68 0 0 Z " fill="#DDDDDD" transform="translate(318,39)"/>
<path d="M0 0 C0.33 0 0.66 0 1 0 C1.33 2.97 1.66 5.94 2 9 C4.475 9.99 4.475 9.99 7 11 C7 11.33 7 11.66 7 12 C4.3335118 12.21620175 2.55995679 12.30894168 0.1875 11 C-1.75998613 7.72002335 -1.24293242 4.76545255 -1 1 C-0.67 0.67 -0.34 0.34 0 0 Z " fill="#ECECEC" transform="translate(252,31)"/>
<path d="M0 0 C0.99 0 1.98 0 3 0 C3.45375 0.474375 3.9075 0.94875 4.375 1.4375 C6.46366683 3.44583349 8.1783448 3.61869524 11 4 C11 4.66 11 5.32 11 6 C4.63636364 6.48951049 4.63636364 6.48951049 1.5625 4.125 C0 2 0 2 0 0 Z " fill="#252525" transform="translate(34,38)"/>
<path d="M0 0 C6.47556391 0.61090226 6.47556391 0.61090226 8.9375 2.4375 C10 4 10 4 10 6 C9.34 6 8.68 6 8 6 C7.67 6.66 7.34 7.32 7 8 C6.6596875 7.1028125 6.6596875 7.1028125 6.3125 6.1875 C4.66463631 3.44106051 2.76545517 2.52827786 0 1 C0 0.67 0 0.34 0 0 Z " fill="#C9C9C9" transform="translate(237,26)"/>
<path d="M0 0 C6.47556391 0.61090226 6.47556391 0.61090226 8.9375 2.4375 C10 4 10 4 10 6 C6.846502 5.29922267 3.91038896 4.4158649 1 3 C0.67 2.01 0.34 1.02 0 0 Z " fill="#3D3D3D" transform="translate(40,20)"/>
<path d="M0 0 C1.31571603 0.2547514 2.62760376 0.52934141 3.9375 0.8125 C4.66839844 0.96332031 5.39929688 1.11414062 6.15234375 1.26953125 C6.76207031 1.51058594 7.37179687 1.75164063 8 2 C8.33 2.99 8.66 3.98 9 5 C2.375 5.25 2.375 5.25 -1 3 C-0.67 2.01 -0.34 1.02 0 0 Z " fill="#CDCDCD" transform="translate(253,46)"/>
<path d="M0 0 C4.455 0.99 4.455 0.99 9 2 C9 2.99 9 3.98 9 5 C3.375 5.25 3.375 5.25 0 3 C0 2.01 0 1.02 0 0 Z " fill="#454545" transform="translate(63,46)"/>
<path d="M0 0 C1.4540625 0.0309375 1.4540625 0.0309375 2.9375 0.0625 C2.15375 0.660625 1.37 1.25875 0.5625 1.875 C-2.20824323 3.97335249 -2.20824323 3.97335249 -4.0625 7.0625 C-4.7225 6.7325 -5.3825 6.4025 -6.0625 6.0625 C-3.76028481 0.07674051 -3.76028481 0.07674051 0 0 Z " fill="#DBDBDB" transform="translate(312.0625,26.9375)"/>
<path d="M0 0 C2.31 0.33 4.62 0.66 7 1 C7.33 2.32 7.66 3.64 8 5 C4.5625 4.1875 4.5625 4.1875 1 3 C0.67 2.01 0.34 1.02 0 0 Z " fill="#CECECE" transform="translate(282,26)"/>
<path d="M0 0 C0 1.98 0 3.96 0 6 C-0.66 5.01 -1.32 4.02 -2 3 C-4.31 3.33 -6.62 3.66 -9 4 C-7 1 -7 1 -5.0625 0.3125 C-3 0 -3 0 0 0 Z " fill="#C6C6C6" transform="translate(264,40)"/>
<path d="M0 0 C4.455 0.99 4.455 0.99 9 2 C9 2.66 9 3.32 9 4 C6.69 4 4.38 4 2 4 C1.34 2.68 0.68 1.36 0 0 Z " fill="#EAEAEA" transform="translate(278,40)"/>
<path d="M0 0 C0 1.65 0 3.3 0 5 C-0.66 4.01 -1.32 3.02 -2 2 C-4.31 2.33 -6.62 2.66 -9 3 C-7 0 -7 0 -5.0625 -0.75 C-3 -1 -3 -1 0 0 Z " fill="#515151" transform="translate(75,41)"/>
<path d="M0 0 C-0.78375 0.598125 -1.5675 1.19625 -2.375 1.8125 C-5.14574323 3.91085249 -5.14574323 3.91085249 -7 7 C-7.33 5.35 -7.66 3.7 -8 2 C-4.77208445 -0.1519437 -3.71599191 -0.20086443 0 0 Z " fill="#E1E1E1" transform="translate(241,27)"/>
</svg>
