<?xml version="1.0" encoding="UTF-8"?>
<svg version="1.1" xmlns="http://www.w3.org/2000/svg" width="96" height="96">
<path d="M0 0 C31.68 0 63.36 0 96 0 C96 31.68 96 63.36 96 96 C64.32 96 32.64 96 0 96 C0 64.32 0 32.64 0 0 Z " fill="#000000" transform="translate(0,0)"/>
<path d="M0 0 C15.18 0 30.36 0 46 0 C46 31.68 46 63.36 46 96 C30.82 96 15.64 96 0 96 C0.495 95.01 0.495 95.01 1 94 C1.23029956 91.62876754 1.41119942 89.25258057 1.5625 86.875 C1.64628906 85.59367187 1.73007812 84.31234375 1.81640625 82.9921875 C1.87699219 82.00476563 1.93757813 81.01734375 2 80 C2.70125 79.98582031 3.4025 79.97164063 4.125 79.95703125 C10.84012997 79.61944999 16.00495412 78.7364788 21 74 C24.42261563 69.5496301 25.74059576 64.82636924 25.44140625 59.23828125 C24.48518316 54.38946859 22.15989501 50.65703697 18.23828125 47.6484375 C13.03239697 44.71286787 7.89757787 44.32764322 2 44 C2 37.4 2 30.8 2 24 C9.26 23.67 16.52 23.34 24 23 C24.33 21.35 24.66 19.7 25 18 C23.34920558 16.34920558 21.36263821 16.77450553 19.08984375 16.68359375 C17.60581055 16.62075195 17.60581055 16.62075195 16.09179688 16.55664062 C15.05087891 16.51732422 14.00996094 16.47800781 12.9375 16.4375 C11.89271484 16.39431641 10.84792969 16.35113281 9.77148438 16.30664062 C7.18113116 16.20018775 4.59067814 16.0981724 2 16 C1.93941406 15.01257812 1.87882812 14.02515625 1.81640625 13.0078125 C1.73261719 11.72648438 1.64882813 10.44515625 1.5625 9.125 C1.48128906 7.84882812 1.40007813 6.57265625 1.31640625 5.2578125 C1.20793973 2.11699848 1.20793973 2.11699848 0 0 Z " fill="#000000" transform="translate(50,0)"/>
<path d="M0 0 C4.55555556 0.55555556 4.55555556 0.55555556 6 2 C6.07271741 4.35313555 6.08370868 6.70833668 6.0625 9.0625 C6.05347656 10.35285156 6.04445312 11.64320312 6.03515625 12.97265625 C6.02355469 13.97167969 6.01195312 14.97070312 6 16 C6.65597168 15.98952637 7.31194336 15.97905273 7.98779297 15.96826172 C10.95015658 15.92677497 13.91245916 15.90069738 16.875 15.875 C17.90753906 15.85824219 18.94007812 15.84148438 20.00390625 15.82421875 C20.99003906 15.81777344 21.97617188 15.81132812 22.9921875 15.8046875 C24.35899658 15.78897705 24.35899658 15.78897705 25.75341797 15.77294922 C28 16 28 16 30 18 C29.44444444 22.55555556 29.44444444 22.55555556 28 24 C26.36527118 24.08700342 24.72685945 24.10701063 23.08984375 24.09765625 C22.10048828 24.09443359 21.11113281 24.09121094 20.09179688 24.08789062 C19.05087891 24.07951172 18.00996094 24.07113281 16.9375 24.0625 C15.89271484 24.05798828 14.84792969 24.05347656 13.77148438 24.04882812 C11.18096546 24.03699927 8.59047578 24.01906319 6 24 C6 30.6 6 37.2 6 44 C9.3 44 12.6 44 16 44 C22.30804897 46.4331046 25.68465811 48.93976277 29.078125 54.890625 C30.95098482 59.17598222 30.70976132 63.81700437 29.27734375 68.22265625 C26.63469131 73.94662004 22.87199401 77.58456984 17 80 C14.203125 80.1953125 14.203125 80.1953125 11.25 80.125 C10.26515625 80.10695313 9.2803125 80.08890625 8.265625 80.0703125 C7.51796875 80.04710938 6.7703125 80.02390625 6 80 C6.02320313 80.98742187 6.04640625 81.97484375 6.0703125 82.9921875 C6.08835938 84.27351563 6.10640625 85.55484375 6.125 86.875 C6.14820313 88.15117188 6.17140625 89.42734375 6.1953125 90.7421875 C6 94 6 94 4 96 C-0.55555556 95.44444444 -0.55555556 95.44444444 -2 94 C-2.07271741 91.64686445 -2.08370868 89.29166332 -2.0625 86.9375 C-2.05347656 85.64714844 -2.04445313 84.35679688 -2.03515625 83.02734375 C-2.02355469 82.02832031 -2.01195313 81.02929688 -2 80 C-3.27617188 80.02320312 -4.55234375 80.04640625 -5.8671875 80.0703125 C-7.5364525 80.08906829 -9.2057238 80.10726869 -10.875 80.125 C-11.71675781 80.14175781 -12.55851562 80.15851563 -13.42578125 80.17578125 C-14.23144531 80.18222656 -15.03710938 80.18867187 -15.8671875 80.1953125 C-16.61081543 80.20578613 -17.35444336 80.21625977 -18.12060547 80.22705078 C-20 80 -20 80 -22 78 C-21.44444444 73.44444444 -21.44444444 73.44444444 -20 72 C-18.65732587 71.91368126 -17.31025678 71.89293527 -15.96484375 71.90234375 C-14.87224243 71.90609009 -14.87224243 71.90609009 -13.75756836 71.90991211 C-12.8269458 71.91901611 -11.89632324 71.92812012 -10.9375 71.9375 C-6.5134375 71.9684375 -6.5134375 71.9684375 -2 72 C-2 65.4 -2 58.8 -2 52 C-3.65 52.103125 -5.3 52.20625 -7 52.3125 C-12.94387803 52.28958016 -16.63981582 51.05437941 -21 47 C-24.58725651 43.05401784 -26.31293108 39.3462334 -26.625 34 C-26.26059799 27.75721813 -23.79918608 23.60286308 -19.2734375 19.39453125 C-13.79989915 15.37384567 -8.59087024 15.45479934 -2 16 C-2.02320312 15.01257812 -2.04640625 14.02515625 -2.0703125 13.0078125 C-2.08835937 11.72648438 -2.10640625 10.44515625 -2.125 9.125 C-2.14820312 7.84882812 -2.17140625 6.57265625 -2.1953125 5.2578125 C-2 2 -2 2 0 0 Z " fill="#424242" transform="translate(46,0)"/>
<path d="M0 0 C3.3 0 6.6 0 10 0 C10 6.6 10 13.2 10 20 C0 20 0 20 -3.625 16.9375 C-5.54747986 14.22631045 -6.04811241 12.7463164 -6.6875 9.375 C-5.83207733 5.17565233 -4.25224842 3.6969865 -1 1 C-0.67 0.67 -0.34 0.34 0 0 Z " fill="#010101" transform="translate(34,24)"/>
<path d="M0 0 C9 0 9 0 12.5 2.375 C15.15611381 5.1639195 15.86637715 6.0200991 16.375 9.75 C15.8528401 14.2753858 14.15770622 15.7671103 11 19 C9 20 9 20 0 20 C0 13.4 0 6.8 0 0 Z " fill="#000000" transform="translate(52,52)"/>
</svg>
