<?xml version="1.0" encoding="UTF-8"?>
<svg version="1.1" xmlns="http://www.w3.org/2000/svg" width="96" height="96">
<path d="M0 0 C31.68 0 63.36 0 96 0 C96 31.68 96 63.36 96 96 C64.32 96 32.64 96 0 96 C0 64.32 0 32.64 0 0 Z " fill="#414141" transform="translate(0,0)"/>
<path d="M0 0 C31.68 0 63.36 0 96 0 C96 31.68 96 63.36 96 96 C64.32 96 32.64 96 0 96 C0 64.32 0 32.64 0 0 Z M11 13 C7.96234561 16.28991786 7.62178744 18.54737302 7.61181641 22.97436523 C7.60235992 24.17919052 7.59290344 25.38401581 7.5831604 26.62535095 C7.58923309 27.92332108 7.59530579 29.2212912 7.6015625 30.55859375 C7.5995404 31.90853533 7.59662783 33.25847585 7.59286499 34.6084137 C7.58844645 37.43541887 7.59485614 40.26213931 7.60888672 43.08911133 C7.6259624 46.70509026 7.61614545 50.32040034 7.59816933 53.93635464 C7.58730449 56.72370906 7.59079038 59.51090617 7.5985527 62.29826546 C7.60151582 64.27741558 7.59243444 66.25657191 7.5831604 68.23570251 C7.59261688 69.44367996 7.60207336 70.65165741 7.61181641 71.89624023 C7.61420319 72.9567308 7.61658997 74.01722137 7.61904907 75.10984802 C8.14207043 79.07784258 9.66864257 81.78734191 12.62109375 84.4765625 C18.40798398 88.13537052 24.33327903 89.63906938 31 91 C31.77214844 91.17200928 32.54429688 91.34401855 33.33984375 91.52124023 C49.11777569 94.36086253 69.87513042 93.58572402 83.51953125 84.34375 C86.27987869 81.83831591 87.86158125 79.98070179 88.39440918 76.20559692 C88.40282837 75.13115326 88.41124756 74.05670959 88.41992188 72.94970703 C88.43583374 71.72808868 88.45174561 70.50647034 88.46813965 69.24783325 C88.46844177 67.27277298 88.46844177 67.27277298 88.46875 65.2578125 C88.4758548 63.88784474 88.48355427 62.51787994 88.49182129 61.1479187 C88.50525828 58.27805307 88.50683898 55.40846247 88.50097656 52.53857422 C88.4950864 48.87083125 88.52564432 45.20441476 88.56609344 41.53692818 C88.59201775 38.70747844 88.5948436 35.87834591 88.59120178 33.04879379 C88.59370672 31.04247515 88.61837539 29.03622354 88.64343262 27.03005981 C88.78343733 19.61897233 88.78343733 19.61897233 85.58569336 13.20922852 C68.79560891 -1.13629827 28.04691688 -0.89737104 11 13 Z " fill="#000000" transform="translate(0,0)"/>
<path d="M0 0 C2.97 0.99 5.94 1.98 9 3 C16.67793036 4.92784885 24.29576634 5.38542744 32.1875 5.375 C33.27305176 5.37556396 34.35860352 5.37612793 35.47705078 5.37670898 C44.49787997 5.25429969 52.44726297 3.85473394 61 1 C61.99 0.67 62.98 0.34 64 0 C64 6.27 64 12.54 64 19 C47.79050202 28.33274126 28.4694704 27.36546873 10.5859375 24.046875 C7 23 7 23 0 19 C0 12.73 0 6.46 0 0 Z " fill="#000000" transform="translate(16,58)"/>
<path d="M0 0 C2.97 0.99 5.94 1.98 9 3 C16.67793036 4.92784885 24.29576634 5.38542744 32.1875 5.375 C33.27305176 5.37556396 34.35860352 5.37612793 35.47705078 5.37670898 C44.49787997 5.25429969 52.44726297 3.85473394 61 1 C61.99 0.67 62.98 0.34 64 0 C64 6.27 64 12.54 64 19 C47.79050202 28.33274126 28.4694704 27.36546873 10.5859375 24.046875 C7 23 7 23 0 19 C0 12.73 0 6.46 0 0 Z " fill="#000000" transform="translate(16,30)"/>
<path d="M0 0 C0.99757324 0.00088623 1.99514648 0.00177246 3.02294922 0.00268555 C13.46435398 0.16790296 23.97418533 1.51389751 32.875 7.375 C32.545 8.365 32.215 9.355 31.875 10.375 C29.14453125 11.7265625 29.14453125 11.7265625 25.6875 13 C24.55957031 13.42539062 23.43164062 13.85078125 22.26953125 14.2890625 C8.00058023 18.85381323 -12.77978546 18.53023592 -26.5234375 12.28515625 C-28.5 11.1875 -28.5 11.1875 -31.125 9.375 C-30.125 6.375 -30.125 6.375 -28.41015625 5.27734375 C-27.67667969 4.95894531 -26.94320313 4.64054687 -26.1875 4.3125 C-25.47722656 3.99152344 -24.76695313 3.67054687 -24.03515625 3.33984375 C-16.12366571 0.7168395 -8.29844076 -0.01337323 0 0 Z " fill="#010101" transform="translate(47.125,11.625)"/>
</svg>
