<?xml version="1.0" encoding="UTF-8"?>
<svg version="1.1" xmlns="http://www.w3.org/2000/svg" width="248" height="204">
<path d="M0 0 C81.84 0 163.68 0 248 0 C248 67.32 248 134.64 248 204 C166.16 204 84.32 204 0 204 C0 136.68 0 69.36 0 0 Z " fill="#000000" transform="translate(0,0)"/>
<path d="M0 0 C54.45 0 108.9 0 165 0 C163.87602202 11.23977983 163.87602202 11.23977983 162.58203125 16.37109375 C162.30012939 17.5098999 162.01822754 18.64870605 161.7277832 19.82202148 C161.42573975 21.01512939 161.12369629 22.2082373 160.8125 23.4375 C160.17453746 25.99940851 159.53831685 28.5616411 158.90625 31.125 C158.74590775 31.77379623 158.58556549 32.42259247 158.42036438 33.09104919 C157.31421795 37.60725159 156.30596664 42.13799028 155.34375 46.6875 C155.08489014 47.90638916 154.82603027 49.12527832 154.55932617 50.38110352 C154.07242696 52.69972426 153.59553232 55.02047533 153.13012695 57.34350586 C151.63857107 64.39877617 149.85191609 70.31846713 144 75 C139.02753398 77.73183913 133.79282247 77.30279133 128.27807617 77.30639648 C127.19779648 77.31472 126.11751678 77.32304352 125.00450134 77.33161926 C121.43395379 77.35571079 117.86358896 77.36449048 114.29296875 77.37109375 C111.80821172 77.38006071 109.32345525 77.38918257 106.83869934 77.39845276 C101.62935067 77.41494301 96.42006627 77.42264296 91.21069336 77.42553711 C84.54249964 77.42956964 77.87499945 77.46860101 71.20695019 77.51428127 C66.07418116 77.54405446 60.94155797 77.55126074 55.8087101 77.55226326 C53.35076434 77.55646498 50.89281813 77.56889722 48.4349575 77.58978081 C44.99289032 77.61669873 41.55222686 77.61186717 38.11010742 77.59936523 C36.5941095 77.62161667 36.5941095 77.62161667 35.04748535 77.64431763 C28.57511984 77.57752758 23.89929146 76.40984658 19 72 C15.03992522 66.44656077 13.76624534 59.8694411 12.3125 53.3125 C11.80726831 51.11949668 11.30066397 48.92680931 10.79296875 46.734375 C10.51501465 45.52458984 10.23706055 44.31480469 9.95068359 43.06835938 C8.8765565 38.43723732 7.74595654 33.8202183 6.61328125 29.203125 C6.30524315 27.94637215 6.30524315 27.94637215 5.99098206 26.66423035 C5.16312758 23.28876641 4.33446087 19.91350491 3.5038147 16.53872681 C2.91969436 14.16305004 2.33847011 11.78668135 1.7578125 9.41015625 C1.57998734 8.6904364 1.40216217 7.97071655 1.21894836 7.22918701 C0 2.22746236 0 2.22746236 0 0 Z " fill="#000000" transform="translate(67,55)"/>
<path d="M0 0 C0.87107895 -0.00953201 1.7421579 -0.01906403 2.63963318 -0.02888489 C3.58234573 -0.02797348 4.52505829 -0.02706207 5.49633789 -0.02612305 C6.94635948 -0.03255074 6.94635948 -0.03255074 8.42567444 -0.03910828 C10.47257707 -0.04485792 12.51950013 -0.04534719 14.56640625 -0.04101562 C17.70290927 -0.03785799 20.83846738 -0.06129901 23.97485352 -0.08666992 C25.96118045 -0.08894303 27.94750992 -0.08964636 29.93383789 -0.08862305 C31.34487038 -0.10243767 31.34487038 -0.10243767 32.78440857 -0.11653137 C33.65863968 -0.11030258 34.53287079 -0.10407379 35.43359375 -0.09765625 C36.20255478 -0.09828568 36.97151581 -0.0989151 37.76377869 -0.0995636 C40.3228431 0.37506115 41.18602253 1.25714709 42.78149414 3.2746582 C43.62524414 5.56445313 43.62524414 5.56445313 44.28149414 8.25512695 C44.52899414 9.25608398 44.77649414 10.25704102 45.03149414 11.28833008 C45.27899414 12.33569336 45.52649414 13.38305664 45.78149414 14.4621582 C46.02899414 15.45924805 46.27649414 16.45633789 46.53149414 17.48364258 C48.00013497 23.52266308 49.24721143 29.58404037 50.37524414 35.69384766 C50.5115625 36.42671242 50.64788086 37.15957718 50.78833008 37.91464996 C51.12046762 39.70111839 51.4511349 41.48786007 51.78149414 43.2746582 C52.68155371 43.27281462 53.58161327 43.27097103 54.50894737 43.26907158 C76.38241235 43.2249542 98.25586968 43.19183172 120.12936974 43.17103386 C130.70711232 43.16070954 141.28482527 43.14662719 151.86254883 43.1237793 C161.07921608 43.10388073 170.29586186 43.09095018 179.51255 43.08648121 C184.39530953 43.08386783 189.27800763 43.07770138 194.16074753 43.06319809 C198.75219673 43.04966992 203.34355893 43.04542585 207.93502617 43.04844284 C209.62415095 43.04789053 211.31327849 43.0438848 213.00238609 43.03624725 C215.30080203 43.0263604 217.59888542 43.02866614 219.89730835 43.03414917 C221.18597494 43.03230558 222.47464153 43.030462 223.80235863 43.02856255 C226.78149414 43.2746582 226.78149414 43.2746582 228.78149414 45.2746582 C228.37032568 50.04253256 227.29955716 54.62503308 226.17993164 59.27075195 C226.02278183 59.92910538 225.86563202 60.5874588 225.70372009 61.26576233 C225.19062189 63.41520318 224.67365482 65.5636915 224.15649414 67.7121582 C221.95777548 76.88020929 219.79491756 86.04830352 217.87133789 95.27856445 C217.71997375 95.99846054 217.56860962 96.71835663 217.41265869 97.46006775 C216.69338513 100.88406397 215.98744112 104.30979721 215.30444336 107.74121094 C213.16561049 117.96887816 210.77850003 126.87636246 201.94165039 133.1184082 C195.62044899 136.50190841 189.79868539 136.57652889 182.79418945 136.58105469 C181.14910904 136.59353996 181.14910904 136.59353996 179.47079468 136.60627747 C175.85036655 136.63034387 172.23011875 136.6391459 168.60961914 136.64575195 C166.08624214 136.65472128 163.56286567 136.66384318 161.03948975 136.67311096 C155.75034969 136.68959473 150.46127689 136.69733271 145.17211914 136.70019531 C139.07920582 136.70382619 132.98679756 136.73369639 126.89403844 136.7755999 C121.01112681 136.81462614 115.12841364 136.82579084 109.24538422 136.82692146 C106.75280775 136.83111721 104.2602306 136.84352537 101.76773834 136.86443901 C98.27350946 136.89142263 94.78065831 136.88650563 91.28637695 136.87402344 C89.75546921 136.89627487 89.75546921 136.89627487 88.19363403 136.91897583 C79.73640926 136.83334456 72.73238822 134.27034548 66.46899414 128.4621582 C59.89111039 119.76534831 58.39012095 106.7609322 56.03930664 96.35668945 C52.93818716 82.77938403 49.57348017 69.27533728 46.15649414 55.7746582 C39.83389812 30.78985412 39.83389812 30.78985412 37.38305664 19.8684082 C37.21671722 19.13295776 37.05037781 18.39750732 36.8789978 17.63977051 C36.25076463 14.78273688 35.78149414 12.21038062 35.78149414 9.2746582 C33.98748169 9.29822388 33.98748169 9.29822388 32.15722656 9.32226562 C27.72370121 9.37652881 23.29020526 9.4109951 18.85644531 9.43945312 C16.93679876 9.454548 15.01718674 9.47502593 13.09765625 9.50097656 C10.3398385 9.53732929 7.58247634 9.55437732 4.82446289 9.56762695 C3.96499557 9.58311081 3.10552826 9.59859467 2.22001648 9.61454773 C1.41941299 9.61477432 0.61880951 9.61500092 -0.20605469 9.61523438 C-1.26195549 9.62522713 -1.26195549 9.62522713 -2.33918762 9.63542175 C-4.79737171 9.16353615 -5.70967561 8.23475523 -7.21850586 6.2746582 C-6.78076499 1.45950868 -4.59552136 0.02756355 0 0 Z M53.78149414 51.2746582 C56.23610415 62.93405573 58.73129728 74.4096465 61.78149414 85.8996582 C64.33332579 95.5784248 66.78026548 105.25337802 68.79711914 115.05981445 C70.57998173 120.88241727 73.2389034 124.50973229 78.6302166 127.44970894 C82.87827108 129.07870815 87.26847665 128.81926804 91.76220703 128.77636719 C92.84599136 128.78177017 93.9297757 128.78717316 95.04640198 128.79273987 C98.6159323 128.80521037 102.18465352 128.7887474 105.75415039 128.77075195 C108.24084007 128.77090697 110.72752999 128.77239635 113.21421814 128.77516174 C118.42010202 128.77654496 123.62571014 128.76399924 128.83154297 128.74121094 C134.17509879 128.7184613 139.51822854 128.71049333 144.86181641 128.72070312 C151.32142121 128.73303277 157.78081807 128.73068136 164.24041557 128.71504402 C166.69998202 128.71053052 169.15955981 128.71019183 171.61912727 128.71410942 C175.05637982 128.71702182 178.49300281 128.70051268 181.93017578 128.67871094 C183.4522464 128.68546341 183.4522464 128.68546341 185.00506592 128.69235229 C192.02271454 128.61844909 196.42908664 127.64372582 201.53930664 122.49731445 C203.90359572 119.09916378 204.78454737 116.73479922 205.65649414 112.7121582 C205.97601945 111.30052146 206.29640773 109.8890799 206.61743164 108.4777832 C206.795 107.67276367 206.97256836 106.86774414 207.15551758 106.03833008 C207.88187951 102.83145913 208.66087135 99.63963246 209.44555664 96.4465332 C212.16062018 85.39656755 214.84908818 74.34209436 217.21899414 63.2121582 C217.38270508 62.45185303 217.54641602 61.69154785 217.71508789 60.90820312 C218.40412673 57.5910502 218.78149414 54.68310964 218.78149414 51.2746582 C164.33149414 51.2746582 109.88149414 51.2746582 53.78149414 51.2746582 Z " fill="#414141" transform="translate(13.218505859375,3.725341796875)"/>
<path d="M0 0 C3.77224782 1.60112386 7.02857413 3.41154468 9.19921875 6.9609375 C10.44725109 10.13885399 10.34976747 12.6189145 10 16 C7.5641361 20.8717278 5.16508328 23.24582077 0 25 C-4.73102869 25.6879952 -8.0144134 25.50209129 -12.3125 23.3125 C-18.7799459 17.74748841 -18.7799459 17.74748841 -19.265625 13.890625 C-19.14583268 10.32081389 -18.757043 7.90581513 -16.4296875 5.12109375 C-11.13218962 0.52180165 -7.03957687 -1.00725265 0 0 Z " fill="#404040" transform="translate(211,166)"/>
<path d="M0 0 C3.84724728 1.95859862 7.08727899 4.0682957 9 8 C9.65745489 11.82054344 9.87656941 15.35469314 8.015625 18.84765625 C5.11243012 22.4945708 2.24406067 24.68153594 -2.3671875 25.3359375 C-8.09465733 25.42515043 -11.56447399 25.00279176 -16 21 C-18.86114179 17.56662986 -19.5916932 14.48778502 -19.421875 9.99609375 C-18.64610586 6.32555643 -16.69181304 4.5694579 -14 2 C-9.5420364 -0.72327483 -5.08077284 -0.65817279 0 0 Z " fill="#404040" transform="translate(98,166)"/>
<path d="M0 0 C0.99 0.66 1.98 1.32 3 2 C3.375 4.5 3.375 4.5 3 7 C-0.46998729 9.31332486 -1.92509248 9.33957563 -6 9 C-6.99 8.34 -7.98 7.68 -9 7 C-9.375 4.5 -9.375 4.5 -9 2 C-5.53001271 -0.31332486 -4.07490752 -0.33957563 0 0 Z " fill="#040404" transform="translate(96,174)"/>
<path d="M0 0 C3.5625 0.3125 3.5625 0.3125 5.5625 1.5625 C6.5625 3.3125 6.5625 3.3125 6.375 5.375 C5.5625 7.3125 5.5625 7.3125 3.5625 9.3125 C0.05912019 9.69330215 -1.80028626 9.71495078 -4.8125 7.8125 C-5.34875 7.3175 -5.885 6.8225 -6.4375 6.3125 C-5.55427706 1.8963853 -4.77389749 0.43399068 0 0 Z " fill="#030303" transform="translate(206.4375,173.6875)"/>
</svg>
