<?xml version="1.0" encoding="UTF-8"?>
<svg version="1.1" xmlns="http://www.w3.org/2000/svg" width="96" height="96">
<path d="M0 0 C31.68 0 63.36 0 96 0 C96 31.68 96 63.36 96 96 C64.32 96 32.64 96 0 96 C0 64.32 0 32.64 0 0 Z " fill="#000000" transform="translate(0,0)"/>
<path d="M0 0 C1.11114418 0.35376457 1.11114418 0.35376457 2.24473572 0.7146759 C2.99659729 2.91429138 2.99659729 2.91429138 3.24473572 5.7146759 C1.65229797 8.0690155 1.65229797 8.0690155 -0.78504944 10.52082825 C-1.6899411 11.44463287 -2.59483276 12.3684375 -3.52714539 13.32023621 C-4.53211255 14.31446404 -5.53785905 15.30790465 -6.54432678 16.3006134 C-7.56598982 17.32631787 -8.58676076 18.35291163 -9.60667419 19.38035583 C-11.7476536 21.53018262 -13.89911374 23.66877924 -16.05848694 25.80012512 C-18.82657018 28.53402193 -21.56684116 31.29397517 -24.29982948 34.06290245 C-26.40284425 36.18759202 -28.51993344 38.2977904 -30.64156723 40.40387344 C-31.65787305 41.41617487 -32.66973532 42.43295762 -33.67703629 43.45421982 C-35.08654454 44.87895313 -36.51739075 46.28248105 -37.94911194 47.68489075 C-38.75821014 48.48921539 -39.56730835 49.29354004 -40.40092468 50.12223816 C-42.75526428 51.7146759 -42.75526428 51.7146759 -45.3986969 51.5891571 C-50.24644101 49.79024351 -53.58299364 45.55078657 -57.15956116 41.94172668 C-58.62954565 40.46539764 -60.1242438 39.01775741 -61.62245178 37.57014465 C-63.01463928 36.17989075 -63.01463928 36.17989075 -64.43495178 34.7615509 C-65.28815002 33.91431458 -66.14134827 33.06707825 -67.020401 32.19416809 C-68.75526428 29.7146759 -68.75526428 29.7146759 -68.52528381 26.89924622 C-68.14412415 25.81788391 -68.14412415 25.81788391 -67.75526428 24.7146759 C-65.51820374 23.98835754 -65.51820374 23.98835754 -62.75526428 23.7146759 C-60.62709045 25.16169739 -60.62709045 25.16169739 -58.54823303 27.33576965 C-57.42191467 28.49109192 -57.42191467 28.49109192 -56.27284241 29.66975403 C-55.50391663 30.48895325 -54.73499084 31.30815247 -53.94276428 32.1521759 C-52.7603717 33.37517395 -52.7603717 33.37517395 -51.55409241 34.62287903 C-49.60705119 36.64072174 -47.67532078 38.67119399 -45.75526428 40.7146759 C-42.4341322 39.27266512 -40.30995355 37.48576312 -37.8004303 34.89167786 C-37.03606155 34.1077919 -36.27169281 33.32390594 -35.48416138 32.51626587 C-34.6674144 31.67037399 -33.85066742 30.82448212 -33.00917053 29.95295715 C-31.26822213 28.17698988 -29.52666716 26.40161704 -27.78456116 24.62678528 C-25.04141954 21.82157384 -22.30316174 19.01207937 -19.57533264 16.19197083 C-16.9416234 13.4738767 -14.28962023 10.7747922 -11.63417053 8.07795715 C-10.81944778 7.22599258 -10.00472504 6.37402802 -9.16531372 5.49624634 C-8.39779282 4.72181686 -7.63027191 3.94738739 -6.8394928 3.14949036 C-6.16982986 2.46047134 -5.50016693 1.77145233 -4.81021118 1.06155396 C-2.75526428 -0.2853241 -2.75526428 -0.2853241 0 0 Z " fill="#424242" transform="translate(80.75526428222656,20.285324096679688)"/>
</svg>
