<?xml version="1.0" encoding="UTF-8"?>
<svg version="1.1" xmlns="http://www.w3.org/2000/svg" width="96" height="96">
<path d="M0 0 C31.68 0 63.36 0 96 0 C96 31.68 96 63.36 96 96 C64.32 96 32.64 96 0 96 C0 64.32 0 32.64 0 0 Z " fill="#424242" transform="translate(0,0)"/>
<path d="M0 0 C31.68 0 63.36 0 96 0 C96 31.68 96 63.36 96 96 C64.32 96 32.64 96 0 96 C0 64.32 0 32.64 0 0 Z M34 8 C33.113125 8.53625 32.22625 9.0725 31.3125 9.625 C24.89401012 16.21696258 23.58685493 22.68946781 23.6875 31.625 C23.75215894 34.42101766 23.86304518 37.20612163 24 40 C22.73800781 39.97550781 21.47601563 39.95101562 20.17578125 39.92578125 C16.2668663 39.84991875 14.0918303 40.43819775 11 43 C7.75960432 47.22498122 7.55968225 51.04296681 7.6015625 56.1875 C7.59869232 56.96762451 7.59582214 57.74774902 7.59286499 58.55151367 C7.59082997 60.19548268 7.59632048 61.8394762 7.60888672 63.48339844 C7.62494935 65.99209001 7.60901996 68.49917071 7.58984375 71.0078125 C7.59182628 72.60937854 7.59567017 74.21094358 7.6015625 75.8125 C7.59548981 76.55846436 7.58941711 77.30442871 7.5831604 78.07299805 C7.64342358 82.56084025 8.12569585 85.50152983 11 89 C14.85828314 91.80099327 17.59852614 92.38679842 22.33154297 92.43579102 C23.5898996 92.45493057 24.84825623 92.47407013 26.14474487 92.49378967 C27.51055554 92.49837644 28.87637088 92.50171793 30.2421875 92.50390625 C31.65317078 92.51355573 33.06415109 92.52364883 34.47512817 92.53416443 C37.42896478 92.55209618 40.38253862 92.55768856 43.33642578 92.5559082 C47.10846657 92.55560351 50.87881077 92.59655199 54.65044975 92.64822483 C57.56401192 92.68169948 60.47716875 92.68766246 63.39090347 92.68607903 C64.78072075 92.68960252 66.17055038 92.70277902 67.56017685 92.72607613 C76.56095955 93.03504585 76.56095955 93.03504585 84.34423828 89.14428711 C89.70224446 83.69483703 88.33412324 75.33960151 88.4050293 68.20458984 C88.42658455 66.57514215 88.46065901 64.94580949 88.50756836 63.31689453 C89.2195299 52.75809968 89.2195299 52.75809968 85.16015625 43.453125 C81.85572922 40.40509807 78.73810444 39.87469677 74.3449707 39.88647461 C73.40422195 39.88655014 72.46347321 39.88662567 71.49421692 39.88670349 C69.97534126 39.89444542 69.97534126 39.89444542 68.42578125 39.90234375 C67.38681198 39.9037587 66.34784271 39.90517365 65.27738953 39.90663147 C61.95573052 39.91223344 58.63413867 39.92478628 55.3125 39.9375 C53.06184993 39.94251475 50.81119881 39.9470777 48.56054688 39.95117188 C43.04034163 39.96220351 37.52017561 39.97894357 32 40 C32.06036952 37.28940855 32.1475191 34.58406023 32.25 31.875 C32.27126953 30.73417969 32.27126953 30.73417969 32.29296875 29.5703125 C32.52046773 24.29233628 33.57083177 21.22200224 37 17 C41.26179845 13.13774516 45.26113318 12.64039187 50.97265625 12.71484375 C55.17236122 13.3055537 57.94850989 15.87340346 60.75 18.875 C62.28257577 21.4803788 63.14566516 24.10840514 64 27 C65.9914056 27.38133299 67.99279077 27.71325582 70 28 C71.39426871 26.81094598 71.39426871 26.81094598 71.4375 23.4375 C71.36060858 17.30815577 67.58959825 13.62279823 63.4765625 9.45703125 C57.80847787 4.34375913 52.13002531 3.53930658 44.75 3.6796875 C40.55228957 4.16862536 37.49900757 5.71003166 34 8 Z " fill="#000000" transform="translate(0,0)"/>
<path d="M0 0 C1.19463867 -0.00630432 2.38927734 -0.01260864 3.62011719 -0.019104 C4.91594727 -0.01505554 6.21177734 -0.01100708 7.546875 -0.00683594 C8.88444082 -0.00818272 10.22200617 -0.01012336 11.55957031 -0.01263428 C14.36397966 -0.01558494 17.16826169 -0.01128987 19.97265625 -0.00195312 C23.57092422 0.00944153 27.16889386 0.00288172 30.76715088 -0.00909805 C33.52948258 -0.0163183 36.29174333 -0.014028 39.05407715 -0.00884247 C41.02726433 -0.00685568 43.00045426 -0.01293935 44.97363281 -0.019104 C46.16827148 -0.01279968 47.36291016 -0.00649536 48.59375 0 C50.17687988 0.00238678 50.17687988 0.00238678 51.79199219 0.00482178 C54.296875 0.25878906 54.296875 0.25878906 56.296875 2.25878906 C56.55566406 5.39160156 56.55566406 5.39160156 56.5625 9.38378906 C56.56441345 10.08648926 56.5663269 10.78918945 56.56829834 11.51318359 C56.56965975 12.9993526 56.56596632 14.48553351 56.55761719 15.97167969 C56.54691654 18.24994552 56.55751339 20.52742283 56.5703125 22.80566406 C56.5689909 24.24837414 56.56642849 25.69108373 56.5625 27.13378906 C56.56024414 28.45121094 56.55798828 29.76863281 56.55566406 31.12597656 C56.296875 34.25878906 56.296875 34.25878906 54.296875 36.25878906 C51.79199219 36.51275635 51.79199219 36.51275635 48.59375 36.51757812 C47.39911133 36.52388245 46.20447266 36.53018677 44.97363281 36.53668213 C43.67780273 36.53263367 42.38197266 36.52858521 41.046875 36.52441406 C39.70930918 36.52576085 38.37174383 36.52770149 37.03417969 36.5302124 C34.22977034 36.53316306 31.42548831 36.528868 28.62109375 36.51953125 C25.02282578 36.5081366 21.42485614 36.5146964 17.82659912 36.52667618 C15.06426742 36.53389642 12.30200667 36.53160613 9.53967285 36.52642059 C7.56648567 36.52443381 5.59329574 36.53051748 3.62011719 36.53668213 C2.42547852 36.53037781 1.23083984 36.52407349 0 36.51757812 C-1.05541992 36.51598694 -2.11083984 36.51439575 -3.19824219 36.51275635 C-5.703125 36.25878906 -5.703125 36.25878906 -7.703125 34.25878906 C-7.96191406 31.12597656 -7.96191406 31.12597656 -7.96875 27.13378906 C-7.97066345 26.43108887 -7.9725769 25.72838867 -7.97454834 25.00439453 C-7.97590975 23.51822553 -7.97221632 22.03204461 -7.96386719 20.54589844 C-7.95316654 18.26763261 -7.96376339 15.99015529 -7.9765625 13.71191406 C-7.9752409 12.26920398 -7.97267849 10.8264944 -7.96875 9.38378906 C-7.96649414 8.06636719 -7.96423828 6.74894531 -7.96191406 5.39160156 C-7.49989671 -0.20142354 -4.93639793 0.00744228 0 0 Z " fill="#000000" transform="translate(23.703125,47.7412109375)"/>
</svg>
