<?xml version="1.0" encoding="UTF-8"?>
<svg version="1.1" xmlns="http://www.w3.org/2000/svg" width="112" height="88">
<path d="M0 0 C36.96 0 73.92 0 112 0 C112 29.04 112 58.08 112 88 C75.04 88 38.08 88 0 88 C0 58.96 0 29.92 0 0 Z " fill="#414141" transform="translate(0,0)"/>
<path d="M0 0 C0.99 0.495 0.99 0.495 2 1 C3.3734635 1.15004973 4.7528526 1.24838006 6.1328125 1.31640625 C6.93847656 1.35830078 7.74414062 1.40019531 8.57421875 1.44335938 C9.41597656 1.48267578 10.25773438 1.52199219 11.125 1.5625 C12.39923828 1.62727539 12.39923828 1.62727539 13.69921875 1.69335938 C15.79928223 1.79954236 17.89961948 1.90028497 20 2 C21.86974434 9.42303421 23.73420253 16.84657479 25.50878906 24.29302979 C26.16588482 27.0467411 26.83256335 29.79809561 27.5 32.54931641 C27.83741095 33.95003315 28.17064959 35.35176063 28.5 36.75439453 C28.98880157 38.83132387 29.49291137 40.90403265 30 42.9765625 C30.28875 44.18393066 30.5775 45.39129883 30.875 46.63525391 C32.28167858 50.84246836 33.94996993 54.68567393 37.79483032 57.15071106 C40.45705405 58.1760277 42.55526524 58.26082545 45.40771484 58.2746582 C47.02992447 58.28895622 47.02992447 58.28895622 48.68490601 58.30354309 C49.8484964 58.30263168 51.01208679 58.30172028 52.2109375 58.30078125 C53.41183014 58.30506638 54.61272278 58.3093515 55.8500061 58.31376648 C58.39023203 58.3195094 60.93047441 58.32001033 63.47070312 58.31567383 C67.35315098 58.31251776 71.23483408 58.33596131 75.1171875 58.36132812 C77.58593654 58.36360152 80.05468763 58.36430443 82.5234375 58.36328125 C84.2627504 58.37709587 84.2627504 58.37709587 86.03720093 58.39118958 C93.97045314 58.40413931 93.97045314 58.40413931 101 55 C105.63034504 48.86286211 106.66042471 39.76495548 108.25 32.4375 C108.6521875 30.63829102 108.6521875 30.63829102 109.0625 28.80273438 C109.71676026 25.8702464 110.36236178 22.93613872 111 20 C111.33 20 111.66 20 112 20 C112 40.46 112 60.92 112 82 C75.04 82 38.08 82 0 82 C0 54.94 0 27.88 0 0 Z " fill="#000000" transform="translate(0,6)"/>
<path d="M0 0 C23.1 0 46.2 0 70 0 C64.33823529 25.47794118 64.33823529 25.47794118 63 29 C60.50525029 30.24737486 58.82222396 30.12696326 56.03125 30.12939453 C54.99677734 30.13254669 53.96230469 30.13569885 52.89648438 30.13894653 C51.77564453 30.1369223 50.65480469 30.13489807 49.5 30.1328125 C47.78006836 30.13424759 47.78006836 30.13424759 46.02539062 30.13571167 C43.59765569 30.13639311 41.16991895 30.13454135 38.7421875 30.13037109 C35.01558357 30.12502237 31.28910016 30.13031735 27.5625 30.13671875 C25.20833307 30.13605796 22.85416621 30.13477679 20.5 30.1328125 C19.37916016 30.13483673 18.25832031 30.13686096 17.10351562 30.13894653 C16.06904297 30.13579437 15.03457031 30.13264221 13.96875 30.12939453 C13.05544922 30.12859894 12.14214844 30.12780334 11.20117188 30.12698364 C9 30 9 30 7 29 C3.23568634 19.718757 1.83570527 9.79042811 0 0 Z " fill="#000000" transform="translate(33,27)"/>
<path d="M0 0 C28.71 0 57.42 0 87 0 C87 6.93 87 13.86 87 21 C86.34 20.67 85.68 20.34 85 20 C82.4987767 19.87784515 80.02352013 19.81436719 77.52099609 19.79467773 C76.75017197 19.78477814 75.97934784 19.77487854 75.18516541 19.76467896 C72.6312876 19.7330317 70.07739118 19.70829383 67.5234375 19.68359375 C65.75509145 19.663027 63.98675035 19.64203061 62.21841431 19.62062073 C57.55940757 19.56537119 52.90035625 19.51597464 48.24127197 19.46777344 C43.48893253 19.41757944 38.73665798 19.36188242 33.984375 19.30664062 C24.65630541 19.19902381 15.32817953 19.09758667 6 19 C5.65066406 17.79601562 5.30132812 16.59203125 4.94140625 15.3515625 C4.48187083 13.7760125 4.02222994 12.20049325 3.5625 10.625 C3.33240234 9.8309375 3.10230469 9.036875 2.86523438 8.21875 C2.64287109 7.45820312 2.42050781 6.69765625 2.19140625 5.9140625 C1.98717041 5.2123291 1.78293457 4.5105957 1.57250977 3.78759766 C1.02623679 1.92489242 1.02623679 1.92489242 0 0 Z " fill="#000000" transform="translate(25,0)"/>
<path d="M0 0 C2.4375 1.625 2.4375 1.625 4 4 C4.41847417 7.40757541 4.640169 9.79968313 3 12.875 C-0.17039007 14.65834441 -3.38953079 15.00729388 -7 15 C-10.43805898 13.91429716 -10.92924808 13.10612788 -13 10 C-12.92433357 5.83834648 -12.59563245 3.70074406 -9.875 0.5 C-6.05036816 -1.49546009 -4.10368679 -1.19379979 0 0 Z " fill="#414141" transform="translate(98,73)"/>
<path d="M0 0 C2.4375 1.625 2.4375 1.625 4 4 C4.41847417 7.40757541 4.640169 9.79968313 3 12.875 C-0.17039007 14.65834441 -3.38953079 15.00729388 -7 15 C-10.43805898 13.91429716 -10.92924808 13.10612788 -13 10 C-12.92433357 5.83834648 -12.59563245 3.70074406 -9.875 0.5 C-6.05036816 -1.49546009 -4.10368679 -1.19379979 0 0 Z " fill="#414141" transform="translate(46,73)"/>
</svg>
