<?xml version="1.0" encoding="UTF-8"?>
<svg version="1.1" xmlns="http://www.w3.org/2000/svg" width="96" height="96">
<path d="M0 0 C31.68 0 63.36 0 96 0 C96 31.68 96 63.36 96 96 C64.32 96 32.64 96 0 96 C0 64.32 0 32.64 0 0 Z " fill="#000000" transform="translate(0,0)"/>
<path d="M0 0 C31.68 0 63.36 0 96 0 C96 31.68 96 63.36 96 96 C64.32 96 32.64 96 0 96 C0 64.32 0 32.64 0 0 Z M14.6875 18.125 C5.31373472 29.35037324 3.02556788 41.83542872 4 56 C6.20186222 67.71054112 12.94106299 77.5604111 22.56640625 84.5 C34.05387196 91.58055672 45.93735598 93.8920181 59.26171875 91.38671875 C72.33110102 87.50861447 81.8747753 78.84165419 88.3125 67 C93.17213587 56.36302878 93.89828741 43.3723209 90.046875 32.30859375 C88.17630798 28.18357468 85.71186998 24.61117905 83 21 C81.9171875 19.453125 81.9171875 19.453125 80.8125 17.875 C74.25268853 10.27831511 63.73665817 5.61100005 54 4 C38.2716642 3.0013755 25.86845277 6.53940322 14.6875 18.125 Z " fill="#000000" transform="translate(0,0)"/>
<path d="M0 0 C8.00015202 5.69241586 14.15901709 15.22987903 16.6484375 24.765625 C18.69175242 37.75202648 16.36059852 50.11911523 9 61 C1.92131241 70.62701513 -7.26555132 76.55071059 -19 79 C-33.68663742 80.36157368 -45.77198919 77.10768628 -57.1875 67.75 C-65.44686282 60.11460495 -70.30621962 50.48347381 -71.34765625 39.25 C-71.64817255 26.28860145 -68.58243045 14.33275931 -59.73828125 4.48046875 C-42.43300158 -11.90113822 -19.5364016 -13.47219229 0 0 Z M-52.6875 9.375 C-60.52950633 18.27673692 -63.7368319 26.63281371 -63.41015625 38.69140625 C-62.00475082 50.0283434 -55.76426253 58.24012928 -47.1875 65.3125 C-39.09217289 71.00404224 -29.69341784 72.20166337 -20 71 C-9.65912061 68.17290661 -2.33659264 62.50370732 4 54 C9.10329013 44.988664 10.67640307 35.80615168 8.48828125 25.6171875 C7.80978885 23.6170076 7.00659266 21.85552623 6 20 C5.64808594 19.33613281 5.29617187 18.67226563 4.93359375 17.98828125 C-1.04404184 7.63099186 -8.77204703 2.74265099 -20 -1 C-33.29153382 -1.87822079 -42.66189458 0.51516265 -52.6875 9.375 Z " fill="#404040" transform="translate(75,13)"/>
<path d="M0 0 C4.55555556 0.55555556 4.55555556 0.55555556 6 2 C6.15740605 3.70563778 6.25093392 5.41727244 6.31640625 7.12890625 C6.35830078 8.16337891 6.40019531 9.19785156 6.44335938 10.26367188 C6.48267578 11.35228516 6.52199219 12.44089844 6.5625 13.5625 C6.60568359 14.65498047 6.64886719 15.74746094 6.69335938 16.87304688 C6.79982068 19.58189564 6.90183516 22.29083992 7 25 C7.59167969 24.33871094 8.18335937 23.67742188 8.79296875 22.99609375 C9.58316406 22.15175781 10.37335937 21.30742188 11.1875 20.4375 C11.96480469 19.59058594 12.74210937 18.74367188 13.54296875 17.87109375 C16 16 16 16 18.80078125 16.22265625 C19.52652344 16.47917969 20.25226563 16.73570313 21 17 C21.72900391 19.22119141 21.72900391 19.22119141 22 22 C20.54052734 24.23583984 20.54052734 24.23583984 18.3359375 26.4609375 C17.54316406 27.26144531 16.75039063 28.06195313 15.93359375 28.88671875 C15.08925781 29.70785156 14.24492188 30.52898438 13.375 31.375 C12.14330078 32.64150391 12.14330078 32.64150391 10.88671875 33.93359375 C10.08621094 34.72636719 9.28570312 35.51914062 8.4609375 36.3359375 C7.72665527 37.06345215 6.99237305 37.7909668 6.23583984 38.54052734 C4 40 4 40 1.48632812 39.95654297 C-3.24280097 38.13714707 -6.36303191 34.29123449 -9.875 30.75 C-10.67164063 29.98558594 -11.46828125 29.22117187 -12.2890625 28.43359375 C-13.03671875 27.68722656 -13.784375 26.94085938 -14.5546875 26.171875 C-15.24030762 25.4922168 -15.92592773 24.81255859 -16.63232422 24.11230469 C-18 22 -18 22 -17.71533203 19.23925781 C-17.47927246 18.50030273 -17.24321289 17.76134766 -17 17 C-14.80078125 16.22265625 -14.80078125 16.22265625 -12 16 C-9.54296875 17.87109375 -9.54296875 17.87109375 -7.1875 20.4375 C-6.39730469 21.28183594 -5.60710938 22.12617187 -4.79296875 22.99609375 C-4.20128906 23.65738281 -3.60960937 24.31867187 -3 25 C-2.98018066 24.31373535 -2.96036133 23.6274707 -2.93994141 22.92041016 C-2.84489055 19.82154221 -2.73513153 16.72336706 -2.625 13.625 C-2.5940625 12.54476562 -2.563125 11.46453125 -2.53125 10.3515625 C-2.49257813 9.3203125 -2.45390625 8.2890625 -2.4140625 7.2265625 C-2.3826416 6.27346191 -2.3512207 5.32036133 -2.31884766 4.33837891 C-2 2 -2 2 0 0 Z " fill="#424242" transform="translate(46,28)"/>
</svg>
