<?xml version="1.0" encoding="UTF-8"?>
<svg version="1.1" xmlns="http://www.w3.org/2000/svg" width="96" height="96">
<path d="M0 0 C31.68 0 63.36 0 96 0 C96 31.68 96 63.36 96 96 C64.32 96 32.64 96 0 96 C0 64.32 0 32.64 0 0 Z " fill="#424242" transform="translate(0,0)"/>
<path d="M0 0 C31.68 0 63.36 0 96 0 C96 31.68 96 63.36 96 96 C64.32 96 32.64 96 0 96 C0 64.32 0 32.64 0 0 Z M40.56567383 5.58935547 C38.64378576 8.54845773 37.24490075 11.64917549 35.86328125 14.8828125 C35.57897751 15.53829071 35.29467377 16.19376892 35.00175476 16.86911011 C34.40509783 18.24805834 33.81105315 19.62813948 33.21948242 21.00927734 C32.31134675 23.12769018 31.39362528 25.2417567 30.47460938 27.35546875 C29.89526206 28.69767023 29.31646655 30.04011005 28.73828125 31.3828125 C28.46333328 32.01615509 28.18838531 32.64949768 27.90510559 33.30203247 C26.46289329 36.53563139 26.46289329 36.53563139 26 40 C25.04738281 39.96519531 24.09476563 39.93039063 23.11328125 39.89453125 C21.85902344 39.86746094 20.60476562 39.84039062 19.3125 39.8125 C18.07113281 39.77769531 16.82976563 39.74289063 15.55078125 39.70703125 C11.70167785 40.02461404 9.9828189 40.5918047 7 43 C3.75586536 47.22134864 3.55969512 51.04454686 3.6015625 56.1875 C3.59869232 56.96762451 3.59582214 57.74774902 3.59286499 58.55151367 C3.59082997 60.19548268 3.59632048 61.8394762 3.60888672 63.48339844 C3.62494935 65.99209001 3.60901996 68.49917071 3.58984375 71.0078125 C3.59182628 72.60937854 3.59567017 74.21094358 3.6015625 75.8125 C3.59548981 76.55846436 3.58941711 77.30442871 3.5831604 78.07299805 C3.64342358 82.56084025 4.12569585 85.50152983 7 89 C10.9019376 91.84784664 13.66232046 92.37804721 18.45507812 92.38818359 C19.73991089 92.39764008 21.02474365 92.40709656 22.34851074 92.4168396 C23.74276031 92.41146957 25.13700706 92.40531654 26.53125 92.3984375 C27.96944323 92.40045998 29.40763546 92.40337288 30.8458252 92.40713501 C33.8551615 92.4115502 36.86423006 92.40515357 39.87353516 92.39111328 C43.72376061 92.37402152 47.57335864 92.38386707 51.4235611 92.40183067 C54.39191382 92.4126905 57.36011869 92.40921217 60.32847595 92.4014473 C61.74779841 92.39945135 63.16713445 92.40188325 64.58644104 92.40888596 C66.57259857 92.41653575 68.5588034 92.4028016 70.54492188 92.38818359 C71.67345581 92.38579681 72.80198975 92.38341003 73.96472168 92.38095093 C77.37946097 91.95237471 79.24255728 91.02388944 82 89 C84.78781296 85.32558532 85.61099828 81.95260765 86.3515625 77.44140625 C86.56296875 76.16716797 86.774375 74.89292969 86.9921875 73.58007812 C87.0962793 72.9182251 87.20037109 72.25637207 87.30761719 71.57446289 C87.6194435 69.59772393 87.95018058 67.62399788 88.28125 65.65039062 C91.45555464 51.61205245 91.45555464 51.61205245 90.09545898 37.87426758 C87.88198649 35.0719398 85.26722293 33.32485073 82 32 C79.48730276 31.72655156 79.48730276 31.72655156 76.796875 31.8046875 C75.8171875 31.81113281 74.8375 31.81757813 73.828125 31.82421875 C72.81234375 31.84097656 71.7965625 31.85773437 70.75 31.875 C69.71875 31.88402344 68.6875 31.89304687 67.625 31.90234375 C65.08309713 31.92587989 62.5416672 31.95875977 60 32 C60.04640625 30.84242187 60.0928125 29.68484375 60.140625 28.4921875 C60.17816248 26.95315094 60.21456051 25.4140863 60.25 23.875 C60.28351562 23.11445313 60.31703125 22.35390625 60.3515625 21.5703125 C60.46528933 14.97415626 58.36458855 11.4997079 53.8125 6.6875 C50.0897102 4.45382612 43.95529027 1.83337197 40.56567383 5.58935547 Z " fill="#000000" transform="translate(0,0)"/>
<path d="M0 0 C1.9375 0.25 1.9375 0.25 4 1 C6.12527528 4.18791292 6.27137399 5.17057083 6.37890625 8.8515625 C6.43014648 10.25148438 6.43014648 10.25148438 6.48242188 11.6796875 C6.50884766 12.65164062 6.53527344 13.62359375 6.5625 14.625 C6.62217205 16.55481963 6.68575772 18.48452361 6.75390625 20.4140625 C6.77783447 21.2695166 6.8017627 22.1249707 6.82641602 23.00634766 C6.78460177 24.99897081 6.78460177 24.99897081 8 26 C9.97503095 26.1339036 11.95448596 26.20355231 13.93359375 26.24609375 C15.13951172 26.27896484 16.34542969 26.31183594 17.58789062 26.34570312 C20.15030258 26.40680579 22.712808 26.46410948 25.27539062 26.51757812 C27.08620117 26.56881836 27.08620117 26.56881836 28.93359375 26.62109375 C30.04790771 26.6461499 31.16222168 26.67120605 32.31030273 26.69702148 C35 27 35 27 37 29 C37.06225586 30.83789063 37.06225586 30.83789063 36.77734375 33.15625 C36.6676123 34.05214844 36.55788086 34.94804688 36.44482422 35.87109375 C35.6571252 41.41179113 34.81322668 46.94096795 33.89819336 52.46191406 C33.55873601 54.52285221 33.23146987 56.58551798 32.90429688 58.6484375 C32.68966797 59.95039062 32.47503906 61.25234375 32.25390625 62.59375 C32.06127197 63.77646484 31.8686377 64.95917969 31.67016602 66.17773438 C31 69 31 69 29 71 C27.12704468 71.24050903 27.12704468 71.24050903 24.82568359 71.22705078 C23.96494232 71.22689972 23.10420105 71.22674866 22.21737671 71.22659302 C21.28712677 71.21627045 20.35687683 71.20594788 19.3984375 71.1953125 C18.44683746 71.1924826 17.49523743 71.18965271 16.51480103 71.18673706 C13.46807408 71.17551989 10.42163846 71.15041263 7.375 71.125 C5.31250424 71.11497218 3.25000388 71.10584599 1.1875 71.09765625 C-3.87511267 71.07557554 -8.9375069 71.0410353 -14 71 C-15.69329116 44.76901628 -14.50301202 24.06838126 -1 1 C-0.67 0.67 -0.34 0.34 0 0 Z " fill="#000000" transform="translate(46,13)"/>
<path d="M0 0 C3.3 0 6.6 0 10 0 C10 11.88 10 23.76 10 36 C6.7 36 3.4 36 0 36 C-2.90441659 33.09558341 -2.25867736 30.93242155 -2.265625 26.875 C-2.26753845 26.1722998 -2.2694519 25.46959961 -2.27142334 24.74560547 C-2.27278475 23.25943646 -2.26909132 21.77325555 -2.26074219 20.28710938 C-2.25004154 18.00884354 -2.26063839 15.73136623 -2.2734375 13.453125 C-2.2721159 12.01041492 -2.26955349 10.56770534 -2.265625 9.125 C-2.26336914 7.80757812 -2.26111328 6.49015625 -2.25878906 5.1328125 C-2 2 -2 2 0 0 Z " fill="#000000" transform="translate(14,48)"/>
</svg>
