<?xml version="1.0" encoding="UTF-8"?>
<svg version="1.1" xmlns="http://www.w3.org/2000/svg" width="300" height="134">
<path d="M0 0 C99 0 198 0 300 0 C300 44.22 300 88.44 300 134 C201 134 102 134 0 134 C0 89.78 0 45.56 0 0 Z " fill="#FDFDFD" transform="translate(0,0)"/>
<path d="M0 0 C1.26932877 -0.0038269 2.53865753 -0.00765381 3.84645081 -0.01159668 C6.5187249 -0.01430691 9.1895128 -0.00905919 11.86157227 0.00976562 C15.25503574 0.032531 18.64723153 0.01942477 22.04064846 -0.00452423 C25.31880834 -0.02260999 28.59682344 -0.00987594 31.875 0 C33.07740829 -0.00809692 34.27981659 -0.01619385 35.5186615 -0.02453613 C45.98722537 0.09042987 54.99414338 2.13559444 62.71875 9.54296875 C71.35409305 19.16088913 72.8145804 27.5510034 72.8046875 40.1484375 C72.80897263 41.36016632 72.81325775 42.57189514 72.81767273 43.82034302 C72.82340193 46.37712989 72.82392672 48.93393306 72.81958008 51.49072266 C72.81642264 55.3860274 72.83988967 59.2805704 72.86523438 63.17578125 C72.86750787 65.66666571 72.86821063 68.15755221 72.8671875 70.6484375 C72.87639725 71.80495819 72.88560699 72.96147888 72.89509583 74.15304565 C72.83706262 84.38199646 70.77048491 94.01923855 63.4921875 101.63671875 C55.98503444 108.63404818 49.09431699 111.60550455 38.77075195 111.70825195 C37.64220291 111.72108719 36.51365387 111.73392242 35.35090637 111.74714661 C34.13940414 111.75453354 32.92790192 111.76192047 31.6796875 111.76953125 C29.7948188 111.78163887 29.7948188 111.78163887 27.87187195 111.79399109 C25.213128 111.80781193 22.55450714 111.81883364 19.89575195 111.82641602 C16.51451622 111.83744894 13.13394425 111.87182846 9.75294209 111.91158772 C6.4994243 111.94425662 3.24584425 111.94854963 -0.0078125 111.95703125 C-1.20919357 111.97453934 -2.41057465 111.99204742 -3.64836121 112.01008606 C-14.04151834 111.98351469 -22.09989895 109.65549602 -29.7421875 102.4609375 C-35.29080906 96.35621801 -38.71249467 89.68040959 -38.81835938 81.37084961 C-38.83757446 80.14865219 -38.85678955 78.92645477 -38.87658691 77.66722107 C-38.88508667 76.35262405 -38.89358643 75.03802704 -38.90234375 73.68359375 C-38.91082588 72.67036136 -38.91082588 72.67036136 -38.91947937 71.63665962 C-38.94940463 68.05666688 -38.96789618 64.47683387 -38.9765625 60.89672852 C-38.98747902 57.23059596 -39.03543167 53.56596911 -39.09250641 49.90030575 C-39.1301031 47.05434684 -39.14018852 44.2087368 -39.14323425 41.36255074 C-39.15209731 39.36415915 -39.18923219 37.36595571 -39.22717285 35.36790466 C-39.17959571 25.50510834 -36.95824912 17.54690497 -30.29553223 10.057724 C-21.55856058 1.41865233 -11.89589579 -0.07997141 0 0 Z " fill="#030303" transform="translate(51.49609375,10.46875)"/>
<path d="M0 0 C1.24624146 -0.0038269 2.49248291 -0.00765381 3.77648926 -0.01159668 C7.08249947 -0.01501209 10.38775458 0.00105504 13.69366455 0.0234375 C15.71708158 0.03124356 17.73980472 0.02346479 19.76318359 0.00976562 C23.65494956 -0.01494702 27.54569121 -0.0119508 31.4375 0 C32.64281372 -0.00809692 33.84812744 -0.01619385 35.08996582 -0.02453613 C39.67134804 0.02682576 43.25663764 0.1092494 47.47827148 1.9609375 C50.15223429 5.90980556 49.91588731 9.5178318 49.84765625 14.1875 C49.85006821 15.12678345 49.85248016 16.06606689 49.85496521 17.03381348 C49.85398674 19.01753974 49.84059305 21.0012933 49.81567383 22.98486328 C49.78136808 26.02080059 49.79501356 29.05382687 49.81445312 32.08984375 C49.80755455 34.01824155 49.79788206 35.94663185 49.78515625 37.875 C49.79259605 39.23606873 49.79259605 39.23606873 49.80018616 40.62463379 C49.68406004 46.84057481 49.68406004 46.84057481 47.48120117 50.11035156 C44.87191099 51.74907703 43.51185282 52.00030392 40.453125 51.921875 C39.56367187 51.90898438 38.67421875 51.89609375 37.7578125 51.8828125 C36.83742187 51.84929687 35.91703125 51.81578125 34.96875 51.78125 C33.56496094 51.75417969 33.56496094 51.75417969 32.1328125 51.7265625 C29.82707985 51.67950673 27.52344055 51.61378713 25.21875 51.53125 C25.734375 52.418125 26.25 53.305 26.78125 54.21875 C28.21875 57.53125 28.21875 57.53125 27.21875 62.53125 C19.62875 62.53125 12.03875 62.53125 4.21875 62.53125 C3.12682624 57.0716312 3.56194956 56.10094675 6.21875 51.53125 C5.63383789 51.55219727 5.04892578 51.57314453 4.44628906 51.59472656 C1.78728535 51.67805115 -0.87144355 51.72995897 -3.53125 51.78125 C-4.91183594 51.83152344 -4.91183594 51.83152344 -6.3203125 51.8828125 C-7.20976563 51.89570312 -8.09921875 51.90859375 -9.015625 51.921875 C-10.24104004 51.9532959 -10.24104004 51.9532959 -11.49121094 51.98535156 C-14.85779824 51.31777668 -15.85586102 50.38916895 -17.78125 47.53125 C-18.38248235 44.31337149 -18.36551046 41.14132311 -18.34765625 37.875 C-18.35385483 36.93571655 -18.36005341 35.99643311 -18.36643982 35.02868652 C-18.37353614 33.04501379 -18.37036726 31.06128148 -18.35766602 29.07763672 C-18.34379696 26.04152981 -18.37787685 23.00850297 -18.41601562 19.97265625 C-18.4169668 18.04427008 -18.41510808 16.11588005 -18.41015625 14.1875 C-18.42341446 13.28012085 -18.43667267 12.3727417 -18.45033264 11.43786621 C-18.39270863 7.54045482 -18.25582601 5.23209671 -16.04077148 1.9609375 C-10.80664176 -0.33485036 -5.65232615 -0.03797057 0 0 Z " fill="#060606" transform="translate(51.78125,35.46875)"/>
<path d="M0 0 C1.18030792 0.00720566 1.18030792 0.00720566 2.38446045 0.01455688 C11.39655094 0.16459873 20.23185984 1.36807149 29.140625 2.6484375 C30.77068165 2.8734972 32.40089046 3.0974576 34.03125 3.3203125 C37.18496429 3.75325122 40.33689439 4.19669743 43.48779297 4.6496582 C46.30723782 5.05404548 49.12782164 5.43643263 51.95361328 5.79370117 C53.17806152 5.95330322 54.40250977 6.11290527 55.6640625 6.27734375 C57.24840088 6.47565796 57.24840088 6.47565796 58.86474609 6.67797852 C68.79319161 8.63178508 76.14930433 14.111078 81.890625 22.2734375 C90.44605948 36.19160789 86.91412639 53.52281621 84.515625 68.8359375 C84.17857952 71.06155794 83.84483881 73.28765908 83.5111084 75.51377869 C83.29169812 76.9709478 83.07013017 78.4277938 82.84631348 79.8842926 C82.30374286 83.42820252 81.79073846 86.97197108 81.34179688 90.52905273 C81.25586273 91.20745712 81.16992859 91.88586151 81.08139038 92.58482361 C80.85143994 94.4302738 80.62882329 96.27663364 80.40673828 98.12304688 C78.86894741 107.5098271 73.42333868 115.65719644 66.078125 121.5859375 C50.79986751 132.06653657 29.45570978 126.95694792 12.29248047 124.55737305 C8.87074362 124.0831823 5.44578954 123.64135598 2.01953125 123.20117188 C-0.19036885 122.90037569 -2.40001515 122.59770768 -4.609375 122.29296875 C-5.61685791 122.16565872 -6.62434082 122.03834869 -7.66235352 121.90718079 C-17.78728051 120.43645736 -27.12635371 116.43181516 -33.69921875 108.30859375 C-43.96323553 94.02931369 -41.15622952 78.96033997 -38.734375 62.6484375 C-38.28572864 59.5733946 -37.84172691 56.49769406 -37.3984375 53.421875 C-37.28846939 52.66739075 -37.17850128 51.91290649 -37.06520081 51.13555908 C-36.19065941 45.06002005 -35.46132125 38.9727211 -34.8352356 32.86654663 C-33.7798022 23.16918339 -30.07187723 15.17000694 -23.109375 8.2734375 C-19.92230723 5.94787399 -16.64990449 4.00954923 -13.109375 2.2734375 C-12.40151855 1.92450439 -11.69366211 1.57557129 -10.96435547 1.21606445 C-7.28719389 0.00197852 -3.82851673 -0.04015418 0 0 Z M-26.109375 20.2734375 C-31.88255923 28.93313615 -32.99282597 36.64139135 -32.87109375 46.875 C-32.87260143 48.2463718 -32.87604428 49.61774267 -32.88130188 50.98910522 C-32.88559872 53.84181332 -32.86905957 56.69337729 -32.83666992 59.54589844 C-32.79681363 63.17506339 -32.80624374 66.80209582 -32.83090496 70.43132973 C-32.84518355 73.25588021 -32.83492814 76.07994453 -32.81739235 78.90446091 C-32.80882557 80.88393503 -32.81903076 82.86346243 -32.82975769 84.84292603 C-32.66130283 95.68219903 -29.50354009 103.52584397 -22.14453125 111.515625 C-16.35197419 116.51879328 -9.20154906 119.38235191 -1.60327148 119.43457031 C-0.47457138 119.44417786 0.65412872 119.4537854 1.81703186 119.46368408 C3.03885666 119.46793396 4.26068146 119.47218384 5.51953125 119.4765625 C6.77894028 119.48226257 8.0383493 119.48796265 9.33592224 119.49383545 C12.00661834 119.5032922 14.67720193 119.51018481 17.34790039 119.51367188 C20.74476642 119.51912674 24.14122553 119.54309145 27.53796482 119.57164383 C30.8026221 119.59494026 34.06730256 119.59673242 37.33203125 119.6015625 C39.14351402 119.6200827 39.14351402 119.6200827 40.99159241 119.63897705 C53.13828513 119.6072995 61.88127873 117.18741851 70.61328125 108.57421875 C76.69471806 101.92498194 78.97475549 94.70737654 79.06762695 85.73974609 C79.08046219 84.65446625 79.09329742 83.5691864 79.10652161 82.45101929 C79.11390854 81.28640167 79.12129547 80.12178406 79.12890625 78.921875 C79.14101387 77.10715195 79.14101387 77.10715195 79.15336609 75.25576782 C79.16718587 72.69542871 79.17791742 70.13507133 79.18579102 67.57470703 C79.19729982 64.96788094 79.2177339 62.3610782 79.24731445 59.75439453 C79.29017177 55.97672598 79.30618696 52.19975708 79.31640625 48.421875 C79.34266838 46.69316666 79.34266838 46.69316666 79.36946106 44.92953491 C79.33898239 33.42601273 76.41804733 24.77508815 68.40234375 16.44140625 C61.86217367 10.79631388 54.72535686 8.17980833 46.17919922 8.09643555 C44.45623123 8.07718269 44.45623123 8.07718269 42.69845581 8.05754089 C41.45991852 8.05015396 40.22138123 8.04276703 38.9453125 8.03515625 C37.66512238 8.0270845 36.38493225 8.01901276 35.06594849 8.01069641 C32.35418839 7.99569288 29.64245421 7.98584538 26.93066406 7.97827148 C23.48102361 7.96724833 20.03203554 7.93288764 16.58262444 7.89309978 C13.2660487 7.86043025 9.94953655 7.85613709 6.6328125 7.84765625 C4.79322464 7.82139412 4.79322464 7.82139412 2.91647339 7.79460144 C-9.20083846 7.82496396 -17.99338306 11.14647155 -26.109375 20.2734375 Z " fill="#CACACA" transform="translate(45.109375,2.7265625)"/>
<path d="M0 0 C1.24624146 -0.0038269 2.49248291 -0.00765381 3.77648926 -0.01159668 C7.08249947 -0.01501209 10.38775458 0.00105504 13.69366455 0.0234375 C15.71708158 0.03124356 17.73980472 0.02346479 19.76318359 0.00976562 C23.65494956 -0.01494702 27.54569121 -0.0119508 31.4375 0 C32.64281372 -0.00809692 33.84812744 -0.01619385 35.08996582 -0.02453613 C39.67134804 0.02682576 43.25663764 0.1092494 47.47827148 1.9609375 C50.15223429 5.90980556 49.91588731 9.5178318 49.84765625 14.1875 C49.85006821 15.12678345 49.85248016 16.06606689 49.85496521 17.03381348 C49.85398674 19.01753974 49.84059305 21.0012933 49.81567383 22.98486328 C49.78136808 26.02080059 49.79501356 29.05382687 49.81445312 32.08984375 C49.80755455 34.01824155 49.79788206 35.94663185 49.78515625 37.875 C49.79259605 39.23606873 49.79259605 39.23606873 49.80018616 40.62463379 C49.68406004 46.84057481 49.68406004 46.84057481 47.48120117 50.11035156 C44.87191099 51.74907703 43.51185282 52.00030392 40.453125 51.921875 C39.56367187 51.90898438 38.67421875 51.89609375 37.7578125 51.8828125 C36.83742187 51.84929687 35.91703125 51.81578125 34.96875 51.78125 C33.56496094 51.75417969 33.56496094 51.75417969 32.1328125 51.7265625 C29.82707985 51.67950673 27.52344055 51.61378713 25.21875 51.53125 C25.734375 52.418125 26.25 53.305 26.78125 54.21875 C28.21875 57.53125 28.21875 57.53125 27.21875 62.53125 C19.62875 62.53125 12.03875 62.53125 4.21875 62.53125 C3.12682624 57.0716312 3.56194956 56.10094675 6.21875 51.53125 C5.63383789 51.55219727 5.04892578 51.57314453 4.44628906 51.59472656 C1.78728535 51.67805115 -0.87144355 51.72995897 -3.53125 51.78125 C-4.91183594 51.83152344 -4.91183594 51.83152344 -6.3203125 51.8828125 C-7.20976563 51.89570312 -8.09921875 51.90859375 -9.015625 51.921875 C-10.24104004 51.9532959 -10.24104004 51.9532959 -11.49121094 51.98535156 C-14.85779824 51.31777668 -15.85586102 50.38916895 -17.78125 47.53125 C-18.38248235 44.31337149 -18.36551046 41.14132311 -18.34765625 37.875 C-18.35385483 36.93571655 -18.36005341 35.99643311 -18.36643982 35.02868652 C-18.37353614 33.04501379 -18.37036726 31.06128148 -18.35766602 29.07763672 C-18.34379696 26.04152981 -18.37787685 23.00850297 -18.41601562 19.97265625 C-18.4169668 18.04427008 -18.41510808 16.11588005 -18.41015625 14.1875 C-18.42341446 13.28012085 -18.43667267 12.3727417 -18.45033264 11.43786621 C-18.39270863 7.54045482 -18.25582601 5.23209671 -16.04077148 1.9609375 C-10.80664176 -0.33485036 -5.65232615 -0.03797057 0 0 Z M-14.6053009 4.8391571 C-16.58561474 7.68866392 -16.14557632 10.91989957 -16.07421875 14.26171875 C-16.07119751 14.92707642 -16.06817627 15.59243408 -16.06506348 16.2779541 C-16.04939229 18.75837767 -16.00750802 21.23857975 -15.96875 23.71875 C-15.906875 29.266875 -15.845 34.815 -15.78125 40.53125 C5.00875 40.53125 25.79875 40.53125 47.21875 40.53125 C47.280625 34.983125 47.3425 29.435 47.40625 23.71875 C47.43356201 21.97102295 47.46087402 20.2232959 47.48901367 18.42260742 C47.49777638 17.03565156 47.50542083 15.64868799 47.51171875 14.26171875 C47.52706665 13.54294556 47.54241455 12.82417236 47.55822754 12.08361816 C47.61037948 8.24019758 47.61037948 8.24019758 46.0428009 4.8391571 C43.52257137 3.03206603 41.78053131 3.1504578 38.69335938 3.14306641 C37.56208618 3.13360992 36.43081299 3.12415344 35.26525879 3.1144104 C33.43239319 3.12351944 33.43239319 3.12351944 31.5625 3.1328125 C29.68177795 3.12850723 29.68177795 3.12850723 27.76306152 3.12411499 C25.1097925 3.12207173 22.45735029 3.12611532 19.80419922 3.14013672 C16.40433366 3.15722914 13.00517854 3.14738683 9.60533905 3.12941933 C6.36186722 3.11596911 3.1184811 3.12538766 -0.125 3.1328125 C-1.3469104 3.12673981 -2.5688208 3.12066711 -3.82775879 3.1144104 C-5.52466858 3.12859512 -5.52466858 3.12859512 -7.25585938 3.14306641 C-8.75119202 3.14664658 -8.75119202 3.14664658 -10.2767334 3.15029907 C-12.80795132 3.34146835 -12.80795132 3.34146835 -14.6053009 4.8391571 Z " fill="#F4F4F4" transform="translate(51.78125,35.46875)"/>
<path d="M0 0 C2.58445773 -0.1081866 5.16437352 -0.18737237 7.75 -0.25 C8.47960937 -0.28351562 9.20921875 -0.31703125 9.9609375 -0.3515625 C13.30687361 -0.4123977 15.47081751 -0.38570696 18.21875 1.6171875 C20.56349539 4.75379866 20.4613221 6.62728477 20.390625 10.515625 C20.37128906 12.39121094 20.37128906 12.39121094 20.3515625 14.3046875 C20.31804687 15.60664062 20.28453125 16.90859375 20.25 18.25 C20.23195312 19.56742188 20.21390625 20.88484375 20.1953125 22.2421875 C20.14816271 25.49552308 20.08236044 28.74739625 20 32 C17.69 32 15.38 32 13 32 C13 29.03 13 26.06 13 23 C9.7 23 6.4 23 3 23 C3 25.97 3 28.94 3 32 C0.69 32 -1.62 32 -4 32 C-4 22.76 -4 13.52 -4 4 C-2.68 3.34 -1.36 2.68 0 2 C0 1.34 0 0.68 0 0 Z " fill="#0F0F0F" transform="translate(214,29)"/>
<path d="M0 0 C6.6 0 13.2 0 20 0 C20 0.66 20 1.32 20 2 C21.32 2.66 22.64 3.32 24 4 C24.05410687 5.77049689 24.09284119 7.54146849 24.125 9.3125 C24.14820313 10.29863281 24.17140625 11.28476562 24.1953125 12.30078125 C24 15 24 15 22 18 C22.66 18.66 23.32 19.32 24 20 C24.1953125 22.8203125 24.1953125 22.8203125 24.125 26.125 C24.10695312 27.22070312 24.08890625 28.31640625 24.0703125 29.4453125 C24.04710937 30.28835937 24.02390625 31.13140625 24 32 C21.69 32 19.38 32 17 32 C16.67 28.04 16.34 24.08 16 20 C12.7 20 9.4 20 6 20 C6 23.96 6 27.92 6 32 C4.02 32 2.04 32 0 32 C0 21.44 0 10.88 0 0 Z " fill="#0B0B0B" transform="translate(181,29)"/>
<path d="M0 0 C4.5478125 -0.1546875 4.5478125 -0.1546875 9.1875 -0.3125 C10.13391357 -0.35802002 11.08032715 -0.40354004 12.05541992 -0.45043945 C16.35611152 -0.52119704 18.44120101 -0.38412993 22.07421875 2.11328125 C25.43239453 7.14713906 24.87876313 12.18377962 24 18 C22.25 21.3125 22.25 21.3125 19 23 C14.96282121 23.37799333 11.04046323 23.2899854 7 23 C7 25.97 7 28.94 7 32 C4.69 32 2.38 32 0 32 C0 21.44 0 10.88 0 0 Z " fill="#111111" transform="translate(152,29)"/>
<path d="M0 0 C20.79 0 41.58 0 63 0 C62 4 62 4 60.27172852 5.7247467 C57.52927673 7.26424434 55.78783902 7.3859988 52.65234375 7.40405273 C51.05048218 7.42307899 51.05048218 7.42307899 49.41625977 7.44248962 C48.26826904 7.43955399 47.12027832 7.43661835 45.9375 7.43359375 C44.75406006 7.4388356 43.57062012 7.44407745 42.35131836 7.44947815 C39.84978012 7.45590023 37.34821168 7.454559 34.84667969 7.44604492 C31.01442871 7.43753205 27.1836663 7.46630135 23.3515625 7.49804688 C20.92187545 7.49965884 18.49218575 7.49908144 16.0625 7.49609375 C14.34051392 7.51294472 14.34051392 7.51294472 12.58374023 7.53013611 C11.51583252 7.52075516 10.4479248 7.51137421 9.34765625 7.50170898 C8.40929932 7.50154282 7.47094238 7.50137665 6.50415039 7.50120544 C3.23300672 6.84648637 2.01679373 5.61049976 0 3 C0 2.01 0 1.02 0 0 Z " fill="#1A1A1A" transform="translate(36,78)"/>
<path d="M0 0 C1.98 0 3.96 0 6 0 C6.02187378 0.93066284 6.02187378 0.93066284 6.04418945 1.88012695 C6.11866588 4.69154633 6.21532564 7.50177749 6.3125 10.3125 C6.33505859 11.28896484 6.35761719 12.26542969 6.38085938 13.27148438 C6.41630859 14.20927734 6.45175781 15.14707031 6.48828125 16.11328125 C6.51446533 16.97735596 6.54064941 17.84143066 6.56762695 18.73168945 C7.08358076 21.43848045 7.78658499 22.39196346 10 24 C13.34192692 23.75546876 14.60543557 23.39456443 17 21 C17.37004294 18.77341846 17.37004294 18.77341846 17.4140625 16.2109375 C17.45273437 15.26992188 17.49140625 14.32890625 17.53125 13.359375 C17.5621875 12.37453125 17.593125 11.3896875 17.625 10.375 C17.66367187 9.38242187 17.70234375 8.38984375 17.7421875 7.3671875 C17.8366314 4.91164615 17.92219875 2.4561159 18 0 C19.98 0 21.96 0 24 0 C24.23433541 3.83228532 24.37506508 7.66271317 24.5 11.5 C24.60054688 13.11648437 24.60054688 13.11648437 24.703125 14.765625 C24.81407343 19.31451068 24.88709164 22.66005738 22.32421875 26.53125 C19.23372546 29.74215211 16.57099064 32.46514466 12 33 C7.42900936 32.46514466 4.76627454 29.74215211 1.67578125 26.53125 C-1.43433272 21.83345547 -0.83841113 16.94060971 -0.5 11.5 C-0.46390625 10.39140625 -0.4278125 9.2828125 -0.390625 8.140625 C-0.29692861 5.42342966 -0.1659292 2.71358059 0 0 Z " fill="#030303" transform="translate(240,29)"/>
<path d="M0 0 C-1.15173355 2.46800047 -2.04783565 4.04783565 -4 6 C-6.06298828 6.22705078 -6.06298828 6.22705078 -8.5703125 6.1953125 C-9.46621094 6.18886719 -10.36210938 6.18242188 -11.28515625 6.17578125 C-12.22230469 6.15902344 -13.15945312 6.14226562 -14.125 6.125 C-15.06988281 6.11597656 -16.01476562 6.10695313 -16.98828125 6.09765625 C-19.32577292 6.07404522 -21.66276123 6.04111516 -24 6 C-23.484375 6.886875 -22.96875 7.77375 -22.4375 8.6875 C-21 12 -21 12 -22 17 C-29.59 17 -37.18 17 -45 17 C-46.09192376 11.5403812 -45.65680044 10.56969675 -43 6 C-43.59014893 6.01571045 -44.18029785 6.0314209 -44.78833008 6.04760742 C-47.46295586 6.10997939 -50.13742864 6.14899657 -52.8125 6.1875 C-53.74126953 6.21263672 -54.67003906 6.23777344 -55.62695312 6.26367188 C-56.9659668 6.27817383 -56.9659668 6.27817383 -58.33203125 6.29296875 C-59.15421143 6.3086792 -59.9763916 6.32438965 -60.82348633 6.34057617 C-63.50456255 5.92104714 -64.3869427 5.14498486 -66 3 C-66 2.34 -66 1.68 -66 1 C-62.125 1.875 -62.125 1.875 -61 3 C-59.33368247 3.10918271 -57.66276704 3.14906774 -55.99291992 3.16113281 C-54.92478561 3.17074036 -53.85665131 3.1803479 -52.75614929 3.19024658 C-51.01093742 3.1966214 -51.01093742 3.1966214 -49.23046875 3.203125 C-48.04278397 3.20882507 -46.85509918 3.21452515 -45.63142395 3.22039795 C-43.11195776 3.22986601 -40.59247909 3.23638906 -38.07299805 3.24023438 C-34.21446116 3.24993224 -30.35645841 3.28093633 -26.49804688 3.3125 C-24.05469068 3.31903039 -21.61133065 3.32428072 -19.16796875 3.328125 C-17.43186592 3.3466452 -17.43186592 3.3466452 -15.66069031 3.36553955 C-14.58309952 3.36253845 -13.50550873 3.35953735 -12.39526367 3.35644531 C-11.44785812 3.36009094 -10.50045258 3.36373657 -9.52433777 3.36749268 C-5.51906166 2.78440524 -4.12171567 0 0 0 Z " fill="#F7F7F7" transform="translate(101,81)"/>
<path d="M0 0 C6.27 0 12.54 0 19 0 C19 2.31 19 4.62 19 7 C17.02 7 15.04 7 13 7 C13 12.94 13 18.88 13 25 C14.98 25 16.96 25 19 25 C19 27.31 19 29.62 19 32 C12.73 32 6.46 32 0 32 C0 30.02 0 28.04 0 26 C1.98 26 3.96 26 6 26 C6 19.4 6 12.8 6 6 C4.02 6 2.04 6 0 6 C0 4.02 0 2.04 0 0 Z " fill="#121212" transform="translate(152,72)"/>
<path d="M0 0 C6.27 0 12.54 0 19 0 C19 2.31 19 4.62 19 7 C16.69 7 14.38 7 12 7 C12 13.27 12 19.54 12 26 C13.98 26 15.96 26 18 26 C18 27.98 18 29.96 18 32 C12.06 32 6.12 32 0 32 C0 30.02 0 28.04 0 26 C1.98 26 3.96 26 6 26 C6 19.4 6 12.8 6 6 C4.02 6 2.04 6 0 6 C0 4.02 0 2.04 0 0 Z " fill="#070707" transform="translate(270,29)"/>
<path d="M0 0 C7.26 0 14.52 0 22 0 C22 1.98 22 3.96 22 6 C19.36 6 16.72 6 14 6 C14 14.58 14 23.16 14 32 C12.02 32 10.04 32 8 32 C8 23.42 8 14.84 8 6 C5.36 6 2.72 6 0 6 C0 4.02 0 2.04 0 0 Z " fill="#030303" transform="translate(175,72)"/>
<path d="M0 0 C2.9567163 -0.0594514 5.62886658 -0.04202415 8.5390625 0.50390625 C12.5390625 4.78297602 12.5390625 4.78297602 12.5390625 8.50390625 C6.2690625 8.50390625 -0.0009375 8.50390625 -6.4609375 8.50390625 C-3.33230679 0.68232949 -3.33230679 0.68232949 0 0 Z " fill="#090909" transform="translate(64.4609375,86.49609375)"/>
<path d="M0 0 C1.64574566 -0.02688151 3.29161413 -0.04634123 4.9375 -0.0625 C5.85402344 -0.07410156 6.77054688 -0.08570313 7.71484375 -0.09765625 C10 0 10 0 11 1 C11.14115161 3.67058851 11.04247107 6.32432238 11 9 C7.37 9 3.74 9 0 9 C0 6.03 0 3.06 0 0 Z " fill="#F7F7F7" transform="translate(217,36)"/>
<path d="M0 0 C3.3 0 6.6 0 10 0 C10.09765625 6.15234375 10.09765625 6.15234375 10 8 C9 9 9 9 6.93359375 9.09765625 C3.46679688 9.04882812 3.46679688 9.04882812 0 9 C0 6.03 0 3.06 0 0 Z " fill="#FCFCFC" transform="translate(159,36)"/>
<path d="M0 0 C3.63 0 7.26 0 11 0 C11 2.31 11 4.62 11 7 C7.37 7 3.74 7 0 7 C0 4.69 0 2.38 0 0 Z " fill="#F4F4F4" transform="translate(187,36)"/>
<path d="M0 0 C1.5625 1.6875 1.5625 1.6875 3 4 C2.67 5.65 2.34 7.3 2 9 C-5.59 9 -13.18 9 -21 9 C-20.34 7.68 -19.68 6.36 -19 5 C-12.73 5.33 -6.46 5.66 0 6 C-0.33 4.68 -0.66 3.36 -1 2 C-0.67 1.34 -0.34 0.68 0 0 Z " fill="#DDDDDD" transform="translate(77,89)"/>
<path d="M0 0 C-1.04874998 2.62187494 -1.64931313 3.79371361 -4.125 5.25 C-4.74375 5.4975 -5.3625 5.745 -6 6 C-6.33 5.01 -6.66 4.02 -7 3 C-3.375 0 -3.375 0 0 0 Z " fill="#E2E2E2" transform="translate(101,81)"/>
</svg>
