<?xml version="1.0" encoding="UTF-8"?>
<svg version="1.1" xmlns="http://www.w3.org/2000/svg" width="2400" height="124">
<path d="M0 0 C792 0 1584 0 2400 0 C2400 40.92 2400 81.84 2400 124 C1608 124 816 124 0 124 C0 83.08 0 42.16 0 0 Z " fill="#1A1C21" transform="translate(0,0)"/>
<path d="M0 0 C1.20849609 0.01353516 2.41699219 0.02707031 3.66210938 0.04101562 C6.62937082 0.07620054 9.59569937 0.12543304 12.5625 0.1875 C12.5625 0.8475 12.5625 1.5075 12.5625 2.1875 C13.8825 2.5175 15.2025 2.8475 16.5625 3.1875 C17.34395476 6.6446807 17.69075408 9.84092298 17.6953125 13.3828125 C17.69724609 14.82720703 17.69724609 14.82720703 17.69921875 16.30078125 C17.69535156 17.29464844 17.69148438 18.28851563 17.6875 19.3125 C17.69330078 20.81490234 17.69330078 20.81490234 17.69921875 22.34765625 C17.69792969 23.30800781 17.69664062 24.26835938 17.6953125 25.2578125 C17.69418457 26.13195801 17.69305664 27.00610352 17.69189453 27.90673828 C17.5625 30.1875 17.5625 30.1875 16.5625 33.1875 C15.9025 33.1875 15.2425 33.1875 14.5625 33.1875 C14.2325 34.5075 13.9025 35.8275 13.5625 37.1875 C10.39447255 38.12153708 7.54330846 38.31628554 4.24609375 38.3203125 C3.23482422 38.32160156 2.22355469 38.32289062 1.18164062 38.32421875 C0.13169922 38.32035156 -0.91824219 38.31648438 -2 38.3125 C-3.05380859 38.31636719 -4.10761719 38.32023437 -5.19335938 38.32421875 C-6.20333984 38.32292969 -7.21332031 38.32164063 -8.25390625 38.3203125 C-9.17631104 38.31918457 -10.09871582 38.31805664 -11.04907227 38.31689453 C-13.4375 38.1875 -13.4375 38.1875 -16.4375 37.1875 C-16.4375 36.5275 -16.4375 35.8675 -16.4375 35.1875 C-17.0975 35.1875 -17.7575 35.1875 -18.4375 35.1875 C-20.85954038 31.55443942 -20.67052891 29.86930977 -20.6328125 25.55078125 C-20.62636719 24.25205078 -20.61992187 22.95332031 -20.61328125 21.61523438 C-20.5965706 20.24348693 -20.57964071 18.87174214 -20.5625 17.5 C-20.55246674 16.11654282 -20.54334149 14.73307873 -20.53515625 13.34960938 C-20.51154967 9.96206548 -20.47862037 6.57486928 -20.4375 3.1875 C-13.78033199 -0.53699488 -7.48544829 -0.15926486 0 0 Z " fill="#6D6F72" transform="translate(222.4375,32.8125)"/>
<path d="M0 0 C4.95 0 9.9 0 15 0 C15 0.66 15 1.32 15 2 C17.475 2.495 17.475 2.495 20 3 C20 3.66 20 4.32 20 5 C20.99 5 21.98 5 23 5 C23 5.99 23 6.98 23 8 C23.66 8 24.32 8 25 8 C25 8.66 25 9.32 25 10 C25.66 10 26.32 10 27 10 C28.74926631 17.21572351 28.3333925 23.333215 25 30 C24.34 30 23.68 30 23 30 C22.505 31.485 22.505 31.485 22 33 C21.34 33 20.68 33 20 33 C20 33.66 20 34.32 20 35 C17.525 35.495 17.525 35.495 15 36 C15 36.66 15 37.32 15 38 C10.05 38 5.1 38 0 38 C0 37.34 0 36.68 0 36 C-1.65 35.67 -3.3 35.34 -5 35 C-5.33 33.68 -5.66 32.36 -6 31 C-7.32 30.67 -8.64 30.34 -10 30 C-10 29.34 -10 28.68 -10 28 C-10.66 28 -11.32 28 -12 28 C-13.49944026 22.00223894 -13.49944026 15.99776106 -12 10 C-11.34 10 -10.68 10 -10 10 C-10 9.34 -10 8.68 -10 8 C-9.34 7.67 -8.68 7.34 -8 7 C-7.34786708 4.97536745 -7.34786708 4.97536745 -7 3 C-3.535 2.505 -3.535 2.505 0 2 C0 1.34 0 0.68 0 0 Z " fill="#6E7173" transform="translate(279,33)"/>
<path d="M0 0 C0 0.66 0 1.32 0 2 C0.99 2 1.98 2 3 2 C3 2.66 3 3.32 3 4 C3.66 4 4.32 4 5 4 C9.25150534 7.73302907 10.35272426 10.41495829 10.875 16.0625 C11.10310981 19.91557225 10.8959027 23.24410021 10 27 C9.34 27 8.68 27 8 27 C7.7525 27.7425 7.505 28.485 7.25 29.25 C5.61318348 32.85099634 3.55591308 35.22204346 0 37 C-2.55157655 37.0716735 -5.07472971 37.09308442 -7.625 37.0625 C-8.33140625 37.05798828 -9.0378125 37.05347656 -9.765625 37.04882812 C-11.51045275 37.03703875 -13.255237 37.01910324 -15 37 C-15 36.34 -15 35.68 -15 35 C-16.65 34.67 -18.3 34.34 -20 34 C-20 33.34 -20 32.68 -20 32 C-20.66 32 -21.32 32 -22 32 C-22.33 30.35 -22.66 28.7 -23 27 C-23.99 26.67 -24.98 26.34 -26 26 C-27.38226016 23.23547967 -27.09525387 20.9538637 -27.0625 17.875 C-27.05347656 16.77929688 -27.04445313 15.68359375 -27.03515625 14.5546875 C-27.02355469 13.71164063 -27.01195312 12.86859375 -27 12 C-26.34 12 -25.68 12 -25 12 C-24.67 10.35 -24.34 8.7 -24 7 C-23.34 7 -22.68 7 -22 7 C-22 6.34 -22 5.68 -22 5 C-17.61538462 2 -17.61538462 2 -15 2 C-15 1.34 -15 0.68 -15 0 C-9.97560615 -1.67479795 -5.09914442 -1.23615622 0 0 Z " fill="#0363F4" transform="translate(2006,34)"/>
<path d="M0 0 C0.69608368 0.00233139 1.39216736 0.00466278 2.10934448 0.00706482 C3.57351015 0.01676815 5.03764021 0.03847702 6.50146484 0.0715332 C8.74242672 0.12109904 10.98119469 0.13302526 13.22265625 0.13867188 C24.14917535 0.24658565 24.14917535 0.24658565 27.6171875 2.55859375 C27.95776367 4.89697266 27.95776367 4.89697266 27.91015625 7.78515625 C27.8956543 9.33203125 27.8956543 9.33203125 27.88085938 10.91015625 C27.85572266 11.99039063 27.83058594 13.070625 27.8046875 14.18359375 C27.78438477 15.81554687 27.78438477 15.81554687 27.76367188 17.48046875 C27.72823504 20.17366784 27.67883081 22.86588749 27.6171875 25.55859375 C26.9571875 25.55859375 26.2971875 25.55859375 25.6171875 25.55859375 C25.1221875 27.04359375 25.1221875 27.04359375 24.6171875 28.55859375 C14.0571875 28.55859375 3.4971875 28.55859375 -7.3828125 28.55859375 C-7.3828125 27.89859375 -7.3828125 27.23859375 -7.3828125 26.55859375 C-8.0221875 26.43484375 -8.6615625 26.31109375 -9.3203125 26.18359375 C-10.34125 25.87421875 -10.34125 25.87421875 -11.3828125 25.55859375 C-13.06741839 22.18938198 -12.69374224 18.44760755 -12.7578125 14.74609375 C-12.79519531 13.93849609 -12.83257812 13.13089844 -12.87109375 12.29882812 C-12.88269531 11.51185547 -12.89429688 10.72488281 -12.90625 9.9140625 C-12.92606934 9.19887451 -12.94588867 8.48368652 -12.96630859 7.74682617 C-11.17923805 1.04493775 -6.20495837 -0.06445006 0 0 Z " fill="#6E7174" transform="translate(144.3828125,37.44140625)"/>
<path d="M0 0 C0.65972305 -0.00095673 1.31944611 -0.00191345 1.99916077 -0.00289917 C3.39714656 -0.00358086 4.79513549 -0.00172736 6.19311523 0.00244141 C8.33519607 0.00778144 10.47706642 0.00250051 12.61914062 -0.00390625 C13.97526088 -0.0032453 15.33138101 -0.00196379 16.6875 0 C17.92749756 0.00112793 19.16749512 0.00225586 20.44506836 0.00341797 C23.41015625 0.1328125 23.41015625 0.1328125 25.41015625 1.1328125 C25.41015625 6.0828125 25.41015625 11.0328125 25.41015625 16.1328125 C14.52015625 16.1328125 3.63015625 16.1328125 -7.58984375 16.1328125 C-7.58984375 0.00691018 -7.58984375 0.00691018 0 0 Z " fill="#0039A6" transform="translate(2197.58984375,39.8671875)"/>
<path d="M0 0 C2.31 0 4.62 0 7 0 C7.33 1.98 7.66 3.96 8 6 C8.66 6 9.32 6 10 6 C10 6.66 10 7.32 10 8 C11.65 8 13.3 8 15 8 C15 10.31 15 12.62 15 15 C13.35 15 11.7 15 10 15 C10 14.34 10 13.68 10 13 C9.01 13 8.02 13 7 13 C7 17.95 7 22.9 7 28 C6.34 28 5.68 28 5 28 C5 28.99 5 29.98 5 31 C4.34 31 3.68 31 3 31 C3 31.66 3 32.32 3 33 C2.01 33 1.02 33 0 33 C0 33.66 0 34.32 0 35 C-3.3 35 -6.6 35 -10 35 C-10 34.34 -10 33.68 -10 33 C-10.99 32.67 -11.98 32.34 -13 32 C-13 30.68 -13 29.36 -13 28 C-13.66 28 -14.32 28 -15 28 C-15.125 20.25 -15.125 20.25 -14 18 C-13.34 18 -12.68 18 -12 18 C-12 17.34 -12 16.68 -12 16 C-11.34 16 -10.68 16 -10 16 C-9.67 15.01 -9.34 14.02 -9 13 C-7.02 13 -5.04 13 -3 13 C-3 15.31 -3 17.62 -3 20 C-4.98 20.66 -6.96 21.32 -9 22 C-9 23.98 -9 25.96 -9 28 C-8.34 28 -7.68 28 -7 28 C-7 28.66 -7 29.32 -7 30 C-5.35 30 -3.7 30 -2 30 C-2 29.34 -2 28.68 -2 28 C-1.34 28 -0.68 28 0 28 C0 18.76 0 9.52 0 0 Z " fill="#6A6C6F" transform="translate(92,33)"/>
<path d="M0 0 C3.3 0 6.6 0 10 0 C10 0.99 10 1.98 10 3 C10.66 3 11.32 3 12 3 C14.29648649 5.5614657 15 6.47967572 15 10 C15.66 10 16.32 10 17 10 C17 9.34 17 8.68 17 8 C18.375 6.375 18.375 6.375 20 5 C20.66 5 21.32 5 22 5 C22.66 3.68 23.32 2.36 24 1 C24.99 1 25.98 1 27 1 C27 1.66 27 2.32 27 3 C26.34 3 25.68 3 25 3 C25 3.99 25 4.98 25 6 C24.34 6 23.68 6 23 6 C22.67 7.32 22.34 8.64 22 10 C21.34 10 20.68 10 20 10 C20 11.65 20 13.3 20 15 C20.66 15.33 21.32 15.66 22 16 C22.33333333 17.33333333 22.66666667 18.66666667 23 20 C23.66 20.33 24.32 20.66 25 21 C25 22.32 25 23.64 25 25 C25.66 25 26.32 25 27 25 C27.12375 25.804375 27.2475 26.60875 27.375 27.4375 C27.58125 28.283125 27.7875 29.12875 28 30 C28.66 30.33 29.32 30.66 30 31 C26.7 31 23.4 31 20 31 C20 30.01 20 29.02 20 28 C19.34 28 18.68 28 18 28 C17.505 25.525 17.505 25.525 17 23 C14.69 23 12.38 23 10 23 C10 23.99 10 24.98 10 26 C9.34 26 8.68 26 8 26 C7.67 27.32 7.34 28.64 7 30 C5.35 30.33 3.7 30.66 2 31 C2 28 2 28 3.375 26.3125 C5 25 5 25 7 25 C7 24.01 7 23.02 7 22 C7.66 22 8.32 22 9 22 C9.33 19.69 9.66 17.38 10 15 C9.34 15 8.68 15 8 15 C7.67 13.35 7.34 11.7 7 10 C6.34 10 5.68 10 5 10 C2 5.61538462 2 5.61538462 2 3 C1.34 3 0.68 3 0 3 C0 2.01 0 1.02 0 0 Z " fill="#595B5F" transform="translate(15,38)"/>
<path d="M0 0 C10.89 0 21.78 0 33 0 C33 2.31 33 4.62 33 7 C31.09150052 8.90849948 27.68521226 8.13059633 25.15625 8.1328125 C24.47195923 8.13376923 23.78766846 8.13472595 23.0826416 8.13571167 C21.63338123 8.1363933 20.18411782 8.13454023 18.73486328 8.13037109 C16.50937072 8.12502252 14.28407999 8.1303166 12.05859375 8.13671875 C10.65364539 8.13605797 9.24869715 8.1347768 7.84375 8.1328125 C6.55662109 8.13168457 5.26949219 8.13055664 3.94335938 8.12939453 C1 8 1 8 0 7 C0 4.69 0 2.38 0 0 Z " fill="#D02B20" transform="translate(2190,56)"/>
<path d="M0 0 C0.65972305 -0.00095673 1.31944611 -0.00191345 1.99916077 -0.00289917 C3.39714656 -0.00358086 4.79513549 -0.00172736 6.19311523 0.00244141 C8.33519607 0.00778144 10.47706642 0.00250051 12.61914062 -0.00390625 C13.97526088 -0.0032453 15.33138101 -0.00196379 16.6875 0 C17.92749756 0.00112793 19.16749512 0.00225586 20.44506836 0.00341797 C23.41015625 0.1328125 23.41015625 0.1328125 25.41015625 1.1328125 C25.41015625 3.4428125 25.41015625 5.7528125 25.41015625 8.1328125 C14.52015625 8.1328125 3.63015625 8.1328125 -7.58984375 8.1328125 C-7.58984375 0.00691018 -7.58984375 0.00691018 0 0 Z " fill="#F5F7FB" transform="translate(2197.58984375,39.8671875)"/>
<path d="M0 0 C3.96 0 7.92 0 12 0 C14.125 12.75 14.125 12.75 12 17 C8.04 17 4.08 17 0 17 C0 11.39 0 5.78 0 0 Z " fill="#DCD8CC" transform="translate(2081,44)"/>
<path d="M0 0 C2.475 0.495 2.475 0.495 5 1 C5.33 3.97 5.66 6.94 6 10 C7.32 10.33 8.64 10.66 10 11 C10 8.03 10 5.06 10 2 C10.99 2 11.98 2 13 2 C13 3.32 13 4.64 13 6 C14.97536745 5.65213292 14.97536745 5.65213292 17 5 C17.33 4.34 17.66 3.68 18 3 C18.66 3 19.32 3 20 3 C20 2.01 20 1.02 20 0 C20.99 0 21.98 0 23 0 C22.67 2.31 22.34 4.62 22 7 C21.34 7 20.68 7 20 7 C20 7.99 20 8.98 20 10 C20.99 10.33 21.98 10.66 23 11 C23 12.32 23 13.64 23 15 C23.66 15.33 24.32 15.66 25 16 C22.69 15.67 20.38 15.34 18 15 C18 13.68 18 12.36 18 11 C15.525 10.505 15.525 10.505 13 10 C13 11.98 13 13.96 13 16 C10.36 15.67 7.72 15.34 5 15 C5 14.34 5 13.68 5 13 C4.34 13 3.68 13 3 13 C3 12.01 3 11.02 3 10 C2.34 10 1.68 10 1 10 C-0.60725635 6.78548731 -0.05748185 3.56387464 0 0 Z " fill="#1F2126" transform="translate(209,43)"/>
<path d="M0 0 C3.63 0 7.26 0 11 0 C11.33 0.99 11.66 1.98 12 3 C12.66 3 13.32 3 14 3 C14 4.65 14 6.3 14 8 C13.34 8 12.68 8 12 8 C12 8.66 12 9.32 12 10 C11 11 10 12 9 13 C9 13.66 9 14.32 9 15 C7.35 15 5.7 15 4 15 C4 15.99 4 16.98 4 18 C2.68 18 1.36 18 0 18 C-1.23102992 14.30691024 -0.87175152 11.11949288 -0.5625 7.3125 C-0.51029297 6.61060547 -0.45808594 5.90871094 -0.40429688 5.18554688 C-0.27492135 3.45661946 -0.13817469 1.72824645 0 0 Z " fill="#9FC5FF" transform="translate(1992,43)"/>
<path d="M0 0 C1.60875 -0.020625 3.2175 -0.04125 4.875 -0.0625 C5.77992188 -0.07410156 6.68484375 -0.08570313 7.6171875 -0.09765625 C10 0 10 0 12 1 C12 3.64 12 6.28 12 9 C11.34 9 10.68 9 10 9 C10 9.99 10 10.98 10 12 C10.66 12 11.32 12 12 12 C12 12.66 12 13.32 12 14 C12.66 14 13.32 14 14 14 C14 14.99 14 15.98 14 17 C11.625 17.1875 11.625 17.1875 9 17 C7 14 7 14 7 11 C6.34 11 5.68 11 5 11 C5 12.98 5 14.96 5 17 C3.35 17 1.7 17 0 17 C0 11.39 0 5.78 0 0 Z " fill="#A3C5C4" transform="translate(2049,44)"/>
<path d="M0 0 C0 1.98 0 3.96 0 6 C-0.66 6 -1.32 6 -2 6 C-2 9.3 -2 12.6 -2 16 C-3.65 16 -5.3 16 -7 16 C-7 15.34 -7 14.68 -7 14 C-8.65 14 -10.3 14 -12 14 C-12.36923077 9.44615385 -12.36923077 9.44615385 -10.5 7.1875 C-10.005 6.795625 -9.51 6.40375 -9 6 C-9.99 6 -10.98 6 -12 6 C-12 6.66 -12 7.32 -12 8 C-18.625 9.125 -18.625 9.125 -22 8 C-22 7.34 -22 6.68 -22 6 C-20.35 6 -18.7 6 -17 6 C-17 5.34 -17 4.68 -17 4 C-14.36 3.67 -11.72 3.34 -9 3 C-9 2.34 -9 1.68 -9 1 C-5.846632 0.29925156 -3.27275026 0 0 0 Z " fill="#1D2029" transform="translate(296,45)"/>
<path d="M0 0 C1.60875 -0.020625 3.2175 -0.04125 4.875 -0.0625 C5.77992188 -0.07410156 6.68484375 -0.08570313 7.6171875 -0.09765625 C10 0 10 0 12 1 C12 3.31 12 5.62 12 8 C11.34 8 10.68 8 10 8 C10 9.65 10 11.3 10 13 C10.66 13 11.32 13 12 13 C12 13.99 12 14.98 12 16 C10.68 16 9.36 16 8 16 C7.67 14.35 7.34 12.7 7 11 C6.34 11 5.68 11 5 11 C4.67 12.65 4.34 14.3 4 16 C2.68 16 1.36 16 0 16 C0 10.72 0 5.44 0 0 Z " fill="#D5CDBE" transform="translate(2238,45)"/>
<path d="M0 0 C0.99 0.99 1.98 1.98 3 3 C3 3.66 3 4.32 3 5 C4.32 5.33 5.64 5.66 7 6 C7.33 7.65 7.66 9.3 8 11 C8.66 11 9.32 11 10 11 C10.33 12.32 10.66 13.64 11 15 C11.99 15 12.98 15 14 15 C14.33 14.01 14.66 13.02 15 12 C15.66 12.33 16.32 12.66 17 13 C17.33333333 14.66666667 17.66666667 16.33333333 18 18 C18.66 18.33 19.32 18.66 20 19 C16.7 19 13.4 19 10 19 C10 18.01 10 17.02 10 16 C9.34 16 8.68 16 8 16 C7.67 14.35 7.34 12.7 7 11 C4.69 11 2.38 11 0 11 C0 11.99 0 12.98 0 14 C-0.66 14 -1.32 14 -2 14 C-2.33 15.32 -2.66 16.64 -3 18 C-4.65 18.33 -6.3 18.66 -8 19 C-8 16 -8 16 -6.625 14.3125 C-5 13 -5 13 -3 13 C-3 12.01 -3 11.02 -3 10 C-2.34 10 -1.68 10 -1 10 C-0.67 6.7 -0.34 3.4 0 0 Z " fill="#66686B" transform="translate(25,50)"/>
<path d="M0 0 C1.32 0 2.64 0 4 0 C4.33 4.62 4.66 9.24 5 14 C7.31 14 9.62 14 12 14 C12 9.71 12 5.42 12 1 C12.99 1 13.98 1 15 1 C15.0810206 3.10353495 15.13919907 5.20795952 15.1875 7.3125 C15.22230469 8.48425781 15.25710937 9.65601563 15.29296875 10.86328125 C15 14 15 14 13.8125 15.90625 C11.36675609 17.38212995 9.64795239 17.29797217 6.8125 17.1875 C5.46091797 17.14689453 5.46091797 17.14689453 4.08203125 17.10546875 C3.39496094 17.07066406 2.70789062 17.03585938 2 17 C2 16.34 2 15.68 2 15 C1.34 15 0.68 15 0 15 C0 10.05 0 5.1 0 0 Z " fill="#ABBEC4" transform="translate(2064,44)"/>
<path d="M0 0 C1.588125 -0.061875 3.17625 -0.12375 4.8125 -0.1875 C6.15248047 -0.23970703 6.15248047 -0.23970703 7.51953125 -0.29296875 C10 0 10 0 11.8125 1.1875 C13.41326658 3.63077531 13.30028797 5.29260872 13.1875 8.1875 C13.16042969 9.08855469 13.13335938 9.98960938 13.10546875 10.91796875 C13.07066406 11.60503906 13.03585938 12.29210938 13 13 C11.35 13 9.7 13 8 13 C8 9.7 8 6.4 8 3 C7.01 3 6.02 3 5 3 C5 6.3 5 9.6 5 13 C3.35 13 1.7 13 0 13 C0 8.71 0 4.42 0 0 Z " fill="#C1C1B3" transform="translate(2310,48)"/>
<path d="M0 0 C0.33 0.66 0.66 1.32 1 2 C1.66 2 2.32 2 3 2 C3 2.99 3 3.98 3 5 C3.66 5 4.32 5 5 5 C7.29648649 7.5614657 8 8.47967572 8 12 C8.66 12 9.32 12 10 12 C10.33 10.68 10.66 9.36 11 8 C11.66 8 12.32 8 13 8 C13 9.32 13 10.64 13 12 C13.66 12.33 14.32 12.66 15 13 C15.33333333 14.33333333 15.66666667 15.66666667 16 17 C16.66 17.33 17.32 17.66 18 18 C18 20.31 18 22.62 18 25 C16.35 24.67 14.7 24.34 13 24 C13 22.68 13 21.36 13 20 C12.34 20 11.68 20 11 20 C10.67 18.35 10.34 16.7 10 15 C9.38125 14.9175 8.7625 14.835 8.125 14.75 C6 14 6 14 4.75 11.9375 C4.37875 10.9784375 4.37875 10.9784375 4 10 C3.67 10.66 3.34 11.32 3 12 C2.34 12 1.68 12 1 12 C0.45533613 7.915021 0 4.1274515 0 0 Z " fill="#5B5D60" transform="translate(22,41)"/>
<path d="M0 0 C3.375 -0.125 3.375 -0.125 7 0 C9 2 9 2 9.1953125 4.6015625 C9.13020833 7.40104167 9.06510417 10.20052083 9 13 C5.37 13 1.74 13 -2 13 C-2.125 10.125 -2.125 10.125 -2 7 C0 5 0 5 2.625 4.875 C3.40875 4.91625 4.1925 4.9575 5 5 C5 4.34 5 3.68 5 3 C3.35 3 1.7 3 0 3 C0 2.01 0 1.02 0 0 Z " fill="#E8E1D0" transform="translate(2298,48)"/>
<path d="M0 0 C0.99 0 1.98 0 3 0 C3 3.3 3 6.6 3 10 C4.65 10 6.3 10 8 10 C8 6.7 8 3.4 8 0 C9.32 0 10.64 0 12 0 C12 4.29 12 8.58 12 13 C8.04 13 4.08 13 0 13 C0 8.71 0 4.42 0 0 Z " fill="#D0D4D0" transform="translate(2253,48)"/>
<path d="M0 0 C3.96 0 7.92 0 12 0 C12.84681133 5.08086796 13.09038099 9.84828377 13 15 C12.67 13.68 12.34 12.36 12 11 C9.69 10.34 7.38 9.68 5 9 C5 6.69 5 4.38 5 2 C6.65 2.33 8.3 2.66 10 3 C10 2.67 10 2.34 10 2 C7.36 1.67 4.72 1.34 2 1 C2 6.28 2 11.56 2 17 C1.34 17 0.68 17 0 17 C0 11.39 0 5.78 0 0 Z " fill="#98B5C1" transform="translate(2081,44)"/>
<path d="M0 0 C0 0.99 0 1.98 0 3 C-1.98 3 -3.96 3 -6 3 C-6 3.66 -6 4.32 -6 5 C-5.21625 5.12375 -4.4325 5.2475 -3.625 5.375 C-1 6 -1 6 1 8 C0.625 10.625 0.625 10.625 0 13 C-2.97 13 -5.94 13 -9 13 C-9 12.01 -9 11.02 -9 10 C-7.35 10 -5.7 10 -4 10 C-4 9.34 -4 8.68 -4 8 C-5.65 7.67 -7.3 7.34 -9 7 C-9 5.02 -9 3.04 -9 1 C-6.04335481 -0.4783226 -3.25770263 -0.06032783 0 0 Z " fill="#EFE7D5" transform="translate(2287,48)"/>
<path d="M0 0 C2.475 0.495 2.475 0.495 5 1 C5 6.61 5 12.22 5 18 C3.35 18 1.7 18 0 18 C0 12.06 0 6.12 0 0 Z " fill="#AF7A33" transform="translate(2290,43)"/>
<path d="M0 0 C2.64 0 5.28 0 8 0 C8 0.99 8 1.98 8 3 C6.02 3 4.04 3 2 3 C2 3.66 2 4.32 2 5 C2.78375 5.12375 3.5675 5.2475 4.375 5.375 C7 6 7 6 9 8 C9 9.65 9 11.3 9 13 C5.37 13 1.74 13 -2 13 C-2 12.01 -2 11.02 -2 10 C0.31 10.33 2.62 10.66 5 11 C5 10.01 5 9.02 5 8 C3.35 7.67 1.7 7.34 0 7 C0 4.69 0 2.38 0 0 Z " fill="#C7C9C9" transform="translate(2268,48)"/>
<path d="M0 0 C0.33 0 0.66 0 1 0 C1 4.29 1 8.58 1 13 C-0.65 13 -2.3 13 -4 13 C-4 12.34 -4 11.68 -4 11 C-5.65 11 -7.3 11 -9 11 C-9 9.35 -9 7.7 -9 6 C-7.35 5.67 -5.7 5.34 -4 5 C-4 4.01 -4 3.02 -4 2 C-2.68 2 -1.36 2 0 2 C0 1.34 0 0.68 0 0 Z " fill="#1C2029" transform="translate(293,48)"/>
<path d="M0 0 C2.475 0.495 2.475 0.495 5 1 C5.33 2.32 5.66 3.64 6 5 C7.32 5 8.64 5 10 5 C10.33 3.68 10.66 2.36 11 1 C12.98 0.67 14.96 0.34 17 0 C17 0.99 17 1.98 17 3 C16.34 3 15.68 3 15 3 C15 3.66 15 4.32 15 5 C12.75 7.625 12.75 7.625 10 10 C6 10 6 10 4.25 8.625 C3 7 3 7 3 5 C2.34 5 1.68 5 1 5 C0.67 3.35 0.34 1.7 0 0 Z " fill="#A5A7AC" transform="translate(2330,48)"/>
<path d="M0 0 C1.32 0.33 2.64 0.66 4 1 C4 1.66 4 2.32 4 3 C4.66 3 5.32 3 6 3 C6 3.66 6 4.32 6 5 C7.32 5 8.64 5 10 5 C10.66 3.35 11.32 1.7 12 0 C13.32 0 14.64 0 16 0 C15.67 1.65 15.34 3.3 15 5 C14.34 5 13.68 5 13 5 C13 5.66 13 6.32 13 7 C11.75 8.625 11.75 8.625 10 10 C8.68 10 7.36 10 6 10 C6 9.34 6 8.68 6 8 C5.34 8 4.68 8 4 8 C0 3.64705882 0 3.64705882 0 0 Z " fill="#9B9DA2" transform="translate(2120,48)"/>
<path d="M0 0 C2.475 0.495 2.475 0.495 5 1 C5.33 3.97 5.66 6.94 6 10 C6.66 10 7.32 10 8 10 C8.33 11.32 8.66 12.64 9 14 C7.68 14.33 6.36 14.66 5 15 C5 14.34 5 13.68 5 13 C4.34 13 3.68 13 3 13 C3 12.01 3 11.02 3 10 C2.34 10 1.68 10 1 10 C-0.60725635 6.78548731 -0.05748185 3.56387464 0 0 Z " fill="#2C2E32" transform="translate(209,43)"/>
<path d="M0 0 C0.66 0 1.32 0 2 0 C2.33 1.65 2.66 3.3 3 5 C3.66 5 4.32 5 5 5 C5.33 6.32 5.66 7.64 6 9 C6.99 9 7.98 9 9 9 C9.33 8.01 9.66 7.02 10 6 C10.66 6.33 11.32 6.66 12 7 C12.33333333 8.66666667 12.66666667 10.33333333 13 12 C13.66 12.33 14.32 12.66 15 13 C11.7 13 8.4 13 5 13 C5 12.01 5 11.02 5 10 C4.34 10 3.68 10 3 10 C2.67 8.35 2.34 6.7 2 5 C0.35 4.67 -1.3 4.34 -3 4 C-3 3.34 -3 2.68 -3 2 C-2.01 2 -1.02 2 0 2 C0 1.34 0 0.68 0 0 Z " fill="#616366" transform="translate(30,56)"/>
<path d="M0 0 C2.31 0 4.62 0 7 0 C7.33 1.65 7.66 3.3 8 5 C7.34 4.67 6.68 4.34 6 4 C6 3.34 6 2.68 6 2 C4.68 2 3.36 2 2 2 C2 9.92 2 17.84 2 26 C1.34 26 0.68 26 0 26 C0 17.42 0 8.84 0 0 Z " fill="#4A4C50" transform="translate(92,33)"/>
<path d="M0 0 C0.99 0 1.98 0 3 0 C3 0.66 3 1.32 3 2 C2.34 2 1.68 2 1 2 C1 2.99 1 3.98 1 5 C0.34 5 -0.32 5 -1 5 C-1.33 6.32 -1.66 7.64 -2 9 C-3.32 9.33 -4.64 9.66 -6 10 C-6 11.65 -6 13.3 -6 15 C-9 14 -9 14 -10.75 11.625 C-12 9 -12 9 -11 6 C-10.34 6.33 -9.68 6.66 -9 7 C-9 7.66 -9 8.32 -9 9 C-8.34 9 -7.68 9 -7 9 C-7 8.34 -7 7.68 -7 7 C-5.625 5.375 -5.625 5.375 -4 4 C-3.34 4 -2.68 4 -2 4 C-1.34 2.68 -0.68 1.36 0 0 Z " fill="#696B6E" transform="translate(39,39)"/>
<path d="M0 0 C2.31 0 4.62 0 7 0 C7.33 2.31 7.66 4.62 8 7 C4.77208445 9.1519437 3.71599191 9.20086443 0 9 C0 6.03 0 3.06 0 0 Z " fill="#B3D1FF" transform="translate(1996,46)"/>
<path d="M0 0 C0.99 0 1.98 0 3 0 C3 0.66 3 1.32 3 2 C4.65 2.33 6.3 2.66 8 3 C8 3.66 8 4.32 8 5 C8.66 5 9.32 5 10 5 C10 5.66 10 6.32 10 7 C7.69 7.33 5.38 7.66 3 8 C3 8.66 3 9.32 3 10 C2.01 10 1.02 10 0 10 C0 6.7 0 3.4 0 0 Z " fill="#272630" transform="translate(149,46)"/>
<path d="M0 0 C0.33 0.66 0.66 1.32 1 2 C1.66 2 2.32 2 3 2 C3 2.99 3 3.98 3 5 C3.66 5 4.32 5 5 5 C7.29648649 7.5614657 8 8.47967572 8 12 C8.66 12 9.32 12 10 12 C10 12.99 10 13.98 10 15 C8.125 14.75 8.125 14.75 6 14 C4.75 11.9375 4.75 11.9375 4 10 C3.67 10.66 3.34 11.32 3 12 C2.34 12 1.68 12 1 12 C0.45533613 7.915021 0 4.1274515 0 0 Z " fill="#4A4C50" transform="translate(22,41)"/>
<path d="M0 0 C2.64 0 5.28 0 8 0 C8 0.33 8 0.66 8 1 C6.35 1 4.7 1 3 1 C3 3.31 3 5.62 3 8 C4.32 8.33 5.64 8.66 7 9 C5.68 9 4.36 9 3 9 C3 11.31 3 13.62 3 16 C2.01 16 1.02 16 0 16 C0 10.72 0 5.44 0 0 Z " fill="#E4F4EE" transform="translate(2238,45)"/>
<path d="M0 0 C0.99 0 1.98 0 3 0 C3.0810206 2.10353495 3.13919907 4.20795952 3.1875 6.3125 C3.22230469 7.48425781 3.25710937 8.65601563 3.29296875 9.86328125 C3 13 3 13 1.6875 14.90625 C-0.8393329 16.54401207 -3.06920094 16.1953866 -6 16 C-6 15.67 -6 15.34 -6 15 C-4.35 15 -2.7 15 -1 15 C-0.67 10.05 -0.34 5.1 0 0 Z " fill="#F0E5CB" transform="translate(2076,45)"/>
<path d="M0 0 C2.64 0 5.28 0 8 0 C9 1 9 1 9.0625 3.5625 C9.041875 4.366875 9.02125 5.17125 9 6 C8.67 4.68 8.34 3.36 8 2 C6.35 1.67 4.7 1.34 3 1 C3 3.31 3 5.62 3 8 C2.34 8 1.68 8 1 8 C1 10.31 1 12.62 1 15 C3.31 15 5.62 15 8 15 C8 15.33 8 15.66 8 16 C5.36 16 2.72 16 0 16 C0 10.72 0 5.44 0 0 Z " fill="#F4F4EC" transform="translate(2083,45)"/>
<path d="M0 0 C1.32 0.33 2.64 0.66 4 1 C3.34 1 2.68 1 2 1 C2 2.98 2 4.96 2 7 C3.65 7.33 5.3 7.66 7 8 C7 8.66 7 9.32 7 10 C5.35 10 3.7 10 2 10 C1.67 10.66 1.34 11.32 1 12 C0.6596875 10.824375 0.6596875 10.824375 0.3125 9.625 C-0.78125 6.78125 -0.78125 6.78125 -3.625 5.6875 C-4.40875 5.460625 -5.1925 5.23375 -6 5 C-6 4.34 -6 3.68 -6 3 C-4.02 3 -2.04 3 0 3 C0 2.01 0 1.02 0 0 Z " fill="#493740" transform="translate(2276,48)"/>
<path d="M0 0 C0.66 0 1.32 0 2 0 C2 2.31 2 4.62 2 7 C0.35 7.33 -1.3 7.66 -3 8 C-3 6.68 -3 5.36 -3 4 C-3.66 4 -4.32 4 -5 4 C-5 5.98 -5 7.96 -5 10 C-5.66 10 -6.32 10 -7 10 C-7.125 7.125 -7.125 7.125 -7 4 C-5 2 -5 2 -2.375 1.875 C-1.59125 1.91625 -0.8075 1.9575 0 2 C0 1.34 0 0.68 0 0 Z " fill="#A3B7CD" transform="translate(2303,51)"/>
<path d="M0 0 C0 1.98 0 3.96 0 6 C-2.31 5.67 -4.62 5.34 -7 5 C-7 5.99 -7 6.98 -7 8 C-7.66 8 -8.32 8 -9 8 C-9 5.69 -9 3.38 -9 1 C-5.846632 0.29925156 -3.27275026 0 0 0 Z " fill="#313238" transform="translate(296,45)"/>
<path d="M0 0 C0 1.65 0 3.3 0 5 C0.66 5 1.32 5 2 5 C2 5.99 2 6.98 2 8 C0.68 8 -0.64 8 -2 8 C-2.33 6.35 -2.66 4.7 -3 3 C-3.66 3 -4.32 3 -5 3 C-5.33 4.65 -5.66 6.3 -6 8 C-6.33 8 -6.66 8 -7 8 C-7 5.69 -7 3.38 -7 1 C-4.50935112 0.31292445 -2.62113708 0 0 0 Z " fill="#C7C0B9" transform="translate(2248,53)"/>
<path d="M0 0 C0.66 0 1.32 0 2 0 C3.03590199 5.05002222 3.10251672 9.87416389 3 15 C2.67 14.01 2.34 13.02 2 12 C1.34 12 0.68 12 0 12 C0 11.34 0 10.68 0 10 C-0.66 10 -1.32 10 -2 10 C-2 9.01 -2 8.02 -2 7 C-1.34 7 -0.68 7 0 7 C0 4.69 0 2.38 0 0 Z " fill="#5D3A25" transform="translate(2061,46)"/>
<path d="M0 0 C0.99 0 1.98 0 3 0 C3 4.29 3 8.58 3 13 C2.01 13 1.02 13 0 13 C0 8.71 0 4.42 0 0 Z " fill="#BCDDEC" transform="translate(2290,48)"/>
<path d="M0 0 C0.99 0 1.98 0 3 0 C2.67 2.31 2.34 4.62 2 7 C1.34 7 0.68 7 0 7 C0 7.99 0 8.98 0 10 C-0.66 10 -1.32 10 -2 10 C-2 9.01 -2 8.02 -2 7 C-3.65 7 -5.3 7 -7 7 C-6.360625 6.71125 -5.72125 6.4225 -5.0625 6.125 C-2.84793921 5.17176549 -2.84793921 5.17176549 -2 3 C-1.34 3 -0.68 3 0 3 C0 2.01 0 1.02 0 0 Z " fill="#35363B" transform="translate(229,43)"/>
<path d="M0 0 C0.66 0 1.32 0 2 0 C2 1.98 2 3.96 2 6 C3.65 6.33 5.3 6.66 7 7 C7 7.99 7 8.98 7 10 C4.69 9.67 2.38 9.34 0 9 C-0.33 9.66 -0.66 10.32 -1 11 C-0.67 7.37 -0.34 3.74 0 0 Z " fill="#304B61" transform="translate(2266,49)"/>
<path d="M0 0 C0.99 0 1.98 0 3 0 C2.67 0.99 2.34 1.98 2 3 C1.34 3 0.68 3 0 3 C0 4.65 0 6.3 0 8 C0.99 7.67 1.98 7.34 3 7 C3.66 7.66 4.32 8.32 5 9 C2.69 9.33 0.38 9.66 -2 10 C-2 8.02 -2 6.04 -2 4 C-3.98 4 -5.96 4 -8 4 C-7.67 3.34 -7.34 2.68 -7 2 C-4.69 2 -2.38 2 0 2 C0 1.34 0 0.68 0 0 Z " fill="#5A5753" transform="translate(284,51)"/>
<path d="M0 0 C0.99 0 1.98 0 3 0 C3 1.65 3 3.3 3 5 C4.65 5 6.3 5 8 5 C8 5.66 8 6.32 8 7 C6.35 7 4.7 7 3 7 C3 7.99 3 8.98 3 10 C2.34 10 1.68 10 1 10 C-0.1577506 6.52674819 -0.06866652 3.63932552 0 0 Z " fill="#E2EDFF" transform="translate(1993,51)"/>
<path d="M0 0 C1.32 0.33 2.64 0.66 4 1 C4 1.66 4 2.32 4 3 C4.66 3 5.32 3 6 3 C6 3.99 6 4.98 6 6 C6.99 6.33 7.98 6.66 9 7 C8.67 7.66 8.34 8.32 8 9 C4.86493389 8.66410006 3.974751 7.97334828 1.75 5.625 C0 3 0 3 0 0 Z " fill="#B2B4B9" transform="translate(2120,48)"/>
<path d="M0 0 C3.875 0.875 3.875 0.875 5 2 C5.04063832 3.66617115 5.042721 5.33388095 5 7 C3.35 7 1.7 7 0 7 C0 4.69 0 2.38 0 0 Z " fill="#8B8577" transform="translate(2053,46)"/>
<path d="M0 0 C0.33 0 0.66 0 1 0 C1.33 4.62 1.66 9.24 2 14 C0.02 14 -1.96 14 -4 14 C-2.68 13.67 -1.36 13.34 0 13 C0 12.01 0 11.02 0 10 C-0.66 10 -1.32 10 -2 10 C-2 8.35 -2 6.7 -2 5 C-1.34 5 -0.68 5 0 5 C0 3.35 0 1.7 0 0 Z " fill="#44312A" transform="translate(2250,48)"/>
<path d="M0 0 C2.64 0 5.28 0 8 0 C8 0.99 8 1.98 8 3 C6.02 3 4.04 3 2 3 C2.33 3.99 2.66 4.98 3 6 C2.01 6 1.02 6 0 6 C0 4.02 0 2.04 0 0 Z " fill="#D9DAD6" transform="translate(2268,48)"/>
<path d="M0 0 C1.32 0 2.64 0 4 0 C5.125 4.75 5.125 4.75 4 7 C2.68 7 1.36 7 0 7 C0 4.69 0 2.38 0 0 Z " fill="#847486" transform="translate(2241,46)"/>
<path d="M0 0 C1.98 0 3.96 0 6 0 C6 1.98 6 3.96 6 6 C5.34 6 4.68 6 4 6 C4 4.68 4 3.36 4 2 C3.01 2 2.02 2 1 2 C1 4.97 1 7.94 1 11 C0.34 10.67 -0.32 10.34 -1 10 C-0.67 6.7 -0.34 3.4 0 0 Z " fill="#535559" transform="translate(218,43)"/>
<path d="M0 0 C0 2.64 0 5.28 0 8 C-0.66 8 -1.32 8 -2 8 C-2.33 8.66 -2.66 9.32 -3 10 C-3.144375 8.88625 -3.28875 7.7725 -3.4375 6.625 C-3.78372035 3.17857953 -3.78372035 3.17857953 -5 1 C-3 0 -3 0 0 0 Z " fill="#DAE0D8" transform="translate(2061,45)"/>
<path d="M0 0 C0.66 0 1.32 0 2 0 C4.29648649 2.5614657 5 3.47967572 5 7 C5.66 7 6.32 7 7 7 C7 7.99 7 8.98 7 10 C5.68 9.67 4.36 9.34 3 9 C2.67 7.02 2.34 5.04 2 3 C1.34 3 0.68 3 0 3 C0 2.01 0 1.02 0 0 Z " fill="#35373C" transform="translate(25,46)"/>
<path d="M0 0 C1.65 0.33 3.3 0.66 5 1 C5 1.66 5 2.32 5 3 C4.34 3 3.68 3 3 3 C2.67 4.32 2.34 5.64 2 7 C-0.31 7 -2.62 7 -5 7 C-5 6.34 -5 5.68 -5 5 C-2.525 5.495 -2.525 5.495 0 6 C0 4.02 0 2.04 0 0 Z " fill="#4A4C50" transform="translate(222,53)"/>
<path d="M0 0 C2.31 0 4.62 0 7 0 C7 0.99 7 1.98 7 3 C5.02 3 3.04 3 1 3 C1 3.66 1 4.32 1 5 C0.34 5 -0.32 5 -1 5 C-0.67 3.35 -0.34 1.7 0 0 Z " fill="#DBDBD8" transform="translate(2280,48)"/>
<path d="M0 0 C1.65 0 3.3 0 5 0 C5.33 0.99 5.66 1.98 6 3 C5.67 3.66 5.34 4.32 5 5 C3.35 5 1.7 5 0 5 C0 3.35 0 1.7 0 0 Z " fill="#0C6DFF" transform="translate(1996,46)"/>
<path d="M0 0 C0.66 0.33 1.32 0.66 2 1 C0.71451591 2.33929505 -0.57858155 3.67128643 -1.875 5 C-2.59429688 5.7425 -3.31359375 6.485 -4.0546875 7.25 C-6 9 -6 9 -8 9 C-7.67 7.68 -7.34 6.36 -7 5 C-6.34 5 -5.68 5 -5 5 C-5 4.34 -5 3.68 -5 3 C-2.625 1.3125 -2.625 1.3125 0 0 Z " fill="#0557D1" transform="translate(1989,36)"/>
<path d="M0 0 C0.33 0.66 0.66 1.32 1 2 C1.66 2 2.32 2 3 2 C3 2.66 3 3.32 3 4 C3.66 4 4.32 4 5 4 C5.33 5.98 5.66 7.96 6 10 C5.01 9.67 4.02 9.34 3 9 C3 7.68 3 6.36 3 5 C2.34 5 1.68 5 1 5 C0.67 3.35 0.34 1.7 0 0 Z " fill="#323438" transform="translate(32,56)"/>
<path d="M0 0 C0.66 0 1.32 0 2 0 C2 2.31 2 4.62 2 7 C0.35 7.33 -1.3 7.66 -3 8 C-3 7.01 -3 6.02 -3 5 C-2.01 4.67 -1.02 4.34 0 4 C-0.33 3.34 -0.66 2.68 -1 2 C-0.67 1.34 -0.34 0.68 0 0 Z " fill="#6A8BA2" transform="translate(2303,51)"/>
<path d="M0 0 C0.99 0.495 0.99 0.495 2 1 C1.67 1.99 1.34 2.98 1 4 C2.98 4 4.96 4 7 4 C7.33 4.66 7.66 5.32 8 6 C2.25 7.125 2.25 7.125 0 6 C0 4.02 0 2.04 0 0 Z " fill="#B0C0CC" transform="translate(2278,49)"/>
<path d="M0 0 C0.99 0.33 1.98 0.66 3 1 C2.01 1.66 1.02 2.32 0 3 C0 2.01 0 1.02 0 0 Z M-3 3 C-2.01 3.33 -1.02 3.66 0 4 C-1.375 6.5 -1.375 6.5 -3 9 C-3.66 9 -4.32 9 -5 9 C-5 7.35 -5 5.7 -5 4 C-4.34 3.67 -3.68 3.34 -3 3 Z " fill="#282426" transform="translate(289,50)"/>
<path d="M0 0 C2.475 0.495 2.475 0.495 5 1 C5 2.32 5 3.64 5 5 C3.35 5 1.7 5 0 5 C0 3.35 0 1.7 0 0 Z " fill="#838580" transform="translate(2290,43)"/>
<path d="M0 0 C2.475 0.495 2.475 0.495 5 1 C5 2.32 5 3.64 5 5 C3.35 5 1.7 5 0 5 C0 3.35 0 1.7 0 0 Z " fill="#4D5B76" transform="translate(2086,46)"/>
<path d="M0 0 C0.99 0 1.98 0 3 0 C3 3.3 3 6.6 3 10 C2.34 10 1.68 10 1 10 C0.67 6.7 0.34 3.4 0 0 Z " fill="#E9D8B5" transform="translate(2253,48)"/>
<path d="M0 0 C0 0.66 0 1.32 0 2 C-0.639375 2.28875 -1.27875 2.5775 -1.9375 2.875 C-4.15206079 3.82823451 -4.15206079 3.82823451 -5 6 C-6.65 5.67 -8.3 5.34 -10 5 C-10 4.34 -10 3.68 -10 3 C-8.35 3 -6.7 3 -5 3 C-5 2.34 -5 1.68 -5 1 C-2 0 -2 0 0 0 Z " fill="#3D3733" transform="translate(284,48)"/>
<path d="M0 0 C0.66 0 1.32 0 2 0 C2 0.66 2 1.32 2 2 C3.65 2 5.3 2 7 2 C7 2.99 7 3.98 7 5 C5.35 5 3.7 5 2 5 C1.34 3.35 0.68 1.7 0 0 Z " fill="#99ADB6" transform="translate(2056,56)"/>
<path d="M0 0 C1.65 0 3.3 0 5 0 C5 1.32 5 2.64 5 4 C3.35 4 1.7 4 0 4 C0 2.68 0 1.36 0 0 Z " fill="#333557" transform="translate(2086,54)"/>
<path d="M0 0 C2.31 0 4.62 0 7 0 C7.33 0.66 7.66 1.32 8 2 C5.36 2.33 2.72 2.66 0 3 C0 2.01 0 1.02 0 0 Z " fill="#CED3D4" transform="translate(2298,48)"/>
<path d="M0 0 C0.66 0 1.32 0 2 0 C2 1.32 2 2.64 2 4 C-0.31 4.33 -2.62 4.66 -5 5 C-5 4.01 -5 3.02 -5 2 C-3.35 2 -1.7 2 0 2 C0 1.34 0 0.68 0 0 Z " fill="#94A2B3" transform="translate(2283,56)"/>
<path d="M0 0 C0.66 0 1.32 0 2 0 C2 1.32 2 2.64 2 4 C2.66 4.33 3.32 4.66 4 5 C4 5.66 4 6.32 4 7 C3.34 7 2.68 7 2 7 C1.34 7.66 0.68 8.32 0 9 C-1.10844919 5.67465243 -0.84454356 3.37817425 0 0 Z " fill="#515357" transform="translate(33,49)"/>
<path d="M0 0 C0.99 0 1.98 0 3 0 C3 0.99 3 1.98 3 3 C2.34 3 1.68 3 1 3 C1 3.99 1 4.98 1 6 C0.01 6 -0.98 6 -2 6 C-2 5.01 -2 4.02 -2 3 C-1.34 3 -0.68 3 0 3 C0 2.01 0 1.02 0 0 Z " fill="#27292D" transform="translate(229,43)"/>
<path d="M0 0 C0.33 0.66 0.66 1.32 1 2 C0.67 2.99 0.34 3.98 0 5 C-1.65 5.33 -3.3 5.66 -5 6 C-5 5.34 -5 4.68 -5 4 C-4.34 4 -3.68 4 -3 4 C-3 3.01 -3 2.02 -3 1 C-2.01 0.67 -1.02 0.34 0 0 Z " fill="#6D6F72" transform="translate(25,59)"/>
<path d="M0 0 C1.65 0 3.3 0 5 0 C4.67 1.65 4.34 3.3 4 5 C2.68 5 1.36 5 0 5 C0 4.34 0 3.68 0 3 C0.66 2.67 1.32 2.34 2 2 C1.34 1.34 0.68 0.68 0 0 Z " fill="#A4A6AB" transform="translate(2126,53)"/>
<path d="M0 0 C0.99 0 1.98 0 3 0 C3 0.66 3 1.32 3 2 C3.99 2.33 4.98 2.66 6 3 C5 4 5 4 2.4375 4.0625 C1.2309375 4.0315625 1.2309375 4.0315625 0 4 C0 2.68 0 1.36 0 0 Z " fill="#99C2FF" transform="translate(1996,51)"/>
</svg>
