<?xml version="1.0" encoding="UTF-8"?>
<svg version="1.1" xmlns="http://www.w3.org/2000/svg" width="180" height="136">
<path d="M0 0 C59.4 0 118.8 0 180 0 C180 44.88 180 89.76 180 136 C120.6 136 61.2 136 0 136 C0 91.12 0 46.24 0 0 Z " fill="#000000" transform="translate(0,0)"/>
<path d="M0 0 C1.11455566 -0.00630432 2.22911133 -0.01260864 3.37744141 -0.019104 C4.58577637 -0.01505554 5.79411133 -0.01100708 7.0390625 -0.00683594 C8.89217041 -0.00970612 8.89217041 -0.00970612 10.78271484 -0.01263428 C14.06997657 -0.01434704 17.35705037 -0.00627793 20.64428711 0.00488281 C22.6620078 0.00878509 24.67955451 0.00489736 26.69726562 -0.00195312 C30.56128078 -0.01427098 34.42503678 -0.01282072 38.2890625 -0.00683594 C39.49739746 -0.0108844 40.70573242 -0.01493286 41.95068359 -0.019104 C43.06523926 -0.01279968 44.17979492 -0.00649536 45.328125 0 C46.80466553 0.00238678 46.80466553 0.00238678 48.31103516 0.00482178 C50.6640625 0.25878906 50.6640625 0.25878906 52.6640625 2.25878906 C52.90457153 4.20767212 52.90457153 4.20767212 52.89111328 6.61669922 C52.89096222 7.51748199 52.89081116 8.41826477 52.89065552 9.34634399 C52.88033295 10.32034149 52.87001038 11.29433899 52.859375 12.29785156 C52.8565451 13.29384369 52.85371521 14.28983582 52.85079956 15.31600952 C52.8395809 18.50539025 52.81447331 21.69449284 52.7890625 24.88378906 C52.77903488 27.04263918 52.76990865 29.20149369 52.76171875 31.36035156 C52.73963611 36.65992605 52.70614208 41.95933769 52.6640625 47.25878906 C50.08394605 48.54884729 48.2171441 48.39286541 45.328125 48.40405273 C44.21356934 48.41043259 43.09901367 48.41681244 41.95068359 48.42338562 C40.13818115 48.42505486 40.13818115 48.42505486 38.2890625 48.42675781 C37.05365723 48.43008621 35.81825195 48.43341461 34.54541016 48.43684387 C31.92936578 48.44191397 29.31331491 48.44425217 26.69726562 48.4440918 C24.00839549 48.44401029 21.31969478 48.45098752 18.63085938 48.46459961 C14.76687359 48.48283937 10.90308692 48.48782462 7.0390625 48.48925781 C5.22656006 48.50003609 5.22656006 48.50003609 3.37744141 48.5110321 C1.70560791 48.50641716 1.70560791 48.50641716 0 48.50170898 C-0.98436035 48.503134 -1.9687207 48.50455902 -2.98291016 48.50602722 C-5.3359375 48.25878906 -5.3359375 48.25878906 -7.3359375 46.25878906 C-7.58990479 44.36132812 -7.58990479 44.36132812 -7.59472656 42.02441406 C-7.60103088 41.15010742 -7.60733521 40.27580078 -7.61383057 39.375 C-7.6097821 38.42915039 -7.60573364 37.48330078 -7.6015625 36.50878906 C-7.60347595 35.53973633 -7.6053894 34.57068359 -7.60736084 33.57226562 C-7.60872329 31.52115622 -7.60502268 29.47003821 -7.59667969 27.41894531 C-7.58598109 24.27161367 -7.59657304 21.12485286 -7.609375 17.97753906 C-7.60805342 15.98795446 -7.60549105 13.99837022 -7.6015625 12.00878906 C-7.60561096 11.06293945 -7.60965942 10.11708984 -7.61383057 9.14257812 C-7.60752625 8.26827148 -7.60122192 7.39396484 -7.59472656 6.49316406 C-7.59313538 5.72198242 -7.59154419 4.95080078 -7.58990479 4.15625 C-6.98282255 -0.37943196 -3.77326341 0.00609936 0 0 Z " fill="#010101" transform="translate(108.3359375,74.7412109375)"/>
<path d="M0 0 C0.98436035 0.00142502 1.9687207 0.00285004 2.98291016 0.00431824 C4.09746582 0.00124161 5.21202148 -0.00183502 6.36035156 -0.00500488 C8.172854 0.00577339 8.172854 0.00577339 10.02197266 0.01676941 C11.25737793 0.01722763 12.4927832 0.01768585 13.765625 0.01815796 C17.05289495 0.02195979 20.33997278 0.03497908 23.62719727 0.05162048 C26.97233332 0.06506491 30.3174355 0.06189636 33.66259766 0.06169128 C36.19905799 0.06660714 38.73551676 0.07243575 41.27197266 0.07926941 C43.0844751 0.08093864 43.0844751 0.08093864 44.93359375 0.0826416 C46.04814941 0.08902145 47.16270508 0.09540131 48.31103516 0.10197449 C49.29539551 0.10578629 50.27975586 0.10959808 51.29394531 0.11352539 C53.64697266 0.24723816 53.64697266 0.24723816 55.64697266 1.24723816 C55.69756896 7.61927409 55.73266222 13.99125846 55.75683594 20.3634491 C55.76691054 22.5324141 55.78057063 24.70136547 55.79785156 26.87028503 C55.82203588 29.98294942 55.83344098 33.09543467 55.84228516 36.20817566 C55.85260773 37.18217316 55.8629303 38.15617065 55.87356567 39.15968323 C55.87379227 40.51085739 55.87379227 40.51085739 55.87402344 41.889328 C55.87846466 42.68430695 55.88290588 43.47928589 55.88748169 44.2983551 C55.64697266 46.24723816 55.64697266 46.24723816 53.64697266 48.24723816 C51.29394531 48.50120544 51.29394531 48.50120544 48.31103516 48.50602722 C47.19647949 48.51233154 46.08192383 48.51863586 44.93359375 48.52513123 C43.72525879 48.52108276 42.51692383 48.5170343 41.27197266 48.51286316 C39.41886475 48.51573334 39.41886475 48.51573334 37.52832031 48.5186615 C34.24105859 48.52037426 30.95398478 48.51230515 27.66674805 48.50114441 C25.64902736 48.49724213 23.63148065 48.50112987 21.61376953 48.50798035 C17.74975437 48.5202982 13.88599838 48.51884794 10.02197266 48.51286316 C8.8136377 48.51691162 7.60530273 48.52096008 6.36035156 48.52513123 C4.68851807 48.51567474 4.68851807 48.51567474 2.98291016 48.50602722 C1.9985498 48.50443604 1.01418945 48.50284485 0 48.50120544 C-2.35302734 48.24723816 -2.35302734 48.24723816 -4.35302734 46.24723816 C-4.60699463 44.34977722 -4.60699463 44.34977722 -4.61181641 42.01286316 C-4.61812073 41.13855652 -4.62442505 40.26424988 -4.63092041 39.3634491 C-4.62687195 38.41759949 -4.62282349 37.47174988 -4.61865234 36.49723816 C-4.6205658 35.52818542 -4.62247925 34.55913269 -4.62445068 33.56071472 C-4.62581314 31.50960531 -4.62211252 29.4584873 -4.61376953 27.40739441 C-4.60307094 24.26006277 -4.61366288 21.11330196 -4.62646484 17.96598816 C-4.62514326 15.97640356 -4.62258089 13.98681932 -4.61865234 11.99723816 C-4.62270081 11.05138855 -4.62674927 10.10553894 -4.63092041 9.13102722 C-4.62461609 8.25672058 -4.61831177 7.38241394 -4.61181641 6.48161316 C-4.61022522 5.71043152 -4.60863403 4.93924988 -4.60699463 4.1446991 C-4.19678729 1.07992482 -2.97970624 0.3130848 0 0 Z " fill="#010101" transform="translate(105.35302734375,12.752761840820313)"/>
<path d="M0 0 C1.11455566 -0.00637985 2.22911133 -0.0127597 3.37744141 -0.01933289 C4.58577637 -0.02044571 5.79411133 -0.02155853 7.0390625 -0.02270508 C8.27446777 -0.02603348 9.50987305 -0.02936188 10.78271484 -0.03279114 C13.39875922 -0.03786123 16.01481009 -0.04019944 18.63085938 -0.04003906 C21.31972951 -0.03995755 24.00843022 -0.04693479 26.69726562 -0.06054688 C30.56125141 -0.07878663 34.42503808 -0.08377188 38.2890625 -0.08520508 C39.49739746 -0.09239059 40.70573242 -0.09957611 41.95068359 -0.10697937 C43.62251709 -0.10236443 43.62251709 -0.10236443 45.328125 -0.09765625 C46.31248535 -0.09908127 47.2968457 -0.10050629 48.31103516 -0.10197449 C50.6640625 0.14526367 50.6640625 0.14526367 52.6640625 2.14526367 C52.91802979 4.04272461 52.91802979 4.04272461 52.92285156 6.37963867 C52.92915588 7.25394531 52.93546021 8.12825195 52.94195557 9.02905273 C52.9379071 9.97490234 52.93385864 10.92075195 52.9296875 11.89526367 C52.93255768 13.34884277 52.93255768 13.34884277 52.93548584 14.83178711 C52.93684829 16.88289652 52.93314768 18.93401453 52.92480469 20.98510742 C52.91410609 24.13243906 52.92469804 27.27919987 52.9375 30.42651367 C52.93617842 32.41609827 52.93361605 34.40568251 52.9296875 36.39526367 C52.93373596 37.34111328 52.93778442 38.28696289 52.94195557 39.26147461 C52.93565125 40.13578125 52.92934692 41.01008789 52.92285156 41.91088867 C52.92126038 42.68207031 52.91966919 43.45325195 52.91802979 44.24780273 C52.6640625 46.14526367 52.6640625 46.14526367 50.6640625 48.14526367 C48.31103516 48.39923096 48.31103516 48.39923096 45.328125 48.40405273 C44.21356934 48.41035706 43.09901367 48.41666138 41.95068359 48.42315674 C40.74234863 48.41910828 39.53401367 48.41505981 38.2890625 48.41088867 C36.43595459 48.41375885 36.43595459 48.41375885 34.54541016 48.41668701 C31.25814843 48.41839978 27.97107463 48.41033066 24.68383789 48.39916992 C22.6661172 48.39526765 20.64857049 48.39915538 18.63085938 48.40600586 C14.76684422 48.41832371 10.90308822 48.41687345 7.0390625 48.41088867 C5.83072754 48.41493713 4.62239258 48.4189856 3.37744141 48.42315674 C1.70560791 48.41370026 1.70560791 48.41370026 0 48.40405273 C-0.98436035 48.40246155 -1.9687207 48.40087036 -2.98291016 48.39923096 C-5.3359375 48.14526367 -5.3359375 48.14526367 -7.3359375 46.14526367 C-7.57644653 44.19638062 -7.57644653 44.19638062 -7.56298828 41.78735352 C-7.56283722 40.88657074 -7.56268616 39.98578796 -7.56253052 39.05770874 C-7.55220795 38.08371124 -7.54188538 37.10971375 -7.53125 36.10620117 C-7.5284201 35.11020905 -7.52559021 34.11421692 -7.52267456 33.08804321 C-7.5114559 29.89866249 -7.48634831 26.7095599 -7.4609375 23.52026367 C-7.45090988 21.36141355 -7.44178365 19.20255904 -7.43359375 17.04370117 C-7.41151111 11.74412669 -7.37801708 6.44471504 -7.3359375 1.14526367 C-4.75582105 -0.14479455 -2.8890191 0.01118732 0 0 Z " fill="#010101" transform="translate(26.3359375,12.854736328125)"/>
<path d="M0 0 C1.11455566 -0.00953201 2.22911133 -0.01906403 3.37744141 -0.02888489 C4.58577637 -0.02797348 5.79411133 -0.02706207 7.0390625 -0.02612305 C8.27446777 -0.03040817 9.50987305 -0.0346933 10.78271484 -0.03910828 C14.06996781 -0.0463356 17.35703859 -0.04321666 20.64428711 -0.03753662 C22.66206055 -0.03784149 24.67954097 -0.04788355 26.69726562 -0.06152344 C30.56133946 -0.08592263 34.42492151 -0.09018229 38.2890625 -0.08862305 C40.10156494 -0.10243767 40.10156494 -0.10243767 41.95068359 -0.11653137 C43.62251709 -0.10718819 43.62251709 -0.10718819 45.328125 -0.09765625 C46.31248535 -0.09828568 47.2968457 -0.0989151 48.31103516 -0.0995636 C49.47578369 0.08567619 49.47578369 0.08567619 50.6640625 0.2746582 C52.72676863 3.3687174 52.91543585 4.02981644 52.92285156 7.53076172 C52.92915588 8.38497208 52.93546021 9.23918243 52.94195557 10.11927795 C52.9379071 11.0380925 52.93385864 11.95690704 52.9296875 12.90356445 C52.93255768 14.32172707 52.93255768 14.32172707 52.93548584 15.76853943 C52.93684668 17.7665941 52.93315728 19.76465764 52.92480469 21.76269531 C52.91409194 24.82873273 52.92470955 27.89418578 52.9375 30.96020508 C52.93617862 32.8996595 52.93361667 34.83911356 52.9296875 36.77856445 C52.93373596 37.69940323 52.93778442 38.620242 52.94195557 39.56898499 C52.93565125 40.42004318 52.92934692 41.27110138 52.92285156 42.14794922 C52.92126038 42.89834976 52.91966919 43.64875031 52.91802979 44.42189026 C52.6640625 46.2746582 52.6640625 46.2746582 50.6640625 48.2746582 C48.31103516 48.52189636 48.31103516 48.52189636 45.328125 48.51757812 C44.21356934 48.52065475 43.09901367 48.52373138 41.95068359 48.52690125 C40.74234863 48.51971573 39.53401367 48.51253021 38.2890625 48.50512695 C37.05365723 48.50466873 35.81825195 48.50421051 34.54541016 48.5037384 C31.25814021 48.49993658 27.97106238 48.48691728 24.68383789 48.47027588 C21.33870184 48.45683145 17.99359965 48.46 14.6484375 48.46020508 C12.11197716 48.45528922 9.5755184 48.44946061 7.0390625 48.44262695 C5.83072754 48.44151413 4.62239258 48.44040131 3.37744141 48.43925476 C2.26288574 48.43287491 1.14833008 48.42649506 0 48.41992188 C-0.98436035 48.41611008 -1.9687207 48.41229828 -2.98291016 48.40837097 C-5.3359375 48.2746582 -5.3359375 48.2746582 -7.3359375 47.2746582 C-7.3865338 40.90262228 -7.42162707 34.5306379 -7.44580078 28.15844727 C-7.45587539 25.98948226 -7.46953548 23.82053089 -7.48681641 21.65161133 C-7.51100073 18.53894695 -7.52240582 15.42646169 -7.53125 12.3137207 C-7.54157257 11.33972321 -7.55189514 10.36572571 -7.56253052 9.36221313 C-7.56268158 8.46143036 -7.56283264 7.56064758 -7.56298828 6.63256836 C-7.5674295 5.83758942 -7.57187073 5.04261047 -7.57644653 4.22354126 C-7.01199535 -0.35029669 -3.8045636 0.01780762 0 0 Z " fill="#010101" transform="translate(26.3359375,74.725341796875)"/>
<path d="M0 0 C1.11455566 -0.00630432 2.22911133 -0.01260864 3.37744141 -0.019104 C4.58577637 -0.01505554 5.79411133 -0.01100708 7.0390625 -0.00683594 C8.89217041 -0.00970612 8.89217041 -0.00970612 10.78271484 -0.01263428 C14.06997657 -0.01434704 17.35705037 -0.00627793 20.64428711 0.00488281 C22.6620078 0.00878509 24.67955451 0.00489736 26.69726562 -0.00195312 C30.56128078 -0.01427098 34.42503678 -0.01282072 38.2890625 -0.00683594 C39.49739746 -0.0108844 40.70573242 -0.01493286 41.95068359 -0.019104 C43.06523926 -0.01279968 44.17979492 -0.00649536 45.328125 0 C46.80466553 0.00238678 46.80466553 0.00238678 48.31103516 0.00482178 C50.6640625 0.25878906 50.6640625 0.25878906 52.6640625 2.25878906 C52.90457153 4.20767212 52.90457153 4.20767212 52.89111328 6.61669922 C52.89096222 7.51748199 52.89081116 8.41826477 52.89065552 9.34634399 C52.88033295 10.32034149 52.87001038 11.29433899 52.859375 12.29785156 C52.8565451 13.29384369 52.85371521 14.28983582 52.85079956 15.31600952 C52.8395809 18.50539025 52.81447331 21.69449284 52.7890625 24.88378906 C52.77903488 27.04263918 52.76990865 29.20149369 52.76171875 31.36035156 C52.73963611 36.65992605 52.70614208 41.95933769 52.6640625 47.25878906 C50.08394605 48.54884729 48.2171441 48.39286541 45.328125 48.40405273 C44.21356934 48.41043259 43.09901367 48.41681244 41.95068359 48.42338562 C40.13818115 48.42505486 40.13818115 48.42505486 38.2890625 48.42675781 C37.05365723 48.43008621 35.81825195 48.43341461 34.54541016 48.43684387 C31.92936578 48.44191397 29.31331491 48.44425217 26.69726562 48.4440918 C24.00839549 48.44401029 21.31969478 48.45098752 18.63085938 48.46459961 C14.76687359 48.48283937 10.90308692 48.48782462 7.0390625 48.48925781 C5.22656006 48.50003609 5.22656006 48.50003609 3.37744141 48.5110321 C1.70560791 48.50641716 1.70560791 48.50641716 0 48.50170898 C-0.98436035 48.503134 -1.9687207 48.50455902 -2.98291016 48.50602722 C-5.3359375 48.25878906 -5.3359375 48.25878906 -7.3359375 46.25878906 C-7.58990479 44.36132812 -7.58990479 44.36132812 -7.59472656 42.02441406 C-7.60103088 41.15010742 -7.60733521 40.27580078 -7.61383057 39.375 C-7.6097821 38.42915039 -7.60573364 37.48330078 -7.6015625 36.50878906 C-7.60347595 35.53973633 -7.6053894 34.57068359 -7.60736084 33.57226562 C-7.60872329 31.52115622 -7.60502268 29.47003821 -7.59667969 27.41894531 C-7.58598109 24.27161367 -7.59657304 21.12485286 -7.609375 17.97753906 C-7.60805342 15.98795446 -7.60549105 13.99837022 -7.6015625 12.00878906 C-7.60561096 11.06293945 -7.60965942 10.11708984 -7.61383057 9.14257812 C-7.60752625 8.26827148 -7.60122192 7.39396484 -7.59472656 6.49316406 C-7.59313538 5.72198242 -7.59154419 4.95080078 -7.58990479 4.15625 C-6.98282255 -0.37943196 -3.77326341 0.00609936 0 0 Z M0.6640625 8.25878906 C0.6640625 18.81878906 0.6640625 29.37878906 0.6640625 40.25878906 C15.5140625 40.25878906 30.3640625 40.25878906 45.6640625 40.25878906 C45.6640625 29.69878906 45.6640625 19.13878906 45.6640625 8.25878906 C30.8140625 8.25878906 15.9640625 8.25878906 0.6640625 8.25878906 Z " fill="#414141" transform="translate(108.3359375,74.7412109375)"/>
<path d="M0 0 C0.98436035 0.00142502 1.9687207 0.00285004 2.98291016 0.00431824 C4.09746582 0.00124161 5.21202148 -0.00183502 6.36035156 -0.00500488 C8.172854 0.00577339 8.172854 0.00577339 10.02197266 0.01676941 C11.25737793 0.01722763 12.4927832 0.01768585 13.765625 0.01815796 C17.05289495 0.02195979 20.33997278 0.03497908 23.62719727 0.05162048 C26.97233332 0.06506491 30.3174355 0.06189636 33.66259766 0.06169128 C36.19905799 0.06660714 38.73551676 0.07243575 41.27197266 0.07926941 C43.0844751 0.08093864 43.0844751 0.08093864 44.93359375 0.0826416 C46.04814941 0.08902145 47.16270508 0.09540131 48.31103516 0.10197449 C49.29539551 0.10578629 50.27975586 0.10959808 51.29394531 0.11352539 C53.64697266 0.24723816 53.64697266 0.24723816 55.64697266 1.24723816 C55.69756896 7.61927409 55.73266222 13.99125846 55.75683594 20.3634491 C55.76691054 22.5324141 55.78057063 24.70136547 55.79785156 26.87028503 C55.82203588 29.98294942 55.83344098 33.09543467 55.84228516 36.20817566 C55.85260773 37.18217316 55.8629303 38.15617065 55.87356567 39.15968323 C55.87379227 40.51085739 55.87379227 40.51085739 55.87402344 41.889328 C55.87846466 42.68430695 55.88290588 43.47928589 55.88748169 44.2983551 C55.64697266 46.24723816 55.64697266 46.24723816 53.64697266 48.24723816 C51.29394531 48.50120544 51.29394531 48.50120544 48.31103516 48.50602722 C47.19647949 48.51233154 46.08192383 48.51863586 44.93359375 48.52513123 C43.72525879 48.52108276 42.51692383 48.5170343 41.27197266 48.51286316 C39.41886475 48.51573334 39.41886475 48.51573334 37.52832031 48.5186615 C34.24105859 48.52037426 30.95398478 48.51230515 27.66674805 48.50114441 C25.64902736 48.49724213 23.63148065 48.50112987 21.61376953 48.50798035 C17.74975437 48.5202982 13.88599838 48.51884794 10.02197266 48.51286316 C8.8136377 48.51691162 7.60530273 48.52096008 6.36035156 48.52513123 C4.68851807 48.51567474 4.68851807 48.51567474 2.98291016 48.50602722 C1.9985498 48.50443604 1.01418945 48.50284485 0 48.50120544 C-2.35302734 48.24723816 -2.35302734 48.24723816 -4.35302734 46.24723816 C-4.60699463 44.34977722 -4.60699463 44.34977722 -4.61181641 42.01286316 C-4.61812073 41.13855652 -4.62442505 40.26424988 -4.63092041 39.3634491 C-4.62687195 38.41759949 -4.62282349 37.47174988 -4.61865234 36.49723816 C-4.6205658 35.52818542 -4.62247925 34.55913269 -4.62445068 33.56071472 C-4.62581314 31.50960531 -4.62211252 29.4584873 -4.61376953 27.40739441 C-4.60307094 24.26006277 -4.61366288 21.11330196 -4.62646484 17.96598816 C-4.62514326 15.97640356 -4.62258089 13.98681932 -4.61865234 11.99723816 C-4.62270081 11.05138855 -4.62674927 10.10553894 -4.63092041 9.13102722 C-4.62461609 8.25672058 -4.61831177 7.38241394 -4.61181641 6.48161316 C-4.61022522 5.71043152 -4.60863403 4.93924988 -4.60699463 4.1446991 C-4.19678729 1.07992482 -2.97970624 0.3130848 0 0 Z M3.64697266 8.24723816 C3.64697266 18.80723816 3.64697266 29.36723816 3.64697266 40.24723816 C18.49697266 40.24723816 33.34697266 40.24723816 48.64697266 40.24723816 C48.64697266 29.68723816 48.64697266 19.12723816 48.64697266 8.24723816 C33.79697266 8.24723816 18.94697266 8.24723816 3.64697266 8.24723816 Z " fill="#414141" transform="translate(105.35302734375,12.752761840820313)"/>
<path d="M0 0 C1.11455566 -0.00637985 2.22911133 -0.0127597 3.37744141 -0.01933289 C4.58577637 -0.02044571 5.79411133 -0.02155853 7.0390625 -0.02270508 C8.27446777 -0.02603348 9.50987305 -0.02936188 10.78271484 -0.03279114 C13.39875922 -0.03786123 16.01481009 -0.04019944 18.63085938 -0.04003906 C21.31972951 -0.03995755 24.00843022 -0.04693479 26.69726562 -0.06054688 C30.56125141 -0.07878663 34.42503808 -0.08377188 38.2890625 -0.08520508 C39.49739746 -0.09239059 40.70573242 -0.09957611 41.95068359 -0.10697937 C43.62251709 -0.10236443 43.62251709 -0.10236443 45.328125 -0.09765625 C46.31248535 -0.09908127 47.2968457 -0.10050629 48.31103516 -0.10197449 C50.6640625 0.14526367 50.6640625 0.14526367 52.6640625 2.14526367 C52.91802979 4.04272461 52.91802979 4.04272461 52.92285156 6.37963867 C52.92915588 7.25394531 52.93546021 8.12825195 52.94195557 9.02905273 C52.9379071 9.97490234 52.93385864 10.92075195 52.9296875 11.89526367 C52.93255768 13.34884277 52.93255768 13.34884277 52.93548584 14.83178711 C52.93684829 16.88289652 52.93314768 18.93401453 52.92480469 20.98510742 C52.91410609 24.13243906 52.92469804 27.27919987 52.9375 30.42651367 C52.93617842 32.41609827 52.93361605 34.40568251 52.9296875 36.39526367 C52.93373596 37.34111328 52.93778442 38.28696289 52.94195557 39.26147461 C52.93565125 40.13578125 52.92934692 41.01008789 52.92285156 41.91088867 C52.92126038 42.68207031 52.91966919 43.45325195 52.91802979 44.24780273 C52.6640625 46.14526367 52.6640625 46.14526367 50.6640625 48.14526367 C48.31103516 48.39923096 48.31103516 48.39923096 45.328125 48.40405273 C44.21356934 48.41035706 43.09901367 48.41666138 41.95068359 48.42315674 C40.74234863 48.41910828 39.53401367 48.41505981 38.2890625 48.41088867 C36.43595459 48.41375885 36.43595459 48.41375885 34.54541016 48.41668701 C31.25814843 48.41839978 27.97107463 48.41033066 24.68383789 48.39916992 C22.6661172 48.39526765 20.64857049 48.39915538 18.63085938 48.40600586 C14.76684422 48.41832371 10.90308822 48.41687345 7.0390625 48.41088867 C5.83072754 48.41493713 4.62239258 48.4189856 3.37744141 48.42315674 C1.70560791 48.41370026 1.70560791 48.41370026 0 48.40405273 C-0.98436035 48.40246155 -1.9687207 48.40087036 -2.98291016 48.39923096 C-5.3359375 48.14526367 -5.3359375 48.14526367 -7.3359375 46.14526367 C-7.57644653 44.19638062 -7.57644653 44.19638062 -7.56298828 41.78735352 C-7.56283722 40.88657074 -7.56268616 39.98578796 -7.56253052 39.05770874 C-7.55220795 38.08371124 -7.54188538 37.10971375 -7.53125 36.10620117 C-7.5284201 35.11020905 -7.52559021 34.11421692 -7.52267456 33.08804321 C-7.5114559 29.89866249 -7.48634831 26.7095599 -7.4609375 23.52026367 C-7.45090988 21.36141355 -7.44178365 19.20255904 -7.43359375 17.04370117 C-7.41151111 11.74412669 -7.37801708 6.44471504 -7.3359375 1.14526367 C-4.75582105 -0.14479455 -2.8890191 0.01118732 0 0 Z M-0.3359375 8.14526367 C-0.3359375 18.70526367 -0.3359375 29.26526367 -0.3359375 40.14526367 C14.5140625 40.14526367 29.3640625 40.14526367 44.6640625 40.14526367 C44.6640625 29.58526367 44.6640625 19.02526367 44.6640625 8.14526367 C29.8140625 8.14526367 14.9640625 8.14526367 -0.3359375 8.14526367 Z " fill="#414141" transform="translate(26.3359375,12.854736328125)"/>
<path d="M0 0 C1.11455566 -0.00953201 2.22911133 -0.01906403 3.37744141 -0.02888489 C4.58577637 -0.02797348 5.79411133 -0.02706207 7.0390625 -0.02612305 C8.27446777 -0.03040817 9.50987305 -0.0346933 10.78271484 -0.03910828 C14.06996781 -0.0463356 17.35703859 -0.04321666 20.64428711 -0.03753662 C22.66206055 -0.03784149 24.67954097 -0.04788355 26.69726562 -0.06152344 C30.56133946 -0.08592263 34.42492151 -0.09018229 38.2890625 -0.08862305 C40.10156494 -0.10243767 40.10156494 -0.10243767 41.95068359 -0.11653137 C43.62251709 -0.10718819 43.62251709 -0.10718819 45.328125 -0.09765625 C46.31248535 -0.09828568 47.2968457 -0.0989151 48.31103516 -0.0995636 C49.47578369 0.08567619 49.47578369 0.08567619 50.6640625 0.2746582 C52.72676863 3.3687174 52.91543585 4.02981644 52.92285156 7.53076172 C52.92915588 8.38497208 52.93546021 9.23918243 52.94195557 10.11927795 C52.9379071 11.0380925 52.93385864 11.95690704 52.9296875 12.90356445 C52.93255768 14.32172707 52.93255768 14.32172707 52.93548584 15.76853943 C52.93684668 17.7665941 52.93315728 19.76465764 52.92480469 21.76269531 C52.91409194 24.82873273 52.92470955 27.89418578 52.9375 30.96020508 C52.93617862 32.8996595 52.93361667 34.83911356 52.9296875 36.77856445 C52.93373596 37.69940323 52.93778442 38.620242 52.94195557 39.56898499 C52.93565125 40.42004318 52.92934692 41.27110138 52.92285156 42.14794922 C52.92126038 42.89834976 52.91966919 43.64875031 52.91802979 44.42189026 C52.6640625 46.2746582 52.6640625 46.2746582 50.6640625 48.2746582 C48.31103516 48.52189636 48.31103516 48.52189636 45.328125 48.51757812 C44.21356934 48.52065475 43.09901367 48.52373138 41.95068359 48.52690125 C40.74234863 48.51971573 39.53401367 48.51253021 38.2890625 48.50512695 C37.05365723 48.50466873 35.81825195 48.50421051 34.54541016 48.5037384 C31.25814021 48.49993658 27.97106238 48.48691728 24.68383789 48.47027588 C21.33870184 48.45683145 17.99359965 48.46 14.6484375 48.46020508 C12.11197716 48.45528922 9.5755184 48.44946061 7.0390625 48.44262695 C5.83072754 48.44151413 4.62239258 48.44040131 3.37744141 48.43925476 C2.26288574 48.43287491 1.14833008 48.42649506 0 48.41992188 C-0.98436035 48.41611008 -1.9687207 48.41229828 -2.98291016 48.40837097 C-5.3359375 48.2746582 -5.3359375 48.2746582 -7.3359375 47.2746582 C-7.3865338 40.90262228 -7.42162707 34.5306379 -7.44580078 28.15844727 C-7.45587539 25.98948226 -7.46953548 23.82053089 -7.48681641 21.65161133 C-7.51100073 18.53894695 -7.52240582 15.42646169 -7.53125 12.3137207 C-7.54157257 11.33972321 -7.55189514 10.36572571 -7.56253052 9.36221313 C-7.56268158 8.46143036 -7.56283264 7.56064758 -7.56298828 6.63256836 C-7.5674295 5.83758942 -7.57187073 5.04261047 -7.57644653 4.22354126 C-7.01199535 -0.35029669 -3.8045636 0.01780762 0 0 Z M-0.3359375 8.2746582 C-0.3359375 18.8346582 -0.3359375 29.3946582 -0.3359375 40.2746582 C14.5140625 40.2746582 29.3640625 40.2746582 44.6640625 40.2746582 C44.6640625 29.7146582 44.6640625 19.1546582 44.6640625 8.2746582 C29.8140625 8.2746582 14.9640625 8.2746582 -0.3359375 8.2746582 Z " fill="#414141" transform="translate(26.3359375,74.725341796875)"/>
</svg>
