<?xml version="1.0" encoding="UTF-8"?>
<svg version="1.1" xmlns="http://www.w3.org/2000/svg" width="96" height="96">
<path d="M0 0 C31.68 0 63.36 0 96 0 C96 31.68 96 63.36 96 96 C64.32 96 32.64 96 0 96 C0 64.32 0 32.64 0 0 Z " fill="#000000" transform="translate(0,0)"/>
<path d="M0 0 C4.55555556 0.55555556 4.55555556 0.55555556 6 2 C6.08748207 3.92667507 6.10697334 5.85651861 6.09765625 7.78515625 C6.09443359 8.95498047 6.09121094 10.12480469 6.08789062 11.33007812 C6.07532227 13.17762695 6.07532227 13.17762695 6.0625 15.0625 C6.05798828 16.29806641 6.05347656 17.53363281 6.04882812 18.80664062 C6.03699608 21.87114117 6.02051173 24.93554721 6 28 C6.77714355 27.98952637 7.55428711 27.97905273 8.35498047 27.96826172 C11.861621 27.92679718 15.36821006 27.90070422 18.875 27.875 C20.09832031 27.85824219 21.32164063 27.84148438 22.58203125 27.82421875 C23.74863281 27.81777344 24.91523437 27.81132813 26.1171875 27.8046875 C27.19597168 27.79421387 28.27475586 27.78374023 29.38623047 27.77294922 C32 28 32 28 34 30 C33.44444444 34.55555556 33.44444444 34.55555556 32 36 C30.07332493 36.08748207 28.14348139 36.10697334 26.21484375 36.09765625 C25.04501953 36.09443359 23.87519531 36.09121094 22.66992188 36.08789062 C21.43822266 36.07951172 20.20652344 36.07113281 18.9375 36.0625 C17.08415039 36.05573242 17.08415039 36.05573242 15.19335938 36.04882812 C12.12885883 36.03699608 9.06445279 36.02051173 6 36 C6.01571045 37.16571533 6.01571045 37.16571533 6.03173828 38.35498047 C6.07320282 41.861621 6.09929578 45.36821006 6.125 48.875 C6.14175781 50.09832031 6.15851562 51.32164063 6.17578125 52.58203125 C6.18544922 54.33193359 6.18544922 54.33193359 6.1953125 56.1171875 C6.21102295 57.73536377 6.21102295 57.73536377 6.22705078 59.38623047 C6 62 6 62 4 64 C-0.55555556 63.44444444 -0.55555556 63.44444444 -2 62 C-2.08748207 60.07332493 -2.10697334 58.14348139 -2.09765625 56.21484375 C-2.09443359 55.04501953 -2.09121094 53.87519531 -2.08789062 52.66992188 C-2.07951172 51.43822266 -2.07113281 50.20652344 -2.0625 48.9375 C-2.05798828 47.70193359 -2.05347656 46.46636719 -2.04882812 45.19335938 C-2.03699608 42.12885883 -2.02051173 39.06445279 -2 36 C-2.77714355 36.01047363 -3.55428711 36.02094727 -4.35498047 36.03173828 C-7.861621 36.07320282 -11.36821006 36.09929578 -14.875 36.125 C-16.09832031 36.14175781 -17.32164063 36.15851562 -18.58203125 36.17578125 C-20.33193359 36.18544922 -20.33193359 36.18544922 -22.1171875 36.1953125 C-23.19597168 36.20578613 -24.27475586 36.21625977 -25.38623047 36.22705078 C-28 36 -28 36 -30 34 C-29.44444444 29.44444444 -29.44444444 29.44444444 -28 28 C-26.07332493 27.91251793 -24.14348139 27.89302666 -22.21484375 27.90234375 C-20.46010742 27.90717773 -20.46010742 27.90717773 -18.66992188 27.91210938 C-16.82237305 27.92467773 -16.82237305 27.92467773 -14.9375 27.9375 C-13.08415039 27.94426758 -13.08415039 27.94426758 -11.19335938 27.95117188 C-8.12885883 27.96300392 -5.06445279 27.97948827 -2 28 C-2.01047363 27.22285645 -2.02094727 26.44571289 -2.03173828 25.64501953 C-2.07320282 22.138379 -2.09929578 18.63178994 -2.125 15.125 C-2.14175781 13.90167969 -2.15851562 12.67835937 -2.17578125 11.41796875 C-2.18222656 10.25136719 -2.18867187 9.08476562 -2.1953125 7.8828125 C-2.20578613 6.80402832 -2.21625977 5.72524414 -2.22705078 4.61376953 C-2 2 -2 2 0 0 Z " fill="#424242" transform="translate(46,16)"/>
</svg>
