<?xml version="1.0" encoding="UTF-8"?>
<svg version="1.1" xmlns="http://www.w3.org/2000/svg" width="1440" height="112">
<path d="M0 0 C475.2 0 950.4 0 1440 0 C1440 36.96 1440 73.92 1440 112 C964.8 112 489.6 112 0 112 C0 75.04 0 38.08 0 0 Z " fill="#EBE5EF" transform="translate(0,0)"/>
<path d="M0 0 C0.33 0 0.66 0 1 0 C1 15.84 1 31.68 1 48 C-15.5 48 -32 48 -49 48 C-49 47.67 -49 47.34 -49 47 C-47.97261719 46.78085938 -46.94523437 46.56171875 -45.88671875 46.3359375 C-30.68450716 42.92864041 -18.0803182 37.0114291 -9.1875 23.625 C-4.7097695 16.13102049 -1.88789941 8.49554735 0 0 Z " fill="#030303" transform="translate(1439,64)"/>
<path d="M0 0 C0.33 0 0.66 0 1 0 C1.20302734 1.27230469 1.20302734 1.27230469 1.41015625 2.5703125 C4.03033989 16.84795986 9.66531741 30.05776199 21.63671875 38.9609375 C29.98556121 44.48025594 38.14513375 48.22938573 48 50 C48 50.33 48 50.66 48 51 C32.16 51 16.32 51 0 51 C0 34.17 0 17.34 0 0 Z " fill="#030303" transform="translate(0,61)"/>
<path d="M0 0 C15.84 0 31.68 0 48 0 C48 16.83 48 33.66 48 51 C47.67 51 47.34 51 47 51 C46.79697266 49.60201172 46.79697266 49.60201172 46.58984375 48.17578125 C44.16262483 33.80141293 38.3180811 21.03752972 26.3984375 12.03515625 C18.14990545 6.54000743 9.63752029 3.14167118 0 1 C0 0.67 0 0.34 0 0 Z " fill="#030303" transform="translate(1392,0)"/>
<path d="M0 0 C15.84 0 31.68 0 48 0 C44.91673913 1.54163044 42.68042214 2.41656367 39.4375 3.25 C24.66194181 7.61748117 14.34376619 16.63205061 7 30 C3.95018299 35.82324436 2.16121496 41.53692197 1 48 C0.67 48 0.34 48 0 48 C0 32.16 0 16.32 0 0 Z " fill="#030303" transform="translate(0,0)"/>
<path d="M0 0 C4.36045847 2.22136563 7.13277421 4.43567029 9 9 C9.40060195 12.64992885 9.33796649 15.94406488 8.21484375 19.453125 C7.70354088 22.15937385 7.70354088 22.15937385 9.80078125 24.421875 C10.62964844 25.19015625 11.45851563 25.9584375 12.3125 26.75 C13.13363281 27.52859375 13.95476562 28.3071875 14.80078125 29.109375 C16.85027076 31.02678232 16.85027076 31.02678232 19 32 C18.34 33.32 17.68 34.64 17 36 C16.34 36 15.68 36 15 36 C13.37890625 34.35546875 13.37890625 34.35546875 11.5625 32.1875 C10.38102081 30.78656679 9.1937496 29.3904923 8 28 C7.34257813 27.11054687 7.34257813 27.11054687 6.671875 26.203125 C4.02307275 24.29697759 1.83160718 25.10194451 -1.3125 25.5625 C-5.64263101 25.99599476 -7.5663173 26.1869322 -11.625 24.4375 C-15.28153263 20.68474282 -16.78637092 17.70903263 -17.4375 12.5 C-16.79222346 7.33778768 -14.70698109 4.42248424 -10.75 1.125 C-7.10164042 -0.36751074 -3.84747819 -0.67896674 0 0 Z " fill="#504C56" transform="translate(1383,38)"/>
<path d="M0 0 C3.22980084 2.886205 4.77566051 4.77859609 5.5625 9.0625 C4.87020639 12.67781108 3.54408967 14.38108416 1 17 C-2.17878694 18.58939347 -4.4956772 18.41576711 -8 18 C-11.68514918 14.7852954 -12.76325283 13.22678081 -13.6875 8.4375 C-12.94172837 4.70864187 -11.9016441 3.09845102 -8.78125 0.890625 C-5.58623678 -0.70688161 -3.46587218 -0.69317444 0 0 Z " fill="#E7E1EB" transform="translate(1383,42)"/>
<path d="M0 0 C0.66 0 1.32 0 2 0 C2 7.92 2 15.84 2 24 C-8 24 -8 24 -10.625 22.5 C-12.55481511 18.99124526 -12.74858575 15.8575082 -12 12 C-10.375 9 -10.375 9 -8 7 C-4.81894588 6.61827351 -2.87470493 6.56264754 0 8 C0 5.36 0 2.72 0 0 Z " fill="#4B4751" transform="translate(206,42)"/>
<path d="M0 0 C3.625 0.1875 3.625 0.1875 6.625 2.1875 C7.00911275 4.797121 7.22793197 7.1933074 7.3125 9.8125 C7.36374023 10.87210938 7.36374023 10.87210938 7.41601562 11.953125 C7.49851308 13.69735688 7.56343335 15.44240395 7.625 17.1875 C5.66733719 17.26832094 3.70873272 17.32660778 1.75 17.375 C0.11417969 17.42720703 0.11417969 17.42720703 -1.5546875 17.48046875 C-2.48539062 17.38378906 -3.41609375 17.28710938 -4.375 17.1875 C-6.375 14.1875 -6.375 14.1875 -6.125 11.625 C-5.375 9.1875 -5.375 9.1875 -3.375 7.1875 C0.25 7.0625 0.25 7.0625 3.625 7.1875 C3.295 5.8675 2.965 4.5475 2.625 3.1875 C-0.39919525 3.77553797 -3.39258453 4.41428118 -6.375 5.1875 C-3.97168508 0.22064917 -3.97168508 0.22064917 0 0 Z " fill="#5B5660" transform="translate(264.375,48.8125)"/>
<path d="M0 0 C0.99 0 1.98 0 3 0 C3 7.59 3 15.18 3 23 C2.01 23 1.02 23 0 23 C0 19.7 0 16.4 0 13 C-3.63 13 -7.26 13 -11 13 C-11 16.3 -11 19.6 -11 23 C-11.99 23 -12.98 23 -14 23 C-14 15.74 -14 8.48 -14 1 C-13.34 1 -12.68 1 -12 1 C-12 3.97 -12 6.94 -12 10 C-8.04 10 -4.08 10 0 10 C0 6.7 0 3.4 0 0 Z " fill="#56515B" transform="translate(129,43)"/>
<path d="M0 0 C3.4375 0.5 3.4375 0.5 5.375 1.625 C6.88234863 4.285027 6.63736253 6.50206205 6.4375 9.5 C2.8075 9.5 -0.8225 9.5 -4.5625 9.5 C-3.4249438 12.09141286 -3.4249438 12.09141286 -1.5625 14.5 C1.59610793 14.97379119 3.39479435 14.51423522 6.4375 13.5 C5.4375 16.5 5.4375 16.5 3.4375 17.5 C-0.36127599 17.85173852 -2.70610153 18.02701444 -6 16 C-8.17241681 12.52413311 -8.31745317 9.43042627 -7.5625 5.5 C-5.46736386 1.47733861 -4.52651457 0.63530029 0 0 Z " fill="#56525C" transform="translate(183.5625,48.5)"/>
<path d="M0 0 C2.375 1.6875 2.375 1.6875 4 4 C4 5.65 4 7.3 4 9 C0.37 9 -3.26 9 -7 9 C-6.34 10.65 -5.68 12.3 -5 14 C-4.2575 14 -3.515 14 -2.75 14 C-0.5 14 1.75 14 4 14 C2.9375 15.5 2.9375 15.5 1 17 C-2.82540234 17.48686939 -5.08477323 17.53974912 -8.4375 15.5625 C-10.7534578 11.7643292 -10.77925942 8.33363657 -10 4 C-7.35478334 -0.1713032 -4.79556761 -0.79926127 0 0 Z " fill="#534F59" transform="translate(250,49)"/>
<path d="M0 0 C11.88 0 23.76 0 36 0 C36 1.32 36 2.64 36 4 C24.12 4 12.24 4 0 4 C0 2.68 0 1.36 0 0 Z " fill="#49454F" transform="translate(38,64)"/>
<path d="M0 0 C11.88 0 23.76 0 36 0 C36 1.32 36 2.64 36 4 C24.12 4 12.24 4 0 4 C0 2.68 0 1.36 0 0 Z " fill="#49454F" transform="translate(38,54)"/>
<path d="M0 0 C11.88 0 23.76 0 36 0 C36 1.32 36 2.64 36 4 C24.12 4 12.24 4 0 4 C0 2.68 0 1.36 0 0 Z " fill="#49454F" transform="translate(38,44)"/>
<path d="M0 0 C1.875 1.125 1.875 1.125 3 3 C3.1875 6.1875 3.1875 6.1875 3 9 C-0.63 9 -4.26 9 -8 9 C-6.8624438 11.59141286 -6.8624438 11.59141286 -5 14 C-1.84139207 14.47379119 -0.04270565 14.01423522 3 13 C2.34 14.32 1.68 15.64 1 17 C-6.33115611 17.48073155 -6.33115611 17.48073155 -9 15.5625 C-10.51368916 11.68367154 -10.66990207 8.10220933 -10 4 C-7.34507849 -0.186607 -4.80760198 -0.71602583 0 0 Z " fill="#4B4751" transform="translate(355,49)"/>
<path d="M0 0 C0.99 0 1.98 0 3 0 C3.33 2.64 3.66 5.28 4 8 C4.33 7.67 4.66 7.34 5 7 C7.9375 6.8125 7.9375 6.8125 11 7 C13 9 13 9 13.1953125 12.4765625 C13.18201493 13.85950968 13.15816232 15.24238654 13.125 16.625 C13.11597656 17.33140625 13.10695313 18.0378125 13.09765625 18.765625 C13.07407603 20.51056098 13.03820461 22.25532295 13 24 C12.01 24 11.02 24 10 24 C9.67 19.38 9.34 14.76 9 10 C7.35 10.33 5.7 10.66 4 11 C3.67 15.29 3.34 19.58 3 24 C2.01 24 1.02 24 0 24 C0 16.08 0 8.16 0 0 Z " fill="#4F4B55" transform="translate(306,42)"/>
<path d="M0 0 C8.3984375 -0.1953125 8.3984375 -0.1953125 11 0 C13 2 13 2 13.1953125 5.4765625 C13.18201493 6.85950968 13.15816232 8.24238654 13.125 9.625 C13.11597656 10.33140625 13.10695312 11.0378125 13.09765625 11.765625 C13.07407603 13.51056098 13.03820461 15.25532295 13 17 C12.01 17 11.02 17 10 17 C9.67 12.38 9.34 7.76 9 3 C7.35 3.33 5.7 3.66 4 4 C3.67 8.29 3.34 12.58 3 17 C2.01 17 1.02 17 0 17 C0 11.39 0 5.78 0 0 Z " fill="#56515B" transform="translate(147,49)"/>
<path d="M0 0 C0.99 0.66 1.98 1.32 3 2 C3 2.99 3 3.98 3 5 C2.4225 4.67 1.845 4.34 1.25 4 C-1.19883862 2.72924102 -1.19883862 2.72924102 -5 3 C-5 3.99 -5 4.98 -5 6 C-4.43410156 6.15855469 -3.86820313 6.31710938 -3.28515625 6.48046875 C-1.07243284 7.18434035 0.94841871 7.90955868 3 9 C4.1875 11.5 4.1875 11.5 4 14 C3.0625 15.8125 3.0625 15.8125 1 17 C-1.80182124 17.36595216 -4.13710135 17.22721418 -7 17 C-7.66 16.34 -8.32 15.68 -9 15 C-9 14.01 -9 13.02 -9 12 C-8.443125 12.33 -7.88625 12.66 -7.3125 13 C-4.69715478 14.1309601 -2.8193354 14.15662974 0 14 C0 13.01 0 12.02 0 11 C-0.56589844 10.79503906 -1.13179687 10.59007812 -1.71484375 10.37890625 C-2.44832031 10.10949219 -3.18179688 9.84007812 -3.9375 9.5625 C-4.66839844 9.29566406 -5.39929688 9.02882813 -6.15234375 8.75390625 C-8 8 -8 8 -9 7 C-9.25 4.5625 -9.25 4.5625 -9 2 C-5.53001271 -0.31332486 -4.07490752 -0.33957563 0 0 Z " fill="#57525C" transform="translate(232,49)"/>
<path d="M0 0 C3.79588866 0.54226981 5.47211993 2.20127563 8 5 C8.66 3.35 9.32 1.7 10 0 C10.99 0 11.98 0 13 0 C12.690625 0.721875 12.38125 1.44375 12.0625 2.1875 C9.98970843 6.9685929 9.98970843 6.9685929 10.83203125 11.87109375 C11.82635746 13.61731328 12.90835318 15.31290946 14 17 C12.68 17 11.36 17 10 17 C9.34 15.68 8.68 14.36 8 13 C7.34 13 6.68 13 6 13 C4.36323743 14.9600281 4.36323743 14.9600281 3 17 C2.01 16.67 1.02 16.34 0 16 C0.680625 15.0925 1.36125 14.185 2.0625 13.25 C4.19046867 10.343854 4.19046867 10.343854 3.9375 8 C2.67418223 5.30492208 1.37897099 2.63803145 0 0 Z " fill="#59555F" transform="translate(362,49)"/>
<path d="M0 0 C2.375 0.75 2.375 0.75 3.375 1.75 C3.54296875 3.74609375 3.54296875 3.74609375 3.5625 6.1875 C3.57667969 6.99058594 3.59085938 7.79367188 3.60546875 8.62109375 C3.375 10.75 3.375 10.75 1.375 12.75 C-1.92214793 12.42028521 -3.2476839 12.1273161 -5.625 9.75 C-6.17686722 3.67946058 -6.17686722 3.67946058 -4.4375 0.75 C-2.625 -0.25 -2.625 -0.25 0 0 Z " fill="#DDD7E1" transform="translate(202.625,51.25)"/>
<path d="M0 0 C2.4375 1.875 2.4375 1.875 4 4 C4 4.66 4 5.32 4 6 C3.01 6 2.02 6 1 6 C0.34 5.01 -0.32 4.02 -1 3 C-2.65 3.33 -4.3 3.66 -6 4 C-6 6.97 -6 9.94 -6 13 C-3.60280568 13.67958603 -3.60280568 13.67958603 -1 14 C-0.34 13.34 0.32 12.68 1 12 C1.99 12.33 2.98 12.66 4 13 C2.9375 15 2.9375 15 1 17 C-2.85097134 17.56014129 -5.05949997 17.55465386 -8.4375 15.5625 C-10.75951705 11.75439204 -10.63791319 8.3457836 -10 4 C-7.97591319 -0.88162114 -4.90419267 -0.68830774 0 0 Z " fill="#524E58" transform="translate(298,49)"/>
<path d="M0 0 C0.99 0 1.98 0 3 0 C3 1.32 3 2.64 3 4 C3.99 4 4.98 4 6 4 C6 4.66 6 5.32 6 6 C5.01 6 4.02 6 3 6 C3 10.29 3 14.58 3 19 C3.99 19 4.98 19 6 19 C6 19.66 6 20.32 6 21 C4.33388095 21.042721 2.66617115 21.04063832 1 21 C0 20 0 20 -0.09765625 16.83984375 C-0.08025391 14.90818359 -0.08025391 14.90818359 -0.0625 12.9375 C-0.05347656 11.64714844 -0.04445313 10.35679688 -0.03515625 9.02734375 C-0.02355469 8.02832031 -0.01195312 7.02929688 0 6 C-0.99 6 -1.98 6 -3 6 C-3 5.34 -3 4.68 -3 4 C-2.01 4 -1.02 4 0 4 C0 2.68 0 1.36 0 0 Z " fill="#59545E" transform="translate(335,45)"/>
<path d="M0 0 C0.99 0 1.98 0 3 0 C3 1.32 3 2.64 3 4 C3.99 4 4.98 4 6 4 C6 4.66 6 5.32 6 6 C5.01 6 4.02 6 3 6 C3 10.29 3 14.58 3 19 C3.99 19 4.98 19 6 19 C6 19.66 6 20.32 6 21 C4.35 21 2.7 21 1 21 C-0.44207941 18.11584117 -0.09394887 15.58278472 -0.0625 12.375 C-0.05347656 11.18648437 -0.04445313 9.99796875 -0.03515625 8.7734375 C-0.02355469 7.85820313 -0.01195312 6.94296875 0 6 C-0.99 6 -1.98 6 -3 6 C-3 5.34 -3 4.68 -3 4 C-2.01 4 -1.02 4 0 4 C0 2.68 0 1.36 0 0 Z " fill="#4F4B55" transform="translate(381,45)"/>
<path d="M0 0 C1.79244141 0.01740234 1.79244141 0.01740234 3.62109375 0.03515625 C5.41740234 0.04869141 5.41740234 0.04869141 7.25 0.0625 C8.17683594 0.07410156 9.10367188 0.08570313 10.05859375 0.09765625 C10.05859375 1.08765625 10.05859375 2.07765625 10.05859375 3.09765625 C6.42859375 3.09765625 2.79859375 3.09765625 -0.94140625 3.09765625 C-0.28140625 4.74765625 0.37859375 6.39765625 1.05859375 8.09765625 C1.80109375 8.09765625 2.54359375 8.09765625 3.30859375 8.09765625 C5.55859375 8.09765625 7.80859375 8.09765625 10.05859375 8.09765625 C8.99609375 9.59765625 8.99609375 9.59765625 7.05859375 11.09765625 C3.12764668 11.5979586 0.95801505 11.69727045 -2.37890625 9.47265625 C-4.35182433 6.47382076 -4.33292969 4.62136717 -3.94140625 1.09765625 C-2.94140625 0.09765625 -2.94140625 0.09765625 0 0 Z " fill="#4C4852" transform="translate(243.94140625,54.90234375)"/>
<path d="M0 0 C0.99 0 1.98 0 3 0 C3 1.32 3 2.64 3 4 C4.32 4 5.64 4 7 4 C7 4.66 7 5.32 7 6 C5.68 6 4.36 6 3 6 C3.33 9.96 3.66 13.92 4 18 C4.99 18.33 5.98 18.66 7 19 C7 19.66 7 20.32 7 21 C5.33388095 21.042721 3.66617115 21.04063832 2 21 C1 20 1 20 0.90234375 16.83984375 C0.91974609 14.90818359 0.91974609 14.90818359 0.9375 12.9375 C0.94652344 11.64714844 0.95554688 10.35679688 0.96484375 9.02734375 C0.97644531 8.02832031 0.98804688 7.02929688 1 6 C0.01 6 -0.98 6 -2 6 C-2 5.34 -2 4.68 -2 4 C-1.34 4 -0.68 4 0 4 C0 2.68 0 1.36 0 0 Z " fill="#534F59" transform="translate(166,45)"/>
<path d="M0 0 C2.64 0 5.28 0 8 0 C8 0.99 8 1.98 8 3 C6.68 3.33 5.36 3.66 4 4 C3.67 8.29 3.34 12.58 3 17 C2.01 17 1.02 17 0 17 C0 11.39 0 5.78 0 0 Z " fill="#57525C" transform="translate(277,49)"/>
<path d="M0 0 C0.66 0.33 1.32 0.66 2 1 C1.67 1.515625 1.34 2.03125 1 2.5625 C-0.40358168 5.98373035 -0.52306944 8.33851392 0 12 C2.88509913 14.42422186 2.88509913 14.42422186 6 16 C6 16.33 6 16.66 6 17 C2.54330418 17.31424507 0.60098323 17.37956836 -2.375 15.5 C-4.61150239 12.0592271 -4.8102783 8.93452446 -4 5 C-2 2 -2 2 0 0 Z " fill="#5A555F" transform="translate(198,49)"/>
<path d="M0 0 C2.875 -0.125 2.875 -0.125 6 0 C8 2 8 2 8.1953125 5.4765625 C8.18201493 6.85950968 8.15816232 8.24238654 8.125 9.625 C8.11597656 10.33140625 8.10695313 11.0378125 8.09765625 11.765625 C8.07407603 13.51056098 8.03820461 15.25532295 8 17 C7.01 17 6.02 17 5 17 C4.67 12.38 4.34 7.76 4 3 C2.68 2.67 1.36 2.34 0 2 C0 1.34 0 0.68 0 0 Z " fill="#5D5862" transform="translate(311,49)"/>
<path d="M0 0 C0.99 0 1.98 0 3 0 C3 5.61 3 11.22 3 17 C2.01 17 1.02 17 0 17 C0 11.39 0 5.78 0 0 Z " fill="#57535D" transform="translate(138,49)"/>
<path d="M0 0 C3.5625 0.5 3.5625 0.5 6 2.375 C7.5625 4.5 7.5625 4.5 7.5625 6.5 C6.5725 6.5 5.5825 6.5 4.5625 6.5 C3.9025 5.51 3.2425 4.52 2.5625 3.5 C0.9125 3.83 -0.7375 4.16 -2.4375 4.5 C-2.7675 6.81 -3.0975 9.12 -3.4375 11.5 C-3.7675 11.5 -4.0975 11.5 -4.4375 11.5 C-4.581875 10.71625 -4.72625 9.9325 -4.875 9.125 C-5.31548925 6.53578982 -5.31548925 6.53578982 -6.4375 4.5 C-4.63984111 1.11617151 -3.88584714 0.56521413 0 0 Z " fill="#534F59" transform="translate(294.4375,48.5)"/>
<path d="M0 0 C1.670625 0.061875 1.670625 0.061875 3.375 0.125 C1.375 1.125 -0.625 2.125 -2.625 3.125 C-2.625 4.445 -2.625 5.765 -2.625 7.125 C-0.975 7.455 0.675 7.785 2.375 8.125 C2.375 8.785 2.375 9.445 2.375 10.125 C-1 10.3125 -1 10.3125 -4.625 10.125 C-6.625 7.125 -6.625 7.125 -6.375 4.5625 C-5.13383596 0.52871688 -4.24020918 0.14621411 0 0 Z " fill="#504C56" transform="translate(264.625,55.875)"/>
<path d="M0 0 C1.4540625 0.0309375 1.4540625 0.0309375 2.9375 0.0625 C2.6075 1.7125 2.2775 3.3625 1.9375 5.0625 C0.2875 5.3925 -1.3625 5.7225 -3.0625 6.0625 C-3.44468767 4.40635343 -3.77645102 2.73792976 -4.0625 1.0625 C-3.0625 0.0625 -3.0625 0.0625 0 0 Z " fill="#E1DBE5" transform="translate(265.0625,57.9375)"/>
<path d="M0 0 C0.99 0 1.98 0 3 0 C3.33 0.66 3.66 1.32 4 2 C4.7425 2 5.485 2 6.25 2 C8.5 2 10.75 2 13 2 C11.9375 3.5 11.9375 3.5 10 5 C5.63293092 5.38991688 3.69486103 5.46324069 0 3 C0 2.01 0 1.02 0 0 Z " fill="#5A5660" transform="translate(241,61)"/>
<path d="M0 0 C1.67542976 0.28604898 3.34385343 0.61781233 5 1 C5.33 2.32 5.66 3.64 6 5 C3.36 5 0.72 5 -2 5 C-1.125 1.125 -1.125 1.125 0 0 Z " fill="#DFD9E3" transform="translate(350,51)"/>
<path d="M0 0 C1.67542976 0.28604898 3.34385343 0.61781233 5 1 C5.33 2.32 5.66 3.64 6 5 C3.36 5 0.72 5 -2 5 C-1.125 1.125 -1.125 1.125 0 0 Z " fill="#E0DBE5" transform="translate(245,51)"/>
<path d="M0 0 C1.65 0.33 3.3 0.66 5 1 C5.33 2.32 5.66 3.64 6 5 C3.03 5 0.06 5 -3 5 C-2.01 3.35 -1.02 1.7 0 0 Z " fill="#E0DAE4" transform="translate(182,51)"/>
<path d="M0 0 C0.66 0.33 1.32 0.66 2 1 C1.34 4.3 0.68 7.6 0 11 C-0.33 11 -0.66 11 -1 11 C-1.144375 10.21625 -1.28875 9.4325 -1.4375 8.625 C-1.87798925 6.03578982 -1.87798925 6.03578982 -3 4 C-2.01 2.68 -1.02 1.36 0 0 Z " fill="#6A656F" transform="translate(291,49)"/>
<path d="M0 0 C-0.66 1.32 -1.32 2.64 -2 4 C-4.64 4 -7.28 4 -10 4 C-7.25346796 1.25346796 -3.91404908 0 0 0 Z " fill="#54505A" transform="translate(358,62)"/>
<path d="M0 0 C2.00720923 0.28674418 4.0085944 0.61866701 6 1 C6.33 2.32 6.66 3.64 7 5 C4.33333333 3.66666667 1.66666667 2.33333333 -1 1 C-0.67 0.67 -0.34 0.34 0 0 Z " fill="#4F4B55" transform="translate(228,49)"/>
<path d="M0 0 C0.66 0.33 1.32 0.66 2 1 C1.01 2.98 0.02 4.96 -1 7 C-1.99 6.67 -2.98 6.34 -4 6 C-2.25 1.125 -2.25 1.125 0 0 Z " fill="#5C5862" transform="translate(349,49)"/>
<path d="M0 0 C-0.33 0.99 -0.66 1.98 -1 3 C-3.31 3.33 -5.62 3.66 -8 4 C-8 3.34 -8 2.68 -8 2 C-2.25 0 -2.25 0 0 0 Z " fill="#504C56" transform="translate(190,62)"/>
</svg>
