<?xml version="1.0" encoding="UTF-8"?>
<svg version="1.1" xmlns="http://www.w3.org/2000/svg" width="384" height="384">
<path d="M0 0 C126.72 0 253.44 0 384 0 C384 126.72 384 253.44 384 384 C257.28 384 130.56 384 0 384 C0 257.28 0 130.56 0 0 Z " fill="#000000" transform="translate(0,0)"/>
<path d="M0 0 C13.99526753 11.50130117 21.11974562 27.63900059 23.6328125 45.23046875 C24.90993731 64.85398262 19.7362382 83.01059187 6.8125 97.99609375 C-5.985785 111.11548268 -22.16982006 119.98908776 -40.7121582 120.65063477 C-60.01353416 120.80588544 -78.36884259 114.88619683 -92.3671875 101.23046875 C-105.58154298 87.27225882 -113.14271669 70.42845313 -112.76538086 51.16088867 C-111.91059344 32.1110078 -104.79221757 15.04664142 -90.875 1.87109375 C-63.62926819 -21.66290068 -28.37287139 -21.20942366 0 0 Z M-88.3671875 11.23046875 C-88.91761719 11.74738281 -89.46804687 12.26429687 -90.03515625 12.796875 C-93.8300026 16.69345986 -96.17010401 21.36343652 -98.6171875 26.16796875 C-98.9589502 26.83642822 -99.30071289 27.5048877 -99.65283203 28.19360352 C-105.80020483 40.75023271 -106.45140774 55.91334311 -102.46484375 69.30078125 C-98.52567431 79.81457869 -93.4721042 88.35920731 -85.3671875 96.23046875 C-84.82707031 96.79121094 -84.28695312 97.35195312 -83.73046875 97.9296875 C-73.21577951 108.02061093 -57.98794943 112.24438774 -43.8046875 112.60546875 C-26.76797891 112.16907765 -12.22475672 105.44002519 -0.3671875 93.23046875 C0.19355469 92.69035156 0.75429687 92.15023437 1.33203125 91.59375 C12.48743517 79.96987768 16.00806998 63.67470492 15.83984375 48.13671875 C14.9880324 32.06480644 7.93774447 19.41274323 -3.3671875 8.23046875 C-3.88410156 7.68003906 -4.40101563 7.12960938 -4.93359375 6.5625 C-15.82146394 -4.0410916 -31.15830049 -8.15668413 -45.8581543 -8.06860352 C-62.97044203 -7.63165414 -76.40019314 -0.86779063 -88.3671875 11.23046875 Z " fill="#1D1D1D" transform="translate(236.3671875,59.76953125)"/>
<path d="M0 0 C1.41292165 -0.00215364 2.82584154 -0.00604279 4.23875427 -0.01150513 C8.02585402 -0.02107754 11.81247157 -0.00605162 15.59951305 0.01440096 C19.58881637 0.03216365 23.57810903 0.02844326 27.56744385 0.02767944 C34.25809649 0.02954335 40.94856599 0.04678703 47.63916016 0.07421875 C55.34813423 0.10571126 63.05690857 0.11621258 70.76594234 0.11474764 C79.01847905 0.11339185 87.27094 0.12729404 95.52345371 0.14564085 C97.8833629 0.14988052 100.24325967 0.15132002 102.6031723 0.15211868 C106.32323438 0.15414323 110.0431321 0.1664788 113.76313972 0.18645096 C115.76115864 0.19497674 117.75921131 0.19396679 119.75724792 0.19256592 C139.74758913 0.33308302 157.11252479 6.41562526 171.96191406 20.11865234 C176.32175565 24.81148361 179.76633156 30.07879753 183.16113281 35.48583984 C183.59425781 36.17419922 184.02738281 36.86255859 184.47363281 37.57177734 C191.54155272 50.21672781 191.75141471 64.24439885 191.57275391 78.30639648 C191.53564065 81.33854954 191.53173979 84.36949624 191.53222656 87.40185547 C191.5224147 89.33220464 191.51076622 91.26254557 191.49707031 93.19287109 C191.49484467 94.097939 191.49261902 95.0030069 191.49032593 95.9355011 C191.47756622 96.76784775 191.46480652 97.6001944 191.45166016 98.45776367 C191.44403656 99.18973465 191.43641296 99.92170563 191.42855835 100.67585754 C191.16113281 102.48583984 191.16113281 102.48583984 189.16113281 104.48583984 C184.60557726 103.93028429 184.60557726 103.93028429 183.16113281 102.48583984 C183.0375281 99.5369298 182.97487645 96.60794511 182.95019531 93.65771484 C182.92207968 91.80614422 182.89341505 89.95458186 182.86425781 88.10302734 C182.82334278 85.18734387 182.78646212 82.27180705 182.75976562 79.35595703 C182.55551968 58.8257185 180.35911601 42.19182236 165.46582031 26.69677734 C151.6705751 13.46269465 136.79117666 9.17552257 118.03515625 9.21118164 C116.62636548 9.20682663 115.21757707 9.20164088 113.80879211 9.19569397 C110.00482751 9.18237478 106.20096269 9.18171755 102.39697933 9.18425727 C99.20906895 9.1853322 96.02117833 9.18043011 92.83327222 9.17565185 C85.30403473 9.16458028 77.77484714 9.16410543 70.24560547 9.17016602 C62.50837013 9.17619886 54.77131696 9.16390696 47.03411269 9.14259595 C40.36540635 9.12491121 33.69675762 9.11898952 27.02802873 9.12223369 C23.05661704 9.12403641 19.08533521 9.12151285 15.11394501 9.10751915 C11.37423555 9.09483359 7.63480728 9.09698478 3.89510155 9.10993004 C1.89022953 9.11337826 -0.11465152 9.10219631 -2.11949158 9.09036255 C-19.63326934 9.19065274 -33.86824749 13.91699178 -46.62792969 26.18115234 C-58.21693616 38.26156545 -64.08635149 52.13235545 -64.18261719 68.82177734 C-64.19723999 69.78234039 -64.21186279 70.74290344 -64.22692871 71.73257446 C-64.28887903 75.81344803 -64.3290201 79.89446185 -64.37060547 83.97558594 C-64.40421793 86.96614773 -64.44932024 89.95638143 -64.49511719 92.94677734 C-64.50039429 93.87380463 -64.50567139 94.80083191 -64.5111084 95.75595093 C-64.52452271 96.61089142 -64.53793701 97.46583191 -64.55175781 98.34667969 C-64.55904907 99.0997641 -64.56634033 99.85284851 -64.57385254 100.62875366 C-64.83886719 102.48583984 -64.83886719 102.48583984 -66.83886719 104.48583984 C-71.39442274 103.93028429 -71.39442274 103.93028429 -72.83886719 102.48583984 C-72.97776654 99.40150797 -73.05219015 96.34136895 -73.07714844 93.25537109 C-73.08522018 92.31336349 -73.09329193 91.3713559 -73.10160828 90.40080261 C-73.1154809 88.39409233 -73.12618874 86.38735813 -73.1340332 84.38061523 C-73.15104313 81.3559623 -73.19487315 78.33246164 -73.23925781 75.30810547 C-73.32838143 64.33545499 -72.87241427 54.82436678 -68.83886719 44.48583984 C-68.5563208 43.75405518 -68.27377441 43.02227051 -67.98266602 42.26831055 C-60.52682393 24.58360075 -47.22364288 12.25426807 -29.83886719 4.48583984 C-19.80449688 1.05412562 -10.61648727 -0.09288069 0 0 Z " fill="#1D1D1D" transform="translate(132.8388671875,235.51416015625)"/>
</svg>
