<?xml version="1.0" encoding="UTF-8"?>
<!DOCTYPE svg PUBLIC "-//W3C//DTD SVG 1.1//EN" "http://www.w3.org/Graphics/SVG/1.1/DTD/svg11.dtd">
<svg xmlns="http://www.w3.org/2000/svg" version="1.1" width="104px" height="90px" style="shape-rendering:geometricPrecision; text-rendering:geometricPrecision; image-rendering:optimizeQuality; fill-rule:evenodd; clip-rule:evenodd" xmlns:xlink="http://www.w3.org/1999/xlink">
<g><path style="opacity:1" fill="#000000" d="M -0.5,-0.5 C 34.1667,-0.5 68.8333,-0.5 103.5,-0.5C 103.5,29.5 103.5,59.5 103.5,89.5C 68.8333,89.5 34.1667,89.5 -0.5,89.5C -0.5,59.5 -0.5,29.5 -0.5,-0.5 Z"/></g>
<g><path style="opacity:1" fill="#1d1d1d" d="M 46.5,6.5 C 58.3382,5.33149 66.8382,9.99815 72,20.5C 74.1289,31.0759 70.2956,38.5759 60.5,43C 48.5051,47.0018 39.0051,43.8351 32,33.5C 28.4456,19.9398 33.279,10.9398 46.5,6.5 Z"/></g>
<g><path style="opacity:1" fill="#000000" d="M 47.5,14.5 C 53.4649,13.7344 58.6316,15.4011 63,19.5C 65.7345,32.7672 60.2345,38.2672 46.5,36C 37.9875,31.8967 36.3208,25.8967 41.5,18C 43.4319,16.5415 45.4319,15.3748 47.5,14.5 Z"/></g>
<g><path style="opacity:1" fill="#1d1d1d" d="M 29.5,51.5 C 44.1705,51.3334 58.8371,51.5001 73.5,52C 87.6144,56.4839 92.7811,65.9839 89,80.5C 87,83.1667 85,83.1667 83,80.5C 82.6667,76.1667 82.3333,71.8333 82,67.5C 80.0096,63.5095 76.8429,61.0095 72.5,60C 58.5,59.3333 44.5,59.3333 30.5,60C 26.1571,61.0095 22.9904,63.5095 21,67.5C 20.6667,71.8333 20.3333,76.1667 20,80.5C 18,83.1667 16,83.1667 14,80.5C 10.4598,65.9354 15.6265,56.2687 29.5,51.5 Z"/></g>
</svg>
