<?xml version="1.0" encoding="UTF-8"?>
<!DOCTYPE svg PUBLIC "-//W3C//DTD SVG 1.1//EN" "http://www.w3.org/Graphics/SVG/1.1/DTD/svg11.dtd">
<svg xmlns="http://www.w3.org/2000/svg" version="1.1" width="96px" height="96px" style="shape-rendering:geometricPrecision; text-rendering:geometricPrecision; image-rendering:optimizeQuality; fill-rule:evenodd; clip-rule:evenodd" xmlns:xlink="http://www.w3.org/1999/xlink">
<g><path style="opacity:1" fill="#000000" d="M -0.5,-0.5 C 31.5,-0.5 63.5,-0.5 95.5,-0.5C 95.5,31.5 95.5,63.5 95.5,95.5C 63.5,95.5 31.5,95.5 -0.5,95.5C -0.5,63.5 -0.5,31.5 -0.5,-0.5 Z"/></g>
<g><path style="opacity:1" fill="#414141" d="M 62.5,3.5 C 81.9957,3.49472 91.4957,13.1614 91,32.5C 89.8608,35.5833 88.5275,38.5833 87,41.5C 81.1667,47.3333 75.3333,53.1667 69.5,59C 56.7966,66.4218 45.6299,64.5885 36,53.5C 35.1667,49 37,47.1667 41.5,48C 46.9394,55.3906 53.9394,57.3906 62.5,54C 68.9689,48.5323 75.1356,42.699 81,36.5C 85.845,24.6948 82.345,16.5282 70.5,12C 67.0717,11.2989 63.7383,11.6323 60.5,13C 56.2002,16.2981 52.2002,19.9648 48.5,24C 44.3333,24.5 42.5,22.6667 43,18.5C 48.3055,11.6637 54.8055,6.66369 62.5,3.5 Z"/></g>
<g><path style="opacity:1" fill="#414141" d="M 33.5,31.5 C 44.9246,29.957 53.5913,33.957 59.5,43.5C 59.1667,45.8333 57.8333,47.1667 55.5,47.5C 52.3852,45.5609 49.3852,43.3943 46.5,41C 40.9668,38.6936 35.6334,39.0269 30.5,42C 25,47.5 19.5,53 14,58.5C 9.19711,68.7158 11.6971,76.5491 21.5,82C 25.8333,84 30.1667,84 34.5,82C 39.0474,77.946 43.7141,74.1127 48.5,70.5C 50.8505,71.0008 52.1839,72.5008 52.5,75C 47.6024,82.5663 40.9357,87.8996 32.5,91C 13.0093,91.5093 3.50926,82.0093 4,62.5C 5.05874,59.3821 6.39207,56.3821 8,53.5C 13.8333,47.6667 19.6667,41.8333 25.5,36C 28.0993,34.205 30.7659,32.705 33.5,31.5 Z"/></g>
</svg>
