<?xml version="1.0" encoding="UTF-8"?>
<!DOCTYPE svg PUBLIC "-//W3C//DTD SVG 1.1//EN" "http://www.w3.org/Graphics/SVG/1.1/DTD/svg11.dtd">
<svg xmlns="http://www.w3.org/2000/svg" version="1.1" width="96px" height="96px" style="shape-rendering:geometricPrecision; text-rendering:geometricPrecision; image-rendering:optimizeQuality; fill-rule:evenodd; clip-rule:evenodd" xmlns:xlink="http://www.w3.org/1999/xlink">
<g><path style="opacity:1" fill="#010101" d="M -0.5,-0.5 C 31.5,-0.5 63.5,-0.5 95.5,-0.5C 95.5,31.5 95.5,63.5 95.5,95.5C 63.5,95.5 31.5,95.5 -0.5,95.5C -0.5,63.5 -0.5,31.5 -0.5,-0.5 Z"/></g>
<g><path style="opacity:1" fill="#414141" d="M 39.5,3.5 C 66.2048,2.08582 83.3715,14.0858 91,39.5C 91.8176,45.9017 91.4842,52.235 90,58.5C 85.5739,65.9082 79.0739,68.7416 70.5,67C 67.6595,65.4136 64.9928,63.5803 62.5,61.5C 53.4671,68.6323 44.1338,69.1323 34.5,63C 26.4501,54.1071 25.6168,44.6071 32,34.5C 40.2708,26.5066 49.2708,25.5066 59,31.5C 60.8451,27.2052 63.5118,26.5385 67,29.5C 67.3333,37.5 67.6667,45.5 68,53.5C 70.4048,59.462 74.5714,60.962 80.5,58C 86.0917,40.4521 81.0917,26.4521 65.5,16C 46.9116,7.44062 31.0783,10.9406 18,26.5C 6.33772,48.4991 10.8377,66.3325 31.5,80C 44.9392,85.6387 57.6059,84.3053 69.5,76C 74.6667,74.5 76.5,76.3333 75,81.5C 55.4941,95.2089 36.3274,94.7089 17.5,80C 2.38554,63.199 -0.114457,44.699 10,24.5C 16.9621,13.4382 26.7954,6.43823 39.5,3.5 Z"/></g>
<g><path style="opacity:1" fill="#010101" d="M 43.5,35.5 C 56.2169,35.2963 61.0502,41.2963 58,53.5C 52.7677,60.1752 46.601,61.1752 39.5,56.5C 33.2658,48.0314 34.5991,41.0314 43.5,35.5 Z"/></g>
</svg>
