<?xml version="1.0" encoding="UTF-8"?>
<!DOCTYPE svg PUBLIC "-//W3C//DTD SVG 1.1//EN" "http://www.w3.org/Graphics/SVG/1.1/DTD/svg11.dtd">
<svg xmlns="http://www.w3.org/2000/svg" version="1.1" width="158px" height="142px" style="shape-rendering:geometricPrecision; text-rendering:geometricPrecision; image-rendering:optimizeQuality; fill-rule:evenodd; clip-rule:evenodd" xmlns:xlink="http://www.w3.org/1999/xlink">
<g><path style="opacity:1" fill="#000000" d="M -0.5,-0.5 C 52.1667,-0.5 104.833,-0.5 157.5,-0.5C 157.5,46.8333 157.5,94.1667 157.5,141.5C 104.833,141.5 52.1667,141.5 -0.5,141.5C -0.5,94.1667 -0.5,46.8333 -0.5,-0.5 Z"/></g>
<g><path style="opacity:1" fill="#404040" d="M 16.5,31.5 C 21.0057,30.5272 23.1724,32.1939 23,36.5C 16.6446,40.2008 14.4779,38.5342 16.5,31.5 Z"/></g>
<g><path style="opacity:1" fill="#424242" d="M 49.5,31.5 C 79.8352,31.3334 110.168,31.5 140.5,32C 141.833,34 141.833,36 140.5,38C 110.167,38.6667 79.8333,38.6667 49.5,38C 48.232,35.8368 48.232,33.6702 49.5,31.5 Z"/></g>
<g><path style="opacity:1" fill="#3f3f3f" d="M 17.5,66.5 C 23.4877,66.664 24.821,69.164 21.5,74C 15.4034,74.1475 14.0701,71.6475 17.5,66.5 Z"/></g>
<g><path style="opacity:1" fill="#424242" d="M 50.5,66.5 C 80.1685,66.3334 109.835,66.5 139.5,67C 142.167,69.3333 142.167,71.6667 139.5,74C 109.833,74.6667 80.1667,74.6667 50.5,74C 47.9142,71.506 47.9142,69.006 50.5,66.5 Z"/></g>
<g><path style="opacity:1" fill="#404040" d="M 16.5,102.5 C 21.0057,101.527 23.1724,103.194 23,107.5C 16.6446,111.201 14.4779,109.534 16.5,102.5 Z"/></g>
<g><path style="opacity:1" fill="#424242" d="M 49.5,102.5 C 79.8352,102.333 110.168,102.5 140.5,103C 141.833,105 141.833,107 140.5,109C 110.167,109.667 79.8333,109.667 49.5,109C 48.232,106.837 48.232,104.67 49.5,102.5 Z"/></g>
</svg>
