<?xml version="1.0" encoding="UTF-8"?>
<!DOCTYPE svg PUBLIC "-//W3C//DTD SVG 1.1//EN" "http://www.w3.org/Graphics/SVG/1.1/DTD/svg11.dtd">
<svg xmlns="http://www.w3.org/2000/svg" version="1.1" width="158px" height="150px" style="shape-rendering:geometricPrecision; text-rendering:geometricPrecision; image-rendering:optimizeQuality; fill-rule:evenodd; clip-rule:evenodd" xmlns:xlink="http://www.w3.org/1999/xlink">
<g><path style="opacity:1" fill="#000000" d="M -0.5,-0.5 C 52.1667,-0.5 104.833,-0.5 157.5,-0.5C 157.5,49.5 157.5,99.5 157.5,149.5C 104.833,149.5 52.1667,149.5 -0.5,149.5C -0.5,99.5 -0.5,49.5 -0.5,-0.5 Z"/></g>
<g><path style="opacity:1" fill="#414141" d="M 51.5,14.5 C 68.5798,12.4524 80.7465,19.1191 88,34.5C 90.6838,57.152 80.6838,69.8187 58,72.5C 37.8482,70.0202 28.1815,58.6869 29,38.5C 32.268,26.4023 39.768,18.4023 51.5,14.5 Z"/></g>
<g><path style="opacity:1" fill="#414141" d="M 102.5,15.5 C 115.285,17.1044 123.785,24.1044 128,36.5C 130.135,54.9038 122.302,66.5705 104.5,71.5C 103.558,71.3918 102.725,71.0585 102,70.5C 101.192,68.4213 101.359,66.4213 102.5,64.5C 119.376,58.7506 124.209,47.7506 117,31.5C 113.687,26.7614 109.187,23.9281 103.5,23C 100.034,20.8064 99.7005,18.3064 102.5,15.5 Z"/></g>
<g><path style="opacity:1" fill="#010101" d="M 52.5,22.5 C 68.9122,20.5147 78.5789,27.5147 81.5,43.5C 78.4621,58.8581 69.1288,65.6914 53.5,64C 37.3011,58.0441 32.8011,47.2108 40,31.5C 43.2991,27.1179 47.4657,24.1179 52.5,22.5 Z"/></g>
<g><path style="opacity:1" fill="#414141" d="M 26.5,89.5 C 48.5025,89.3334 70.5025,89.5 92.5,90C 102.84,93.0069 110.007,99.5069 114,109.5C 115.563,117.087 115.896,124.754 115,132.5C 113.116,134.576 110.949,134.91 108.5,133.5C 107.888,125.821 107.054,118.155 106,110.5C 102.911,103.744 97.7448,99.5771 90.5,98C 68.8333,97.3333 47.1667,97.3333 25.5,98C 18.4171,100.118 13.5837,104.618 11,111.5C 10.6667,118.5 10.3333,125.5 10,132.5C 8.19168,134.396 6.02502,134.896 3.5,134C 2.35256,126.246 2.18589,118.413 3,110.5C 6.97002,99.0228 14.8033,92.0228 26.5,89.5 Z"/></g>
<g><path style="opacity:1" fill="#404040" d="M 128.5,90.5 C 139.79,91.6167 147.956,97.2834 153,107.5C 154.762,116.334 154.928,125.168 153.5,134C 150.975,134.896 148.808,134.396 147,132.5C 151.056,114.597 144.723,102.597 128,96.5C 127.322,94.4024 127.489,92.4024 128.5,90.5 Z"/></g>
</svg>
