<?xml version="1.0" encoding="UTF-8"?>
<svg version="1.1" xmlns="http://www.w3.org/2000/svg" width="82" height="96">
<path d="M0 0 C27.06 0 54.12 0 82 0 C82 31.68 82 63.36 82 96 C54.94 96 27.88 96 0 96 C0 64.32 0 32.64 0 0 Z " fill="#414141" transform="translate(0,0)"/>
<path d="M0 0 C27.06 0 54.12 0 82 0 C82 31.68 82 63.36 82 96 C54.94 96 27.88 96 0 96 C0 64.32 0 32.64 0 0 Z M26 7 C23.04731613 11.47993415 22.88141811 14.73246747 23 20 C21.41058594 19.94779297 21.41058594 19.94779297 19.7890625 19.89453125 C18.40105748 19.86639601 17.01303537 19.83909557 15.625 19.8125 C14.92632812 19.78736328 14.22765625 19.76222656 13.5078125 19.73632812 C11.23252323 19.67021439 11.23252323 19.67021439 8 20 C5.71399972 22.70332305 5.71399972 22.70332305 6.3125 25.125 C6.84578486 26.98593853 6.84578486 26.98593853 8 28 C9.66617115 28.04063832 11.33388095 28.042721 13 28 C12.99111755 28.6882486 12.98223511 29.37649719 12.9730835 30.08560181 C12.88451705 37.25571377 12.82422661 44.42567006 12.78027344 51.59619141 C12.76243175 54.27163375 12.73288951 56.94622016 12.69824219 59.62158203 C12.64966494 63.46918571 12.62701635 67.31620787 12.609375 71.1640625 C12.58872986 72.35802643 12.56808472 73.55199036 12.54681396 74.78213501 C12.54510181 81.13324534 12.57699533 85.25051169 17 90 C20.04160382 92.02773588 20.69009764 92.25606623 24.11669922 92.30639648 C25.35345901 92.33037758 25.35345901 92.33037758 26.61520386 92.35484314 C27.50273346 92.36020584 28.39026306 92.36556854 29.3046875 92.37109375 C30.22081818 92.38012222 31.13694885 92.3891507 32.08084106 92.39845276 C34.0191928 92.41296085 35.95759358 92.42184338 37.89599609 92.42553711 C40.8572877 92.43742887 43.81649231 92.48660392 46.77734375 92.53710938 C48.66144817 92.54657427 50.54556538 92.55380899 52.4296875 92.55859375 C53.31316864 92.57812607 54.19664978 92.59765839 55.10690308 92.61778259 C59.49194653 92.58570417 61.39955757 92.46145021 64.97314453 89.71508789 C68.13888467 85.47439937 69.25150215 82.82746906 69.22705078 77.49707031 C69.22682419 75.84581146 69.22682419 75.84581146 69.22659302 74.16119385 C69.21627045 72.97878113 69.20594788 71.79636841 69.1953125 70.578125 C69.1924826 69.36300232 69.18965271 68.14787964 69.18673706 66.89593506 C69.17553954 63.01385665 69.15043534 59.13200871 69.125 55.25 C69.11496966 52.61849291 69.10584391 49.98698221 69.09765625 47.35546875 C69.07560157 40.90356716 69.04212804 34.45180005 69 28 C69.78375 28.04125 70.5675 28.0825 71.375 28.125 C74.16116119 28.28728734 74.16116119 28.28728734 76 26 C75.71016731 22.69316534 75.71016731 22.69316534 74 20 C71.46950598 19.92686433 68.96695163 19.90752473 66.4375 19.9375 C65.72658203 19.94201172 65.01566406 19.94652344 64.28320312 19.95117188 C62.52209987 19.96299136 60.76103964 19.98092737 59 20 C59.03480469 18.91203125 59.06960937 17.8240625 59.10546875 16.703125 C58.97657554 12.17754134 57.88682201 10.43297753 55 7 C50.43201529 3.32821039 46.09838488 3.54784002 40.5 3.625 C39.65824219 3.61339844 38.81648438 3.60179687 37.94921875 3.58984375 C33.16478643 3.61244737 29.85252056 3.85538941 26 7 Z " fill="#000000" transform="translate(0,0)"/>
<path d="M0 0 C13.2 0 26.4 0 40 0 C40.04583208 7.65395709 40.0856816 15.30744095 40.10986328 22.96142578 C40.11994064 25.56691091 40.1336027 28.17238469 40.15087891 30.77783203 C40.17505102 34.51597899 40.1864656 38.25397685 40.1953125 41.9921875 C40.20563507 43.16304901 40.21595764 44.33391052 40.22659302 45.54025269 C40.22681961 47.161707 40.22681961 47.161707 40.22705078 48.81591797 C40.231492 49.77078094 40.23593323 50.72564392 40.24050903 51.70944214 C40 54 40 54 38 56 C35.20315203 56.17525055 32.5067192 56.23143189 29.7109375 56.1953125 C28.48330185 56.19106766 28.48330185 56.19106766 27.23086548 56.18673706 C24.61209607 56.17552532 21.99366636 56.15041929 19.375 56.125 C17.60156743 56.11497147 15.82812951 56.1058454 14.0546875 56.09765625 C9.70299374 56.07558278 5.3515545 56.04104644 1 56 C-0.27469407 53.45061185 -0.12016184 51.66959002 -0.11352539 48.81591797 C-0.11344986 47.73494843 -0.11337433 46.65397888 -0.11329651 45.54025269 C-0.10813522 44.36939117 -0.10297394 43.19852966 -0.09765625 41.9921875 C-0.0962413 40.79643097 -0.09482635 39.60067444 -0.09336853 38.36868286 C-0.08775663 34.53743013 -0.07520208 30.70623516 -0.0625 26.875 C-0.05748653 24.28255293 -0.05292336 21.69010494 -0.04882812 19.09765625 C-0.03863286 12.7317305 -0.01905967 6.36593015 0 0 Z " fill="#000000" transform="translate(21,28)"/>
<path d="M0 0 C0.73734375 0.00773438 1.4746875 0.01546875 2.234375 0.0234375 C3.34039062 0.01183594 3.34039062 0.01183594 4.46875 0 C9.9810554 0.0201179 9.9810554 0.0201179 12.234375 2.2734375 C12.234375 4.2534375 12.234375 6.2334375 12.234375 8.2734375 C5.634375 8.2734375 -0.965625 8.2734375 -7.765625 8.2734375 C-7.765625 0.64986746 -7.18951605 0.02623911 0 0 Z " fill="#020202" transform="translate(38.765625,11.7265625)"/>
</svg>
