<?xml version="1.0" encoding="UTF-8"?>
<svg version="1.1" xmlns="http://www.w3.org/2000/svg" width="96" height="96">
<path d="M0 0 C31.68 0 63.36 0 96 0 C96 31.68 96 63.36 96 96 C64.32 96 32.64 96 0 96 C0 64.32 0 32.64 0 0 Z " fill="#000000" transform="translate(0,0)"/>
<path d="M0 0 C4.70588235 0.70588235 4.70588235 0.70588235 6 2 C5.93474787 4.76431748 5.80727936 7.4930247 5.625 10.25 C5.58117187 11.01441406 5.53734375 11.77882813 5.4921875 12.56640625 C5.24606441 16.52488589 4.78567227 20.07163867 4 24 C9.28 24 14.56 24 20 24 C20.04898438 22.84242187 20.09796875 21.68484375 20.1484375 20.4921875 C20.22351478 18.9531033 20.29906043 17.4140419 20.375 15.875 C20.42140625 14.73417969 20.42140625 14.73417969 20.46875 13.5703125 C20.702369 9.05367842 21.32654117 5.25847653 23 1 C25.375 0.375 25.375 0.375 28 0 C30 2 30 2 30.01171875 5.73828125 C29.91446186 7.26374893 29.80590385 8.78852786 29.6875 10.3125 C29.63916016 11.07240234 29.59082031 11.83230469 29.54101562 12.61523438 C29.27544934 16.48443428 28.8843734 20.21306773 28 24 C29.13179687 23.97679688 30.26359375 23.95359375 31.4296875 23.9296875 C32.91145175 23.91093099 34.39322312 23.89273066 35.875 23.875 C36.62136719 23.85824219 37.36773437 23.84148438 38.13671875 23.82421875 C40.09194461 23.8066041 42.04742021 23.89679811 44 24 C44.99 24.99 44.99 24.99 46 26 C45.44444444 30.55555556 45.44444444 30.55555556 44 32 C41.13732433 32.07325168 38.299281 32.09238205 35.4375 32.0625 C34.63119141 32.05798828 33.82488281 32.05347656 32.99414062 32.04882812 C30.99606244 32.03700518 28.99802217 32.01906914 27 32 C26.90912109 33.48113281 26.90912109 33.48113281 26.81640625 34.9921875 C26.73261719 36.27351563 26.64882812 37.55484375 26.5625 38.875 C26.48128906 40.15117188 26.40007812 41.42734375 26.31640625 42.7421875 C26 46 26 46 25 48 C25.56509277 47.98952637 26.13018555 47.97905273 26.71240234 47.96826172 C29.26655653 47.92675212 31.82063982 47.9006904 34.375 47.875 C35.26445313 47.85824219 36.15390625 47.84148438 37.0703125 47.82421875 C38.34648437 47.81455078 38.34648437 47.81455078 39.6484375 47.8046875 C40.82672119 47.78897705 40.82672119 47.78897705 42.02880859 47.77294922 C44 48 44 48 46 50 C45.44444444 54.55555556 45.44444444 54.55555556 44 56 C42.5112814 56.08669432 41.018555 56.10703494 39.52734375 56.09765625 C38.62822266 56.09443359 37.72910156 56.09121094 36.80273438 56.08789062 C35.38444336 56.07532227 35.38444336 56.07532227 33.9375 56.0625 C32.98810547 56.05798828 32.03871094 56.05347656 31.06054688 56.04882812 C28.70696935 56.0370011 26.35351523 56.02052025 24 56 C23.95101562 57.15757813 23.90203125 58.31515625 23.8515625 59.5078125 C23.77648522 61.0468967 23.70093957 62.5859581 23.625 64.125 C23.57859375 65.26582031 23.57859375 65.26582031 23.53125 66.4296875 C23.297631 70.94632158 22.67345883 74.74152347 21 79 C18.625 79.625 18.625 79.625 16 80 C14 78 14 78 13.98828125 74.26171875 C14.08553814 72.73625107 14.19409615 71.21147214 14.3125 69.6875 C14.36083984 68.92759766 14.40917969 68.16769531 14.45898438 67.38476562 C14.72862344 63.45622683 15.22085748 59.89571261 16 56 C10.72 56 5.44 56 0 56 C-0.04898438 57.15757813 -0.09796875 58.31515625 -0.1484375 59.5078125 C-0.22351478 61.0468967 -0.29906043 62.5859581 -0.375 64.125 C-0.42140625 65.26582031 -0.42140625 65.26582031 -0.46875 66.4296875 C-0.702369 70.94632158 -1.32654117 74.74152347 -3 79 C-5.375 79.625 -5.375 79.625 -8 80 C-10 78 -10 78 -10.01171875 74.26171875 C-9.91446186 72.73625107 -9.80590385 71.21147214 -9.6875 69.6875 C-9.63916016 68.92759766 -9.59082031 68.16769531 -9.54101562 67.38476562 C-9.27544934 63.51556572 -8.8843734 59.78693227 -8 56 C-9.13179687 56.02320313 -10.26359375 56.04640625 -11.4296875 56.0703125 C-12.91145175 56.08906901 -14.39322312 56.10726934 -15.875 56.125 C-16.62136719 56.14175781 -17.36773437 56.15851563 -18.13671875 56.17578125 C-20.09194461 56.1933959 -22.04742021 56.10320189 -24 56 C-24.66 55.34 -25.32 54.68 -26 54 C-25.44444444 49.44444444 -25.44444444 49.44444444 -24 48 C-21.13732433 47.92674832 -18.299281 47.90761795 -15.4375 47.9375 C-14.63119141 47.94201172 -13.82488281 47.94652344 -12.99414062 47.95117188 C-10.99606244 47.96299482 -8.99802217 47.98093086 -7 48 C-6.90912109 46.51886719 -6.90912109 46.51886719 -6.81640625 45.0078125 C-6.73261719 43.72648437 -6.64882813 42.44515625 -6.5625 41.125 C-6.48128906 39.84882812 -6.40007813 38.57265625 -6.31640625 37.2578125 C-6 34 -6 34 -5 32 C-5.84763916 32.01571045 -5.84763916 32.01571045 -6.71240234 32.03173828 C-9.26655653 32.07324788 -11.82063982 32.0993096 -14.375 32.125 C-15.26445312 32.14175781 -16.15390625 32.15851562 -17.0703125 32.17578125 C-18.34648437 32.18544922 -18.34648437 32.18544922 -19.6484375 32.1953125 C-20.82672119 32.21102295 -20.82672119 32.21102295 -22.02880859 32.22705078 C-24 32 -24 32 -26 30 C-25.44444444 25.44444444 -25.44444444 25.44444444 -24 24 C-22.5112814 23.91330568 -21.018555 23.89296506 -19.52734375 23.90234375 C-18.62822266 23.90556641 -17.72910156 23.90878906 -16.80273438 23.91210938 C-15.85720703 23.92048828 -14.91167969 23.92886719 -13.9375 23.9375 C-12.98810547 23.94201172 -12.03871094 23.94652344 -11.06054688 23.95117188 C-8.70696935 23.9629989 -6.35351523 23.97947975 -4 24 C-3.95101562 22.84242187 -3.90203125 21.68484375 -3.8515625 20.4921875 C-3.77648522 18.9531033 -3.70093957 17.4140419 -3.625 15.875 C-3.57859375 14.73417969 -3.57859375 14.73417969 -3.53125 13.5703125 C-2.98366477 2.98366477 -2.98366477 2.98366477 0 0 Z " fill="#414141" transform="translate(38,8)"/>
<path d="M0 0 C5.28 0 10.56 0 16 0 C15.34 5.28 14.68 10.56 14 16 C8.72 16 3.44 16 -2 16 C-1.34 10.72 -0.68 5.44 0 0 Z " fill="#000000" transform="translate(41,40)"/>
</svg>
